<svg width="35" height="35" viewBox="0 0 35 35" fill="none" xmlns="http://www.w3.org/2000/svg">
<path d="M13.6189 17.6456C13.7164 17.7527 13.7673 17.8941 13.7604 18.0387C13.7536 18.1833 13.6897 18.3193 13.5826 18.4167L12.6704 19.2446C12.4588 19.4617 12.1078 19.4614 11.8941 19.2477L11.5094 18.8629C11.4586 18.8122 11.4184 18.7519 11.3909 18.6856C11.3633 18.6192 11.3492 18.5481 11.3492 18.4763C11.3492 18.4045 11.3633 18.3334 11.3909 18.2671C11.4184 18.2007 11.4586 18.1404 11.5094 18.0897C11.5602 18.0389 11.6205 17.9986 11.6868 17.9711C11.7531 17.9437 11.8242 17.9295 11.896 17.9295C11.9679 17.9295 12.039 17.9437 12.1053 17.9711C12.1716 17.9986 12.2319 18.0389 12.2827 18.0897L12.2997 18.1067L12.8477 17.6093C12.9548 17.5119 13.0962 17.461 13.2408 17.4678C13.3854 17.4746 13.5214 17.5386 13.6189 17.6456ZM23.3653 3.80099H25.8164C25.7943 3.7533 25.7638 3.70997 25.7264 3.67309L23.2749 1.22158C23.238 1.18415 23.1947 1.15365 23.1471 1.13155V3.58272C23.1471 3.64057 23.1702 3.69603 23.2111 3.73694C23.252 3.77785 23.3075 3.80088 23.3653 3.80099ZM9.14466 22.3143V1.53036C9.14466 1.28987 9.34079 1.09375 9.58125 1.09375H22.0533V3.58272C22.0533 4.30664 22.6414 4.89474 23.3653 4.89474H25.8542V22.3143C25.8542 22.5548 25.6582 22.751 25.4177 22.751H9.58125C9.34079 22.751 9.14466 22.5548 9.14466 22.3143ZM14.2169 16.9809C14.2169 16.8679 14.1248 16.7758 14.0118 16.7758H11.0994C10.9864 16.7758 10.8943 16.8679 10.8943 16.9809V19.8934C10.8943 20.0063 10.9864 20.0984 11.0994 20.0984H14.0118C14.1248 20.0984 14.2169 20.0063 14.2169 19.8934V16.9809ZM14.2169 11.5663C14.2169 11.4534 14.1248 11.3613 14.0118 11.3613H11.0994C10.9864 11.3613 10.8943 11.4534 10.8943 11.5663V14.4788C10.8943 14.5917 10.9864 14.6839 11.0994 14.6839H14.0118C14.1248 14.6839 14.2169 14.5917 14.2169 14.4788V11.5663ZM23.6479 19.3395C23.6479 19.1945 23.5903 19.0554 23.4877 18.9528C23.3852 18.8502 23.2461 18.7926 23.101 18.7926H15.9934C15.8483 18.7926 15.7092 18.8502 15.6066 18.9528C15.5041 19.0554 15.4465 19.1945 15.4465 19.3395C15.4465 19.4845 15.5041 19.6236 15.6066 19.7262C15.7092 19.8287 15.8483 19.8864 15.9934 19.8864H23.101C23.1728 19.8864 23.2439 19.8722 23.3103 19.8447C23.3766 19.8173 23.4369 19.777 23.4877 19.7262C23.5385 19.6754 23.5788 19.6151 23.6063 19.5488C23.6338 19.4824 23.6479 19.4113 23.6479 19.3395ZM23.6479 17.5347C23.6479 17.3896 23.5903 17.2505 23.4877 17.148C23.3852 17.0454 23.2461 16.9878 23.101 16.9878H15.9934C15.8483 16.9878 15.7092 17.0454 15.6066 17.148C15.5041 17.2505 15.4465 17.3896 15.4465 17.5347C15.4465 17.6797 15.5041 17.8188 15.6066 17.9214C15.7092 18.0239 15.8483 18.0815 15.9934 18.0815H23.101C23.1728 18.0815 23.2439 18.0674 23.3103 18.0399C23.3766 18.0124 23.4369 17.9722 23.4877 17.9214C23.5385 17.8706 23.5788 17.8103 23.6063 17.744C23.6338 17.6776 23.6479 17.6065 23.6479 17.5347ZM23.6479 13.925C23.6479 13.78 23.5903 13.6409 23.4877 13.5383C23.3852 13.4357 23.2461 13.3782 23.101 13.3782H15.9934C15.8483 13.3782 15.7092 13.4357 15.6066 13.5383C15.5041 13.6409 15.4465 13.78 15.4465 13.925C15.4465 14.0701 15.5041 14.2092 15.6066 14.3117C15.7092 14.4143 15.8483 14.4719 15.9934 14.4719H23.101C23.1728 14.4719 23.2439 14.4578 23.3103 14.4303C23.3766 14.4028 23.4369 14.3625 23.4877 14.3118C23.5385 14.2609 23.5788 14.2007 23.6063 14.1343C23.6338 14.0679 23.6479 13.9968 23.6479 13.925ZM23.6479 12.1202C23.6479 11.9751 23.5903 11.836 23.4877 11.7335C23.3852 11.631 23.2461 11.5733 23.101 11.5733H15.9934C15.8483 11.5733 15.7092 11.631 15.6066 11.7335C15.5041 11.836 15.4465 11.9751 15.4465 12.1202C15.4465 12.2652 15.5041 12.4043 15.6066 12.5069C15.7092 12.6095 15.8483 12.6671 15.9934 12.6671H23.101C23.246 12.6671 23.3851 12.6095 23.4877 12.5069C23.5903 12.4043 23.6479 12.2652 23.6479 12.1202ZM18.2001 4.67605C18.2001 4.82109 18.2578 4.96019 18.3603 5.06276C18.4629 5.16531 18.602 5.22293 18.747 5.22293H21.2783C21.4233 5.22293 21.5625 5.16531 21.665 5.06276C21.7675 4.96019 21.8252 4.82109 21.8252 4.67605C21.8252 4.53102 21.7675 4.39192 21.665 4.28935C21.5625 4.1868 21.4233 4.12918 21.2783 4.12918H18.747C18.602 4.12918 18.4629 4.1868 18.3603 4.28935C18.2578 4.39192 18.2001 4.53102 18.2001 4.67605ZM18.2001 6.72694C18.2001 6.87193 18.2578 7.01102 18.3603 7.11362C18.4629 7.21616 18.602 7.27378 18.747 7.27378H24.2497C24.3947 7.27378 24.5338 7.21616 24.6364 7.11362C24.7389 7.01102 24.7965 6.87193 24.7965 6.72694C24.7965 6.58188 24.7389 6.44276 24.6364 6.3402C24.5338 6.23765 24.3947 6.18003 24.2497 6.18003H18.747C18.602 6.18003 18.4629 6.23765 18.3603 6.3402C18.2578 6.44276 18.2001 6.58188 18.2001 6.72694ZM10.8494 5.38275C10.8494 7.08011 12.2254 8.45619 13.9228 8.45619C15.6202 8.45619 16.9963 7.08011 16.9963 5.38275C16.9963 3.68539 15.6202 2.30932 13.9228 2.30932C12.2254 2.30932 10.8494 3.68539 10.8494 5.38275ZM12.8477 12.1948L12.2997 12.6922L12.2827 12.6752C12.2319 12.6244 12.1716 12.5841 12.1053 12.5566C12.039 12.5292 11.9679 12.515 11.896 12.515C11.8242 12.515 11.7531 12.5292 11.6868 12.5566C11.6205 12.5841 11.5602 12.6244 11.5094 12.6752C11.4586 12.7259 11.4184 12.7862 11.3909 12.8526C11.3633 12.919 11.3492 12.9901 11.3492 13.0618C11.3492 13.1336 11.3633 13.2047 11.3909 13.2711C11.4184 13.3374 11.4586 13.3977 11.5094 13.4485L11.8941 13.8332C12.1078 14.0469 12.4588 14.0472 12.6704 13.8301L13.5826 13.0023C13.6882 12.9045 13.751 12.7689 13.7571 12.625C13.7632 12.4812 13.7124 12.3407 13.6155 12.2343C13.5186 12.1278 13.3835 12.0639 13.2397 12.0565C13.0959 12.0491 12.9551 12.0989 12.8477 12.1948ZM12.2085 7.10383C11.75 6.64987 11.4936 6.02738 11.4936 5.38275C11.4936 4.04106 12.5811 2.9536 13.9227 2.9536C15.2645 2.9536 16.3519 4.04113 16.3519 5.38275C16.3519 6.02738 16.0955 6.64987 15.637 7.10383C15.32 6.47897 14.6714 6.05076 13.9227 6.05076C13.1741 6.05076 12.5255 6.47897 12.2085 7.10383ZM12.9514 4.67667C12.9514 5.21315 13.3863 5.64805 13.9228 5.64805C14.4593 5.64805 14.8942 5.21315 14.8942 4.67667C14.8942 4.14019 14.4593 3.70528 13.9228 3.70528C13.3863 3.70528 12.9514 4.14019 12.9514 4.67667ZM28.3746 10.5297H26.948V12.1819H28.4241C28.4968 12.1821 28.5664 12.211 28.6177 12.2624C28.669 12.3137 28.698 12.3833 28.6983 12.4559V24.746H6.30075V12.456C6.30097 12.3833 6.32991 12.3138 6.38127 12.2624C6.43261 12.2111 6.50223 12.1822 6.57482 12.182H8.05098V10.5297H6.62427C5.53759 10.5297 4.64844 11.4189 4.64844 12.5056V26.0986C4.64844 27.1853 5.53759 28.0745 6.62427 28.0745H13.4605V31.2136H10.4529C9.52622 31.2136 8.76796 31.8195 8.76796 32.5599V33.9062H26.2309V32.5599C26.2309 31.8195 25.4726 31.2136 24.5459 31.2136H21.5384V28.0745H28.3746C29.4613 28.0745 30.3504 27.1853 30.3504 26.0986V12.5055C30.3504 11.4188 29.4613 10.5297 28.3746 10.5297Z" fill="#111111"/>
</svg>
