<svg width="35" height="35" viewBox="0 0 35 35" fill="none" xmlns="http://www.w3.org/2000/svg">
<path d="M26.0565 4.86473V1.1511C26.1288 1.18455 26.1944 1.23075 26.2502 1.28748L29.9645 5.00172C30.0212 5.0576 30.0674 5.12322 30.1009 5.19545H26.3872C26.2995 5.19527 26.2155 5.16036 26.1535 5.09838C26.0916 5.03639 26.0567 4.95238 26.0565 4.86473ZM30.1583 6.28927V33.2447C30.1583 33.6091 29.8611 33.9062 29.4968 33.9062H5.50331C5.13889 33.9062 4.8418 33.6091 4.8418 33.2447V1.75526C4.8418 1.39091 5.13895 1.09375 5.50331 1.09375H24.9628V4.86473C24.9628 5.65059 25.6014 6.2892 26.3873 6.2892L30.1583 6.28927ZM19.8984 8.63379C19.8984 8.70561 19.9125 8.77672 19.94 8.84307C19.9675 8.90942 20.0078 8.96971 20.0585 9.02049C20.1093 9.07127 20.1696 9.11155 20.236 9.13904C20.3023 9.16652 20.3734 9.18066 20.4452 9.18066H25.1009C25.246 9.18066 25.3851 9.12305 25.4876 9.02049C25.5902 8.91793 25.6478 8.77883 25.6478 8.63379C25.6478 8.48875 25.5902 8.34965 25.4876 8.24709C25.3851 8.14453 25.246 8.08691 25.1009 8.08691H20.4452C20.1433 8.08691 19.8984 8.33178 19.8984 8.63379ZM6.66911 9.46251C6.66911 11.0743 7.32249 12.5336 8.37871 13.5898C10.6456 15.8567 14.3664 15.8568 16.6334 13.5898C17.6897 12.5336 18.343 11.0743 18.343 9.46251C18.343 6.23896 15.7296 3.62558 12.506 3.62558C9.28249 3.62558 6.66911 6.23896 6.66911 9.46251ZM8.74983 29.3144C8.74983 28.8051 8.33694 28.3922 7.8276 28.3922C7.31832 28.3922 6.90543 28.8051 6.90543 29.3144C6.90543 29.8238 7.31832 30.2367 7.8276 30.2367C8.33694 30.2367 8.74983 29.8238 8.74983 29.3144ZM8.74983 25.6685C8.74983 25.1591 8.33694 24.7462 7.8276 24.7462C7.31832 24.7462 6.90543 25.1591 6.90543 25.6685C6.90543 26.1778 7.31832 26.5907 7.8276 26.5907C8.33694 26.5906 8.74983 26.1777 8.74983 25.6685ZM8.74983 22.0225C8.74983 21.5132 8.33694 21.1003 7.8276 21.1003C7.31832 21.1003 6.90543 21.5132 6.90543 22.0225C6.90543 22.5319 7.31832 22.9448 7.8276 22.9448C8.33694 22.9447 8.74983 22.5318 8.74983 22.0225ZM8.74983 18.3766C8.74983 17.8672 8.33694 17.4543 7.8276 17.4543C7.31832 17.4543 6.90543 17.8672 6.90543 18.3766C6.90543 18.8859 7.31832 19.2988 7.8276 19.2988C8.33694 19.2987 8.74983 18.8858 8.74983 18.3766ZM28.2843 29.3144C28.2843 29.1694 28.2267 29.0303 28.1241 28.9277C28.0215 28.8252 27.8824 28.7675 27.7374 28.7675H10.823C10.6779 28.7675 10.5388 28.8252 10.4363 28.9277C10.3337 29.0303 10.2761 29.1694 10.2761 29.3144C10.2761 29.4595 10.3337 29.5986 10.4363 29.7011C10.5388 29.8037 10.6779 29.8613 10.823 29.8613H27.7375C27.8825 29.8613 28.0216 29.8036 28.1241 29.7011C28.2267 29.5985 28.2843 29.4594 28.2843 29.3144ZM28.2843 25.6685C28.2843 25.5234 28.2267 25.3843 28.1241 25.2818C28.0215 25.1792 27.8824 25.1216 27.7374 25.1216H10.823C10.6779 25.1216 10.5388 25.1792 10.4363 25.2818C10.3337 25.3843 10.2761 25.5234 10.2761 25.6685C10.2761 25.8135 10.3337 25.9526 10.4363 26.0552C10.5388 26.1577 10.6779 26.2153 10.823 26.2153H27.7375C27.8825 26.2153 28.0216 26.1577 28.1241 26.0551C28.2267 25.9526 28.2843 25.8135 28.2843 25.6685ZM28.2843 22.0225C28.2843 21.8775 28.2267 21.7384 28.1241 21.6358C28.0215 21.5333 27.8824 21.4756 27.7374 21.4756H10.823C10.6779 21.4756 10.5388 21.5333 10.4363 21.6358C10.3337 21.7384 10.2761 21.8775 10.2761 22.0225C10.2761 22.1676 10.3337 22.3067 10.4363 22.4092C10.5388 22.5118 10.6779 22.5694 10.823 22.5694H27.7375C27.8825 22.5694 28.0216 22.5118 28.1241 22.4092C28.2267 22.3066 28.2843 22.1675 28.2843 22.0225ZM28.2843 18.3766C28.2843 18.2315 28.2267 18.0924 28.1241 17.9899C28.0215 17.8873 27.8824 17.8297 27.7374 17.8297H10.823C10.6779 17.8297 10.5388 17.8873 10.4363 17.9899C10.3337 18.0924 10.2761 18.2315 10.2761 18.3766C10.2761 18.5216 10.3337 18.6607 10.4363 18.7633C10.5388 18.8658 10.6779 18.9234 10.823 18.9234H27.7375C27.8825 18.9234 28.0216 18.8658 28.1241 18.7632C28.2267 18.6607 28.2843 18.5216 28.2843 18.3766ZM28.8631 11.3682C28.8631 11.2232 28.8055 11.0841 28.7029 10.9815C28.6003 10.879 28.4612 10.8214 28.3162 10.8214H20.4452C20.3002 10.8214 20.1611 10.879 20.0585 10.9815C19.956 11.0841 19.8984 11.2232 19.8984 11.3682C19.8984 11.5133 19.956 11.6524 20.0585 11.7549C20.1611 11.8575 20.3002 11.9151 20.4452 11.9151H28.3162C28.4612 11.9151 28.6003 11.8575 28.7029 11.7549C28.8055 11.6524 28.8631 11.5133 28.8631 11.3682ZM9.147 12.8114C8.29169 11.9535 7.76279 10.7697 7.76279 9.46244C7.76279 6.84277 9.88631 4.71926 12.506 4.71926C15.1258 4.71926 17.2492 6.84277 17.2492 9.46244C17.2492 10.7697 16.7205 11.9534 15.8651 12.8113C15.2814 11.5395 13.9969 10.6562 12.506 10.6562C11.0151 10.6563 9.73065 11.5395 9.147 12.8114ZM10.6383 8.10482C10.6383 9.13637 11.4745 9.97261 12.506 9.97261C13.5376 9.97261 14.3738 9.13637 14.3738 8.10482C14.3738 7.07328 13.5376 6.23704 12.506 6.23704C11.4745 6.23704 10.6383 7.07328 10.6383 8.10482Z" fill="#F37329"/>
</svg>
