<svg width="35" height="35" viewBox="0 0 35 35" fill="none" xmlns="http://www.w3.org/2000/svg">
<path d="M7.81237 29.6549C7.7801 29.7093 7.73423 29.7544 7.67925 29.7857C7.62428 29.817 7.5621 29.8335 7.49883 29.8335C7.3056 29.8335 7.31654 29.8007 6.40508 28.9111C6.33594 28.842 6.2971 28.7482 6.2971 28.6505C6.2971 28.5527 6.33594 28.4589 6.40508 28.3898C6.47421 28.3206 6.56798 28.2818 6.66576 28.2818C6.76353 28.2818 6.8573 28.3206 6.92643 28.3898L7.42591 28.882L8.15508 27.6752H5.96758V30.3622H8.65091V28.2841L7.81237 29.6549ZM7.81237 29.6549C7.7801 29.7093 7.73423 29.7544 7.67925 29.7857C7.62428 29.817 7.5621 29.8335 7.49883 29.8335C7.3056 29.8335 7.31654 29.8007 6.40508 28.9111C6.33594 28.842 6.2971 28.7482 6.2971 28.6505C6.2971 28.5527 6.33594 28.4589 6.40508 28.3898C6.47421 28.3206 6.56798 28.2818 6.66576 28.2818C6.76353 28.2818 6.8573 28.3206 6.92643 28.3898L7.42591 28.882L8.15508 27.6752H5.96758V30.3622H8.65091V28.2841L7.81237 29.6549ZM7.81237 18.1231C7.7801 18.1775 7.73423 18.2226 7.67925 18.2539C7.62428 18.2853 7.5621 18.3017 7.49883 18.3018C7.3056 18.3018 7.31654 18.2689 6.40508 17.3794C6.33717 17.3111 6.29906 17.2186 6.29906 17.1223C6.29906 17.026 6.33717 16.9336 6.40508 16.8653C6.43897 16.8311 6.47929 16.804 6.52372 16.7855C6.56815 16.767 6.6158 16.7575 6.66393 16.7575C6.71206 16.7575 6.75972 16.767 6.80414 16.7855C6.84857 16.804 6.88889 16.8311 6.92279 16.8653L7.42227 17.3611L8.15143 16.1507H5.96393V18.8377H8.64727V16.7705L7.81237 18.1231ZM7.81237 23.8908C7.77965 23.9446 7.73358 23.9889 7.67864 24.0196C7.62369 24.0503 7.56175 24.0662 7.49883 24.0658C7.29831 24.0658 7.30195 24.0221 6.40508 23.1434C6.33717 23.0751 6.29906 22.9827 6.29906 22.8864C6.29906 22.7901 6.33717 22.6977 6.40508 22.6294C6.43897 22.5952 6.47929 22.5681 6.52372 22.5496C6.56815 22.531 6.6158 22.5215 6.66393 22.5215C6.71206 22.5215 6.75972 22.531 6.80414 22.5496C6.84857 22.5681 6.88889 22.5952 6.92279 22.6294L7.42227 23.1215L8.15143 21.9148H5.96393V24.5981H8.64727V22.52L7.81237 23.8908ZM7.81237 29.6549C7.7801 29.7093 7.73423 29.7544 7.67925 29.7857C7.62428 29.817 7.5621 29.8335 7.49883 29.8335C7.3056 29.8335 7.31654 29.8007 6.40508 28.9111C6.33594 28.842 6.2971 28.7482 6.2971 28.6505C6.2971 28.5527 6.33594 28.4589 6.40508 28.3898C6.47421 28.3206 6.56798 28.2818 6.66576 28.2818C6.76353 28.2818 6.8573 28.3206 6.92643 28.3898L7.42591 28.882L8.15508 27.6752H5.96758V30.3622H8.65091V28.2841L7.81237 29.6549ZM7.81237 18.1231C7.7801 18.1775 7.73423 18.2226 7.67925 18.2539C7.62428 18.2853 7.5621 18.3017 7.49883 18.3018C7.3056 18.3018 7.31654 18.2689 6.40508 17.3794C6.33717 17.3111 6.29906 17.2186 6.29906 17.1223C6.29906 17.026 6.33717 16.9336 6.40508 16.8653C6.43897 16.8311 6.47929 16.804 6.52372 16.7855C6.56815 16.767 6.6158 16.7575 6.66393 16.7575C6.71206 16.7575 6.75972 16.767 6.80414 16.7855C6.84857 16.804 6.88889 16.8311 6.92279 16.8653L7.42227 17.3611L8.15143 16.1507H5.96393V18.8377H8.64727V16.7705L7.81237 18.1231ZM7.81237 23.8908C7.77965 23.9446 7.73358 23.9889 7.67864 24.0196C7.62369 24.0503 7.56175 24.0662 7.49883 24.0658C7.29831 24.0658 7.30195 24.0221 6.40508 23.1434C6.33717 23.0751 6.29906 22.9827 6.29906 22.8864C6.29906 22.7901 6.33717 22.6977 6.40508 22.6294C6.43897 22.5952 6.47929 22.5681 6.52372 22.5496C6.56815 22.531 6.6158 22.5215 6.66393 22.5215C6.71206 22.5215 6.75972 22.531 6.80414 22.5496C6.84857 22.5681 6.88889 22.5952 6.92279 22.6294L7.42227 23.1215L8.15143 21.9148H5.96393V24.5981H8.64727V22.52L7.81237 23.8908ZM7.81237 29.6549C7.7801 29.7093 7.73423 29.7544 7.67925 29.7857C7.62428 29.817 7.5621 29.8335 7.49883 29.8335C7.3056 29.8335 7.31654 29.8007 6.40508 28.9111C6.33594 28.842 6.2971 28.7482 6.2971 28.6505C6.2971 28.5527 6.33594 28.4589 6.40508 28.3898C6.47421 28.3206 6.56798 28.2818 6.66576 28.2818C6.76353 28.2818 6.8573 28.3206 6.92643 28.3898L7.42591 28.882L8.15508 27.6752H5.96758V30.3622H8.65091V28.2841L7.81237 29.6549ZM7.81237 18.1231C7.7801 18.1775 7.73423 18.2226 7.67925 18.2539C7.62428 18.2853 7.5621 18.3017 7.49883 18.3018C7.3056 18.3018 7.31654 18.2689 6.40508 17.3794C6.33717 17.3111 6.29906 17.2186 6.29906 17.1223C6.29906 17.026 6.33717 16.9336 6.40508 16.8653C6.43897 16.8311 6.47929 16.804 6.52372 16.7855C6.56815 16.767 6.6158 16.7575 6.66393 16.7575C6.71206 16.7575 6.75972 16.767 6.80414 16.7855C6.84857 16.804 6.88889 16.8311 6.92279 16.8653L7.42227 17.3611L8.15143 16.1507H5.96393V18.8377H8.64727V16.7705L7.81237 18.1231ZM7.81237 23.8908C7.77965 23.9446 7.73358 23.9889 7.67864 24.0196C7.62369 24.0503 7.56175 24.0662 7.49883 24.0658C7.29831 24.0658 7.30195 24.0221 6.40508 23.1434C6.33717 23.0751 6.29906 22.9827 6.29906 22.8864C6.29906 22.7901 6.33717 22.6977 6.40508 22.6294C6.43897 22.5952 6.47929 22.5681 6.52372 22.5496C6.56815 22.531 6.6158 22.5215 6.66393 22.5215C6.71206 22.5215 6.75972 22.531 6.80414 22.5496C6.84857 22.5681 6.88889 22.5952 6.92279 22.6294L7.42227 23.1215L8.15143 21.9148H5.96393V24.5981H8.64727V22.52L7.81237 23.8908ZM7.81237 29.6549C7.7801 29.7093 7.73423 29.7544 7.67925 29.7857C7.62428 29.817 7.5621 29.8335 7.49883 29.8335C7.3056 29.8335 7.31654 29.8007 6.40508 28.9111C6.33594 28.842 6.2971 28.7482 6.2971 28.6505C6.2971 28.5527 6.33594 28.4589 6.40508 28.3898C6.47421 28.3206 6.56798 28.2818 6.66576 28.2818C6.76353 28.2818 6.8573 28.3206 6.92643 28.3898L7.42591 28.882L8.15508 27.6752H5.96758V30.3622H8.65091V28.2841L7.81237 29.6549ZM7.81237 18.1231C7.7801 18.1775 7.73423 18.2226 7.67925 18.2539C7.62428 18.2853 7.5621 18.3017 7.49883 18.3018C7.3056 18.3018 7.31654 18.2689 6.40508 17.3794C6.33717 17.3111 6.29906 17.2186 6.29906 17.1223C6.29906 17.026 6.33717 16.9336 6.40508 16.8653C6.43897 16.8311 6.47929 16.804 6.52372 16.7855C6.56815 16.767 6.6158 16.7575 6.66393 16.7575C6.71206 16.7575 6.75972 16.767 6.80414 16.7855C6.84857 16.804 6.88889 16.8311 6.92279 16.8653L7.42227 17.3611L8.15143 16.1507H5.96393V18.8377H8.64727V16.7705L7.81237 18.1231ZM7.81237 23.8908C7.77965 23.9446 7.73358 23.9889 7.67864 24.0196C7.62369 24.0503 7.56175 24.0662 7.49883 24.0658C7.29831 24.0658 7.30195 24.0221 6.40508 23.1434C6.33717 23.0751 6.29906 22.9827 6.29906 22.8864C6.29906 22.7901 6.33717 22.6977 6.40508 22.6294C6.43897 22.5952 6.47929 22.5681 6.52372 22.5496C6.56815 22.531 6.6158 22.5215 6.66393 22.5215C6.71206 22.5215 6.75972 22.531 6.80414 22.5496C6.84857 22.5681 6.88889 22.5952 6.92279 22.6294L7.42227 23.1215L8.15143 21.9148H5.96393V24.5981H8.64727V22.52L7.81237 23.8908ZM7.81237 29.6549C7.7801 29.7093 7.73423 29.7544 7.67925 29.7857C7.62428 29.817 7.5621 29.8335 7.49883 29.8335C7.3056 29.8335 7.31654 29.8007 6.40508 28.9111C6.33594 28.842 6.2971 28.7482 6.2971 28.6505C6.2971 28.5527 6.33594 28.4589 6.40508 28.3898C6.47421 28.3206 6.56798 28.2818 6.66576 28.2818C6.76353 28.2818 6.8573 28.3206 6.92643 28.3898L7.42591 28.882L8.15508 27.6752H5.96758V30.3622H8.65091V28.2841L7.81237 29.6549ZM7.81237 18.1231C7.7801 18.1775 7.73423 18.2226 7.67925 18.2539C7.62428 18.2853 7.5621 18.3017 7.49883 18.3018C7.3056 18.3018 7.31654 18.2689 6.40508 17.3794C6.33717 17.3111 6.29906 17.2186 6.29906 17.1223C6.29906 17.026 6.33717 16.9336 6.40508 16.8653C6.43897 16.8311 6.47929 16.804 6.52372 16.7855C6.56815 16.767 6.6158 16.7575 6.66393 16.7575C6.71206 16.7575 6.75972 16.767 6.80414 16.7855C6.84857 16.804 6.88889 16.8311 6.92279 16.8653L7.42227 17.3611L8.15143 16.1507H5.96393V18.8377H8.64727V16.7705L7.81237 18.1231ZM7.81237 23.8908C7.77965 23.9446 7.73358 23.9889 7.67864 24.0196C7.62369 24.0503 7.56175 24.0662 7.49883 24.0658C7.29831 24.0658 7.30195 24.0221 6.40508 23.1434C6.33717 23.0751 6.29906 22.9827 6.29906 22.8864C6.29906 22.7901 6.33717 22.6977 6.40508 22.6294C6.43897 22.5952 6.47929 22.5681 6.52372 22.5496C6.56815 22.531 6.6158 22.5215 6.66393 22.5215C6.71206 22.5215 6.75972 22.531 6.80414 22.5496C6.84857 22.5681 6.88889 22.5952 6.92279 22.6294L7.42227 23.1215L8.15143 21.9148H5.96393V24.5981H8.64727V22.52L7.81237 23.8908ZM7.81237 29.6549C7.7801 29.7093 7.73423 29.7544 7.67925 29.7857C7.62428 29.817 7.5621 29.8335 7.49883 29.8335C7.3056 29.8335 7.31654 29.8007 6.40508 28.9111C6.33594 28.842 6.2971 28.7482 6.2971 28.6505C6.2971 28.5527 6.33594 28.4589 6.40508 28.3898C6.47421 28.3206 6.56798 28.2818 6.66576 28.2818C6.76353 28.2818 6.8573 28.3206 6.92643 28.3898L7.42591 28.882L8.15508 27.6752H5.96758V30.3622H8.65091V28.2841L7.81237 29.6549ZM7.81237 18.1231C7.7801 18.1775 7.73423 18.2226 7.67925 18.2539C7.62428 18.2853 7.5621 18.3017 7.49883 18.3018C7.3056 18.3018 7.31654 18.2689 6.40508 17.3794C6.33717 17.3111 6.29906 17.2186 6.29906 17.1223C6.29906 17.026 6.33717 16.9336 6.40508 16.8653C6.43897 16.8311 6.47929 16.804 6.52372 16.7855C6.56815 16.767 6.6158 16.7575 6.66393 16.7575C6.71206 16.7575 6.75972 16.767 6.80414 16.7855C6.84857 16.804 6.88889 16.8311 6.92279 16.8653L7.42227 17.3611L8.15143 16.1507H5.96393V18.8377H8.64727V16.7705L7.81237 18.1231ZM7.81237 23.8908C7.77965 23.9446 7.73358 23.9889 7.67864 24.0196C7.62369 24.0503 7.56175 24.0662 7.49883 24.0658C7.29831 24.0658 7.30195 24.0221 6.40508 23.1434C6.33717 23.0751 6.29906 22.9827 6.29906 22.8864C6.29906 22.7901 6.33717 22.6977 6.40508 22.6294C6.43897 22.5952 6.47929 22.5681 6.52372 22.5496C6.56815 22.531 6.6158 22.5215 6.66393 22.5215C6.71206 22.5215 6.75972 22.531 6.80414 22.5496C6.84857 22.5681 6.88889 22.5952 6.92279 22.6294L7.42227 23.1215L8.15143 21.9148H5.96393V24.5981H8.64727V22.52L7.81237 23.8908ZM7.81237 29.6549C7.7801 29.7093 7.73423 29.7544 7.67925 29.7857C7.62428 29.817 7.5621 29.8335 7.49883 29.8335C7.3056 29.8335 7.31654 29.8007 6.40508 28.9111C6.33594 28.842 6.2971 28.7482 6.2971 28.6505C6.2971 28.5527 6.33594 28.4589 6.40508 28.3898C6.47421 28.3206 6.56798 28.2818 6.66576 28.2818C6.76353 28.2818 6.8573 28.3206 6.92643 28.3898L7.42591 28.882L8.15508 27.6752H5.96758V30.3622H8.65091V28.2841L7.81237 29.6549ZM20.004 8.31947V0.364258H3.91862C3.72523 0.364258 3.53977 0.441081 3.40302 0.577826C3.26628 0.714571 3.18945 0.900037 3.18945 1.09342V32.1049C3.18945 32.2983 3.26628 32.4837 3.40302 32.6205C3.53977 32.7572 3.72523 32.834 3.91862 32.834H27.2264C27.4198 32.834 27.6053 32.7572 27.742 32.6205C27.8788 32.4837 27.9556 32.2983 27.9556 32.1049V8.31947H20.004ZM16.041 7.92572C16.042 7.85436 16.0639 7.78486 16.1041 7.72585C16.1442 7.66683 16.2008 7.62089 16.2667 7.59372C16.3327 7.56654 16.4053 7.55934 16.4753 7.57299C16.5453 7.58664 16.6098 7.62055 16.6608 7.67051L17.8275 8.83717L18.9941 7.65592C19.0449 7.60473 19.1097 7.56974 19.1804 7.55538C19.2511 7.54102 19.3244 7.54794 19.3911 7.57525C19.4578 7.60257 19.515 7.64906 19.5553 7.70885C19.5956 7.76863 19.6173 7.83903 19.6176 7.91113V11.2434C19.6176 11.3401 19.5792 11.4329 19.5108 11.5012C19.4424 11.5696 19.3497 11.608 19.253 11.608C19.1563 11.608 19.0636 11.5696 18.9952 11.5012C18.9268 11.4329 18.8884 11.3401 18.8884 11.2434V8.80801L18.0863 9.61009C18.018 9.678 17.9256 9.71611 17.8293 9.71611C17.733 9.71611 17.6406 9.678 17.5723 9.61009L16.7702 8.80801V11.258C16.7702 11.3547 16.7318 11.4474 16.6634 11.5158C16.595 11.5842 16.5023 11.6226 16.4056 11.6226C16.3089 11.6226 16.2162 11.5842 16.1478 11.5158C16.0794 11.4474 16.041 11.3547 16.041 11.258V7.92572ZM12.6285 11.1559L13.6129 7.82363C13.635 7.7479 13.681 7.68138 13.7441 7.63405C13.8072 7.58672 13.884 7.56113 13.9629 7.56113C14.0418 7.56113 14.1185 7.58672 14.1816 7.63405C14.2447 7.68138 14.2908 7.7479 14.3129 7.82363L15.3118 11.1559C15.3394 11.2488 15.329 11.3487 15.2828 11.4338C15.2367 11.519 15.1586 11.5823 15.0658 11.6098C14.9729 11.6374 14.873 11.6269 14.7878 11.5808C14.7027 11.5346 14.6394 11.4566 14.6118 11.3637L14.4332 10.7549H13.5217L13.3431 11.3637C13.3155 11.4566 13.2522 11.5346 13.1671 11.5808C13.082 11.6269 12.982 11.6374 12.8892 11.6098C12.7964 11.5823 12.7183 11.519 12.6721 11.4338C12.626 11.3487 12.6155 11.2488 12.6431 11.1559H12.6285ZM8.94258 8.13353C8.88795 8.05375 8.86725 7.95555 8.88503 7.86051C8.90281 7.76548 8.9576 7.68139 9.03737 7.62676C9.11714 7.57213 9.21535 7.55143 9.31038 7.56921C9.40542 7.58699 9.4895 7.64178 9.54414 7.72155L10.3827 8.94655L11.2212 7.72155C11.248 7.68141 11.2825 7.64698 11.3227 7.62026C11.3628 7.59354 11.4079 7.57507 11.4553 7.5659C11.5027 7.55674 11.5514 7.55708 11.5986 7.56689C11.6459 7.57669 11.6907 7.59579 11.7305 7.62305C11.7703 7.65032 11.8044 7.68521 11.8306 7.72572C11.8568 7.76623 11.8747 7.81153 11.8833 7.85902C11.8919 7.9065 11.891 7.95522 11.8806 8.00234C11.8702 8.04946 11.8505 8.09405 11.8228 8.13353L10.8238 9.59186L11.8228 11.0502C11.876 11.13 11.8956 11.2276 11.8774 11.3217C11.8592 11.4159 11.8046 11.4991 11.7255 11.5533C11.6463 11.6075 11.549 11.6283 11.4546 11.6113C11.3603 11.5942 11.2764 11.5406 11.2212 11.4622L10.3827 10.2372L9.54414 11.4622C9.51029 11.511 9.46502 11.5508 9.41228 11.5781C9.35955 11.6054 9.30093 11.6194 9.24154 11.6189C9.17561 11.6184 9.11107 11.6 9.05479 11.5656C8.99851 11.5313 8.95258 11.4824 8.92191 11.424C8.89123 11.3657 8.87696 11.3001 8.8806 11.2342C8.88424 11.1684 8.90566 11.1048 8.94258 11.0502L9.94154 9.59186L8.94258 8.13353ZM5.58841 7.92572C5.58841 7.82902 5.62682 7.73629 5.6952 7.66792C5.76357 7.59954 5.8563 7.56113 5.95299 7.56113H7.6556C7.75229 7.56113 7.84503 7.59954 7.9134 7.66792C7.98177 7.73629 8.02018 7.82902 8.02018 7.92572C8.02018 8.02241 7.98177 8.11514 7.9134 8.18352C7.84503 8.25189 7.75229 8.2903 7.6556 8.2903H6.31758V9.22728H6.92643C7.02313 9.22728 7.11586 9.26569 7.18423 9.33406C7.2526 9.40244 7.29102 9.49517 7.29102 9.59186C7.29102 9.68856 7.2526 9.78129 7.18423 9.84966C7.11586 9.91803 7.02313 9.95645 6.92643 9.95645H6.31758V10.8934H7.6556C7.75229 10.8934 7.84503 10.9318 7.9134 11.0002C7.98177 11.0686 8.02018 11.1613 8.02018 11.258C8.02018 11.3547 7.98177 11.4474 7.9134 11.5158C7.84503 11.5842 7.75229 11.6226 7.6556 11.6226H5.95299C5.8563 11.6226 5.76357 11.5842 5.6952 11.5158C5.62682 11.4474 5.58841 11.3547 5.58841 11.258V7.92572ZM10.4738 25.2252L9.38008 27.07V31.0804H5.22383V26.946H8.58893L9.8431 24.8533C9.86411 24.8068 9.89464 24.7653 9.93272 24.7313C9.9708 24.6974 10.0156 24.6718 10.0642 24.6562C10.1127 24.6407 10.1641 24.6355 10.2148 24.641C10.2655 24.6465 10.3145 24.6626 10.3586 24.6883C10.4027 24.7139 10.4409 24.7485 10.4708 24.7899C10.5007 24.8312 10.5216 24.8784 10.5321 24.9283C10.5426 24.9782 10.5425 25.0298 10.5319 25.0797C10.5212 25.1296 10.5002 25.1766 10.4702 25.2179L10.4738 25.2252ZM10.4738 19.4611L9.38008 21.3059V25.3163H5.22383V21.182H8.58893L9.8431 19.0856C9.89618 19.0126 9.97446 18.9619 10.0628 18.9433C10.1511 18.9247 10.2432 18.9395 10.3212 18.9849C10.3992 19.0302 10.4577 19.1029 10.4852 19.1889C10.5127 19.2748 10.5074 19.3679 10.4702 19.4502L10.4738 19.4611ZM10.4738 13.6971L9.38008 15.5419V19.5523H5.22383V15.4143H8.58893L9.8431 13.3216C9.86411 13.2751 9.89464 13.2335 9.93272 13.1996C9.9708 13.1656 10.0156 13.14 10.0642 13.1245C10.1127 13.1089 10.1641 13.1037 10.2148 13.1093C10.2655 13.1148 10.3145 13.1309 10.3586 13.1565C10.4027 13.1822 10.4409 13.2168 10.4708 13.2581C10.5007 13.2994 10.5216 13.3466 10.5321 13.3965C10.5426 13.4464 10.5425 13.498 10.5319 13.5479C10.5212 13.5978 10.5002 13.6449 10.4702 13.6861L10.4738 13.6971ZM21.2363 30.0742H10.9368C10.8402 30.0742 10.7474 30.0357 10.679 29.9674C10.6107 29.899 10.5723 29.8063 10.5723 29.7096C10.5723 29.6129 10.6107 29.5201 10.679 29.4518C10.7474 29.3834 10.8402 29.345 10.9368 29.345H21.2363C21.333 29.345 21.4258 29.3834 21.4941 29.4518C21.5625 29.5201 21.6009 29.6129 21.6009 29.7096C21.6009 29.8063 21.5625 29.899 21.4941 29.9674C21.4258 30.0357 21.333 30.0742 21.2363 30.0742ZM24.5759 28.0398H10.9368C10.8402 28.0398 10.7474 28.0014 10.679 27.933C10.6107 27.8646 10.5723 27.7719 10.5723 27.6752C10.5723 27.5785 10.6107 27.4858 10.679 27.4174C10.7474 27.349 10.8402 27.3106 10.9368 27.3106H24.5759C24.6726 27.3106 24.7653 27.349 24.8337 27.4174C24.9021 27.4858 24.9405 27.5785 24.9405 27.6752C24.9405 27.7719 24.9021 27.8646 24.8337 27.933C24.7653 28.0014 24.6726 28.0398 24.5759 28.0398ZM10.5723 23.9419C10.5723 23.8452 10.6107 23.7524 10.679 23.6841C10.7474 23.6157 10.8402 23.5773 10.9368 23.5773H21.2363C21.333 23.5773 21.4258 23.6157 21.4941 23.6841C21.5625 23.7524 21.6009 23.8452 21.6009 23.9419C21.6009 24.0386 21.5625 24.1313 21.4941 24.1997C21.4258 24.268 21.333 24.3064 21.2363 24.3064H10.9368C10.8402 24.3064 10.7474 24.268 10.679 24.1997C10.6107 24.1313 10.5723 24.0386 10.5723 23.9419ZM24.5759 22.2757H10.9368C10.8402 22.2757 10.7474 22.2373 10.679 22.1689C10.6107 22.1006 10.5723 22.0078 10.5723 21.9111C10.5723 21.8144 10.6107 21.7217 10.679 21.6533C10.7474 21.585 10.8402 21.5465 10.9368 21.5465H24.5759C24.6726 21.5465 24.7653 21.585 24.8337 21.6533C24.9021 21.7217 24.9405 21.8144 24.9405 21.9111C24.9405 22.0078 24.9021 22.1006 24.8337 22.1689C24.7653 22.2373 24.6726 22.2757 24.5759 22.2757ZM10.5723 18.1778C10.5723 18.0811 10.6107 17.9884 10.679 17.92C10.7474 17.8516 10.8402 17.8132 10.9368 17.8132H21.2363C21.333 17.8132 21.4258 17.8516 21.4941 17.92C21.5625 17.9884 21.6009 18.0811 21.6009 18.1778C21.6009 18.2745 21.5625 18.3672 21.4941 18.4356C21.4258 18.504 21.333 18.5424 21.2363 18.5424H10.9368C10.8402 18.5424 10.7474 18.504 10.679 18.4356C10.6107 18.3672 10.5723 18.2745 10.5723 18.1778ZM24.5796 16.508H10.9368C10.8402 16.508 10.7474 16.4696 10.679 16.4012C10.6107 16.3329 10.5723 16.2401 10.5723 16.1434C10.5723 16.0467 10.6107 15.954 10.679 15.8856C10.7474 15.8173 10.8402 15.7788 10.9368 15.7788H24.5759C24.6726 15.7788 24.7653 15.8173 24.8337 15.8856C24.9021 15.954 24.9405 16.0467 24.9405 16.1434C24.9405 16.2401 24.9021 16.3329 24.8337 16.4012C24.7653 16.4696 24.6726 16.508 24.5759 16.508H24.5796ZM7.49883 29.8335C7.3056 29.8335 7.31654 29.8007 6.40508 28.9111C6.33594 28.842 6.2971 28.7482 6.2971 28.6505C6.2971 28.5527 6.33594 28.4589 6.40508 28.3898C6.47421 28.3206 6.56798 28.2818 6.66576 28.2818C6.76353 28.2818 6.8573 28.3206 6.92643 28.3898L7.42591 28.882L8.15508 27.6752H5.96758V30.3622H8.65091V28.2841L7.82695 29.6549C7.79346 29.7115 7.74528 29.758 7.68751 29.7894C7.62975 29.8209 7.56455 29.8361 7.49883 29.8335ZM7.24362 23.9637L6.41237 23.1434C6.34447 23.0751 6.30635 22.9827 6.30635 22.8864C6.30635 22.7901 6.34447 22.6977 6.41237 22.6294C6.44626 22.5952 6.48659 22.5681 6.53101 22.5496C6.57544 22.531 6.62309 22.5215 6.67122 22.5215C6.71935 22.5215 6.76701 22.531 6.81143 22.5496C6.85586 22.5681 6.89619 22.5952 6.93008 22.6294L7.42956 23.1215L8.15872 21.9148H5.97122V24.5981H8.65456V22.52L7.8306 23.8908C7.80285 23.9415 7.76347 23.9848 7.71569 24.0173C7.6679 24.0497 7.61309 24.0704 7.55577 24.0775C7.49845 24.0846 7.44025 24.078 7.38598 24.0582C7.33171 24.0385 7.28292 24.0061 7.24362 23.9637ZM7.24362 18.196L6.41237 17.3794C6.34447 17.3111 6.30635 17.2186 6.30635 17.1223C6.30635 17.026 6.34447 16.9336 6.41237 16.8653C6.44626 16.8311 6.48659 16.804 6.53101 16.7855C6.57544 16.767 6.62309 16.7575 6.67122 16.7575C6.71935 16.7575 6.76701 16.767 6.81143 16.7855C6.85586 16.804 6.89619 16.8311 6.93008 16.8653L7.42956 17.3611L8.15872 16.1507H5.97122V18.8377H8.65456V16.7705L7.8306 18.1413C7.80123 18.1908 7.76059 18.2325 7.712 18.2632C7.66342 18.2939 7.60826 18.3127 7.55103 18.3181C7.49379 18.3234 7.43611 18.3151 7.38269 18.2939C7.32927 18.2727 7.28161 18.2392 7.24362 18.196ZM7.81237 29.6549C7.7801 29.7093 7.73423 29.7544 7.67925 29.7857C7.62428 29.817 7.5621 29.8335 7.49883 29.8335C7.3056 29.8335 7.31654 29.8007 6.40508 28.9111C6.33594 28.842 6.2971 28.7482 6.2971 28.6505C6.2971 28.5527 6.33594 28.4589 6.40508 28.3898C6.47421 28.3206 6.56798 28.2818 6.66576 28.2818C6.76353 28.2818 6.8573 28.3206 6.92643 28.3898L7.42591 28.882L8.15508 27.6752H5.96758V30.3622H8.65091V28.2841L7.81237 29.6549ZM7.81237 23.8908C7.77965 23.9446 7.73358 23.9889 7.67864 24.0196C7.62369 24.0503 7.56175 24.0662 7.49883 24.0658C7.29831 24.0658 7.30195 24.0221 6.40508 23.1434C6.33717 23.0751 6.29906 22.9827 6.29906 22.8864C6.29906 22.7901 6.33717 22.6977 6.40508 22.6294C6.43897 22.5952 6.47929 22.5681 6.52372 22.5496C6.56815 22.531 6.6158 22.5215 6.66393 22.5215C6.71206 22.5215 6.75972 22.531 6.80414 22.5496C6.84857 22.5681 6.88889 22.5952 6.92279 22.6294L7.42227 23.1215L8.15143 21.9148H5.96393V24.5981H8.64727V22.52L7.81237 23.8908ZM7.81237 18.1231C7.7801 18.1775 7.73423 18.2226 7.67925 18.2539C7.62428 18.2853 7.5621 18.3017 7.49883 18.3018C7.3056 18.3018 7.31654 18.2689 6.40508 17.3794C6.33717 17.3111 6.29906 17.2186 6.29906 17.1223C6.29906 17.026 6.33717 16.9336 6.40508 16.8653C6.43897 16.8311 6.47929 16.804 6.52372 16.7855C6.56815 16.767 6.6158 16.7575 6.66393 16.7575C6.71206 16.7575 6.75972 16.767 6.80414 16.7855C6.84857 16.804 6.88889 16.8311 6.92279 16.8653L7.42227 17.3611L8.15143 16.1507H5.96393V18.8377H8.64727V16.7705L7.81237 18.1231ZM7.81237 29.6549C7.7801 29.7093 7.73423 29.7544 7.67925 29.7857C7.62428 29.817 7.5621 29.8335 7.49883 29.8335C7.3056 29.8335 7.31654 29.8007 6.40508 28.9111C6.33594 28.842 6.2971 28.7482 6.2971 28.6505C6.2971 28.5527 6.33594 28.4589 6.40508 28.3898C6.47421 28.3206 6.56798 28.2818 6.66576 28.2818C6.76353 28.2818 6.8573 28.3206 6.92643 28.3898L7.42591 28.882L8.15508 27.6752H5.96758V30.3622H8.65091V28.2841L7.81237 29.6549ZM7.81237 23.8908C7.77965 23.9446 7.73358 23.9889 7.67864 24.0196C7.62369 24.0503 7.56175 24.0662 7.49883 24.0658C7.29831 24.0658 7.30195 24.0221 6.40508 23.1434C6.33717 23.0751 6.29906 22.9827 6.29906 22.8864C6.29906 22.7901 6.33717 22.6977 6.40508 22.6294C6.43897 22.5952 6.47929 22.5681 6.52372 22.5496C6.56815 22.531 6.6158 22.5215 6.66393 22.5215C6.71206 22.5215 6.75972 22.531 6.80414 22.5496C6.84857 22.5681 6.88889 22.5952 6.92279 22.6294L7.42227 23.1215L8.15143 21.9148H5.96393V24.5981H8.64727V22.52L7.81237 23.8908ZM7.81237 18.1231C7.7801 18.1775 7.73423 18.2226 7.67925 18.2539C7.62428 18.2853 7.5621 18.3017 7.49883 18.3018C7.3056 18.3018 7.31654 18.2689 6.40508 17.3794C6.33717 17.3111 6.29906 17.2186 6.29906 17.1223C6.29906 17.026 6.33717 16.9336 6.40508 16.8653C6.43897 16.8311 6.47929 16.804 6.52372 16.7855C6.56815 16.767 6.6158 16.7575 6.66393 16.7575C6.71206 16.7575 6.75972 16.767 6.80414 16.7855C6.84857 16.804 6.88889 16.8311 6.92279 16.8653L7.42227 17.3611L8.15143 16.1507H5.96393V18.8377H8.64727V16.7705L7.81237 18.1231ZM7.81237 29.6549C7.7801 29.7093 7.73423 29.7544 7.67925 29.7857C7.62428 29.817 7.5621 29.8335 7.49883 29.8335C7.3056 29.8335 7.31654 29.8007 6.40508 28.9111C6.33594 28.842 6.2971 28.7482 6.2971 28.6505C6.2971 28.5527 6.33594 28.4589 6.40508 28.3898C6.47421 28.3206 6.56798 28.2818 6.66576 28.2818C6.76353 28.2818 6.8573 28.3206 6.92643 28.3898L7.42591 28.882L8.15508 27.6752H5.96758V30.3622H8.65091V28.2841L7.81237 29.6549ZM7.81237 23.8908C7.77965 23.9446 7.73358 23.9889 7.67864 24.0196C7.62369 24.0503 7.56175 24.0662 7.49883 24.0658C7.29831 24.0658 7.30195 24.0221 6.40508 23.1434C6.33717 23.0751 6.29906 22.9827 6.29906 22.8864C6.29906 22.7901 6.33717 22.6977 6.40508 22.6294C6.43897 22.5952 6.47929 22.5681 6.52372 22.5496C6.56815 22.531 6.6158 22.5215 6.66393 22.5215C6.71206 22.5215 6.75972 22.531 6.80414 22.5496C6.84857 22.5681 6.88889 22.5952 6.92279 22.6294L7.42227 23.1215L8.15143 21.9148H5.96393V24.5981H8.64727V22.52L7.81237 23.8908ZM7.81237 18.1231C7.7801 18.1775 7.73423 18.2226 7.67925 18.2539C7.62428 18.2853 7.5621 18.3017 7.49883 18.3018C7.3056 18.3018 7.31654 18.2689 6.40508 17.3794C6.33717 17.3111 6.29906 17.2186 6.29906 17.1223C6.29906 17.026 6.33717 16.9336 6.40508 16.8653C6.43897 16.8311 6.47929 16.804 6.52372 16.7855C6.56815 16.767 6.6158 16.7575 6.66393 16.7575C6.71206 16.7575 6.75972 16.767 6.80414 16.7855C6.84857 16.804 6.88889 16.8311 6.92279 16.8653L7.42227 17.3611L8.15143 16.1507H5.96393V18.8377H8.64727V16.7705L7.81237 18.1231ZM7.81237 29.6549C7.7801 29.7093 7.73423 29.7544 7.67925 29.7857C7.62428 29.817 7.5621 29.8335 7.49883 29.8335C7.3056 29.8335 7.31654 29.8007 6.40508 28.9111C6.33594 28.842 6.2971 28.7482 6.2971 28.6505C6.2971 28.5527 6.33594 28.4589 6.40508 28.3898C6.47421 28.3206 6.56798 28.2818 6.66576 28.2818C6.76353 28.2818 6.8573 28.3206 6.92643 28.3898L7.42591 28.882L8.15508 27.6752H5.96758V30.3622H8.65091V28.2841L7.81237 29.6549ZM7.81237 23.8908C7.77965 23.9446 7.73358 23.9889 7.67864 24.0196C7.62369 24.0503 7.56175 24.0662 7.49883 24.0658C7.29831 24.0658 7.30195 24.0221 6.40508 23.1434C6.33717 23.0751 6.29906 22.9827 6.29906 22.8864C6.29906 22.7901 6.33717 22.6977 6.40508 22.6294C6.43897 22.5952 6.47929 22.5681 6.52372 22.5496C6.56815 22.531 6.6158 22.5215 6.66393 22.5215C6.71206 22.5215 6.75972 22.531 6.80414 22.5496C6.84857 22.5681 6.88889 22.5952 6.92279 22.6294L7.42227 23.1215L8.15143 21.9148H5.96393V24.5981H8.64727V22.52L7.81237 23.8908ZM7.81237 18.1231C7.7801 18.1775 7.73423 18.2226 7.67925 18.2539C7.62428 18.2853 7.5621 18.3017 7.49883 18.3018C7.3056 18.3018 7.31654 18.2689 6.40508 17.3794C6.33717 17.3111 6.29906 17.2186 6.29906 17.1223C6.29906 17.026 6.33717 16.9336 6.40508 16.8653C6.43897 16.8311 6.47929 16.804 6.52372 16.7855C6.56815 16.767 6.6158 16.7575 6.66393 16.7575C6.71206 16.7575 6.75972 16.767 6.80414 16.7855C6.84857 16.804 6.88889 16.8311 6.92279 16.8653L7.42227 17.3611L8.15143 16.1507H5.96393V18.8377H8.64727V16.7705L7.81237 18.1231ZM7.81237 29.6549C7.7801 29.7093 7.73423 29.7544 7.67925 29.7857C7.62428 29.817 7.5621 29.8335 7.49883 29.8335C7.3056 29.8335 7.31654 29.8007 6.40508 28.9111C6.33594 28.842 6.2971 28.7482 6.2971 28.6505C6.2971 28.5527 6.33594 28.4589 6.40508 28.3898C6.47421 28.3206 6.56798 28.2818 6.66576 28.2818C6.76353 28.2818 6.8573 28.3206 6.92643 28.3898L7.42591 28.882L8.15508 27.6752H5.96758V30.3622H8.65091V28.2841L7.81237 29.6549ZM7.81237 23.8908C7.77965 23.9446 7.73358 23.9889 7.67864 24.0196C7.62369 24.0503 7.56175 24.0662 7.49883 24.0658C7.29831 24.0658 7.30195 24.0221 6.40508 23.1434C6.33717 23.0751 6.29906 22.9827 6.29906 22.8864C6.29906 22.7901 6.33717 22.6977 6.40508 22.6294C6.43897 22.5952 6.47929 22.5681 6.52372 22.5496C6.56815 22.531 6.6158 22.5215 6.66393 22.5215C6.71206 22.5215 6.75972 22.531 6.80414 22.5496C6.84857 22.5681 6.88889 22.5952 6.92279 22.6294L7.42227 23.1215L8.15143 21.9148H5.96393V24.5981H8.64727V22.52L7.81237 23.8908ZM7.81237 29.6549C7.7801 29.7093 7.73423 29.7544 7.67925 29.7857C7.62428 29.817 7.5621 29.8335 7.49883 29.8335C7.3056 29.8335 7.31654 29.8007 6.40508 28.9111C6.33594 28.842 6.2971 28.7482 6.2971 28.6505C6.2971 28.5527 6.33594 28.4589 6.40508 28.3898C6.47421 28.3206 6.56798 28.2818 6.66576 28.2818C6.76353 28.2818 6.8573 28.3206 6.92643 28.3898L7.42591 28.882L8.15508 27.6752H5.96758V30.3622H8.65091V28.2841L7.81237 29.6549ZM7.81237 23.8908C7.77965 23.9446 7.73358 23.9889 7.67864 24.0196C7.62369 24.0503 7.56175 24.0662 7.49883 24.0658C7.29831 24.0658 7.30195 24.0221 6.40508 23.1434C6.33717 23.0751 6.29906 22.9827 6.29906 22.8864C6.29906 22.7901 6.33717 22.6977 6.40508 22.6294C6.43897 22.5952 6.47929 22.5681 6.52372 22.5496C6.56815 22.531 6.6158 22.5215 6.66393 22.5215C6.71206 22.5215 6.75972 22.531 6.80414 22.5496C6.84857 22.5681 6.88889 22.5952 6.92279 22.6294L7.42227 23.1215L8.15143 21.9148H5.96393V24.5981H8.64727V22.52L7.81237 23.8908Z" fill="black"/>
<path d="M13.963 9.21608L13.7224 10.0255H14.2182L13.963 9.21608ZM13.963 9.21608L13.7224 10.0255H14.2182L13.963 9.21608ZM13.963 9.21608L13.7224 10.0255H14.2182L13.963 9.21608ZM13.963 9.21608L13.7224 10.0255H14.2182L13.963 9.21608ZM13.963 9.21608L13.7224 10.0255H14.2182L13.963 9.21608ZM13.963 9.21608L13.7224 10.0255H14.2182L13.963 9.21608ZM13.963 9.21608L13.7224 10.0255H14.2182L13.963 9.21608ZM13.963 9.21608L13.7224 10.0255H14.2182L13.963 9.21608ZM13.963 9.21608L13.7224 10.0255H14.2182L13.963 9.21608ZM25.7281 2.16504H23.5662L26.3516 4.95046V2.78848C26.3516 2.62313 26.2859 2.46456 26.169 2.34764C26.0521 2.23072 25.8935 2.16504 25.7281 2.16504ZM3.91512 33.563C3.52834 33.563 3.15741 33.4093 2.88392 33.1358C2.61043 32.8623 2.45678 32.4914 2.45678 32.1046V2.16504H2.18699C2.02388 2.16791 1.86848 2.23498 1.7545 2.35169C1.64052 2.4684 1.57715 2.62535 1.57814 2.78848V34.0114C1.57809 34.1742 1.64177 34.3306 1.75555 34.4472C1.86933 34.5637 2.02419 34.631 2.18699 34.6348H25.7281C25.8932 34.6339 26.0512 34.5679 26.1679 34.4512C26.2846 34.3345 26.3506 34.1764 26.3516 34.0114V33.563H3.91512ZM13.963 9.21608L13.7224 10.0255H14.2182L13.963 9.21608ZM13.963 9.21608L13.7224 10.0255H14.2182L13.963 9.21608ZM13.963 9.21608L13.7224 10.0255H14.2182L13.963 9.21608ZM13.963 9.21608L13.7224 10.0255H14.2182L13.963 9.21608ZM13.963 9.21608L13.7224 10.0255H14.2182L13.963 9.21608ZM13.963 9.21608L13.7224 10.0255H14.2182L13.963 9.21608ZM13.963 9.21608L13.7224 10.0255H14.2182L13.963 9.21608ZM13.963 9.21608L13.7224 10.0255H14.2182L13.963 9.21608ZM7.91095 4.62962C7.91095 4.72632 7.87254 4.81905 7.80416 4.88742C7.73579 4.95579 7.64306 4.99421 7.54637 4.99421H5.91303C5.81634 4.99421 5.72361 4.95579 5.65523 4.88742C5.58686 4.81905 5.54845 4.72632 5.54845 4.62962C5.54845 4.53293 5.58686 4.4402 5.65523 4.37182C5.72361 4.30345 5.81634 4.26504 5.91303 4.26504H7.54637C7.64306 4.26504 7.73579 4.30345 7.80416 4.37182C7.87254 4.4402 7.91095 4.53293 7.91095 4.62962ZM9.04116 2.71556C9.04116 2.81225 9.00275 2.90499 8.93437 2.97336C8.866 3.04173 8.77327 3.08014 8.67657 3.08014H5.91303C5.81634 3.08014 5.72361 3.04173 5.65523 2.97336C5.58686 2.90499 5.54845 2.81225 5.54845 2.71556C5.54845 2.61887 5.58686 2.52613 5.65523 2.45776C5.72361 2.38939 5.81634 2.35098 5.91303 2.35098H8.67657C8.77327 2.35098 8.866 2.38939 8.93437 2.45776C9.00275 2.52613 9.04116 2.61887 9.04116 2.71556Z" fill="black"/>
<path d="M8.63646 22.52V24.5945H5.95312V21.9111H8.14063L7.41146 23.1179L6.92656 22.6257C6.89267 22.5915 6.85235 22.5644 6.80792 22.5459C6.76349 22.5274 6.71584 22.5179 6.66771 22.5179C6.61958 22.5179 6.57193 22.5274 6.5275 22.5459C6.48307 22.5644 6.44275 22.5915 6.40885 22.6257C6.34095 22.694 6.30284 22.7864 6.30284 22.8827C6.30284 22.9791 6.34095 23.0715 6.40885 23.1398C7.29115 24.0184 7.29115 24.0622 7.49896 24.0622C7.56188 24.0625 7.62382 24.0466 7.67877 24.016C7.73371 23.9853 7.77978 23.9409 7.8125 23.8872L8.63646 22.52ZM8.63646 16.7705V18.8486H5.95312V16.1434H8.14063L7.41146 17.3538L6.92656 16.858C6.89267 16.8238 6.85235 16.7967 6.80792 16.7782C6.76349 16.7597 6.71584 16.7502 6.66771 16.7502C6.61958 16.7502 6.57193 16.7597 6.5275 16.7782C6.48307 16.7967 6.44275 16.8238 6.40885 16.858C6.34095 16.9263 6.30284 17.0187 6.30284 17.115C6.30284 17.2114 6.34095 17.3038 6.40885 17.3721C7.32031 18.2689 7.30208 18.2945 7.5026 18.2945C7.56588 18.2945 7.62805 18.278 7.68303 18.2467C7.738 18.2153 7.78388 18.1702 7.81615 18.1158L8.63646 16.7705ZM27.9594 7.5903H20.7333V0.364258C23.5552 3.18249 25.1557 4.76842 27.9594 7.5903ZM31.5323 12.7054V28.1564H30.3802L30.3984 12.7054H31.5323ZM33.4135 12.7091L33.3953 28.1564H32.2615V12.7091H33.4135ZM33.399 28.8856L32.9906 29.8663C32.6535 29.6885 32.2781 29.5956 31.8969 29.5956C31.5157 29.5956 31.1403 29.6885 30.8031 29.8663L30.3948 28.882L33.399 28.8856ZM30.4021 11.258H33.4172L33.4135 11.9799L30.3984 11.9762L30.4021 11.258ZM33.4208 9.80697L33.4172 10.5288H30.4021L30.4057 9.80697H33.4208ZM33.4208 9.0377C33.4208 9.09603 33.7563 9.0778 30.4057 9.0778C30.4023 8.88415 30.4376 8.69177 30.5093 8.51188C30.5811 8.33199 30.688 8.1682 30.8237 8.03006C30.9595 7.89193 31.1214 7.78222 31.3 7.70734C31.4786 7.63247 31.6704 7.59392 31.8641 7.59395H31.988C32.3678 7.60057 32.7301 7.75515 32.9977 8.02479C33.2653 8.29442 33.4171 8.65783 33.4208 9.0377ZM32.7099 30.5408L32.1448 31.8934C32.1241 31.9447 32.0886 31.9886 32.0428 32.0196C31.997 32.0505 31.943 32.067 31.8878 32.067C31.8325 32.067 31.7785 32.0505 31.7327 32.0196C31.6869 31.9886 31.6514 31.9447 31.6307 31.8934L31.0693 30.5445C31.3186 30.4006 31.6013 30.3246 31.8891 30.324C32.1769 30.3233 32.4599 30.3981 32.7099 30.5408Z" fill="black"/>
</svg>
