<svg width="35" height="35" viewBox="0 0 35 35" fill="none" xmlns="http://www.w3.org/2000/svg">
<g clip-path="url(#clip0_2004_14246)">
<path d="M35 31.1961V34.2396C35 34.6596 34.6595 35.0001 34.2388 35.0001H0.76125C0.55948 35.0001 0.365964 34.92 0.223223 34.7774C0.0804815 34.6348 0.000193266 34.4414 0 34.2396L0 31.1961C0 30.7753 0.340521 30.4348 0.76125 30.4348H34.2395C34.6595 30.4348 35 30.7753 35 31.1961ZM1.52177 29.2929H6.08635V23.9678H1.52177V29.2929ZM15.2177 29.2929V20.925H10.6524V29.2944L15.2177 29.2929ZM24.3476 29.2929V17.8815H19.783V29.2944L24.3476 29.2929ZM28.9129 29.2929H33.4782V14.8379H28.9136L28.9129 29.2929ZM27.7944 6.85356L29.1455 6.76241C18.9 16.2379 4.39177 18.7878 4.24083 18.8126C4.09289 18.8393 3.96145 18.9233 3.87503 19.0463C3.78861 19.1693 3.7542 19.3214 3.77925 19.4696C3.80431 19.6179 3.88682 19.7502 4.00886 19.838C4.13091 19.9258 4.28265 19.9619 4.43115 19.9385C4.585 19.9122 19.4039 17.3135 29.9082 7.60897L29.7376 8.99803C29.723 9.14643 29.767 9.29465 29.8602 9.41102C29.9534 9.5274 30.0885 9.60268 30.2365 9.62078C30.3845 9.63887 30.5337 9.59835 30.6522 9.50786C30.7708 9.41738 30.8492 9.28412 30.8707 9.13658L31.2353 6.15574C31.2455 6.07239 31.2372 5.98781 31.211 5.90802C31.1848 5.82824 31.1413 5.75523 31.0836 5.69418C31.0252 5.63422 30.9547 5.5874 30.8767 5.55685C30.7988 5.52629 30.7152 5.51271 30.6316 5.51699L27.7178 5.71314C27.5668 5.72325 27.426 5.7929 27.3263 5.9068C27.2266 6.0207 27.1762 6.16951 27.1863 6.32053C27.1982 6.47097 27.2685 6.61078 27.3821 6.71009C27.4957 6.80941 27.6437 6.86037 27.7944 6.8521V6.85356ZM0 6.84699C-1.34004e-08 5.9477 0.177128 5.05722 0.521271 4.22639C0.865413 3.39555 1.36983 2.64064 2.00572 2.00475C2.64162 1.36885 3.39653 0.864437 4.22736 0.520294C5.0582 0.176151 5.94868 -0.000976562 6.84797 -0.000976562C7.74726 -0.000976563 8.63774 0.176151 9.46857 0.520294C10.2994 0.864437 11.0543 1.36885 11.6902 2.00475C12.3261 2.64064 12.8305 3.39555 13.1747 4.22639C13.5188 5.05722 13.6959 5.9477 13.6959 6.84699C13.696 8.66319 12.9746 10.405 11.6905 11.6893C10.4063 12.9737 8.66453 13.6952 6.84833 13.6953C5.03214 13.6954 3.29029 12.974 2.00598 11.6899C0.72167 10.4057 9.67318e-05 8.66319 0 6.84699ZM8.19656 8.4147V8.73116C8.19656 9.21022 7.80719 9.60033 7.32813 9.60033H6.36781C6.13735 9.60013 5.91639 9.5085 5.75343 9.34554C5.59047 9.18258 5.49884 8.96162 5.49865 8.73116C5.49336 8.58336 5.43093 8.44338 5.32451 8.3407C5.21808 8.23801 5.07596 8.18062 4.92807 8.18062C4.78018 8.18062 4.63806 8.23801 4.53164 8.3407C4.42521 8.44338 4.36278 8.58336 4.3575 8.73116C4.35888 9.24755 4.55913 9.74356 4.91665 10.1162C5.27418 10.4888 5.76151 10.7093 6.2774 10.732V11.6106C6.28268 11.7584 6.34511 11.8984 6.45153 12.0011C6.55796 12.1038 6.70008 12.1612 6.84797 12.1612C6.99586 12.1612 7.13798 12.1038 7.2444 12.0011C7.35083 11.8984 7.41326 11.7584 7.41854 11.6106V10.732C7.93443 10.7093 8.42176 10.4888 8.77928 10.1162C9.13681 9.74356 9.33706 9.24755 9.33844 8.73116V8.41543C9.33898 7.96706 9.18933 7.53142 8.91338 7.17802C8.63743 6.82462 8.25107 6.57382 7.81594 6.46564L6.15708 6.05001C5.96894 6.00326 5.80188 5.89485 5.68254 5.74207C5.5632 5.5893 5.49846 5.40096 5.49865 5.2071V4.89283C5.49865 4.41303 5.88875 4.02366 6.36781 4.02366H7.32813C7.80719 4.02366 8.19656 4.41376 8.19656 4.89283C8.20185 5.04062 8.26427 5.1806 8.3707 5.28329C8.47713 5.38598 8.61925 5.44336 8.76714 5.44336C8.91503 5.44336 9.05715 5.38598 9.16357 5.28329C9.27 5.1806 9.33242 5.04062 9.33771 4.89283C9.33653 4.37643 9.13646 3.88034 8.77907 3.50761C8.42168 3.13487 7.93443 2.91414 7.41854 2.89126V2.08553C7.41326 1.93774 7.35083 1.79776 7.2444 1.69507C7.13798 1.59238 6.99586 1.535 6.84797 1.535C6.70008 1.535 6.55796 1.59238 6.45153 1.69507C6.34511 1.79776 6.28268 1.93774 6.2774 2.08553V2.89199C5.76151 2.91468 5.27418 3.13523 4.91665 3.50783C4.55913 3.88043 4.35888 4.37644 4.3575 4.89283V5.20783C4.3575 6.13241 4.98313 6.93449 5.88 7.15835L7.53885 7.57324C7.92604 7.67022 8.19656 8.01658 8.19656 8.41616V8.4147Z" fill="black"/>
</g>
<defs>
<clipPath id="clip0_2004_14246">
<rect width="35" height="35" fill="white"/>
</clipPath>
</defs>
</svg>
