<svg width="90" height="90" viewBox="0 0 90 90" fill="none" xmlns="http://www.w3.org/2000/svg">
<g filter="url(#filter0_d_629_9755)">
<circle cx="45" cy="45" r="40" fill="#FDFDFD"/>
<circle cx="45" cy="45" r="39.5" stroke="#F37329" stroke-dasharray="2 2"/>
</g>
<g filter="url(#filter1_d_629_9755)">
<circle cx="45" cy="45" r="30" fill="#FDFDFD"/>
</g>
<g filter="url(#filter2_d_629_9755)">
<path d="M74.6264 40.2777C73.942 35.9833 72.332 31.8889 69.9082 28.2784C67.4843 24.6679 64.3045 21.6275 60.589 19.3678C56.8735 17.1082 52.7111 15.6833 48.3903 15.1919C44.0695 14.7005 39.6935 15.1543 35.5655 16.522L36.9112 20.5837C40.4504 19.4111 44.2023 19.022 47.9068 19.4433C51.6114 19.8646 55.1801 21.0863 58.3656 23.0236C61.5512 24.961 64.2775 27.5678 66.3556 30.6633C68.4338 33.7589 69.8141 37.2693 70.401 40.9512L74.6264 40.2777Z" fill="#F37329"/>
</g>
<g filter="url(#filter3_d_629_9755)">
<path d="M15 45C15 49.3487 15.9454 53.6454 17.7708 57.5924C19.5961 61.5395 22.2577 65.0425 25.5713 67.8588C28.8848 70.6751 32.771 72.7374 36.9606 73.9027C41.1502 75.0681 45.5431 75.3087 49.8349 74.6078L49.1453 70.3849C45.4656 70.9858 41.6993 70.7796 38.1072 69.7804C34.5151 68.7813 31.1832 67.0131 28.3423 64.5985C25.5014 62.1839 23.2194 59.1805 21.6544 55.7964C20.0894 52.4123 19.2788 48.7284 19.2788 45L15 45Z" fill="#F37329"/>
</g>
<path d="M54.0565 32.8647V29.1511C54.1288 29.1846 54.1944 29.2307 54.2502 29.2875L57.9645 33.0017C58.0212 33.0576 58.0674 33.1232 58.1009 33.1954H54.3872C54.2995 33.1953 54.2155 33.1604 54.1535 33.0984C54.0916 33.0364 54.0567 32.9524 54.0565 32.8647ZM58.1583 34.2893V61.2447C58.1583 61.6091 57.8611 61.9062 57.4968 61.9062H33.5033C33.1389 61.9062 32.8418 61.6091 32.8418 61.2447V29.7553C32.8418 29.3909 33.139 29.0938 33.5033 29.0938H52.9628V32.8647C52.9628 33.6506 53.6014 34.2892 54.3873 34.2892L58.1583 34.2893ZM47.8984 36.6338C47.8984 36.7056 47.9125 36.7767 47.94 36.8431C47.9675 36.9094 48.0078 36.9697 48.0585 37.0205C48.1093 37.0713 48.1696 37.1116 48.236 37.139C48.3023 37.1665 48.3734 37.1807 48.4452 37.1807H53.1009C53.246 37.1807 53.3851 37.123 53.4876 37.0205C53.5902 36.9179 53.6478 36.7788 53.6478 36.6338C53.6478 36.4887 53.5902 36.3496 53.4876 36.2471C53.3851 36.1445 53.246 36.0869 53.1009 36.0869H48.4452C48.1433 36.0869 47.8984 36.3318 47.8984 36.6338ZM34.6691 37.4625C34.6691 39.0743 35.3225 40.5336 36.3787 41.5898C38.6456 43.8567 42.3664 43.8568 44.6334 41.5898C45.6897 40.5336 46.343 39.0743 46.343 37.4625C46.343 34.239 43.7296 31.6256 40.506 31.6256C37.2825 31.6256 34.6691 34.239 34.6691 37.4625ZM36.7498 57.3144C36.7498 56.8051 36.3369 56.3922 35.8276 56.3922C35.3183 56.3922 34.9054 56.8051 34.9054 57.3144C34.9054 57.8238 35.3183 58.2367 35.8276 58.2367C36.3369 58.2367 36.7498 57.8238 36.7498 57.3144ZM36.7498 53.6685C36.7498 53.1591 36.3369 52.7462 35.8276 52.7462C35.3183 52.7462 34.9054 53.1591 34.9054 53.6685C34.9054 54.1778 35.3183 54.5907 35.8276 54.5907C36.3369 54.5906 36.7498 54.1777 36.7498 53.6685ZM36.7498 50.0225C36.7498 49.5132 36.3369 49.1003 35.8276 49.1003C35.3183 49.1003 34.9054 49.5132 34.9054 50.0225C34.9054 50.5319 35.3183 50.9448 35.8276 50.9448C36.3369 50.9447 36.7498 50.5318 36.7498 50.0225ZM36.7498 46.3766C36.7498 45.8672 36.3369 45.4543 35.8276 45.4543C35.3183 45.4543 34.9054 45.8672 34.9054 46.3766C34.9054 46.8859 35.3183 47.2988 35.8276 47.2988C36.3369 47.2987 36.7498 46.8858 36.7498 46.3766ZM56.2843 57.3144C56.2843 57.1694 56.2267 57.0303 56.1241 56.9277C56.0215 56.8252 55.8824 56.7675 55.7374 56.7675H38.823C38.6779 56.7675 38.5388 56.8252 38.4363 56.9277C38.3337 57.0303 38.2761 57.1694 38.2761 57.3144C38.2761 57.4595 38.3337 57.5986 38.4363 57.7011C38.5388 57.8037 38.6779 57.8613 38.823 57.8613H55.7375C55.8825 57.8613 56.0216 57.8036 56.1241 57.7011C56.2267 57.5985 56.2843 57.4594 56.2843 57.3144ZM56.2843 53.6685C56.2843 53.5234 56.2267 53.3843 56.1241 53.2818C56.0215 53.1792 55.8824 53.1216 55.7374 53.1216H38.823C38.6779 53.1216 38.5388 53.1792 38.4363 53.2818C38.3337 53.3843 38.2761 53.5234 38.2761 53.6685C38.2761 53.8135 38.3337 53.9526 38.4363 54.0552C38.5388 54.1577 38.6779 54.2153 38.823 54.2153H55.7375C55.8825 54.2153 56.0216 54.1577 56.1241 54.0551C56.2267 53.9526 56.2843 53.8135 56.2843 53.6685ZM56.2843 50.0225C56.2843 49.8775 56.2267 49.7384 56.1241 49.6358C56.0215 49.5333 55.8824 49.4756 55.7374 49.4756H38.823C38.6779 49.4756 38.5388 49.5333 38.4363 49.6358C38.3337 49.7384 38.2761 49.8775 38.2761 50.0225C38.2761 50.1676 38.3337 50.3067 38.4363 50.4092C38.5388 50.5118 38.6779 50.5694 38.823 50.5694H55.7375C55.8825 50.5694 56.0216 50.5118 56.1241 50.4092C56.2267 50.3066 56.2843 50.1675 56.2843 50.0225ZM56.2843 46.3766C56.2843 46.2315 56.2267 46.0924 56.1241 45.9899C56.0215 45.8873 55.8824 45.8297 55.7374 45.8297H38.823C38.6779 45.8297 38.5388 45.8873 38.4363 45.9899C38.3337 46.0924 38.2761 46.2315 38.2761 46.3766C38.2761 46.5216 38.3337 46.6607 38.4363 46.7633C38.5388 46.8658 38.6779 46.9234 38.823 46.9234H55.7375C55.8825 46.9234 56.0216 46.8658 56.1241 46.7632C56.2267 46.6607 56.2843 46.5216 56.2843 46.3766ZM56.8631 39.3682C56.8631 39.2232 56.8055 39.0841 56.7029 38.9815C56.6003 38.879 56.4612 38.8214 56.3162 38.8214H48.4452C48.3002 38.8214 48.1611 38.879 48.0585 38.9815C47.956 39.0841 47.8984 39.2232 47.8984 39.3682C47.8984 39.5133 47.956 39.6524 48.0585 39.7549C48.1611 39.8575 48.3002 39.9151 48.4452 39.9151H56.3162C56.4612 39.9151 56.6003 39.8575 56.7029 39.7549C56.8055 39.6524 56.8631 39.5133 56.8631 39.3682ZM37.147 40.8114C36.2917 39.9535 35.7628 38.7697 35.7628 37.4624C35.7628 34.8428 37.8863 32.7193 40.506 32.7193C43.1258 32.7193 45.2492 34.8428 45.2492 37.4624C45.2492 38.7697 44.7205 39.9534 43.8651 40.8113C43.2814 39.5395 41.9969 38.6562 40.506 38.6562C39.0151 38.6563 37.7307 39.5395 37.147 40.8114ZM38.6383 36.1048C38.6383 37.1364 39.4745 37.9726 40.506 37.9726C41.5376 37.9726 42.3738 37.1364 42.3738 36.1048C42.3738 35.0733 41.5376 34.237 40.506 34.237C39.4745 34.237 38.6383 35.0733 38.6383 36.1048Z" fill="#F37329"/>
<defs>
<filter id="filter0_d_629_9755" x="0" y="0" width="90" height="90" filterUnits="userSpaceOnUse" color-interpolation-filters="sRGB">
<feFlood flood-opacity="0" result="BackgroundImageFix"/>
<feColorMatrix in="SourceAlpha" type="matrix" values="0 0 0 0 0 0 0 0 0 0 0 0 0 0 0 0 0 0 127 0" result="hardAlpha"/>
<feOffset/>
<feGaussianBlur stdDeviation="2.5"/>
<feComposite in2="hardAlpha" operator="out"/>
<feColorMatrix type="matrix" values="0 0 0 0 0 0 0 0 0 0 0 0 0 0 0 0 0 0 0.2 0"/>
<feBlend mode="normal" in2="BackgroundImageFix" result="effect1_dropShadow_629_9755"/>
<feBlend mode="normal" in="SourceGraphic" in2="effect1_dropShadow_629_9755" result="shape"/>
</filter>
<filter id="filter1_d_629_9755" x="10" y="10" width="70" height="70" filterUnits="userSpaceOnUse" color-interpolation-filters="sRGB">
<feFlood flood-opacity="0" result="BackgroundImageFix"/>
<feColorMatrix in="SourceAlpha" type="matrix" values="0 0 0 0 0 0 0 0 0 0 0 0 0 0 0 0 0 0 127 0" result="hardAlpha"/>
<feOffset/>
<feGaussianBlur stdDeviation="2.5"/>
<feComposite in2="hardAlpha" operator="out"/>
<feColorMatrix type="matrix" values="0 0 0 0 0 0 0 0 0 0 0 0 0 0 0 0 0 0 0.2 0"/>
<feBlend mode="normal" in2="BackgroundImageFix" result="effect1_dropShadow_629_9755"/>
<feBlend mode="normal" in="SourceGraphic" in2="effect1_dropShadow_629_9755" result="shape"/>
</filter>
<filter id="filter2_d_629_9755" x="30.5654" y="10" width="49.0605" height="35.9512" filterUnits="userSpaceOnUse" color-interpolation-filters="sRGB">
<feFlood flood-opacity="0" result="BackgroundImageFix"/>
<feColorMatrix in="SourceAlpha" type="matrix" values="0 0 0 0 0 0 0 0 0 0 0 0 0 0 0 0 0 0 127 0" result="hardAlpha"/>
<feOffset/>
<feGaussianBlur stdDeviation="2.5"/>
<feComposite in2="hardAlpha" operator="out"/>
<feColorMatrix type="matrix" values="0 0 0 0 0 0 0 0 0 0 0 0 0 0 0 0 0 0 0.2 0"/>
<feBlend mode="normal" in2="BackgroundImageFix" result="effect1_dropShadow_629_9755"/>
<feBlend mode="normal" in="SourceGraphic" in2="effect1_dropShadow_629_9755" result="shape"/>
</filter>
<filter id="filter3_d_629_9755" x="10" y="40" width="44.835" height="40" filterUnits="userSpaceOnUse" color-interpolation-filters="sRGB">
<feFlood flood-opacity="0" result="BackgroundImageFix"/>
<feColorMatrix in="SourceAlpha" type="matrix" values="0 0 0 0 0 0 0 0 0 0 0 0 0 0 0 0 0 0 127 0" result="hardAlpha"/>
<feOffset/>
<feGaussianBlur stdDeviation="2.5"/>
<feComposite in2="hardAlpha" operator="out"/>
<feColorMatrix type="matrix" values="0 0 0 0 0 0 0 0 0 0 0 0 0 0 0 0 0 0 0.2 0"/>
<feBlend mode="normal" in2="BackgroundImageFix" result="effect1_dropShadow_629_9755"/>
<feBlend mode="normal" in="SourceGraphic" in2="effect1_dropShadow_629_9755" result="shape"/>
</filter>
</defs>
</svg>
