<svg width="90" height="90" viewBox="0 0 90 90" fill="none" xmlns="http://www.w3.org/2000/svg">
<g filter="url(#filter0_d_629_9804)">
<circle cx="45" cy="45" r="40" fill="#FDFDFD"/>
<circle cx="45" cy="45" r="39.5" stroke="#F37329" stroke-dasharray="2 2"/>
</g>
<g filter="url(#filter1_d_629_9804)">
<circle cx="45" cy="45" r="30" fill="#FDFDFD"/>
</g>
<g filter="url(#filter2_d_629_9804)">
<path d="M74.6264 40.2777C73.942 35.9833 72.332 31.8889 69.9082 28.2784C67.4843 24.6679 64.3045 21.6275 60.589 19.3678C56.8735 17.1082 52.7111 15.6833 48.3903 15.1919C44.0695 14.7005 39.6935 15.1543 35.5655 16.522L36.9112 20.5837C40.4504 19.4111 44.2023 19.022 47.9068 19.4433C51.6114 19.8646 55.1801 21.0863 58.3656 23.0236C61.5512 24.961 64.2775 27.5678 66.3556 30.6633C68.4338 33.7589 69.8141 37.2693 70.401 40.9512L74.6264 40.2777Z" fill="#F37329"/>
</g>
<g filter="url(#filter3_d_629_9804)">
<path d="M15 45C15 49.3487 15.9454 53.6454 17.7708 57.5924C19.5961 61.5395 22.2577 65.0425 25.5713 67.8588C28.8848 70.6751 32.771 72.7374 36.9606 73.9027C41.1502 75.0681 45.5431 75.3087 49.8349 74.6078L49.1453 70.3849C45.4656 70.9858 41.6993 70.7796 38.1072 69.7804C34.5151 68.7813 31.1832 67.0131 28.3423 64.5985C25.5014 62.1839 23.2194 59.1805 21.6544 55.7964C20.0894 52.4123 19.2788 48.7284 19.2788 45L15 45Z" fill="#F37329"/>
</g>
<g clip-path="url(#clip0_629_9804)">
<path d="M38.6335 33.9376C38.5987 33.8099 38.5655 33.6818 38.534 33.5532C38.505 33.4412 38.4793 33.3284 38.457 33.2148C38.446 33.278 38.4237 33.3821 38.3913 33.527C38.3583 33.672 38.2855 33.9573 38.1727 34.3837H38.7508L38.6335 33.9376ZM50.5221 33.3333H50.3772V33.9545H50.5145C50.7708 33.9545 50.8991 33.8412 50.8991 33.6141C50.8994 33.4272 50.7734 33.3333 50.5221 33.3333ZM45.4643 33.9023C45.5291 33.8403 45.5621 33.7549 45.5621 33.646C45.5621 33.4627 45.4603 33.3708 45.2573 33.3708H45.0675V33.9954H45.2015C45.3114 33.9954 45.3994 33.9647 45.4643 33.9023ZM47.8987 33.3372C47.5307 33.3372 47.3474 33.6026 47.3474 34.133C47.3474 34.6581 47.5296 34.9209 47.8953 34.9209C48.0812 34.9209 48.2185 34.8569 48.309 34.7294C48.3987 34.6017 48.4441 34.4029 48.4441 34.133C48.4441 33.8615 48.3987 33.661 48.3076 33.5315C48.2165 33.4021 48.0801 33.3372 47.8987 33.3372ZM35.9535 33.3708H35.7637V33.9954H35.8976C36.0079 33.9954 36.0956 33.9647 36.1607 33.9023C36.2256 33.8403 36.2583 33.7549 36.2583 33.646C36.258 33.4624 36.1562 33.3708 35.9535 33.3708Z" fill="#F37329"/>
<path d="M56.7951 28C56.7565 27.9999 56.718 28.0015 56.6795 28.0048L34.2799 29.4337C33.5611 29.4991 32.9982 30.0772 32.9982 30.7492V30.882C32.9719 30.9556 32.958 31.0331 32.957 31.1112V62.2888C32.957 62.3822 32.9754 62.4747 33.0112 62.561C33.047 62.6473 33.0994 62.7258 33.1654 62.7918C33.2315 62.8578 33.3099 62.9102 33.3963 62.9459C33.4826 62.9817 33.5751 63 33.6685 63H55.3733C55.562 63 55.7429 62.9251 55.8763 62.7917C56.0097 62.6584 56.0847 62.4775 56.0848 62.2888V61.3867L56.7613 61.3376C57.4801 61.2728 58.043 60.6944 58.043 60.0224V29.1768C58.0435 28.5169 57.4956 28 56.7951 28ZM35.7629 35.4951H35.0286V32.7778H35.969C36.3125 32.7778 36.5699 32.8528 36.7422 33.0029C36.9145 33.1526 37.0003 33.3658 37.0003 33.6421C37.0003 33.9459 36.9112 34.1802 36.7321 34.3457C36.5527 34.5113 36.2987 34.5939 35.969 34.5939H35.7629V35.4951ZM41.4056 38.6704C41.7318 38.5438 41.8917 38.7234 41.7736 39.0531C41.4228 40.0324 41.1523 41.1889 40.9648 42.4294C40.9127 42.7748 40.5968 43.0909 40.2508 43.1431C39.0112 43.3303 37.8547 43.6011 36.8748 43.9521C36.5457 44.0697 36.3658 43.9104 36.4921 43.5841C36.9263 42.4695 37.5872 41.4573 38.433 40.6114C39.2788 39.7656 40.291 39.1046 41.4056 38.6704ZM37.0753 35.4951L37.9621 32.7666H38.9418L39.8397 35.4951H39.0365L38.9026 34.9858H38.0197L37.8823 35.4951H37.0753ZM41.0802 34.6359C41.0527 34.6018 41.0191 34.5732 40.9812 34.5513C40.9361 34.5225 40.8156 34.4644 40.6199 34.3767C40.4429 34.2961 40.31 34.218 40.2215 34.1424C40.1367 34.072 40.0693 33.9829 40.0247 33.8821C39.9818 33.784 39.9601 33.6684 39.9601 33.5347C39.9601 33.2843 40.0512 33.0892 40.2333 32.9493C40.4155 32.8094 40.6659 32.7392 40.9843 32.7392C41.2657 32.7392 41.5525 32.8041 41.8449 32.9343L41.6202 33.5011C41.3661 33.385 41.1467 33.3266 40.962 33.3266C40.8667 33.3266 40.7973 33.3435 40.7539 33.3768C40.7339 33.3908 40.7175 33.4094 40.7062 33.431C40.6949 33.4527 40.689 33.4767 40.689 33.5011C40.689 33.5544 40.7167 33.6021 40.7717 33.6444C40.8269 33.6864 40.9767 33.7634 41.2209 33.8751C41.4549 33.9803 41.6176 34.0931 41.7084 34.214C41.7995 34.3347 41.8449 34.487 41.8449 34.6703C41.8449 34.8389 41.8023 34.9887 41.7166 35.1192C41.6312 35.2501 41.5079 35.3513 41.3469 35.4241C41.1856 35.4965 40.9967 35.5326 40.7798 35.5326C40.5985 35.5326 40.4471 35.5199 40.3241 35.4946C40.1918 35.4658 40.0634 35.4211 39.9417 35.3615V34.7072C40.0809 34.779 40.2273 34.8355 40.3786 34.8759C40.5142 34.914 40.6542 34.9342 40.7951 34.9362C40.9042 34.9362 40.984 34.9173 41.035 34.8795C41.0541 34.8666 41.0704 34.85 41.083 34.8307C41.0956 34.8114 41.1042 34.7898 41.1084 34.7671C41.1126 34.7445 41.1123 34.7212 41.1074 34.6987C41.1026 34.6762 41.0933 34.6548 41.0802 34.6359ZM43.2123 34.6359C43.185 34.6019 43.1516 34.5732 43.1139 34.5513C43.0685 34.5225 42.9481 34.4644 42.7524 34.3767C42.575 34.2961 42.4422 34.218 42.3536 34.1424C42.269 34.0718 42.2017 33.9828 42.1568 33.8821C42.1142 33.784 42.0922 33.6684 42.0922 33.5347C42.0922 33.2843 42.1836 33.0892 42.3661 32.9493C42.5482 32.8094 42.7981 32.7392 43.1167 32.7392C43.3979 32.7392 43.6849 32.8041 43.9771 32.9343L43.7523 33.5011C43.4985 33.385 43.2791 33.3266 43.0947 33.3266C42.9988 33.3266 42.9295 33.3435 42.8866 33.3768C42.8665 33.3907 42.8501 33.4093 42.8387 33.431C42.8273 33.4526 42.8213 33.4767 42.8212 33.5011C42.8212 33.5544 42.8491 33.6021 42.9041 33.6444C42.9591 33.6867 43.1091 33.7634 43.353 33.8751C43.5871 33.9803 43.7498 34.0931 43.8406 34.214C43.9317 34.3347 43.9771 34.487 43.9771 34.6703C43.9771 34.8389 43.9345 34.9887 43.8491 35.1192C43.7633 35.2501 43.6401 35.3513 43.4791 35.4241C43.3181 35.4965 43.1294 35.5326 42.912 35.5326C42.7312 35.5326 42.5795 35.5199 42.4569 35.4946C42.3342 35.4692 42.2067 35.4249 42.0742 35.3615V34.7072C42.2133 34.779 42.3597 34.8356 42.511 34.8759C42.6465 34.914 42.7864 34.9343 42.9272 34.9362C43.0366 34.9362 43.1164 34.9173 43.1672 34.8795C43.1862 34.8666 43.2025 34.8499 43.2151 34.8306C43.2277 34.8114 43.2363 34.7898 43.2405 34.7671C43.2447 34.7445 43.2444 34.7212 43.2395 34.6987C43.2347 34.6762 43.2254 34.6548 43.2123 34.6359ZM42.9196 38.7598C43.0592 38.4397 43.4763 38.145 43.8245 38.1168C44.2886 38.0799 44.7549 38.0799 45.219 38.1168C45.5678 38.1453 45.9849 38.4394 46.1242 38.7598C46.5187 39.667 46.8627 40.8846 47.0996 42.3253C47.1557 42.6705 46.9112 42.9257 46.5627 42.9014C45.8859 42.8549 45.2018 42.8309 44.5225 42.8309C43.8431 42.8309 43.1585 42.8549 42.4814 42.9014C42.1326 42.9257 41.8881 42.6705 41.945 42.3253C42.1811 40.8843 42.5243 39.6667 42.9196 38.7598ZM44.3324 35.4951V32.7778H45.2731C45.6163 32.7778 45.8738 32.8528 46.0461 33.0029C46.2184 33.1526 46.3044 33.3658 46.3044 33.6421C46.3044 33.9459 46.2153 34.1802 46.0362 34.3457C45.8569 34.5113 45.6025 34.5939 45.2731 34.5939H45.0667V35.4951H44.3324ZM51.9708 35.4951H51.138L50.5619 34.5065H50.3764V35.4951H49.6421V32.7778H50.5323C51.2709 32.7778 51.64 33.0452 51.64 33.5807C51.64 33.8957 51.4866 34.139 51.1792 34.3116L51.9708 35.4951ZM52.5503 43.5841C52.6775 43.9098 52.4973 44.07 52.1682 43.9521C51.1882 43.6013 50.0321 43.3306 48.7919 43.1434C48.4458 43.0909 48.1303 42.7748 48.0781 42.4296C47.8906 41.1894 47.6202 40.0327 47.2688 39.0533C47.1515 38.724 47.3108 38.5438 47.6371 38.6707C48.7517 39.1048 49.7639 39.7657 50.6096 40.6115C51.4554 41.4573 52.1162 42.4695 52.5503 43.5841ZM48.8796 35.1759C48.6551 35.4139 48.3266 35.5326 47.8946 35.5326C47.4682 35.5326 47.1411 35.4131 46.9138 35.1742C46.6865 34.9348 46.5728 34.5868 46.5728 34.1297C46.5728 33.6774 46.6854 33.332 46.9118 33.0934C47.1382 32.8545 47.467 32.7355 47.8977 32.7355C48.3299 32.7355 48.6576 32.854 48.8807 33.0906C49.1037 33.3272 49.2157 33.6746 49.2157 34.1334C49.2157 34.5905 49.1037 34.9379 48.8796 35.1759ZM42.3672 43.8605C43.084 43.8069 43.8025 43.7803 44.5213 43.7807C45.2678 43.7807 45.9874 43.8089 46.6758 43.8605C47.0243 43.8867 47.3351 44.1969 47.361 44.5452C47.4135 45.2341 47.4408 45.9534 47.4408 46.6996C47.4408 47.446 47.4132 48.1651 47.361 48.854C47.3351 49.2023 47.0249 49.5131 46.6758 49.5396C45.2415 49.6459 43.8014 49.6459 42.3672 49.5396C42.0186 49.5133 41.7084 49.2032 41.6819 48.854C41.63 48.166 41.6021 47.4458 41.6021 46.6996C41.6021 45.9534 41.6303 45.2338 41.6819 44.5452C41.7082 44.1969 42.0184 43.8864 42.3672 43.8605ZM47.0988 51.0739C46.8619 52.5146 46.5184 53.732 46.1233 54.6392C45.984 54.9598 45.5667 55.2545 45.2181 55.2824C44.9886 55.3004 44.7557 55.3106 44.5213 55.3106C44.2864 55.3106 44.0541 55.3013 43.824 55.2824C43.4754 55.2542 43.0583 54.9601 42.9188 54.6392C42.5243 53.732 42.1805 52.5149 41.9436 51.0739C41.8869 50.729 42.1317 50.4735 42.4803 50.4978C43.1576 50.5443 43.8414 50.5686 44.5205 50.5686C45.2001 50.5686 45.8848 50.5443 46.5616 50.4978C46.9104 50.4735 47.1554 50.7293 47.0988 51.0739ZM35.9386 47.3964C35.9016 46.9324 35.9016 46.4662 35.9386 46.0022C35.9668 45.6531 36.2612 45.2358 36.5818 45.0965C37.4887 44.7017 38.7066 44.3582 40.147 44.1213C40.4922 44.0649 40.7474 44.3094 40.7232 44.658C40.6769 45.335 40.6527 46.0197 40.6527 46.6982C40.6527 47.3772 40.6769 48.0619 40.7232 48.7387C40.7474 49.0875 40.4922 49.3323 40.147 49.2756C38.7063 49.0387 37.4887 48.6956 36.5818 48.3008C36.2612 48.162 35.9665 47.7452 35.9386 47.3964ZM36.8748 49.4471C37.8547 49.7979 39.0109 50.0683 40.2511 50.2561C40.5974 50.308 40.9129 50.6241 40.9648 50.9698C41.1521 52.2101 41.4228 53.3665 41.7736 54.3462C41.8915 54.6755 41.7321 54.8552 41.4056 54.7285C40.291 54.2944 39.2787 53.6334 38.4328 52.7876C37.587 51.9417 36.926 50.9294 36.4918 49.8148C36.3655 49.4888 36.5457 49.3292 36.8748 49.4471ZM51.0647 60.8061L37.9774 60.8083V59.1152H51.0647V60.8061ZM52.5508 49.8148C52.1167 50.9295 51.4558 51.942 50.6099 52.7879C49.764 53.6338 48.7516 54.2947 47.6368 54.7288C47.3108 54.8554 47.1509 54.6755 47.2688 54.3462C47.6196 53.3668 47.89 52.2098 48.0776 50.9701C48.1303 50.6238 48.4458 50.3077 48.7916 50.2561C50.0315 50.0689 51.188 49.7984 52.1679 49.4476C52.4973 49.3298 52.6775 49.4888 52.5508 49.8148ZM53.1041 47.397C53.0756 47.745 52.7815 48.1632 52.4609 48.3027C51.5537 48.6973 50.3361 49.041 48.8956 49.2779C48.5502 49.3346 48.2953 49.0901 48.3195 48.741C48.3658 48.0642 48.39 47.3789 48.39 46.7005C48.39 46.0211 48.3658 45.3364 48.3195 44.6597C48.2953 44.3108 48.5502 44.0661 48.8956 44.1227C50.3355 44.3596 51.5537 44.7028 52.4609 45.0979C52.7812 45.2375 53.0762 45.6545 53.1041 46.0031C53.1219 46.2326 53.132 46.4658 53.132 46.7005C53.132 46.9351 53.123 47.1669 53.1041 47.397ZM54.0138 33.3785H53.352V35.4954H52.6177V33.3785H51.9539V32.7781H54.0135V33.3785H54.0138ZM56.9762 60.0219C56.9762 60.1259 56.8403 60.2587 56.675 60.2742L56.0851 60.3165V31.1112C56.0851 31.0178 56.0667 30.9253 56.031 30.839C55.9953 30.7527 55.9429 30.6742 55.8769 30.6082C55.8108 30.5421 55.7324 30.4897 55.6461 30.4539C55.5598 30.4182 55.4673 30.3998 55.3739 30.3998H35.907L56.7469 29.0707L56.7949 29.0676C56.8828 29.0676 56.9762 29.106 56.9762 29.177V60.0219Z" fill="#F37329"/>
</g>
<defs>
<filter id="filter0_d_629_9804" x="0" y="0" width="90" height="90" filterUnits="userSpaceOnUse" color-interpolation-filters="sRGB">
<feFlood flood-opacity="0" result="BackgroundImageFix"/>
<feColorMatrix in="SourceAlpha" type="matrix" values="0 0 0 0 0 0 0 0 0 0 0 0 0 0 0 0 0 0 127 0" result="hardAlpha"/>
<feOffset/>
<feGaussianBlur stdDeviation="2.5"/>
<feComposite in2="hardAlpha" operator="out"/>
<feColorMatrix type="matrix" values="0 0 0 0 0 0 0 0 0 0 0 0 0 0 0 0 0 0 0.2 0"/>
<feBlend mode="normal" in2="BackgroundImageFix" result="effect1_dropShadow_629_9804"/>
<feBlend mode="normal" in="SourceGraphic" in2="effect1_dropShadow_629_9804" result="shape"/>
</filter>
<filter id="filter1_d_629_9804" x="10" y="10" width="70" height="70" filterUnits="userSpaceOnUse" color-interpolation-filters="sRGB">
<feFlood flood-opacity="0" result="BackgroundImageFix"/>
<feColorMatrix in="SourceAlpha" type="matrix" values="0 0 0 0 0 0 0 0 0 0 0 0 0 0 0 0 0 0 127 0" result="hardAlpha"/>
<feOffset/>
<feGaussianBlur stdDeviation="2.5"/>
<feComposite in2="hardAlpha" operator="out"/>
<feColorMatrix type="matrix" values="0 0 0 0 0 0 0 0 0 0 0 0 0 0 0 0 0 0 0.2 0"/>
<feBlend mode="normal" in2="BackgroundImageFix" result="effect1_dropShadow_629_9804"/>
<feBlend mode="normal" in="SourceGraphic" in2="effect1_dropShadow_629_9804" result="shape"/>
</filter>
<filter id="filter2_d_629_9804" x="30.5654" y="10" width="49.0605" height="35.9512" filterUnits="userSpaceOnUse" color-interpolation-filters="sRGB">
<feFlood flood-opacity="0" result="BackgroundImageFix"/>
<feColorMatrix in="SourceAlpha" type="matrix" values="0 0 0 0 0 0 0 0 0 0 0 0 0 0 0 0 0 0 127 0" result="hardAlpha"/>
<feOffset/>
<feGaussianBlur stdDeviation="2.5"/>
<feComposite in2="hardAlpha" operator="out"/>
<feColorMatrix type="matrix" values="0 0 0 0 0 0 0 0 0 0 0 0 0 0 0 0 0 0 0.2 0"/>
<feBlend mode="normal" in2="BackgroundImageFix" result="effect1_dropShadow_629_9804"/>
<feBlend mode="normal" in="SourceGraphic" in2="effect1_dropShadow_629_9804" result="shape"/>
</filter>
<filter id="filter3_d_629_9804" x="10" y="40" width="44.835" height="40" filterUnits="userSpaceOnUse" color-interpolation-filters="sRGB">
<feFlood flood-opacity="0" result="BackgroundImageFix"/>
<feColorMatrix in="SourceAlpha" type="matrix" values="0 0 0 0 0 0 0 0 0 0 0 0 0 0 0 0 0 0 127 0" result="hardAlpha"/>
<feOffset/>
<feGaussianBlur stdDeviation="2.5"/>
<feComposite in2="hardAlpha" operator="out"/>
<feColorMatrix type="matrix" values="0 0 0 0 0 0 0 0 0 0 0 0 0 0 0 0 0 0 0.2 0"/>
<feBlend mode="normal" in2="BackgroundImageFix" result="effect1_dropShadow_629_9804"/>
<feBlend mode="normal" in="SourceGraphic" in2="effect1_dropShadow_629_9804" result="shape"/>
</filter>
<clipPath id="clip0_629_9804">
<rect width="35" height="35" fill="white" transform="translate(28 28)"/>
</clipPath>
</defs>
</svg>
