<svg width="90" height="90" viewBox="0 0 90 90" fill="none" xmlns="http://www.w3.org/2000/svg">
<g filter="url(#filter0_d_629_9795)">
<circle cx="45" cy="45" r="40" fill="#FDFDFD"/>
<circle cx="45" cy="45" r="39.5" stroke="#F37329" stroke-dasharray="2 2"/>
</g>
<g filter="url(#filter1_d_629_9795)">
<circle cx="45" cy="45" r="30" fill="#FDFDFD"/>
</g>
<g filter="url(#filter2_d_629_9795)">
<path d="M74.6264 40.2777C73.942 35.9833 72.332 31.8889 69.9082 28.2784C67.4843 24.6679 64.3045 21.6275 60.589 19.3678C56.8735 17.1082 52.7111 15.6833 48.3903 15.1919C44.0695 14.7005 39.6935 15.1543 35.5655 16.522L36.9112 20.5837C40.4504 19.4111 44.2023 19.022 47.9068 19.4433C51.6114 19.8646 55.1801 21.0863 58.3656 23.0236C61.5512 24.961 64.2775 27.5678 66.3556 30.6633C68.4338 33.7589 69.8141 37.2693 70.401 40.9512L74.6264 40.2777Z" fill="#F37329"/>
</g>
<g filter="url(#filter3_d_629_9795)">
<path d="M15 45C15 49.3487 15.9454 53.6454 17.7708 57.5924C19.5961 61.5395 22.2577 65.0425 25.5713 67.8588C28.8848 70.6751 32.771 72.7374 36.9606 73.9027C41.1502 75.0681 45.5431 75.3087 49.8349 74.6078L49.1453 70.3849C45.4656 70.9858 41.6993 70.7796 38.1072 69.7804C34.5151 68.7813 31.1832 67.0131 28.3423 64.5985C25.5014 62.1839 23.2194 59.1805 21.6544 55.7964C20.0894 52.4123 19.2788 48.7284 19.2788 45L15 45Z" fill="#F37329"/>
</g>
<path fill-rule="evenodd" clip-rule="evenodd" d="M57.4062 54.6904H59.7321C60.179 54.6904 60.5858 54.5071 60.8809 54.2119C61.1761 53.9167 61.3594 53.51 61.3594 53.0631V45.0731C61.3594 44.9281 61.417 44.789 61.5196 44.6864C61.6221 44.5838 61.7612 44.5262 61.9062 44.5262C62.0513 44.5262 62.1904 44.5838 62.2929 44.6864C62.3955 44.789 62.4531 44.9281 62.4531 45.0731V53.0631C62.4531 53.812 62.1471 54.4923 61.6543 54.9853C61.1613 55.4782 60.481 55.7841 59.7321 55.7841H56.5796V61.9062H55.112V55.7841C54.967 55.7841 54.8279 55.7265 54.7253 55.6239C54.6228 55.5214 54.5651 55.3823 54.5651 55.2372H53.7638C53.1912 55.2372 52.8924 55.6948 52.7201 56.281L51.0668 61.9062H50.6431V54.8922C51.4593 52.9278 52.6305 51.7581 54.6788 51.7581C55.1631 51.7581 55.6106 51.8293 55.9889 51.451C56.1784 51.2614 56.2961 51.0007 56.2961 50.7144V49.0617L58.2865 47.7773C59.3061 47.1194 59.6054 45.7505 58.9496 44.7287C58.4101 43.8882 57.3864 43.5356 56.4715 43.8024C56.755 43.2239 57.3523 42.8286 58.0409 42.8286C58.9961 42.8286 59.7751 43.6077 59.7751 44.5629V50.7143C59.7751 51.961 59.2675 53.0919 58.4488 53.9107C58.1404 54.2193 57.7893 54.4818 57.4062 54.6904ZM46.0007 36.7963V30.1476C46.0007 29.5671 46.4741 29.0938 47.0545 29.0938H54.7728C55.3533 29.0938 55.8266 29.5671 55.8266 30.1476V36.7963C55.8266 37.3767 55.3532 37.85 54.7728 37.85H53.8811V39.9967L51.8189 37.85H47.0545C46.4741 37.8501 46.0007 37.3767 46.0007 36.7963ZM50.8396 35.831C50.7721 35.831 50.7052 35.8443 50.6428 35.8701C50.5804 35.896 50.5238 35.9338 50.476 35.9816C50.4282 36.0293 50.3904 36.086 50.3645 36.1484C50.3387 36.2108 50.3254 36.2777 50.3254 36.3452C50.3254 36.4127 50.3387 36.4796 50.3645 36.542C50.3904 36.6044 50.4282 36.6611 50.476 36.7088C50.5238 36.7566 50.5804 36.7945 50.6428 36.8203C50.7052 36.8461 50.7721 36.8594 50.8396 36.8594C50.976 36.8594 51.1068 36.8053 51.2032 36.7088C51.2997 36.6124 51.3539 36.4816 51.3539 36.3452C51.3539 36.2088 51.2997 36.078 51.2032 35.9816C51.1068 35.8852 50.976 35.831 50.8396 35.831ZM51.3989 35.1613L51.4051 34.8916C51.4123 34.5784 51.5812 34.3183 51.8635 34.183C52.6316 33.8151 53.1241 33.0498 53.1241 32.196C53.1241 30.9792 52.1304 29.9856 50.9136 29.9856C49.6967 29.9856 48.7031 30.9792 48.7031 32.196C48.7031 32.3411 48.7607 32.4802 48.8633 32.5827C48.9658 32.6853 49.1049 32.7429 49.25 32.7429C49.395 32.7429 49.5341 32.6853 49.6367 32.5827C49.7392 32.4802 49.7969 32.3411 49.7969 32.196C49.7969 31.583 50.3005 31.0793 50.9136 31.0793C51.5267 31.0793 52.0303 31.583 52.0303 32.196C52.0303 32.6255 51.7801 33.0152 51.3935 33.2004C50.7337 33.5165 50.3324 34.1389 50.3156 34.8702L50.3094 35.1399C50.3065 35.2844 50.3612 35.4241 50.4613 35.5283C50.5615 35.6324 50.6989 35.6925 50.8434 35.6954C50.9879 35.6982 51.1276 35.6436 51.2317 35.5434C51.3359 35.4432 51.396 35.3058 51.3989 35.1613ZM44.42 36.7963V30.1476C44.42 29.5671 43.9466 29.0938 43.3662 29.0938H35.6478C35.0674 29.0938 34.5941 29.5671 34.5941 30.1476V36.7963C34.5941 37.3767 35.0675 37.85 35.6478 37.85H36.5396V39.9967L38.6017 37.85H43.3662C43.9466 37.8501 44.42 37.3767 44.42 36.7963ZM37.0863 34.0188C36.9412 34.0188 36.8021 33.9612 36.6996 33.8586C36.597 33.756 36.5394 33.6169 36.5394 33.4719C36.5394 33.3269 36.597 33.1878 36.6996 33.0852C36.8021 32.9826 36.9412 32.925 37.0863 32.925H41.9278C42.0729 32.925 42.212 32.9826 42.3145 33.0852C42.4171 33.1878 42.4747 33.3269 42.4747 33.4719C42.4747 33.6169 42.4171 33.756 42.3145 33.8586C42.212 33.9612 42.0729 34.0188 41.9278 34.0188H37.0863ZM37.0863 31.955C36.9412 31.955 36.8021 31.8974 36.6996 31.7948C36.597 31.6923 36.5394 31.5532 36.5394 31.4081C36.5394 31.2631 36.597 31.124 36.6996 31.0214C36.8021 30.9189 36.9412 30.8612 37.0863 30.8612H41.9278C42.0729 30.8612 42.212 30.9189 42.3145 31.0214C42.4171 31.124 42.4747 31.2631 42.4747 31.4081C42.4747 31.5532 42.4171 31.6923 42.3145 31.7948C42.212 31.8974 42.0729 31.955 41.9278 31.955H37.0863ZM37.0863 36.0825C36.9412 36.0825 36.8021 36.0249 36.6996 35.9224C36.597 35.8198 36.5394 35.6807 36.5394 35.5357C36.5394 35.3906 36.597 35.2515 36.6996 35.149C36.8021 35.0464 36.9412 34.9888 37.0863 34.9888H41.9278C42.0729 34.9888 42.212 35.0464 42.3145 35.149C42.4171 35.2515 42.4747 35.3906 42.4747 35.5357C42.4747 35.6807 42.4171 35.8198 42.3145 35.9224C42.212 36.0249 42.0729 36.0825 41.9278 36.0825H37.0863ZM38.057 49.5785V51.1669H41.4507V61.9062H49.5494V51.1669H52.9431V49.5785H38.057ZM36.1527 48.4844C35.9394 48.4838 35.7307 48.4222 35.5512 48.3068L33.3065 46.8584C32.7889 46.5261 32.6387 45.8371 32.9709 45.3195C33.3031 44.8019 33.9921 44.6517 34.5097 44.9839L36.4774 46.2536H41.7246C42.341 46.2536 42.8406 46.7532 42.8406 47.3695C42.8406 47.9858 42.341 48.4855 41.7246 48.4855L36.1527 48.4844ZM32.9643 37.6258C34.1836 37.6258 35.172 38.6142 35.172 39.8334C35.172 41.0527 34.1836 42.0411 32.9643 42.0411C31.7451 42.0411 30.7567 41.0527 30.7567 39.8334C30.7567 38.6142 31.7451 37.6258 32.9643 37.6258ZM34.7039 50.7145C34.7039 51.2871 35.175 51.7582 35.7476 51.7582H36.3212C38.3696 51.7582 39.5407 52.9279 40.357 54.8924V61.9062H39.9333L38.28 56.2809C38.1077 55.6948 37.8089 55.2372 37.2362 55.2372H36.4349C36.4349 55.3822 36.3772 55.5213 36.2747 55.6239C36.1721 55.7264 36.033 55.7841 35.888 55.7841V61.9062H34.4204V55.7841H31.2679C30.5191 55.7841 29.8387 55.4781 29.3458 54.9853C28.8529 54.4924 28.5469 53.812 28.5469 53.0631V45.0731C28.5469 44.9281 28.6045 44.789 28.7071 44.6864C28.8096 44.5838 28.9487 44.5262 29.0938 44.5262C29.2388 44.5262 29.3779 44.5838 29.4804 44.6864C29.583 44.789 29.6406 44.9281 29.6406 45.0731V53.0631C29.6406 53.51 29.8239 53.9167 30.1191 54.2119C30.4142 54.5071 30.821 54.6904 31.2679 54.6904H33.5938C33.2107 54.4818 32.8596 54.2193 32.5512 53.9109C31.7324 53.0921 31.2248 51.9611 31.2248 50.7145V44.5631C31.2248 43.6078 32.0039 42.8287 32.9591 42.8287C33.6477 42.8287 34.245 43.224 34.5285 43.8026C33.6135 43.5358 32.5899 43.8882 32.0504 44.7288C31.3945 45.7506 31.6938 47.1195 32.7134 47.7775L34.7039 49.0619L34.7039 50.7145ZM54.8473 48.4844C55.0606 48.4838 55.2693 48.4222 55.4488 48.3068L57.6935 46.8584C58.2111 46.5261 58.3613 45.8371 58.0291 45.3195C57.6969 44.8019 57.0079 44.6517 56.4903 44.9839L54.5227 46.2536H49.2754C48.6591 46.2536 48.1595 46.7532 48.1595 47.3695C48.1595 47.9858 48.6591 48.4855 49.2754 48.4855L54.8473 48.4844ZM58.0357 37.6258C56.8164 37.6258 55.828 38.6142 55.828 39.8334C55.828 41.0527 56.8164 42.0411 58.0357 42.0411C59.2549 42.0411 60.2433 41.0527 60.2433 39.8334C60.2433 38.6142 59.2549 37.6258 58.0357 37.6258Z" fill="#F37329"/>
<defs>
<filter id="filter0_d_629_9795" x="0" y="0" width="90" height="90" filterUnits="userSpaceOnUse" color-interpolation-filters="sRGB">
<feFlood flood-opacity="0" result="BackgroundImageFix"/>
<feColorMatrix in="SourceAlpha" type="matrix" values="0 0 0 0 0 0 0 0 0 0 0 0 0 0 0 0 0 0 127 0" result="hardAlpha"/>
<feOffset/>
<feGaussianBlur stdDeviation="2.5"/>
<feComposite in2="hardAlpha" operator="out"/>
<feColorMatrix type="matrix" values="0 0 0 0 0 0 0 0 0 0 0 0 0 0 0 0 0 0 0.2 0"/>
<feBlend mode="normal" in2="BackgroundImageFix" result="effect1_dropShadow_629_9795"/>
<feBlend mode="normal" in="SourceGraphic" in2="effect1_dropShadow_629_9795" result="shape"/>
</filter>
<filter id="filter1_d_629_9795" x="10" y="10" width="70" height="70" filterUnits="userSpaceOnUse" color-interpolation-filters="sRGB">
<feFlood flood-opacity="0" result="BackgroundImageFix"/>
<feColorMatrix in="SourceAlpha" type="matrix" values="0 0 0 0 0 0 0 0 0 0 0 0 0 0 0 0 0 0 127 0" result="hardAlpha"/>
<feOffset/>
<feGaussianBlur stdDeviation="2.5"/>
<feComposite in2="hardAlpha" operator="out"/>
<feColorMatrix type="matrix" values="0 0 0 0 0 0 0 0 0 0 0 0 0 0 0 0 0 0 0.2 0"/>
<feBlend mode="normal" in2="BackgroundImageFix" result="effect1_dropShadow_629_9795"/>
<feBlend mode="normal" in="SourceGraphic" in2="effect1_dropShadow_629_9795" result="shape"/>
</filter>
<filter id="filter2_d_629_9795" x="30.5654" y="10" width="49.0605" height="35.9512" filterUnits="userSpaceOnUse" color-interpolation-filters="sRGB">
<feFlood flood-opacity="0" result="BackgroundImageFix"/>
<feColorMatrix in="SourceAlpha" type="matrix" values="0 0 0 0 0 0 0 0 0 0 0 0 0 0 0 0 0 0 127 0" result="hardAlpha"/>
<feOffset/>
<feGaussianBlur stdDeviation="2.5"/>
<feComposite in2="hardAlpha" operator="out"/>
<feColorMatrix type="matrix" values="0 0 0 0 0 0 0 0 0 0 0 0 0 0 0 0 0 0 0.2 0"/>
<feBlend mode="normal" in2="BackgroundImageFix" result="effect1_dropShadow_629_9795"/>
<feBlend mode="normal" in="SourceGraphic" in2="effect1_dropShadow_629_9795" result="shape"/>
</filter>
<filter id="filter3_d_629_9795" x="10" y="40" width="44.835" height="40" filterUnits="userSpaceOnUse" color-interpolation-filters="sRGB">
<feFlood flood-opacity="0" result="BackgroundImageFix"/>
<feColorMatrix in="SourceAlpha" type="matrix" values="0 0 0 0 0 0 0 0 0 0 0 0 0 0 0 0 0 0 127 0" result="hardAlpha"/>
<feOffset/>
<feGaussianBlur stdDeviation="2.5"/>
<feComposite in2="hardAlpha" operator="out"/>
<feColorMatrix type="matrix" values="0 0 0 0 0 0 0 0 0 0 0 0 0 0 0 0 0 0 0.2 0"/>
<feBlend mode="normal" in2="BackgroundImageFix" result="effect1_dropShadow_629_9795"/>
<feBlend mode="normal" in="SourceGraphic" in2="effect1_dropShadow_629_9795" result="shape"/>
</filter>
</defs>
</svg>
