<svg width="90" height="90" viewBox="0 0 90 90" fill="none" xmlns="http://www.w3.org/2000/svg">
<g filter="url(#filter0_d_629_9764)">
<circle cx="45" cy="45" r="40" fill="#FDFDFD"/>
<circle cx="45" cy="45" r="39.5" stroke="#F37329" stroke-dasharray="2 2"/>
</g>
<g filter="url(#filter1_d_629_9764)">
<circle cx="45" cy="45" r="30" fill="#FDFDFD"/>
</g>
<g filter="url(#filter2_d_629_9764)">
<path d="M74.6264 40.2777C73.942 35.9833 72.332 31.8889 69.9082 28.2784C67.4843 24.6679 64.3045 21.6275 60.589 19.3678C56.8735 17.1082 52.7111 15.6833 48.3903 15.1919C44.0695 14.7005 39.6935 15.1543 35.5655 16.522L36.9112 20.5837C40.4504 19.4111 44.2023 19.022 47.9068 19.4433C51.6114 19.8646 55.1801 21.0863 58.3656 23.0236C61.5512 24.961 64.2775 27.5678 66.3556 30.6633C68.4338 33.7589 69.8141 37.2693 70.401 40.9512L74.6264 40.2777Z" fill="#F37329"/>
</g>
<g filter="url(#filter3_d_629_9764)">
<path d="M15 45C15 49.3487 15.9454 53.6454 17.7708 57.5924C19.5961 61.5395 22.2577 65.0425 25.5713 67.8588C28.8848 70.6751 32.771 72.7374 36.9606 73.9027C41.1502 75.0681 45.5431 75.3087 49.8349 74.6078L49.1453 70.3849C45.4656 70.9858 41.6993 70.7796 38.1072 69.7804C34.5151 68.7813 31.1832 67.0131 28.3423 64.5985C25.5014 62.1839 23.2194 59.1805 21.6544 55.7964C20.0894 52.4123 19.2788 48.7284 19.2788 45L15 45Z" fill="#F37329"/>
</g>
<path d="M44.9531 50.3121V48.2777C44.4008 48.2996 43.8539 48.3488 43.318 48.4309C43.7445 49.3824 44.3188 50.066 44.9531 50.3176V50.3121ZM42.5469 43.859H44.9531V41.6605C44.2695 41.6387 43.5914 41.5676 42.9297 41.4527C42.7219 42.1801 42.5852 42.9949 42.5469 43.859ZM42.9352 47.3754C43.5969 47.266 44.275 47.2059 44.9531 47.184V44.9527H42.5469C42.5852 45.8223 42.7273 46.6426 42.9352 47.3754ZM43.318 40.3863C43.8539 40.4684 44.4008 40.5176 44.9531 40.5395V38.5051C44.3133 38.7566 43.7445 39.4402 43.318 40.3918V40.3863ZM41.8578 41.223C41.4477 41.1191 41.043 40.9988 40.6547 40.8566C40.0258 41.7152 39.6156 42.7434 39.5117 43.859H41.4531C41.4914 42.9129 41.6336 42.0215 41.8578 41.223ZM41.4586 48.852C41.8633 49.2238 42.3227 49.5355 42.8203 49.7871C42.5961 49.448 42.3938 49.0652 42.2188 48.6441C41.9617 48.7043 41.7047 48.7754 41.4586 48.852ZM49.5414 39.9598C49.1367 39.5879 48.6773 39.2762 48.1797 39.0246C48.4039 39.3637 48.6063 39.7465 48.7812 40.1676C49.0383 40.1074 49.2953 40.0363 49.5414 39.9598ZM42.8203 39.0246C42.3227 39.2707 41.8688 39.5879 41.4586 39.9598C41.7102 40.0363 41.9617 40.1074 42.2188 40.1676C42.3938 39.7465 42.5961 39.3637 42.8203 39.0246ZM41.4531 44.9527H39.5117C39.6156 46.0738 40.0258 47.1074 40.6602 47.966C41.0484 47.8293 41.4477 47.7035 41.8578 47.6051C41.6336 46.8012 41.4859 45.9043 41.4477 44.9527H41.4531ZM46.0469 38.4996V40.534C46.5992 40.5121 47.1461 40.4629 47.682 40.3809C47.2555 39.4293 46.6813 38.7457 46.0469 38.4941V38.4996ZM49.1367 47.6051C49.5469 47.709 49.9461 47.8293 50.3344 47.966C50.9688 47.1074 51.3844 46.0738 51.4828 44.9527H49.5414C49.5031 45.9043 49.3609 46.8012 49.1313 47.6051H49.1367ZM49.1422 41.223C49.3664 42.0215 49.5086 42.9129 49.5469 43.859H51.4883C51.3844 42.7434 50.9742 41.7152 50.3453 40.8566C49.957 40.9988 49.5523 41.1191 49.1422 41.223Z" fill="#F37329"/>
<path d="M54.7969 34.5625H35.1094V59.7188C35.1094 60.3203 35.6016 60.8125 36.2031 60.8125H54.7969C55.3984 60.8125 55.8906 60.3203 55.8906 59.7188V35.6562C55.8906 35.0547 55.3984 34.5625 54.7969 34.5625ZM51.7891 58.0781H39.2109C38.9102 58.0781 38.6641 57.832 38.6641 57.5312C38.6641 57.2305 38.9102 56.9844 39.2109 56.9844H51.7891C52.0898 56.9844 52.3359 57.2305 52.3359 57.5312C52.3359 57.832 52.0898 58.0781 51.7891 58.0781ZM40.5781 54.7969C40.5781 54.4961 40.8242 54.25 41.125 54.25H49.875C50.1758 54.25 50.4219 54.4961 50.4219 54.7969C50.4219 55.0977 50.1758 55.3438 49.875 55.3438H41.125C40.8242 55.3438 40.5781 55.0977 40.5781 54.7969ZM45.5 51.5156C41.5789 51.5156 38.3906 48.3273 38.3906 44.4062C38.3906 40.4852 41.5789 37.2969 45.5 37.2969C49.4211 37.2969 52.6094 40.4852 52.6094 44.4062C52.6094 48.3273 49.4211 51.5156 45.5 51.5156Z" fill="#F37329"/>
<path d="M46.0469 44.9532V47.1845C46.725 47.2063 47.4031 47.2665 48.0648 47.3759C48.2781 46.643 48.4148 45.8227 48.4531 44.9532H46.0469ZM46.0469 50.3126C46.6867 50.061 47.2555 49.3774 47.682 48.4259C47.1461 48.3438 46.5992 48.2946 46.0469 48.2727V50.3071V50.3126ZM48.0703 41.4532C47.4086 41.568 46.7305 41.6391 46.0469 41.661V43.8594H48.4531C48.4148 42.9954 48.2781 42.1805 48.0703 41.4532ZM48.1797 49.7821C48.6773 49.536 49.1312 49.2188 49.5414 48.8469C49.2898 48.7704 49.0383 48.6993 48.7812 48.6391C48.6062 49.0602 48.4039 49.443 48.1797 49.7821ZM53.7031 33.4688V30.8766C53.7031 30.5266 53.375 30.2641 53.0305 30.3462L39.7578 33.4688H53.7031Z" fill="#F37329"/>
<defs>
<filter id="filter0_d_629_9764" x="0" y="0" width="90" height="90" filterUnits="userSpaceOnUse" color-interpolation-filters="sRGB">
<feFlood flood-opacity="0" result="BackgroundImageFix"/>
<feColorMatrix in="SourceAlpha" type="matrix" values="0 0 0 0 0 0 0 0 0 0 0 0 0 0 0 0 0 0 127 0" result="hardAlpha"/>
<feOffset/>
<feGaussianBlur stdDeviation="2.5"/>
<feComposite in2="hardAlpha" operator="out"/>
<feColorMatrix type="matrix" values="0 0 0 0 0 0 0 0 0 0 0 0 0 0 0 0 0 0 0.2 0"/>
<feBlend mode="normal" in2="BackgroundImageFix" result="effect1_dropShadow_629_9764"/>
<feBlend mode="normal" in="SourceGraphic" in2="effect1_dropShadow_629_9764" result="shape"/>
</filter>
<filter id="filter1_d_629_9764" x="10" y="10" width="70" height="70" filterUnits="userSpaceOnUse" color-interpolation-filters="sRGB">
<feFlood flood-opacity="0" result="BackgroundImageFix"/>
<feColorMatrix in="SourceAlpha" type="matrix" values="0 0 0 0 0 0 0 0 0 0 0 0 0 0 0 0 0 0 127 0" result="hardAlpha"/>
<feOffset/>
<feGaussianBlur stdDeviation="2.5"/>
<feComposite in2="hardAlpha" operator="out"/>
<feColorMatrix type="matrix" values="0 0 0 0 0 0 0 0 0 0 0 0 0 0 0 0 0 0 0.2 0"/>
<feBlend mode="normal" in2="BackgroundImageFix" result="effect1_dropShadow_629_9764"/>
<feBlend mode="normal" in="SourceGraphic" in2="effect1_dropShadow_629_9764" result="shape"/>
</filter>
<filter id="filter2_d_629_9764" x="30.5654" y="10" width="49.0605" height="35.9512" filterUnits="userSpaceOnUse" color-interpolation-filters="sRGB">
<feFlood flood-opacity="0" result="BackgroundImageFix"/>
<feColorMatrix in="SourceAlpha" type="matrix" values="0 0 0 0 0 0 0 0 0 0 0 0 0 0 0 0 0 0 127 0" result="hardAlpha"/>
<feOffset/>
<feGaussianBlur stdDeviation="2.5"/>
<feComposite in2="hardAlpha" operator="out"/>
<feColorMatrix type="matrix" values="0 0 0 0 0 0 0 0 0 0 0 0 0 0 0 0 0 0 0.2 0"/>
<feBlend mode="normal" in2="BackgroundImageFix" result="effect1_dropShadow_629_9764"/>
<feBlend mode="normal" in="SourceGraphic" in2="effect1_dropShadow_629_9764" result="shape"/>
</filter>
<filter id="filter3_d_629_9764" x="10" y="40" width="44.835" height="40" filterUnits="userSpaceOnUse" color-interpolation-filters="sRGB">
<feFlood flood-opacity="0" result="BackgroundImageFix"/>
<feColorMatrix in="SourceAlpha" type="matrix" values="0 0 0 0 0 0 0 0 0 0 0 0 0 0 0 0 0 0 127 0" result="hardAlpha"/>
<feOffset/>
<feGaussianBlur stdDeviation="2.5"/>
<feComposite in2="hardAlpha" operator="out"/>
<feColorMatrix type="matrix" values="0 0 0 0 0 0 0 0 0 0 0 0 0 0 0 0 0 0 0.2 0"/>
<feBlend mode="normal" in2="BackgroundImageFix" result="effect1_dropShadow_629_9764"/>
<feBlend mode="normal" in="SourceGraphic" in2="effect1_dropShadow_629_9764" result="shape"/>
</filter>
</defs>
</svg>
