<svg width="90" height="90" viewBox="0 0 90 90" fill="none" xmlns="http://www.w3.org/2000/svg">
<g filter="url(#filter0_d_629_9735)">
<circle cx="45" cy="45" r="40" fill="#FDFDFD"/>
<circle cx="45" cy="45" r="39.5" stroke="#F37329" stroke-dasharray="2 2"/>
</g>
<g filter="url(#filter1_d_629_9735)">
<circle cx="45" cy="45" r="30" fill="#FDFDFD"/>
</g>
<g filter="url(#filter2_d_629_9735)">
<path d="M74.6264 40.2777C73.942 35.9833 72.332 31.8889 69.9082 28.2784C67.4843 24.6679 64.3045 21.6275 60.589 19.3678C56.8735 17.1082 52.7111 15.6833 48.3903 15.1919C44.0695 14.7005 39.6935 15.1543 35.5655 16.522L36.9112 20.5837C40.4504 19.4111 44.2023 19.022 47.9068 19.4433C51.6114 19.8646 55.1801 21.0863 58.3656 23.0236C61.5512 24.961 64.2775 27.5678 66.3556 30.6633C68.4338 33.7589 69.8141 37.2693 70.401 40.9512L74.6264 40.2777Z" fill="#F37329"/>
</g>
<g filter="url(#filter3_d_629_9735)">
<path d="M15 45C15 49.3487 15.9454 53.6454 17.7708 57.5924C19.5961 61.5395 22.2577 65.0425 25.5713 67.8588C28.8848 70.6751 32.771 72.7374 36.9606 73.9027C41.1502 75.0681 45.5431 75.3087 49.8349 74.6078L49.1453 70.3849C45.4656 70.9858 41.6993 70.7796 38.1072 69.7804C34.5151 68.7813 31.1832 67.0131 28.3423 64.5985C25.5014 62.1839 23.2194 59.1805 21.6544 55.7964C20.0894 52.4123 19.2788 48.7284 19.2788 45L15 45Z" fill="#F37329"/>
</g>
<path d="M59.498 48.5303V45.8411C59.498 45.5203 59.2355 45.2578 58.9147 45.2578H53.0172V49.1136H58.9147C59.2355 49.1136 59.498 48.8511 59.498 48.5303ZM32.0814 49.1136H37.9847V45.2578H32.0814C31.7605 45.2578 31.498 45.5203 31.498 45.8411V48.5303C31.498 48.8511 31.7605 49.1136 32.0814 49.1136ZM50.3339 35.522C50.6605 35.522 50.9172 35.2595 50.9172 34.9386V32.2728C50.9172 31.952 50.6605 31.6895 50.3339 31.6895H45.498C45.1772 31.6895 44.9147 31.952 44.9147 32.2728V36.3194L37.9882 43.2453C37.9325 43.2991 37.8881 43.3635 37.8575 43.4346C37.8269 43.5058 37.8108 43.5823 37.8102 43.6598C37.8095 43.7373 37.8242 43.8141 37.8536 43.8858C37.8829 43.9575 37.9262 44.0226 37.981 44.0774C38.0358 44.1321 38.1009 44.1754 38.1726 44.2048C38.2443 44.2341 38.3211 44.2489 38.3985 44.2482C38.476 44.2475 38.5525 44.2314 38.6237 44.2008C38.6949 44.1703 38.7592 44.1258 38.813 44.0701L45.5004 37.3834L52.1871 44.0701C52.2412 44.1246 52.3055 44.1678 52.3763 44.1973C52.4471 44.2268 52.5231 44.2419 52.5998 44.2419C52.6766 44.2419 52.7525 44.2268 52.8234 44.1973C52.8942 44.1678 52.9585 44.1246 53.0125 44.0701C53.1219 43.9607 53.1833 43.8124 53.1833 43.6577C53.1833 43.503 53.1219 43.3547 53.0125 43.2453L46.0814 36.3147V35.522H50.3339Z" fill="#F37329"/>
<path d="M58.9167 58.1415H57.596V50.2799H53.0168V58.1415H51.8502V45.3799L45.4977 39.0332L39.151 45.3799V58.1415H37.9843V50.2799H33.4052V58.1415H32.0833C31.9286 58.1415 31.7803 58.2029 31.6709 58.3123C31.5615 58.4217 31.5 58.5701 31.5 58.7248C31.5 58.8795 31.5615 59.0279 31.6709 59.1373C31.7803 59.2467 31.9286 59.3081 32.0833 59.3081H33.9792C33.9827 59.3081 33.985 59.3099 33.9885 59.3099H38.0893V59.3081H39.725C39.7285 59.3081 39.7308 59.3099 39.7343 59.3099H42.7385C42.735 59.3099 42.7327 59.3081 42.7292 59.3081H48.272C48.2685 59.3081 48.2662 59.3099 48.2627 59.3099H51.2668C51.2703 59.3099 51.2727 59.3081 51.2762 59.3081H52.9124L52.9118 59.3099H57.0127C57.0162 59.3099 57.0185 59.3081 57.022 59.3081H58.9167C59.0714 59.3081 59.2198 59.2467 59.3291 59.1373C59.4385 59.0279 59.5 58.8795 59.5 58.7248C59.5 58.5701 59.4385 58.4217 59.3291 58.3123C59.2198 58.2029 59.0714 58.1415 58.9167 58.1415ZM45.4977 41.9948C45.7442 41.994 45.9884 42.0419 46.2163 42.1358C46.4442 42.2296 46.6514 42.3675 46.8259 42.5416C47.0004 42.7157 47.1388 42.9225 47.2332 43.1502C47.3276 43.3779 47.3762 43.622 47.376 43.8685C47.3757 44.1148 47.3269 44.3586 47.2323 44.5861C47.1377 44.8136 46.9993 45.0202 46.8248 45.1941C46.6504 45.368 46.4434 45.5059 46.2157 45.5998C45.988 45.6938 45.744 45.7419 45.4977 45.7415C45.001 45.7412 44.5247 45.5438 44.1735 45.1926C43.8223 44.8414 43.6249 44.3651 43.6246 43.8685C43.6243 43.6224 43.6725 43.3786 43.7665 43.1512C43.8605 42.9238 43.9985 42.7171 44.1725 42.5431C44.3465 42.3691 44.5531 42.231 44.7805 42.137C45.0079 42.0429 45.2516 41.9946 45.4977 41.9948ZM42.2135 51.779C42.2135 51.4932 42.4468 51.254 42.7385 51.254H48.2627C48.5543 51.254 48.7877 51.4932 48.7877 51.779V58.1415H42.2135V51.779Z" fill="#F37329"/>
<defs>
<filter id="filter0_d_629_9735" x="0" y="0" width="90" height="90" filterUnits="userSpaceOnUse" color-interpolation-filters="sRGB">
<feFlood flood-opacity="0" result="BackgroundImageFix"/>
<feColorMatrix in="SourceAlpha" type="matrix" values="0 0 0 0 0 0 0 0 0 0 0 0 0 0 0 0 0 0 127 0" result="hardAlpha"/>
<feOffset/>
<feGaussianBlur stdDeviation="2.5"/>
<feComposite in2="hardAlpha" operator="out"/>
<feColorMatrix type="matrix" values="0 0 0 0 0 0 0 0 0 0 0 0 0 0 0 0 0 0 0.2 0"/>
<feBlend mode="normal" in2="BackgroundImageFix" result="effect1_dropShadow_629_9735"/>
<feBlend mode="normal" in="SourceGraphic" in2="effect1_dropShadow_629_9735" result="shape"/>
</filter>
<filter id="filter1_d_629_9735" x="10" y="10" width="70" height="70" filterUnits="userSpaceOnUse" color-interpolation-filters="sRGB">
<feFlood flood-opacity="0" result="BackgroundImageFix"/>
<feColorMatrix in="SourceAlpha" type="matrix" values="0 0 0 0 0 0 0 0 0 0 0 0 0 0 0 0 0 0 127 0" result="hardAlpha"/>
<feOffset/>
<feGaussianBlur stdDeviation="2.5"/>
<feComposite in2="hardAlpha" operator="out"/>
<feColorMatrix type="matrix" values="0 0 0 0 0 0 0 0 0 0 0 0 0 0 0 0 0 0 0.2 0"/>
<feBlend mode="normal" in2="BackgroundImageFix" result="effect1_dropShadow_629_9735"/>
<feBlend mode="normal" in="SourceGraphic" in2="effect1_dropShadow_629_9735" result="shape"/>
</filter>
<filter id="filter2_d_629_9735" x="30.5654" y="10" width="49.0605" height="35.9512" filterUnits="userSpaceOnUse" color-interpolation-filters="sRGB">
<feFlood flood-opacity="0" result="BackgroundImageFix"/>
<feColorMatrix in="SourceAlpha" type="matrix" values="0 0 0 0 0 0 0 0 0 0 0 0 0 0 0 0 0 0 127 0" result="hardAlpha"/>
<feOffset/>
<feGaussianBlur stdDeviation="2.5"/>
<feComposite in2="hardAlpha" operator="out"/>
<feColorMatrix type="matrix" values="0 0 0 0 0 0 0 0 0 0 0 0 0 0 0 0 0 0 0.2 0"/>
<feBlend mode="normal" in2="BackgroundImageFix" result="effect1_dropShadow_629_9735"/>
<feBlend mode="normal" in="SourceGraphic" in2="effect1_dropShadow_629_9735" result="shape"/>
</filter>
<filter id="filter3_d_629_9735" x="10" y="40" width="44.835" height="40" filterUnits="userSpaceOnUse" color-interpolation-filters="sRGB">
<feFlood flood-opacity="0" result="BackgroundImageFix"/>
<feColorMatrix in="SourceAlpha" type="matrix" values="0 0 0 0 0 0 0 0 0 0 0 0 0 0 0 0 0 0 127 0" result="hardAlpha"/>
<feOffset/>
<feGaussianBlur stdDeviation="2.5"/>
<feComposite in2="hardAlpha" operator="out"/>
<feColorMatrix type="matrix" values="0 0 0 0 0 0 0 0 0 0 0 0 0 0 0 0 0 0 0.2 0"/>
<feBlend mode="normal" in2="BackgroundImageFix" result="effect1_dropShadow_629_9735"/>
<feBlend mode="normal" in="SourceGraphic" in2="effect1_dropShadow_629_9735" result="shape"/>
</filter>
</defs>
</svg>
