<svg width="90" height="90" viewBox="0 0 90 90" fill="none" xmlns="http://www.w3.org/2000/svg">
<g filter="url(#filter0_d_629_9814)">
<circle cx="45" cy="45" r="40" fill="#FDFDFD"/>
<circle cx="45" cy="45" r="39.5" stroke="#F37329" stroke-dasharray="2 2"/>
</g>
<g filter="url(#filter1_d_629_9814)">
<circle cx="45" cy="45" r="30" fill="#FDFDFD"/>
</g>
<g filter="url(#filter2_d_629_9814)">
<path d="M74.6264 40.2777C73.942 35.9833 72.332 31.8889 69.9082 28.2784C67.4843 24.6679 64.3045 21.6275 60.589 19.3678C56.8735 17.1082 52.7111 15.6833 48.3903 15.1919C44.0695 14.7005 39.6935 15.1543 35.5655 16.522L36.9112 20.5837C40.4504 19.4111 44.2023 19.022 47.9068 19.4433C51.6114 19.8646 55.1801 21.0863 58.3656 23.0236C61.5512 24.961 64.2775 27.5678 66.3556 30.6633C68.4338 33.7589 69.8141 37.2693 70.401 40.9512L74.6264 40.2777Z" fill="#F37329"/>
</g>
<g filter="url(#filter3_d_629_9814)">
<path d="M15 45C15 49.3487 15.9454 53.6454 17.7708 57.5924C19.5961 61.5395 22.2577 65.0425 25.5713 67.8588C28.8848 70.6751 32.771 72.7374 36.9606 73.9027C41.1502 75.0681 45.5431 75.3087 49.8349 74.6078L49.1453 70.3849C45.4656 70.9858 41.6993 70.7796 38.1072 69.7804C34.5151 68.7813 31.1832 67.0131 28.3423 64.5985C25.5014 62.1839 23.2194 59.1805 21.6544 55.7964C20.0894 52.4123 19.2788 48.7284 19.2788 45L15 45Z" fill="#F37329"/>
</g>
<path d="M52.4096 53.8391L47.2045 57.349L47.1781 57.3688C47.1708 57.3761 47.1576 57.3761 47.151 57.3827C46.8223 57.6033 46.4348 57.7199 46.0389 57.7175H41.1951C41.0176 57.717 40.8476 57.6463 40.7221 57.5208C40.5967 57.3953 40.526 57.2253 40.5254 57.0479C40.5254 56.6794 40.8266 56.3782 41.1951 56.3782H46.0389C46.173 56.3782 46.2998 56.3446 46.4002 56.2706H46.4068L46.42 56.2574C46.5004 56.2006 46.5673 56.1268 46.6159 56.0412C46.6645 55.9556 46.6937 55.8603 46.7013 55.7621C46.7032 55.5937 46.6411 55.4309 46.5276 55.3065C46.4529 55.229 46.3635 55.1671 46.2646 55.1245C46.1658 55.0819 46.0594 55.0593 45.9518 55.0582H42.4148C41.1338 55.0576 39.9052 54.5494 38.998 53.6449C38.3405 52.9871 37.4496 52.6161 36.5196 52.6128H34.9314V58.294H36.0104C37.0199 58.2927 38.0041 58.6093 38.8236 59.1987L40.505 60.4039C41.4097 61.0519 42.5031 61.3829 43.6152 61.3454C44.7274 61.3079 45.7961 60.904 46.6551 60.1965L54.3253 53.8794C54.0506 53.6726 53.7178 53.5575 53.374 53.5503C53.0302 53.5431 52.6928 53.6441 52.4096 53.8391ZM32.9218 51.36H29.7461V59.6874H32.9218C33.2903 59.6874 33.5915 59.3856 33.5915 59.0171V52.0303C33.5915 51.6618 33.2903 51.36 32.9218 51.36ZM31.4545 58.3402C31.2761 58.3409 31.1047 58.2708 30.9779 58.1453C30.8511 58.0197 30.7793 57.849 30.7783 57.6706C30.7783 57.3021 31.0794 57.001 31.4479 57.001H31.4545C31.823 57.001 32.1248 57.3021 32.1248 57.6706C32.1248 58.0391 31.823 58.3402 31.4545 58.3402ZM44.9579 40.6289C41.8733 40.6289 39.3632 43.139 39.3632 46.2236C39.3632 49.3089 41.8726 51.819 44.9585 51.819C48.0432 51.819 50.5533 49.3096 50.5533 46.2236C50.5533 43.139 48.0432 40.6289 44.9579 40.6289ZM45.6282 49.3228V49.4152C45.6282 49.5929 45.5576 49.7633 45.4319 49.889C45.3063 50.0146 45.1359 50.0852 44.9582 50.0852C44.7805 50.0852 44.6101 50.0146 44.4845 49.889C44.3588 49.7633 44.2883 49.5929 44.2883 49.4152V49.3281C44.0059 49.2255 43.7515 49.0584 43.5451 48.8401C43.3387 48.6218 43.1862 48.3583 43.0996 48.0707C43.0724 47.9861 43.0622 47.897 43.0698 47.8084C43.0774 47.7199 43.1025 47.6338 43.1437 47.5551C43.1849 47.4763 43.2413 47.4066 43.3097 47.3499C43.3781 47.2932 43.4571 47.2507 43.5422 47.2248C43.6272 47.199 43.7165 47.1903 43.8049 47.1993C43.8932 47.2083 43.979 47.2348 44.057 47.2773C44.1351 47.3197 44.2039 47.3773 44.2594 47.4466C44.315 47.516 44.3562 47.5957 44.3807 47.6811C44.46 47.9373 44.6911 48.1097 44.9585 48.1097C45.115 48.1024 45.2625 48.0351 45.3706 47.9218C45.4787 47.8086 45.5391 47.658 45.5391 47.5015C45.5391 47.3449 45.4787 47.1943 45.3706 47.0811C45.2625 46.9678 45.115 46.9005 44.9585 46.8932C44.4454 46.8934 43.9528 46.6918 43.5869 46.3319C43.2205 45.9646 43.0142 45.4673 43.0131 44.9484C43.0139 44.5506 43.1366 44.1625 43.3646 43.8364C43.5925 43.5104 43.9149 43.2619 44.2883 43.1245V43.0327C44.2883 42.855 44.3588 42.6846 44.4845 42.559C44.6101 42.4333 44.7805 42.3627 44.9582 42.3627C45.1359 42.3627 45.3063 42.4333 45.4319 42.559C45.5576 42.6846 45.6282 42.855 45.6282 43.0327V43.1185C46.1882 43.3232 46.6346 43.7769 46.8168 44.3765C46.8613 44.5444 46.839 44.7229 46.7545 44.8745C46.67 45.0262 46.53 45.1391 46.3639 45.1896C46.1978 45.2401 46.0186 45.2242 45.864 45.1452C45.7094 45.0662 45.5915 44.9303 45.5351 44.7662C45.4982 44.6425 45.4223 44.534 45.3188 44.4568C45.2153 44.3797 45.0896 44.3381 44.9605 44.3382H44.9559C44.7952 44.3396 44.6415 44.4046 44.5286 44.5189C44.4156 44.6333 44.3525 44.7877 44.353 44.9484C44.353 45.1545 44.452 45.2991 44.5346 45.3843C44.6072 45.4549 44.7518 45.5533 44.9585 45.5533C45.4743 45.5539 45.9688 45.759 46.3334 46.1238C46.698 46.4885 46.903 46.9831 46.9034 47.4988C46.9025 47.8967 46.7798 48.2847 46.5519 48.6108C46.3239 48.9369 46.0015 49.1853 45.6282 49.3228Z" fill="#F37329"/>
<path d="M33.9336 36.9102L43.6676 39.409C40.4713 40.0186 38.0464 42.8252 38.0266 46.1819C37.1021 46.0346 36.3585 45.8735 35.8626 45.7262C35.3055 45.5624 34.8165 45.2225 34.4688 44.7575C34.121 44.2925 33.9333 43.7274 33.9336 43.1468V36.9102ZM55.9869 36.9102V43.1468C55.9857 43.729 55.7957 44.2952 55.4454 44.7603C55.0951 45.2254 54.6034 45.5643 54.0441 45.7262C53.354 45.9269 52.6375 46.0947 51.8939 46.2281V46.2215C51.8939 42.8456 49.4617 40.0186 46.2529 39.409L55.9869 36.9102Z" fill="#F37329"/>
<path d="M59.9137 46.8995V46.6849C60.3047 46.5466 60.6433 46.2908 60.8832 45.9526C61.123 45.6143 61.2525 45.2102 61.2537 44.7955C61.2533 44.3798 61.1243 43.9745 60.8843 43.6351C60.6442 43.2957 60.3049 43.039 59.9131 42.9002V33.9957C59.9131 33.6543 59.6456 33.3796 59.3782 33.3393L45.1213 29.6755C45.0145 29.642 44.8999 29.642 44.7931 29.6755L30.5045 33.3472C30.2093 33.4199 30.002 33.6886 30.002 33.9964C30.002 34.2982 30.2093 34.5656 30.5038 34.6462L44.7937 38.3179C44.8954 38.343 45.009 38.3456 45.122 38.3179L58.5738 34.8608V42.8996C58.1812 43.0372 57.8412 43.2936 57.601 43.6332C57.3607 43.9728 57.2322 44.3789 57.2333 44.7949C57.233 45.2101 57.3619 45.615 57.6021 45.9537C57.8423 46.2923 58.1819 46.5478 58.5738 46.6849V46.8988C58.2905 46.9578 58.0339 47.1073 57.843 47.3248C57.652 47.5423 57.537 47.8161 57.5153 48.1047L57.294 51.0057C57.261 51.3742 57.3944 51.7427 57.6427 52.0174C57.897 52.2915 58.2522 52.446 58.6267 52.446H59.8596C60.2354 52.446 60.59 52.2915 60.8449 52.0168C61.0925 51.7427 61.2266 51.3742 61.1929 51.0057L60.9717 48.1047C60.95 47.8161 60.835 47.5425 60.6442 47.325C60.4534 47.1075 60.197 46.9579 59.9137 46.8988V46.8995ZM48.9 33.4344C48.8062 33.789 48.4443 34.0096 48.0831 33.9165L44.9608 33.1121L41.8326 33.9158C41.6603 33.9602 41.4774 33.9343 41.3241 33.8439C41.1708 33.7535 41.0597 33.606 41.0151 33.4337C40.9925 33.3484 40.987 33.2594 40.9991 33.172C41.0112 33.0845 41.0405 33.0003 41.0853 32.9242C41.1301 32.8482 41.1896 32.7818 41.2603 32.7289C41.331 32.676 41.4115 32.6377 41.4971 32.6162L44.7937 31.7722C44.9006 31.7387 45.0151 31.7387 45.122 31.7722L48.4172 32.6162C48.7798 32.71 48.9937 33.0725 48.9 33.4344Z" fill="#F37329"/>
<defs>
<filter id="filter0_d_629_9814" x="0" y="0" width="90" height="90" filterUnits="userSpaceOnUse" color-interpolation-filters="sRGB">
<feFlood flood-opacity="0" result="BackgroundImageFix"/>
<feColorMatrix in="SourceAlpha" type="matrix" values="0 0 0 0 0 0 0 0 0 0 0 0 0 0 0 0 0 0 127 0" result="hardAlpha"/>
<feOffset/>
<feGaussianBlur stdDeviation="2.5"/>
<feComposite in2="hardAlpha" operator="out"/>
<feColorMatrix type="matrix" values="0 0 0 0 0 0 0 0 0 0 0 0 0 0 0 0 0 0 0.2 0"/>
<feBlend mode="normal" in2="BackgroundImageFix" result="effect1_dropShadow_629_9814"/>
<feBlend mode="normal" in="SourceGraphic" in2="effect1_dropShadow_629_9814" result="shape"/>
</filter>
<filter id="filter1_d_629_9814" x="10" y="10" width="70" height="70" filterUnits="userSpaceOnUse" color-interpolation-filters="sRGB">
<feFlood flood-opacity="0" result="BackgroundImageFix"/>
<feColorMatrix in="SourceAlpha" type="matrix" values="0 0 0 0 0 0 0 0 0 0 0 0 0 0 0 0 0 0 127 0" result="hardAlpha"/>
<feOffset/>
<feGaussianBlur stdDeviation="2.5"/>
<feComposite in2="hardAlpha" operator="out"/>
<feColorMatrix type="matrix" values="0 0 0 0 0 0 0 0 0 0 0 0 0 0 0 0 0 0 0.2 0"/>
<feBlend mode="normal" in2="BackgroundImageFix" result="effect1_dropShadow_629_9814"/>
<feBlend mode="normal" in="SourceGraphic" in2="effect1_dropShadow_629_9814" result="shape"/>
</filter>
<filter id="filter2_d_629_9814" x="30.5654" y="10" width="49.0605" height="35.9512" filterUnits="userSpaceOnUse" color-interpolation-filters="sRGB">
<feFlood flood-opacity="0" result="BackgroundImageFix"/>
<feColorMatrix in="SourceAlpha" type="matrix" values="0 0 0 0 0 0 0 0 0 0 0 0 0 0 0 0 0 0 127 0" result="hardAlpha"/>
<feOffset/>
<feGaussianBlur stdDeviation="2.5"/>
<feComposite in2="hardAlpha" operator="out"/>
<feColorMatrix type="matrix" values="0 0 0 0 0 0 0 0 0 0 0 0 0 0 0 0 0 0 0.2 0"/>
<feBlend mode="normal" in2="BackgroundImageFix" result="effect1_dropShadow_629_9814"/>
<feBlend mode="normal" in="SourceGraphic" in2="effect1_dropShadow_629_9814" result="shape"/>
</filter>
<filter id="filter3_d_629_9814" x="10" y="40" width="44.835" height="40" filterUnits="userSpaceOnUse" color-interpolation-filters="sRGB">
<feFlood flood-opacity="0" result="BackgroundImageFix"/>
<feColorMatrix in="SourceAlpha" type="matrix" values="0 0 0 0 0 0 0 0 0 0 0 0 0 0 0 0 0 0 127 0" result="hardAlpha"/>
<feOffset/>
<feGaussianBlur stdDeviation="2.5"/>
<feComposite in2="hardAlpha" operator="out"/>
<feColorMatrix type="matrix" values="0 0 0 0 0 0 0 0 0 0 0 0 0 0 0 0 0 0 0.2 0"/>
<feBlend mode="normal" in2="BackgroundImageFix" result="effect1_dropShadow_629_9814"/>
<feBlend mode="normal" in="SourceGraphic" in2="effect1_dropShadow_629_9814" result="shape"/>
</filter>
</defs>
</svg>
