<svg width="90" height="90" viewBox="0 0 90 90" fill="none" xmlns="http://www.w3.org/2000/svg">
<g filter="url(#filter0_d_629_9726)">
<circle cx="45" cy="45" r="40" fill="#FDFDFD"/>
<circle cx="45" cy="45" r="39.5" stroke="#F37329" stroke-dasharray="2 2"/>
</g>
<g filter="url(#filter1_d_629_9726)">
<circle cx="45" cy="45" r="30" fill="#FDFDFD"/>
</g>
<g filter="url(#filter2_d_629_9726)">
<path d="M74.6264 40.2777C73.942 35.9833 72.332 31.8889 69.9082 28.2784C67.4843 24.6679 64.3045 21.6275 60.589 19.3678C56.8735 17.1082 52.7111 15.6833 48.3903 15.1919C44.0695 14.7005 39.6935 15.1543 35.5655 16.522L36.9112 20.5837C40.4504 19.4111 44.2023 19.022 47.9068 19.4433C51.6114 19.8646 55.1801 21.0863 58.3656 23.0236C61.5512 24.961 64.2775 27.5678 66.3556 30.6633C68.4338 33.7589 69.8141 37.2693 70.401 40.9512L74.6264 40.2777Z" fill="#F37329"/>
</g>
<g filter="url(#filter3_d_629_9726)">
<path d="M15 45C15 49.3487 15.9454 53.6454 17.7708 57.5924C19.5961 61.5395 22.2577 65.0425 25.5713 67.8588C28.8848 70.6751 32.771 72.7374 36.9606 73.9027C41.1502 75.0681 45.5431 75.3087 49.8349 74.6078L49.1453 70.3849C45.4656 70.9858 41.6993 70.7796 38.1072 69.7804C34.5151 68.7813 31.1832 67.0131 28.3423 64.5985C25.5014 62.1839 23.2194 59.1805 21.6544 55.7964C20.0894 52.4123 19.2788 48.7284 19.2788 45L15 45Z" fill="#F37329"/>
</g>
<path d="M41.6189 45.6456C41.7163 45.7527 41.7673 45.8941 41.7605 46.0387C41.7536 46.1833 41.6897 46.3193 41.5826 46.4168L40.6704 47.2446C40.4588 47.4617 40.1078 47.4614 39.8941 47.2477L39.5094 46.8629C39.4586 46.8122 39.4183 46.7519 39.3908 46.6856C39.3634 46.6192 39.3492 46.5481 39.3492 46.4763C39.3492 46.4045 39.3634 46.3334 39.3908 46.2671C39.4183 46.2007 39.4586 46.1404 39.5094 46.0897C39.5602 46.0389 39.6204 45.9986 39.6868 45.9711C39.7531 45.9436 39.8242 45.9295 39.896 45.9295C39.9678 45.9295 40.0389 45.9436 40.1053 45.9711C40.1716 45.9986 40.2319 46.0389 40.2827 46.0897L40.2997 46.1067L40.8477 45.6093C40.9548 45.5119 41.0962 45.461 41.2408 45.4678C41.3854 45.4746 41.5214 45.5386 41.6189 45.6456ZM51.3653 31.801H53.8164C53.7943 31.7533 53.7638 31.71 53.7264 31.6731L51.2749 29.2216C51.238 29.1841 51.1947 29.1537 51.147 29.1316V31.5827C51.1471 31.6406 51.1702 31.696 51.2111 31.7369C51.252 31.7778 51.3074 31.8009 51.3653 31.801ZM37.1446 50.3143V29.5304C37.1446 29.2899 37.3408 29.0938 37.5812 29.0938H50.0533V31.5827C50.0533 32.3066 50.6414 32.8947 51.3653 32.8947H53.8543V50.3143C53.8543 50.5548 53.6581 50.751 53.4177 50.751H37.5812C37.3408 50.751 37.1446 50.5548 37.1446 50.3143ZM42.2169 44.9809C42.2169 44.8679 42.1248 44.7758 42.0118 44.7758H39.0994C38.9864 44.7758 38.8943 44.8679 38.8943 44.9809V47.8933C38.8943 48.0063 38.9864 48.0984 39.0994 48.0984H42.0118C42.1248 48.0984 42.2169 48.0063 42.2169 47.8933V44.9809ZM42.2169 39.5663C42.2169 39.4534 42.1248 39.3613 42.0118 39.3613H39.0994C38.9864 39.3613 38.8943 39.4534 38.8943 39.5663V42.4788C38.8943 42.5917 38.9864 42.6839 39.0994 42.6839H42.0118C42.1248 42.6839 42.2169 42.5917 42.2169 42.4788V39.5663ZM51.6479 47.3395C51.6479 47.1944 51.5903 47.0553 51.4877 46.9528C51.3852 46.8502 51.2461 46.7926 51.101 46.7926H43.9934C43.8483 46.7926 43.7092 46.8502 43.6067 46.9528C43.5041 47.0553 43.4465 47.1944 43.4465 47.3395C43.4465 47.4845 43.5041 47.6236 43.6067 47.7262C43.7092 47.8287 43.8483 47.8864 43.9934 47.8864H51.101C51.1728 47.8864 51.2439 47.8722 51.3103 47.8447C51.3766 47.8173 51.4369 47.777 51.4877 47.7262C51.5385 47.6754 51.5788 47.6151 51.6063 47.5488C51.6338 47.4824 51.6479 47.4113 51.6479 47.3395ZM51.6479 45.5347C51.6479 45.3896 51.5903 45.2505 51.4877 45.148C51.3852 45.0454 51.2461 44.9878 51.101 44.9878H43.9934C43.8483 44.9878 43.7092 45.0454 43.6067 45.148C43.5041 45.2505 43.4465 45.3896 43.4465 45.5347C43.4465 45.6797 43.5041 45.8188 43.6067 45.9214C43.7092 46.0239 43.8483 46.0815 43.9934 46.0815H51.101C51.1728 46.0815 51.2439 46.0674 51.3103 46.0399C51.3766 46.0124 51.4369 45.9722 51.4877 45.9214C51.5385 45.8706 51.5788 45.8103 51.6063 45.744C51.6338 45.6776 51.6479 45.6065 51.6479 45.5347ZM51.6479 41.925C51.6479 41.78 51.5903 41.6409 51.4877 41.5383C51.3852 41.4358 51.2461 41.3781 51.101 41.3781H43.9934C43.8483 41.3781 43.7092 41.4358 43.6067 41.5383C43.5041 41.6409 43.4465 41.78 43.4465 41.925C43.4465 42.0701 43.5041 42.2091 43.6067 42.3117C43.7092 42.4143 43.8483 42.4719 43.9934 42.4719H51.101C51.1728 42.4719 51.2439 42.4578 51.3103 42.4303C51.3766 42.4028 51.4369 42.3625 51.4877 42.3117C51.5385 42.261 51.5788 42.2007 51.6063 42.1343C51.6338 42.068 51.6479 41.9968 51.6479 41.925ZM51.6479 40.1202C51.6479 39.9751 51.5903 39.836 51.4877 39.7335C51.3852 39.6309 51.2461 39.5733 51.101 39.5733H43.9934C43.8483 39.5733 43.7092 39.6309 43.6067 39.7335C43.5041 39.836 43.4465 39.9751 43.4465 40.1202C43.4465 40.2652 43.5041 40.4043 43.6067 40.5069C43.7092 40.6094 43.8483 40.6671 43.9934 40.6671H51.101C51.246 40.6671 51.3851 40.6094 51.4877 40.5069C51.5903 40.4043 51.6479 40.2652 51.6479 40.1202ZM46.2001 32.6761C46.2001 32.8211 46.2578 32.9602 46.3603 33.0628C46.4629 33.1653 46.602 33.2229 46.747 33.2229H49.2783C49.4233 33.2229 49.5624 33.1653 49.665 33.0628C49.7675 32.9602 49.8252 32.8211 49.8252 32.6761C49.8252 32.531 49.7675 32.3919 49.665 32.2894C49.5624 32.1868 49.4233 32.1292 49.2783 32.1292H46.747C46.602 32.1292 46.4629 32.1868 46.3603 32.2894C46.2578 32.3919 46.2001 32.531 46.2001 32.6761ZM46.2001 34.7269C46.2001 34.8719 46.2578 35.011 46.3603 35.1136C46.4629 35.2162 46.602 35.2738 46.747 35.2738H52.2497C52.3947 35.2738 52.5338 35.2162 52.6364 35.1136C52.7389 35.011 52.7965 34.8719 52.7965 34.7269C52.7965 34.5819 52.7389 34.4428 52.6364 34.3402C52.5338 34.2376 52.3947 34.18 52.2497 34.18H46.747C46.602 34.18 46.4629 34.2376 46.3603 34.3402C46.2578 34.4428 46.2001 34.5819 46.2001 34.7269ZM38.8494 33.3828C38.8494 35.0801 40.2255 36.4562 41.9228 36.4562C43.6202 36.4562 44.9963 35.0801 44.9963 33.3828C44.9963 31.6854 43.6202 30.3093 41.9228 30.3093C40.2255 30.3093 38.8494 31.6854 38.8494 33.3828ZM40.8477 40.1948L40.2997 40.6922L40.2827 40.6752C40.2319 40.6244 40.1716 40.5841 40.1053 40.5566C40.0389 40.5292 39.9678 40.515 39.896 40.515C39.8242 40.515 39.7531 40.5292 39.6868 40.5566C39.6204 40.5841 39.5602 40.6244 39.5094 40.6752C39.4586 40.726 39.4183 40.7862 39.3908 40.8526C39.3634 40.9189 39.3492 40.99 39.3492 41.0618C39.3492 41.1336 39.3634 41.2047 39.3908 41.2711C39.4183 41.3374 39.4586 41.3977 39.5094 41.4485L39.8941 41.8332C40.1078 42.0469 40.4588 42.0472 40.6704 41.8301L41.5826 41.0023C41.6882 40.9045 41.751 40.7689 41.7571 40.625C41.7633 40.4812 41.7123 40.3408 41.6154 40.2343C41.5185 40.1278 41.3835 40.0639 41.2397 40.0565C41.0959 40.0491 40.955 40.0989 40.8477 40.1948ZM40.2085 35.1038C39.75 34.6499 39.4936 34.0274 39.4936 33.3828C39.4936 32.0411 40.5811 30.9536 41.9228 30.9536C43.2644 30.9536 44.3519 32.0411 44.3519 33.3828C44.3519 34.0274 44.0956 34.6499 43.637 35.1038C43.32 34.479 42.6714 34.0508 41.9227 34.0508C41.1742 34.0508 40.5256 34.479 40.2085 35.1038ZM40.9514 32.6767C40.9514 33.2132 41.3863 33.6481 41.9228 33.6481C42.4593 33.6481 42.8942 33.2132 42.8942 32.6767C42.8942 32.1402 42.4593 31.7053 41.9228 31.7053C41.3863 31.7053 40.9514 32.1402 40.9514 32.6767ZM56.3746 38.5297H54.948V40.1819H56.4242C56.4968 40.1821 56.5663 40.2111 56.6177 40.2624C56.669 40.3137 56.698 40.3833 56.6982 40.4559V52.746H34.3008V40.456C34.301 40.3834 34.3299 40.3138 34.3813 40.2624C34.4326 40.2111 34.5022 40.1822 34.5748 40.182H36.051V38.5297H34.6243C33.5376 38.5297 32.6484 39.4189 32.6484 40.5056V54.0986C32.6484 55.1853 33.5376 56.0744 34.6243 56.0744H41.4606V59.2136H38.453C37.5262 59.2136 36.768 59.8194 36.768 60.5599V61.9062H54.2309V60.5599C54.2309 59.8194 53.4726 59.2136 52.5459 59.2136H49.5383V56.0744H56.3746C57.4613 56.0744 58.3505 55.1853 58.3505 54.0986V40.5055C58.3505 39.4188 57.4613 38.5297 56.3746 38.5297Z" fill="#F37329"/>
<defs>
<filter id="filter0_d_629_9726" x="0" y="0" width="90" height="90" filterUnits="userSpaceOnUse" color-interpolation-filters="sRGB">
<feFlood flood-opacity="0" result="BackgroundImageFix"/>
<feColorMatrix in="SourceAlpha" type="matrix" values="0 0 0 0 0 0 0 0 0 0 0 0 0 0 0 0 0 0 127 0" result="hardAlpha"/>
<feOffset/>
<feGaussianBlur stdDeviation="2.5"/>
<feComposite in2="hardAlpha" operator="out"/>
<feColorMatrix type="matrix" values="0 0 0 0 0 0 0 0 0 0 0 0 0 0 0 0 0 0 0.2 0"/>
<feBlend mode="normal" in2="BackgroundImageFix" result="effect1_dropShadow_629_9726"/>
<feBlend mode="normal" in="SourceGraphic" in2="effect1_dropShadow_629_9726" result="shape"/>
</filter>
<filter id="filter1_d_629_9726" x="10" y="10" width="70" height="70" filterUnits="userSpaceOnUse" color-interpolation-filters="sRGB">
<feFlood flood-opacity="0" result="BackgroundImageFix"/>
<feColorMatrix in="SourceAlpha" type="matrix" values="0 0 0 0 0 0 0 0 0 0 0 0 0 0 0 0 0 0 127 0" result="hardAlpha"/>
<feOffset/>
<feGaussianBlur stdDeviation="2.5"/>
<feComposite in2="hardAlpha" operator="out"/>
<feColorMatrix type="matrix" values="0 0 0 0 0 0 0 0 0 0 0 0 0 0 0 0 0 0 0.2 0"/>
<feBlend mode="normal" in2="BackgroundImageFix" result="effect1_dropShadow_629_9726"/>
<feBlend mode="normal" in="SourceGraphic" in2="effect1_dropShadow_629_9726" result="shape"/>
</filter>
<filter id="filter2_d_629_9726" x="30.5654" y="10" width="49.0605" height="35.9512" filterUnits="userSpaceOnUse" color-interpolation-filters="sRGB">
<feFlood flood-opacity="0" result="BackgroundImageFix"/>
<feColorMatrix in="SourceAlpha" type="matrix" values="0 0 0 0 0 0 0 0 0 0 0 0 0 0 0 0 0 0 127 0" result="hardAlpha"/>
<feOffset/>
<feGaussianBlur stdDeviation="2.5"/>
<feComposite in2="hardAlpha" operator="out"/>
<feColorMatrix type="matrix" values="0 0 0 0 0 0 0 0 0 0 0 0 0 0 0 0 0 0 0.2 0"/>
<feBlend mode="normal" in2="BackgroundImageFix" result="effect1_dropShadow_629_9726"/>
<feBlend mode="normal" in="SourceGraphic" in2="effect1_dropShadow_629_9726" result="shape"/>
</filter>
<filter id="filter3_d_629_9726" x="10" y="40" width="44.835" height="40" filterUnits="userSpaceOnUse" color-interpolation-filters="sRGB">
<feFlood flood-opacity="0" result="BackgroundImageFix"/>
<feColorMatrix in="SourceAlpha" type="matrix" values="0 0 0 0 0 0 0 0 0 0 0 0 0 0 0 0 0 0 127 0" result="hardAlpha"/>
<feOffset/>
<feGaussianBlur stdDeviation="2.5"/>
<feComposite in2="hardAlpha" operator="out"/>
<feColorMatrix type="matrix" values="0 0 0 0 0 0 0 0 0 0 0 0 0 0 0 0 0 0 0.2 0"/>
<feBlend mode="normal" in2="BackgroundImageFix" result="effect1_dropShadow_629_9726"/>
<feBlend mode="normal" in="SourceGraphic" in2="effect1_dropShadow_629_9726" result="shape"/>
</filter>
</defs>
</svg>
