<svg width="35" height="35" viewBox="0 0 35 35" fill="none" xmlns="http://www.w3.org/2000/svg">
<path fill-rule="evenodd" clip-rule="evenodd" d="M33.2709 14.4268C33.1179 14.1062 32.0436 14.3207 31.9687 14.8315C31.5224 17.8696 29.787 22.7557 24.789 24.5518C24.6537 24.5988 24.5054 24.5908 24.376 24.5295C24.2466 24.4683 24.1464 24.3587 24.097 24.2243C24.0476 24.0899 24.0529 23.9414 24.1118 23.8109C24.1708 23.6804 24.2786 23.5783 24.4121 23.5265C25.2668 23.2054 27.2241 21.4732 27.9971 20.1551C28.104 19.9721 28.1871 19.7995 28.233 19.6411C28.2613 19.5428 28.3051 19.4592 28.2575 19.3981C28.2487 19.3872 28.238 19.3779 28.2259 19.3707C28.2013 19.3631 28.1772 19.3538 28.1538 19.3429C28.133 19.3372 28.112 19.3321 28.0909 19.3276C27.9785 19.3008 27.8429 19.2893 27.6823 19.2905C27.3389 19.2931 26.8915 19.5363 26.2311 19.8781C25.3216 20.349 24.086 21.0268 22.3614 21.7523C21.2744 22.2105 20.3681 23.0133 19.7822 24.0371L19.7789 24.0355C19.0852 25.2482 18.9503 25.8371 18.7176 26.7946C18.4986 27.697 18.4548 29.3941 18.4565 30.5926H18.1593C18.0145 30.5927 17.8756 30.6502 17.7731 30.7527C17.6707 30.8551 17.6131 30.994 17.6131 31.1388V32.7775C17.6131 33.079 17.8578 33.3238 18.1593 33.3238H23.6217C23.9232 33.3238 24.1679 33.079 24.1679 32.7775V31.1388C24.1679 30.8373 23.9232 30.5926 23.6217 30.5926H23.5534C23.5753 30.2987 23.6173 29.9901 23.6943 29.7083C23.7714 29.427 23.868 29.1674 24.0603 29.0363C24.2019 28.9397 24.6234 28.6572 24.8518 28.5246C27.1197 27.2043 29.8564 25.5721 31.0575 22.7612C32.1866 20.1174 33.0055 16.6931 33.0612 16.456V16.4571L33.0622 16.4532L33.0612 16.456C33.2076 15.9491 33.4391 14.7785 33.2709 14.4268ZM1.70721 14.4268C1.86019 14.1062 2.93457 14.3207 3.00942 14.8315C3.45577 17.8696 5.19109 22.7557 10.1891 24.5518C10.3244 24.5988 10.4727 24.5908 10.6021 24.5295C10.7316 24.4683 10.8318 24.3587 10.8812 24.2243C10.9306 24.0899 10.9252 23.9414 10.8663 23.8109C10.8073 23.6804 10.6995 23.5783 10.566 23.5265C9.71133 23.2054 7.75409 21.4732 6.98107 20.1551C6.87411 19.9721 6.791 19.7995 6.74512 19.6411C6.7168 19.5428 6.67302 19.4592 6.7206 19.3981C6.72942 19.3872 6.74012 19.3779 6.7522 19.3707C6.77684 19.3631 6.80083 19.3538 6.82429 19.3429C6.84396 19.3374 6.8648 19.3324 6.88721 19.3276C6.99969 19.3008 7.13523 19.2893 7.29581 19.2905C7.63926 19.2931 8.08665 19.5363 8.74706 19.8781C9.65654 20.349 10.8922 21.0268 12.6167 21.7523C13.7038 22.2105 14.61 23.0133 15.196 24.0371L15.1993 24.0355C15.893 25.2482 16.0279 25.8371 16.2605 26.7946C16.4796 27.697 16.5234 29.3941 16.5217 30.5926H16.8188C17.1203 30.5926 17.3651 30.8373 17.3651 31.1388V32.7775C17.3651 33.079 17.1203 33.3238 16.8188 33.3238H11.3565C11.2116 33.3237 11.0727 33.2661 10.9703 33.1637C10.8679 33.0613 10.8103 32.9224 10.8102 32.7775V31.1388C10.8102 30.8373 11.055 30.5926 11.3565 30.5926H11.4248C11.4029 30.2987 11.3608 29.9901 11.2838 29.7083C11.2068 29.427 11.1102 29.1674 10.9179 29.0363C10.7763 28.9397 10.3547 28.6572 10.1264 28.5246C7.85843 27.2043 5.12175 25.5721 3.9206 22.7612C2.79156 20.1174 1.97266 16.6931 1.91695 16.456V16.4571L1.9159 16.4532L1.91695 16.456C1.77053 15.9491 1.53903 14.7785 1.70721 14.4268ZM23.0754 32.2313H18.7055V31.6851H23.0754V32.2313ZM11.9027 32.2313H16.2726V31.6851H11.9027V32.2313ZM17.1645 20.4152C17.2585 20.4844 17.3722 20.5217 17.489 20.5217C17.6058 20.5217 17.7195 20.4844 17.8135 20.4152C21.0975 17.9931 24.2669 15.6514 26.2218 12.9994C28.8038 9.49585 28.6744 5.3395 26.1398 3.13818C23.7265 1.04237 19.8346 1.11656 17.4891 3.5861C15.1435 1.1167 11.2516 1.04237 8.8383 3.13818C6.30375 5.3395 6.17437 9.49585 8.75637 12.9994C10.7114 15.6514 13.8805 17.9931 17.1646 20.4151L17.1645 20.4152ZM24.0727 19.7634C24.6453 19.4783 25.1353 19.2184 25.5579 18.9976C25.8804 18.2782 26.183 17.3927 26.42 16.6286C26.3806 16.6281 26.3392 16.6286 26.2971 16.6313C26.0108 16.6488 25.7766 16.692 25.5465 16.8427C25.2697 17.0252 24.9658 17.4108 24.6246 18.3777C24.4503 18.8709 24.2514 19.3548 24.0727 19.7634ZM10.9053 19.7634C10.3328 19.4783 9.84281 19.2184 9.42006 18.9976C9.09785 18.2782 8.79517 17.3927 8.55817 16.6286C8.59749 16.6281 8.63892 16.6286 8.681 16.6313C8.96729 16.6488 9.20154 16.692 9.4316 16.8427C9.70845 17.0252 10.0123 17.4108 10.3535 18.3777C10.5279 18.8709 10.7266 19.3548 10.9053 19.7634ZM30.8571 14.8741C30.7074 14.778 29.9623 15.1084 29.9033 15.4001C29.6718 16.5478 29.3348 17.3829 28.8108 18.5033C29.0442 18.6465 29.3162 19.0468 29.3462 19.2757C30.2043 17.762 30.6501 16.1556 30.8571 14.8741ZM4.12103 14.8741C4.27073 14.778 5.01583 15.1084 5.07482 15.4001C5.30632 16.5478 5.64334 17.3829 6.16729 18.5033C5.93396 18.6465 5.66195 19.0468 5.63193 19.2757C4.77384 17.762 4.32802 16.1556 4.12103 14.8741ZM27.9926 15.8573C27.9184 15.8896 27.8522 15.9379 27.7989 15.9988C27.7456 16.0598 27.7066 16.1318 27.6846 16.2097C27.5147 16.7891 27.3049 17.4917 27.0002 18.3296C27.2573 18.2439 27.4797 18.1996 27.6737 18.198C27.8249 18.1968 27.8998 18.2013 27.9916 18.2154C28.3269 17.5021 28.5416 16.5603 28.7066 15.8115C28.7213 15.7442 28.5755 15.7006 28.3465 15.7454C28.2417 15.7656 28.1308 15.7913 27.9926 15.8573ZM6.98553 15.8573C7.05978 15.8896 7.12594 15.9379 7.17922 15.9988C7.23249 16.0598 7.27156 16.1318 7.29358 16.2097C7.46347 16.7891 7.67321 17.4917 7.97798 18.3296C7.72079 18.2439 7.49847 18.1996 7.30446 18.198C7.15319 18.1968 7.07834 18.2013 6.98658 18.2154C6.65126 17.5021 6.43654 16.5603 6.2715 15.8115C6.25682 15.7442 6.40259 15.7006 6.6316 15.7454C6.73646 15.7656 6.84736 15.7913 6.98553 15.8573ZM19.674 8.19692V6.01198C19.674 5.71048 19.4293 5.46574 19.1278 5.46574H15.8504C15.7055 5.46581 15.5666 5.52338 15.4642 5.62581C15.3618 5.72823 15.3042 5.86713 15.3041 6.01198V8.19692H13.1192C12.9743 8.19699 12.8354 8.25456 12.733 8.35699C12.6306 8.45941 12.573 8.59831 12.5729 8.74316V12.0206C12.5729 12.3221 12.8177 12.5668 13.1192 12.5668H15.3041V14.7518C15.3041 15.0533 15.5489 15.298 15.8504 15.298H19.1278C19.4293 15.298 19.674 15.0533 19.674 14.7518V12.5668H21.859C22.1605 12.5668 22.4052 12.3221 22.4052 12.0206V8.74316C22.4052 8.44166 22.1605 8.19692 21.859 8.19692H19.674ZM18.5815 8.74316C18.5815 9.04465 18.8263 9.28939 19.1278 9.28939H21.3127V11.4743H19.1278C18.9829 11.4744 18.844 11.532 18.7416 11.6344C18.6392 11.7368 18.5816 11.8757 18.5815 12.0206V14.2055H16.3966V12.0206C16.3966 11.7191 16.1519 11.4743 15.8504 11.4743H13.6654V9.28939H15.8504C16.1519 9.28939 16.3966 9.04465 16.3966 8.74316V6.55821H18.5815V8.74316Z" fill="black"/>
</svg>
