<svg width="35" height="35" viewBox="0 0 35 35" fill="none" xmlns="http://www.w3.org/2000/svg">
<g clip-path="url(#clip0_2000_14165)">
<path d="M9.48163 9.36523H9.04276L8.22266 13.4668H10.3017L9.48163 9.36523ZM26.07 17.5684C26.5128 18.7577 27.1017 19.7205 27.7534 20.5397C28.4051 19.7205 29.0624 18.7577 29.5052 17.5684H26.07Z" fill="#F37329"/>
<path d="M31.9234 6.2207H19.1892L21.8445 27.5269C21.8914 28.3983 21.6532 29.2188 21.0844 29.8611L16.5879 35H31.9234C33.6197 35 34.9996 33.6201 34.9996 31.9238V9.36523C34.9996 7.66896 33.6197 6.2207 31.9234 6.2207ZM31.9234 17.5684H31.6496C31.0661 19.4402 30.1409 20.905 29.1793 22.0597C29.9326 22.7484 30.7381 23.3133 31.5389 23.946C31.9805 24.2995 32.0526 24.9443 31.6981 25.387C31.3452 25.8289 30.6979 25.9005 30.2572 25.5462C29.387 24.8594 28.5703 24.2845 27.7535 23.535C26.9367 24.2845 26.1883 24.8594 25.3182 25.5462C24.8775 25.9005 24.2301 25.8289 23.8773 25.387C23.5227 24.9443 23.5949 24.2995 24.0365 23.946C24.8373 23.3133 25.5744 22.7484 26.3277 22.0597C25.3661 20.905 24.5092 19.4403 23.9258 17.5684H23.6519C23.0852 17.5684 22.6266 17.1097 22.6266 16.543C22.6266 15.9762 23.0852 15.5176 23.6519 15.5176H26.7281V14.4922C26.7281 13.9254 27.1867 13.4668 27.7535 13.4668C28.3203 13.4668 28.7789 13.9254 28.7789 14.4922V15.5176H31.9234C32.4902 15.5176 32.9488 15.9762 32.9488 16.543C32.9488 17.1097 32.4902 17.5684 31.9234 17.5684Z" fill="#F37329"/>
<path d="M16.6909 2.69466C16.4996 1.15855 15.1869 0 13.6388 0H3.07617C1.3799 0 0 1.3799 0 3.07617V25.7715C0 27.4678 1.3799 28.8477 3.07617 28.8477H19.2467C19.5458 28.5057 19.7965 28.2916 19.8071 27.8453C19.8097 27.7334 16.7048 2.80567 16.6909 2.69466ZM12.5743 19.5991C12.0306 19.711 11.4798 19.358 11.3677 18.795L10.7123 15.5176H7.81313L7.15777 18.795C7.04765 19.3497 6.51287 19.7142 5.95116 19.5991C5.39643 19.488 5.0359 18.9483 5.14705 18.3925L7.19776 8.13859C7.29388 7.65994 7.71449 7.31445 8.20312 7.31445H10.3223C10.8109 7.31445 11.2315 7.65994 11.3276 8.13859L13.3784 18.3925C13.4896 18.9483 13.1291 19.488 12.5743 19.5991ZM11.9807 30.8984L12.1567 32.3053C12.274 33.2475 12.9 34.2083 13.9298 34.6881L17.3723 30.8984H11.9807Z" fill="#F37329"/>
</g>
<defs>
<clipPath id="clip0_2000_14165">
<rect width="35" height="35" fill="white"/>
</clipPath>
</defs>
</svg>
