<svg width="35" height="35" viewBox="0 0 35 35" fill="none" xmlns="http://www.w3.org/2000/svg">
<g clip-path="url(#clip0_2004_14223)">
<path d="M3.14443 16.3379L0.576172 14.5879L3.14443 12.0189V16.3379ZM5.19521 1.17435V17.7352L13.9015 23.666C16.2681 25.267 19.429 25.2321 21.7648 23.5792L29.806 17.8855V1.17435C29.806 0.525752 29.2802 0 28.6316 0H6.36956C5.72097 0 5.19521 0.525752 5.19521 1.17435ZM25.4508 16.1424H9.58006C9.02826 16.1424 8.5533 15.7186 8.52691 15.1674C8.49875 14.5785 8.9677 14.0916 9.55107 14.0916H25.4216C25.9735 14.0916 26.4486 14.5154 26.475 15.0667C26.5031 15.6556 26.0335 16.1424 25.4508 16.1424ZM25.4508 10.7618H9.57972C9.0273 10.7618 8.55228 10.3369 8.52685 9.7851C8.49971 9.19625 8.96831 8.71104 9.55114 8.71104H25.4217C25.9736 8.71104 26.4487 9.13486 26.4751 9.68618C26.5031 10.275 26.0335 10.7618 25.4508 10.7618ZM25.4508 5.38057H9.58006C9.02826 5.38057 8.5533 4.95674 8.52691 4.40556C8.49875 3.81671 8.9677 3.32979 9.55107 3.32979H25.4219C25.9744 3.32979 26.4496 3.75471 26.4751 4.30664C26.5021 4.89542 26.0329 5.38057 25.4508 5.38057ZM34.4414 14.6036L31.8567 16.4336V12.0189L34.4414 14.6036Z" fill="black"/>
<path d="M35 16.7208V33.4798C35 34.3194 34.3193 35.0001 33.4797 35.0001H1.52031C0.680654 35.0001 0 34.3194 0 33.4798V16.6777L11.0886 24.2314L4.69745 30.6226C4.30897 31.0111 4.27027 31.6431 4.63688 32.0524C5.0305 32.4918 5.71081 32.5097 6.12637 32.0942L12.8146 25.4059C16.013 27.4984 19.8728 27.2978 22.722 25.4073L29.4089 32.0942C29.8089 32.4942 30.4585 32.4945 30.8588 32.0942C31.2594 31.6936 31.2594 31.0442 30.8588 30.6436L24.4234 24.209L35 16.7208Z" fill="black"/>
</g>
<defs>
<clipPath id="clip0_2004_14223">
<rect width="35" height="35" fill="white"/>
</clipPath>
</defs>
</svg>
