<svg width="35" height="35" viewBox="0 0 35 35" fill="none" xmlns="http://www.w3.org/2000/svg">
<g clip-path="url(#clip0_2000_14171)">
<path d="M10.6335 5.93759C10.5987 5.8099 10.5655 5.68177 10.534 5.55324C10.505 5.44122 10.4793 5.32837 10.457 5.21484C10.446 5.27801 10.4237 5.38207 10.3913 5.52701C10.3583 5.67196 10.2855 5.95733 10.1727 6.38371H10.7508L10.6335 5.93759ZM22.5221 5.33328H22.3772V5.95451H22.5145C22.7708 5.95451 22.8991 5.84115 22.8991 5.61415C22.8994 5.42719 22.7734 5.33328 22.5221 5.33328ZM17.4643 5.90235C17.5291 5.84031 17.5621 5.75486 17.5621 5.64601C17.5621 5.46272 17.4603 5.37079 17.2573 5.37079H17.0675V5.9954H17.2015C17.3114 5.9954 17.3994 5.96467 17.4643 5.90235ZM19.8987 5.33723C19.5307 5.33723 19.3474 5.60259 19.3474 6.13302C19.3474 6.65809 19.5296 6.92091 19.8953 6.92091C20.0812 6.92091 20.2185 6.8569 20.309 6.72943C20.3987 6.60169 20.4441 6.40289 20.4441 6.13302C20.4441 5.86146 20.3987 5.66096 20.3076 5.53152C20.2165 5.40209 20.0801 5.33723 19.8987 5.33723ZM7.95345 5.37079H7.76367V5.9954H7.89762C8.00788 5.9954 8.09558 5.96467 8.16072 5.90235C8.22558 5.84031 8.25829 5.75486 8.25829 5.64601C8.25801 5.46243 8.15621 5.37079 7.95345 5.37079Z" fill="#F37329"/>
<path d="M28.7951 4.14637e-06C28.7565 -9.26938e-05 28.718 0.00150682 28.6795 0.00479805L6.27987 1.43366C5.56106 1.49909 4.9982 2.07717 4.9982 2.74917V2.88199C4.97193 2.95561 4.95802 3.03308 4.95703 3.11125V34.2888C4.95703 34.3822 4.97544 34.4747 5.01119 34.561C5.04695 34.6473 5.09936 34.7258 5.16543 34.7918C5.2315 34.8578 5.30994 34.9102 5.39626 34.9459C5.48257 34.9817 5.57508 35 5.6685 35H27.3733C27.562 35 27.7429 34.9251 27.8763 34.7917C28.0097 34.6584 28.0847 34.4775 28.0848 34.2888V33.3867L28.7613 33.3376C29.4801 33.2728 30.043 32.6944 30.043 32.0224V1.17677C30.0435 0.5169 29.4956 4.14637e-06 28.7951 4.14637e-06ZM7.76287 7.49513H7.02856V4.77783H7.96901C8.31248 4.77783 8.56994 4.85284 8.74224 5.00286C8.91454 5.1526 9.00027 5.36579 9.00027 5.64215C9.00027 5.94585 8.91115 6.18019 8.73209 6.34572C8.55274 6.51125 8.29866 6.59388 7.96901 6.59388H7.76287V7.49513ZM13.4056 10.6704C13.7318 10.5438 13.8917 10.7234 13.7736 11.0531C13.4228 12.0324 13.1523 13.1889 12.9648 14.4294C12.9127 14.7748 12.5968 15.0909 12.2508 15.1431C11.0112 15.3303 9.85471 15.6011 8.87478 15.9521C8.54569 16.0697 8.36578 15.9104 8.49211 15.5841C8.92628 14.4695 9.58719 13.4573 10.433 12.6114C11.2788 11.7656 12.291 11.1046 13.4056 10.6704ZM9.07528 7.49513L9.96215 4.76655H10.9418L11.8397 7.49513H11.0365L10.9026 6.98585H10.0197L9.88234 7.49513H9.07528ZM13.0802 6.63589C13.0527 6.60183 13.0191 6.57315 12.9812 6.55129C12.9361 6.52253 12.8156 6.46444 12.6199 6.37674C12.4429 6.29609 12.31 6.21798 12.2215 6.1424C12.1367 6.07197 12.0693 5.98289 12.0247 5.88212C11.9818 5.78399 11.9601 5.66837 11.9601 5.53471C11.9601 5.28429 12.0512 5.08915 12.2333 4.94929C12.4155 4.80942 12.6659 4.7392 12.9843 4.7392C13.2657 4.7392 13.5525 4.80406 13.8449 4.93434L13.6202 5.50115C13.3661 5.38497 13.1467 5.32659 12.962 5.32659C12.8667 5.32659 12.7973 5.34351 12.7539 5.37679C12.7339 5.39077 12.7175 5.40937 12.7062 5.43102C12.6949 5.45267 12.689 5.47673 12.689 5.50115C12.689 5.55444 12.7167 5.6021 12.7717 5.6444C12.8269 5.68642 12.9767 5.7634 13.2209 5.87507C13.4549 5.98026 13.6176 6.09305 13.7084 6.21403C13.7995 6.33472 13.8449 6.487 13.8449 6.6703C13.8449 6.83893 13.8023 6.98867 13.7166 7.11923C13.6312 7.25008 13.5079 7.35131 13.3469 7.42407C13.1856 7.49654 12.9967 7.53263 12.7798 7.53263C12.5985 7.53263 12.4471 7.51994 12.3241 7.49457C12.1918 7.46583 12.0634 7.42114 11.9417 7.36146V6.70724C12.0809 6.779 12.2273 6.83554 12.3786 6.87587C12.5142 6.91396 12.6542 6.93425 12.7951 6.93622C12.9042 6.93622 12.984 6.91732 13.035 6.87954C13.0541 6.86658 13.0704 6.84998 13.083 6.83069C13.0956 6.81139 13.1042 6.78979 13.1084 6.76713C13.1126 6.74447 13.1123 6.72121 13.1074 6.69868C13.1026 6.67615 13.0933 6.65481 13.0802 6.63589ZM15.2123 6.63589C15.185 6.6019 15.1516 6.57322 15.1139 6.55129C15.0685 6.52253 14.9481 6.46444 14.7524 6.37674C14.575 6.29609 14.4422 6.21798 14.3536 6.1424C14.269 6.07183 14.2017 5.98279 14.1568 5.88212C14.1142 5.78399 14.0922 5.66837 14.0922 5.53471C14.0922 5.28429 14.1836 5.08915 14.3661 4.94929C14.5482 4.80942 14.7981 4.7392 15.1167 4.7392C15.3979 4.7392 15.6849 4.80406 15.9771 4.93434L15.7523 5.50115C15.4985 5.38497 15.2791 5.32659 15.0947 5.32659C14.9988 5.32659 14.9295 5.34351 14.8866 5.37679C14.8665 5.39074 14.8501 5.40932 14.8387 5.43097C14.8273 5.45262 14.8213 5.47669 14.8212 5.50115C14.8212 5.55444 14.8491 5.6021 14.9041 5.6444C14.9591 5.6867 15.1091 5.7634 15.353 5.87507C15.5871 5.98026 15.7498 6.09305 15.8406 6.21403C15.9317 6.33472 15.9771 6.487 15.9771 6.6703C15.9771 6.83893 15.9345 6.98867 15.8491 7.11923C15.7633 7.25008 15.6401 7.35131 15.4791 7.42407C15.3181 7.49654 15.1294 7.53263 14.912 7.53263C14.7312 7.53263 14.5795 7.51994 14.4569 7.49457C14.3342 7.46919 14.2067 7.42491 14.0742 7.36146V6.70724C14.2133 6.77905 14.3597 6.83559 14.511 6.87587C14.6465 6.91398 14.7864 6.93426 14.9272 6.93622C15.0366 6.93622 15.1164 6.91732 15.1672 6.87954C15.1862 6.86656 15.2025 6.84994 15.2151 6.83065C15.2277 6.81135 15.2363 6.78976 15.2405 6.76711C15.2447 6.74446 15.2444 6.72121 15.2395 6.69869C15.2347 6.67617 15.2254 6.65482 15.2123 6.63589ZM14.9196 10.7598C15.0592 10.4397 15.4763 10.145 15.8245 10.1168C16.2886 10.0799 16.7549 10.0799 17.219 10.1168C17.5678 10.1453 17.9849 10.4394 18.1242 10.7598C18.5187 11.667 18.8627 12.8846 19.0996 14.3253C19.1557 14.6705 18.9112 14.9257 18.5627 14.9014C17.8859 14.8549 17.2018 14.8309 16.5225 14.8309C15.8431 14.8309 15.1585 14.8549 14.4814 14.9014C14.1326 14.9257 13.8881 14.6705 13.945 14.3253C14.1811 12.8843 14.5243 11.6667 14.9196 10.7598ZM16.3324 7.49513V4.77783H17.2731C17.6163 4.77783 17.8738 4.85284 18.0461 5.00286C18.2184 5.1526 18.3044 5.36579 18.3044 5.64215C18.3044 5.94585 18.2153 6.18019 18.0362 6.34572C17.8569 6.51125 17.6025 6.59388 17.2731 6.59388H17.0667V7.49513H16.3324ZM23.9708 7.49513H23.138L22.5619 6.50646H22.3764V7.49513H21.6421V4.77783H22.5323C23.2709 4.77783 23.64 5.04516 23.64 5.58067C23.64 5.89566 23.4866 6.13902 23.1792 6.3116L23.9708 7.49513ZM24.5503 15.5841C24.6775 15.9098 24.4973 16.07 24.1682 15.9521C23.1882 15.6013 22.0321 15.3306 20.7919 15.1434C20.4458 15.0909 20.1303 14.7748 20.0781 14.4296C19.8906 13.1894 19.6202 12.0327 19.2688 11.0533C19.1515 10.724 19.3108 10.5438 19.6371 10.6707C20.7517 11.1048 21.7639 11.7657 22.6096 12.6115C23.4554 13.4573 24.1162 14.4695 24.5503 15.5841ZM20.8796 7.17591C20.6551 7.41392 20.3266 7.53263 19.8946 7.53263C19.4682 7.53263 19.1411 7.41307 18.9138 7.17422C18.6865 6.93481 18.5728 6.58683 18.5728 6.12971C18.5728 5.67739 18.6854 5.33195 18.9118 5.09338C19.1382 4.85454 19.467 4.73553 19.8977 4.73553C20.3299 4.73553 20.6576 4.85397 20.8807 5.09056C21.1037 5.32716 21.2157 5.67457 21.2157 6.13338C21.2157 6.59049 21.1037 6.93791 20.8796 7.17591ZM14.3672 15.8605C15.084 15.8069 15.8025 15.7803 16.5213 15.7807C17.2678 15.7807 17.9874 15.8089 18.6758 15.8605C19.0243 15.8867 19.3351 16.1969 19.361 16.5452C19.4135 17.2341 19.4408 17.9534 19.4408 18.6996C19.4408 19.446 19.4132 20.1651 19.361 20.854C19.3351 21.2023 19.0249 21.5131 18.6758 21.5396C17.2415 21.6459 15.8014 21.6459 14.3672 21.5396C14.0186 21.5133 13.7084 21.2032 13.6819 20.854C13.63 20.166 13.6021 19.4458 13.6021 18.6996C13.6021 17.9534 13.6303 17.2338 13.6819 16.5452C13.7082 16.1969 14.0184 15.8864 14.3672 15.8605ZM19.0988 23.0739C18.8619 24.5146 18.5184 25.732 18.1233 26.6392C17.984 26.9598 17.5667 27.2545 17.2181 27.2824C16.9886 27.3004 16.7557 27.3106 16.5213 27.3106C16.2864 27.3106 16.0541 27.3013 15.824 27.2824C15.4754 27.2542 15.0583 26.9601 14.9188 26.6392C14.5243 25.732 14.1805 24.5149 13.9436 23.0739C13.8869 22.729 14.1317 22.4735 14.4803 22.4978C15.1576 22.5443 15.8414 22.5686 16.5205 22.5686C17.2001 22.5686 17.8848 22.5443 18.5616 22.4978C18.9104 22.4735 19.1554 22.7293 19.0988 23.0739ZM7.93856 19.3964C7.90157 18.9324 7.90157 18.4662 7.93856 18.0022C7.96676 17.6531 8.26116 17.2358 8.58179 17.0965C9.48868 16.7017 10.7066 16.3582 12.147 16.1213C12.4922 16.0649 12.7474 16.3094 12.7232 16.658C12.6769 17.335 12.6527 18.0197 12.6527 18.6982C12.6527 19.3772 12.6769 20.0619 12.7232 20.7387C12.7474 21.0875 12.4922 21.3323 12.147 21.2756C10.7063 21.0387 9.48868 20.6956 8.58179 20.3008C8.26116 20.162 7.96647 19.7452 7.93856 19.3964ZM8.87478 21.4471C9.85471 21.7979 11.0109 22.0683 12.2511 22.2561C12.5974 22.308 12.9129 22.6241 12.9648 22.9698C13.1521 24.2101 13.4228 25.3665 13.7736 26.3462C13.8915 26.6755 13.7321 26.8552 13.4056 26.7285C12.291 26.2944 11.2787 25.6334 10.4328 24.7876C9.58697 23.9417 8.92602 22.9294 8.49183 21.8148C8.3655 21.4888 8.54569 21.3292 8.87478 21.4471ZM23.0647 32.8061L9.97738 32.8083V31.1152H23.0647V32.8061ZM24.5508 21.8148C24.1167 22.9295 23.4558 23.942 22.6099 24.7879C21.764 25.6338 20.7516 26.2947 19.6368 26.7288C19.3108 26.8554 19.1509 26.6755 19.2688 26.3462C19.6196 25.3668 19.89 24.2098 20.0776 22.9701C20.1303 22.6238 20.4458 22.3077 20.7916 22.2561C22.0315 22.0689 23.188 21.7984 24.1679 21.4476C24.4973 21.3298 24.6775 21.4888 24.5508 21.8148ZM25.1041 19.397C25.0756 19.745 24.7815 20.1632 24.4609 20.3027C23.5537 20.6973 22.3361 21.041 20.8956 21.2779C20.5502 21.3346 20.2953 21.0901 20.3195 20.741C20.3658 20.0642 20.39 19.3789 20.39 18.7005C20.39 18.0211 20.3658 17.3364 20.3195 16.6597C20.2953 16.3108 20.5502 16.0661 20.8956 16.1227C22.3355 16.3596 23.5537 16.7028 24.4609 17.0979C24.7812 17.2375 25.0762 17.6545 25.1041 18.0031C25.1219 18.2326 25.132 18.4658 25.132 18.7005C25.132 18.9351 25.123 19.1669 25.1041 19.397ZM26.0138 5.37848H25.352V7.49541H24.6177V5.37848H23.9539V4.77812H26.0135V5.37848H26.0138ZM28.9762 32.0219C28.9762 32.1259 28.8403 32.2587 28.675 32.2742L28.0851 32.3165V3.11125C28.0851 3.01783 28.0667 2.92532 28.031 2.839C27.9953 2.75268 27.9429 2.67425 27.8769 2.60818C27.8108 2.54211 27.7324 2.4897 27.6461 2.45394C27.5598 2.41818 27.4673 2.39978 27.3739 2.39978H7.90697L28.7469 1.07074L28.7949 1.06763C28.8828 1.06763 28.9762 1.10599 28.9762 1.17705V32.0219Z" fill="#F37329"/>
</g>
<defs>
<clipPath id="clip0_2000_14171">
<rect width="35" height="35" fill="white"/>
</clipPath>
</defs>
</svg>
