<svg width="35" height="35" viewBox="0 0 35 35" fill="none" xmlns="http://www.w3.org/2000/svg">
<path d="M26.2506 1.82324H8.75061C6.91343 1.82324 5.1515 2.55306 3.85242 3.85214C2.55334 5.15122 1.82352 6.91315 1.82352 8.75033V26.2503C1.81664 26.2741 1.81664 26.2994 1.82352 26.3232C1.84273 28.1478 2.58102 29.891 3.87802 31.1744C5.17503 32.4577 6.926 33.1775 8.75061 33.1774H26.2506C28.0677 33.1738 29.8106 32.4563 31.1037 31.1796C32.3967 29.9029 33.1363 28.1693 33.1631 26.3524V8.75033C33.1631 6.91567 32.4353 5.15595 31.1394 3.85729C29.8434 2.55863 28.0853 1.8271 26.2506 1.82324ZM30.9902 23.3337L24.8944 16.3628C24.5071 15.9505 24.0394 15.6219 23.5202 15.3973C23.001 15.1726 22.4413 15.0567 21.8756 15.0567C21.3099 15.0567 20.7502 15.1726 20.231 15.3973C19.7118 15.6219 19.2442 15.9505 18.8569 16.3628L14.6714 21.1462L13.3006 19.4837C12.9229 19.0305 12.4501 18.666 11.9159 18.4158C11.3816 18.1656 10.7989 18.0359 10.2089 18.0359C9.619 18.0359 9.03628 18.1656 8.50202 18.4158C7.96775 18.666 7.49502 19.0305 7.11728 19.4837L4.01102 23.2316V8.75033C4.01487 7.49449 4.51545 6.2912 5.40347 5.40318C6.29148 4.51517 7.49478 4.01459 8.75061 4.01074H26.2506C27.5064 4.01459 28.7097 4.51517 29.5978 5.40318C30.4858 6.2912 30.9863 7.49449 30.9902 8.75033V23.3337Z" fill="black"/>
<path d="M10.2096 13.1253C11.8205 13.1253 13.1263 11.8195 13.1263 10.2087C13.1263 8.59783 11.8205 7.29199 10.2096 7.29199C8.5988 7.29199 7.29297 8.59783 7.29297 10.2087C7.29297 11.8195 8.5988 13.1253 10.2096 13.1253Z" fill="black"/>
</svg>
