<svg width="35" height="35" viewBox="0 0 35 35" fill="none" xmlns="http://www.w3.org/2000/svg">
<path d="M34.771 7.92855L24.8272 17.8723L34.5257 27.5779C34.8193 27.0731 35 26.4944 35 25.8695V9.12997C35 8.70573 34.9126 8.30371 34.771 7.92855ZM31.5761 5.70605H3.42392C2.85469 5.70605 2.32565 5.85891 1.85288 6.10575L16.8 21.0527C17.2337 21.4864 17.9869 21.4864 18.413 21.0527L33.2898 6.1832C32.7838 5.88769 32.2033 5.70605 31.5761 5.70605ZM0.287178 7.76606C0.104385 8.18456 0 8.64476 0 9.12997V25.8695C0 26.4845 0.175889 27.0539 0.460947 27.5533L10.2642 17.743L0.287178 7.76606Z" fill="#F37329"/>
<path d="M23.2061 19.4926L20.0333 22.673C18.7005 23.9907 16.5412 24.0123 15.1865 22.673L11.8843 19.3633L2.1875 29.0532C2.57202 29.2031 2.98662 29.293 3.42351 29.293H31.5757C32.0019 29.293 32.406 29.2052 32.7827 29.0622L23.2061 19.4926Z" fill="#F37329"/>
</svg>
