<svg width="35" height="35" viewBox="0 0 35 35" fill="none" xmlns="http://www.w3.org/2000/svg">
<path fill-rule="evenodd" clip-rule="evenodd" d="M11.0099 4.75109H25.0386V2.62922C25.0386 2.3968 24.936 2.18146 24.7576 2.03722C24.5792 1.89367 24.3468 1.83967 24.1198 1.88888L11.0099 4.75109ZM24.2176 25.3765H11.1213C10.9989 25.3765 10.895 25.4797 10.895 25.6028V28.184C10.895 28.307 10.9989 28.4103 11.1213 28.4103H24.2176C24.3399 28.4103 24.4438 28.307 24.4438 28.184V25.6028C24.4438 25.4797 24.3399 25.3765 24.2176 25.3765ZM17.6694 8.36047C21.8024 8.36047 25.165 11.7231 25.165 15.8561C25.165 19.9891 21.8024 23.3517 17.6694 23.3517C13.5364 23.3517 10.1738 19.9891 10.1738 15.8561C10.1738 11.7231 13.5364 8.36047 17.6694 8.36047ZM24.2176 24.5562C24.7945 24.5562 25.2642 25.0258 25.2642 25.6028V28.184C25.2642 28.761 24.7945 29.2306 24.2176 29.2306H11.1213C10.5443 29.2306 10.0747 28.761 10.0747 28.184V25.6028C10.0747 25.0258 10.5443 24.5562 11.1213 24.5562H24.2176ZM26.0305 33.1797H7.61719V5.5714H26.0305C26.9629 5.5714 27.7217 6.33019 27.7217 7.26193V31.4892C27.7217 32.4216 26.9629 33.1797 26.0305 33.1797ZM22.6884 15.4459H24.3317C24.2463 14.0425 23.7254 12.7546 22.9023 11.7162C22.4238 11.9671 21.8797 12.1845 21.2938 12.3588L21.2959 12.3663C22.0793 13.1791 22.5913 14.2544 22.6884 15.4459ZM21.2932 19.354C21.879 19.5283 22.4231 19.745 22.9017 19.9966C23.7247 18.9582 24.2456 17.6703 24.3311 16.2669H22.6884C22.5913 17.4584 22.0793 18.5337 21.2959 19.3472C21.2952 19.3486 21.2945 19.3513 21.2932 19.354ZM21.0396 20.134C20.7381 20.9406 20.356 21.6188 19.9178 22.1417C20.8311 21.8143 21.6527 21.2927 22.3329 20.6276C21.9419 20.4375 21.5064 20.2714 21.0396 20.134ZM18.0796 20.8743V22.4739C18.8486 22.2613 19.5732 21.4622 20.1003 20.2653C19.4779 20.6101 18.7889 20.8178 18.0796 20.8743ZM15.2386 20.2659C15.7656 21.4629 16.4902 22.2613 17.2593 22.4746V20.875C16.5501 20.8178 15.8612 20.6102 15.2386 20.2659ZM14.2993 20.134C13.8324 20.2714 13.397 20.4375 13.006 20.6276C13.6929 21.2998 14.5167 21.8163 15.4211 22.1417C14.9829 21.6188 14.6001 20.9406 14.2993 20.134ZM12.6505 16.2662H11.0071C11.0926 17.6696 11.6135 18.9575 12.4365 19.9959C12.915 19.745 13.4592 19.5277 14.045 19.3533L14.043 19.3458C13.2596 18.5323 12.7476 17.4577 12.6505 16.2662ZM14.045 12.3581C13.4592 12.1838 12.915 11.9671 12.4365 11.7155C11.6135 12.7539 11.0926 14.0418 11.0071 15.4452H12.6505C12.7476 14.2537 13.2596 13.1791 14.043 12.3656C14.0437 12.3636 14.0443 12.3609 14.045 12.3581ZM14.2993 11.5781C14.6008 10.7715 14.9829 10.0934 15.4211 9.57043C14.5078 9.89787 13.6861 10.4195 13.006 11.0846C13.397 11.2746 13.8324 11.4407 14.2993 11.5781ZM17.6694 11.6397C15.3445 11.6397 13.453 13.5312 13.453 15.8561C13.453 18.181 15.3445 20.0725 17.6694 20.0725C19.9943 20.0725 21.8858 18.181 21.8858 15.8561C21.8858 13.5312 19.9943 11.6397 17.6694 11.6397ZM16.0869 14.8279C16.0869 15.6072 16.7767 15.9108 17.3311 16.1548C17.3871 16.1794 17.4438 16.2047 17.5006 16.23C17.5601 16.2567 17.6188 16.2826 17.6776 16.3086C18.202 16.5397 18.4316 16.6634 18.4316 16.8842C18.4316 17.2253 18.0898 17.5022 17.6694 17.5022C17.249 17.5022 16.9072 17.2253 16.9072 16.8842C16.9072 16.6572 16.7233 16.474 16.4971 16.474C16.2708 16.474 16.0869 16.6579 16.0869 16.8842C16.0869 17.548 16.5853 18.1085 17.2593 18.2733V18.9616C17.2593 19.1879 17.4432 19.3718 17.6694 19.3718C17.8957 19.3718 18.0796 19.1879 18.0796 18.9616V18.2733C18.7536 18.1085 19.252 17.5487 19.252 16.8842C19.252 16.1049 18.5622 15.8014 18.0078 15.5573C17.9518 15.5327 17.895 15.5074 17.8383 15.4821C17.7788 15.4555 17.72 15.4295 17.6612 15.4035C17.1369 15.1732 16.9072 15.0487 16.9072 14.8279C16.9072 14.4875 17.249 14.21 17.6694 14.21C18.0898 14.21 18.4316 14.4868 18.4316 14.8279C18.4316 15.0549 18.6155 15.2381 18.8418 15.2381C19.0681 15.2381 19.252 15.0542 19.252 14.8279C19.252 14.1642 18.7536 13.6036 18.0796 13.4389V12.7512C18.0796 12.5249 17.8957 12.341 17.6694 12.341C17.4432 12.341 17.2593 12.5249 17.2593 12.7512V13.4389C16.5853 13.6036 16.0869 14.1635 16.0869 14.8279ZM17.2593 10.8371V9.2382C16.4902 9.4508 15.7656 10.2499 15.2386 11.4469C15.8463 11.1099 16.5312 10.8966 17.2593 10.8371ZM20.1003 11.4462C19.5732 10.2492 18.8486 9.4508 18.0796 9.23752V10.8364C18.8076 10.8966 19.4926 11.1099 20.1003 11.4462ZM22.3329 11.0846C21.6459 10.4123 20.8222 9.89587 19.9178 9.57043C20.356 10.0927 20.7381 10.7708 21.0396 11.5781C21.5064 11.4407 21.9419 11.2746 22.3329 11.0846Z" fill="black"/>
</svg>
