<svg width="60" height="60" viewBox="0 0 60 60" fill="none" xmlns="http://www.w3.org/2000/svg">
<path d="M25.883 42.8097C26.8693 43.4497 27.9913 43.8507 29.1597 43.981C30.3282 44.1112 31.5109 43.967 32.6139 43.5599C33.7168 43.1527 34.7096 42.4938 35.5132 41.6356C36.3168 40.7774 36.9091 39.7436 37.2429 38.6163C37.5768 37.489 37.643 36.2993 37.4364 35.1419C37.2297 33.9845 36.7559 32.8913 36.0525 31.9492C35.3492 31.0071 34.4357 30.2421 33.3847 29.715C32.3338 29.188 31.1744 28.9134 29.9987 28.9131C28.3814 28.9383 26.8145 29.4793 25.5262 30.4571C24.2378 31.435 23.2953 32.7987 22.836 34.3495C22.3767 35.9004 22.4246 37.5573 22.9727 39.0791C23.5208 40.6008 24.5404 41.9078 25.883 42.8097ZM40.2005 37.8812C40.4593 45.8378 51.998 45.8368 52.2643 37.8812C51.9802 29.9003 40.4855 29.8993 40.2005 37.8812Z" fill="black"/>
<path d="M51.6846 43.5859C50.3312 44.8713 48.5673 45.6372 46.7041 45.7486C44.8409 45.8599 42.9983 45.3094 41.5015 44.1944C40.8509 43.5897 40.7215 43.4987 40.024 44.1287C42.4709 46.4509 44.8999 49.7828 44.4378 53.3116H52.8828C53.41 53.3102 53.9293 53.1831 54.3976 52.9408C54.8659 52.6985 55.2696 52.348 55.5753 51.9184C57.5449 49.0019 54.0265 45.0766 51.6846 43.5859ZM38.6206 45.3813C37.8522 44.7071 37.0044 44.1294 36.0959 43.6609C35.7886 43.9187 35.4672 44.1591 35.1331 44.3809C33.6036 45.3661 31.8228 45.89 30.0035 45.89C28.1843 45.89 26.4035 45.3661 24.874 44.3809C24.5382 44.1569 24.2134 43.9166 23.9009 43.6609C22.9924 44.1294 22.1445 44.7071 21.3762 45.3813C19.6166 46.8936 18.2956 48.8509 17.5512 51.0484C17.362 51.6461 17.3162 52.2799 17.4173 52.8987C17.5184 53.5174 17.7637 54.1036 18.1334 54.6099C18.503 55.1163 18.9866 55.5286 19.545 55.8134C20.1035 56.0983 20.7212 56.2477 21.3481 56.2497H38.6487C39.5244 56.2428 40.3745 55.9531 41.0722 55.4238C41.7699 54.8945 42.2779 54.154 42.5206 53.3125C43.1187 50.3359 40.6606 47.2684 38.6206 45.3813ZM19.9737 44.1184C19.2903 43.4997 19.1243 43.6019 18.4962 44.1934C16.9993 45.3089 15.1564 45.8597 13.2928 45.7486C11.4293 45.6374 9.66492 44.8715 8.3112 43.5859C5.97963 45.0709 2.45839 49.0122 4.42057 51.9184C4.72643 52.3483 5.13045 52.6989 5.59908 52.9412C6.0677 53.1835 6.58739 53.3105 7.11495 53.3116H15.559C15.0874 49.8006 17.5249 46.4538 19.9737 44.1184Z" fill="black"/>
<path d="M19.7962 37.8816C19.5121 29.9006 8.01742 29.8997 7.73242 37.8816C7.9968 45.8344 19.5355 45.8409 19.7962 37.8816Z" fill="black"/>
<path d="M13.0148 30.4378C13.1028 30.5527 13.216 30.6458 13.3458 30.7099C13.4755 30.7739 13.6182 30.8073 13.7629 30.8073C13.9076 30.8073 14.0504 30.7739 14.1801 30.7099C14.3099 30.6458 14.4231 30.5527 14.5111 30.4378L17.317 26.6972C17.4566 26.4983 17.5133 26.2528 17.4751 26.0128C17.4369 25.7728 17.3069 25.5571 17.1125 25.4113C16.9181 25.2655 16.6746 25.201 16.4335 25.2316C16.1924 25.2621 15.9726 25.3853 15.8208 25.575L14.6986 27.0712V16.56C14.6981 16.4371 14.7219 16.3153 14.7687 16.2016C14.8155 16.0879 14.8843 15.9846 14.9712 15.8976C15.058 15.8107 15.1613 15.7418 15.2749 15.6949C15.3885 15.648 15.5103 15.624 15.6333 15.6244H18.8039C20.0976 29.5622 39.9033 29.5519 41.1914 15.6244H44.362C44.485 15.6239 44.6069 15.6477 44.7206 15.6946C44.8344 15.7414 44.9377 15.8103 45.0247 15.8973C45.1117 15.9843 45.1806 16.0876 45.2274 16.2014C45.2743 16.3151 45.2981 16.437 45.2976 16.56V27.0712L44.1745 25.575C44.0226 25.3853 43.8029 25.2621 43.5618 25.2316C43.3207 25.201 43.0772 25.2655 42.8828 25.4113C42.6884 25.5571 42.5583 25.7728 42.5201 26.0128C42.482 26.2528 42.5387 26.4983 42.6783 26.6972L45.4833 30.4378C45.5712 30.5527 45.6845 30.6458 45.8142 30.7099C45.9439 30.7739 46.0867 30.8073 46.2314 30.8073C46.3761 30.8073 46.5188 30.7739 46.6486 30.7099C46.7783 30.6458 46.8915 30.5527 46.9795 30.4378L49.7854 26.6972C49.925 26.4983 49.9817 26.2528 49.9436 26.0128C49.9054 25.7728 49.7753 25.5571 49.5809 25.4113C49.3865 25.2655 49.143 25.201 48.9019 25.2316C48.6608 25.2621 48.4411 25.3853 48.2892 25.575L47.167 27.0712V16.56C47.1665 15.816 46.8707 15.1026 46.3446 14.5765C45.8185 14.0503 45.1051 13.7546 44.3611 13.7541H41.1651C39.4354 0.417187 20.5636 0.413437 18.8329 13.7541H15.6342C14.8903 13.7548 14.1772 14.0507 13.6512 14.5768C13.1253 15.1029 12.8297 15.8161 12.8292 16.56V27.0712L11.707 25.575C11.5551 25.3853 11.3354 25.2621 11.0943 25.2316C10.8532 25.201 10.6097 25.2655 10.4153 25.4113C10.2209 25.5571 10.0908 25.7728 10.0526 26.0128C10.0145 26.2528 10.0712 26.4983 10.2108 26.6972L13.0148 30.4378ZM29.9976 15.8494C29.168 15.8411 28.369 15.5349 27.7462 14.9866C27.1235 14.4383 26.7186 13.6845 26.6053 12.8626C26.492 12.0407 26.6778 11.2054 27.129 10.5091C27.5801 9.81283 28.2665 9.30185 29.0629 9.06938V7.32938C29.0706 7.08648 29.1725 6.85611 29.3471 6.68701C29.5216 6.51792 29.7551 6.42336 29.9981 6.42336C30.2411 6.42336 30.4746 6.51792 30.6491 6.68701C30.8237 6.85611 30.9256 7.08648 30.9333 7.32938V9.06938C31.6589 9.27061 32.2987 9.70407 32.7547 10.3034C33.2106 10.9028 33.4577 11.635 33.4579 12.3881C33.4502 12.631 33.3484 12.8614 33.1738 13.0305C32.9993 13.1996 32.7658 13.2941 32.5228 13.2941C32.2798 13.2941 32.0463 13.1996 31.8718 13.0305C31.6972 12.8614 31.5953 12.631 31.5876 12.3881C31.5874 12.0737 31.494 11.7664 31.3192 11.505C31.1444 11.2437 30.896 11.04 30.6054 10.9198C30.3149 10.7996 29.9952 10.7683 29.6869 10.8297C29.3785 10.8912 29.0953 11.0427 28.873 11.2651C28.6507 11.4875 28.4994 11.7708 28.4381 12.0792C28.3768 12.3876 28.4084 12.7073 28.5287 12.9977C28.6491 13.2882 28.8529 13.5365 29.1144 13.7112C29.3758 13.8858 29.6832 13.9791 29.9976 13.9791C30.8285 13.9873 31.6287 14.2939 32.2523 14.843C32.8759 15.392 33.2815 16.1469 33.3949 16.9701C33.5083 17.7932 33.3221 18.6296 32.8702 19.3269C32.4184 20.0242 31.7309 20.5358 30.9333 20.7684V22.4981C30.9256 22.741 30.8237 22.9714 30.6491 23.1405C30.4746 23.3096 30.2411 23.4041 29.9981 23.4041C29.7551 23.4041 29.5216 23.3096 29.3471 23.1405C29.1725 22.9714 29.0706 22.741 29.0629 22.4981V20.7684C28.3368 20.5641 27.6972 20.1283 27.2414 19.5272C26.7855 18.9262 26.5383 18.1928 26.5373 17.4384C26.545 17.1955 26.6469 16.9652 26.8214 16.7961C26.996 16.627 27.2295 16.5324 27.4725 16.5324C27.7155 16.5324 27.949 16.627 28.1235 16.7961C28.298 16.9652 28.3999 17.1955 28.4076 17.4384C28.4074 17.7529 28.5005 18.0605 28.6751 18.322C28.8497 18.5836 29.098 18.7876 29.3885 18.9081C29.679 19.0286 29.9988 19.0602 30.3072 18.9989C30.6157 18.9377 30.8991 18.7863 31.1216 18.564C31.3441 18.3417 31.4956 18.0584 31.557 17.7499C31.6184 17.4415 31.587 17.1217 31.4667 16.8311C31.3464 16.5405 31.1426 16.2922 30.8811 16.1174C30.6196 15.9426 30.3121 15.8494 29.9976 15.8494Z" fill="black"/>
</svg>
