<svg width="60" height="60" viewBox="0 0 60 60" fill="none" xmlns="http://www.w3.org/2000/svg">
<path fill-rule="evenodd" clip-rule="evenodd" d="M39.3667 27.937C40.1754 23.4872 44.0691 20.1126 48.7505 20.1126C53.4343 20.1126 57.3282 23.4873 58.1374 27.9367C58.1518 28.0211 58.1476 28.1077 58.1251 28.1903C58.1026 28.2729 58.0623 28.3496 58.0071 28.415C57.9519 28.4805 57.8831 28.5331 57.8054 28.5691C57.7277 28.6052 57.6432 28.6239 57.5575 28.6239C54.6096 28.6239 42.8923 28.6239 39.9438 28.6211C39.8585 28.6211 39.7743 28.6025 39.697 28.5666C39.6197 28.5307 39.5512 28.4783 39.4962 28.4132C39.4412 28.348 39.4012 28.2716 39.3788 28.1894C39.3564 28.1071 39.3523 28.021 39.3667 27.937ZM48.7505 18.9361C46.0948 18.9361 43.9301 16.769 43.9301 14.1133C43.9301 11.4577 46.0948 9.29049 48.7505 9.29049C51.4086 9.29049 53.5733 11.4577 53.5733 14.1133C53.5733 16.769 51.4086 18.9361 48.7505 18.9361ZM29.998 10.2339C27.3425 10.2339 25.1778 8.06673 25.1778 5.41108C25.1778 2.75543 27.3425 0.588257 29.998 0.588257C32.6562 0.588257 34.8208 2.75543 34.8208 5.41108C34.8208 8.06673 32.6562 10.2339 29.998 10.2339ZM1.86188 27.937C2.67058 23.4872 6.56423 20.1126 11.2456 20.1126C15.9295 20.1126 19.8234 23.4873 20.6326 27.9367C20.647 28.0211 20.6428 28.1077 20.6203 28.1903C20.5978 28.2729 20.5575 28.3496 20.5023 28.415C20.4471 28.4805 20.3782 28.5331 20.3006 28.5691C20.2229 28.6052 20.1383 28.6239 20.0527 28.6239C17.1048 28.6239 5.38752 28.6239 2.43893 28.6211C2.35371 28.6211 2.26951 28.6024 2.19222 28.5665C2.11494 28.5306 2.04643 28.4782 1.99148 28.4131C1.93653 28.3479 1.89646 28.2716 1.87407 28.1893C1.85169 28.1071 1.84753 28.021 1.86188 27.937ZM11.2456 18.9361C8.58999 18.9361 6.42529 16.769 6.42529 14.1133C6.42529 11.4577 8.58999 9.29049 11.2456 9.29049C13.9038 9.29049 16.0685 11.4577 16.0685 14.1133C16.0685 16.769 13.9038 18.9361 11.2456 18.9361ZM29.9983 27.3023C26.9082 27.3023 24.3894 24.7805 24.3894 21.6903C24.3894 18.6001 26.9082 16.0784 29.9983 16.0784C33.0915 16.0784 35.6104 18.6001 35.6104 21.6903C35.6104 24.7805 33.0915 27.3023 29.9983 27.3023ZM22.7191 19.9191L21.1913 19.9188C21.106 19.9189 21.0218 19.9003 20.9445 19.8644C20.8672 19.8284 20.7987 19.7761 20.7437 19.7109C20.6888 19.6458 20.6487 19.5694 20.6263 19.4871C20.604 19.4049 20.5998 19.3187 20.6142 19.2347C21.4229 14.785 25.3166 11.4104 29.998 11.4104C34.682 11.4104 38.5758 14.7851 39.3851 19.2345C39.3994 19.3189 39.3952 19.4054 39.3727 19.4881C39.3502 19.5707 39.3099 19.6474 39.2547 19.7128C39.1994 19.7782 39.1306 19.8308 39.0529 19.8669C38.9753 19.903 38.8907 19.9217 38.8051 19.9217L37.2813 19.9213C36.4832 16.6431 33.5194 14.196 29.9983 14.196C26.4813 14.196 23.518 16.6418 22.7191 19.9191ZM39.8264 33.9484H20.1725C22.6603 31.3831 26.1431 29.7887 29.998 29.7887C33.8549 29.7887 37.3386 31.3831 39.8264 33.9484ZM20.7515 59.4118V57.218C20.7515 56.4339 21.5554 55.7924 22.5375 55.7924H27.4874L28.4489 49.047C28.4689 48.9068 28.5388 48.7785 28.6458 48.6857C28.7528 48.5929 28.8897 48.5418 29.0313 48.5418H30.9647C31.1063 48.5418 31.2432 48.5929 31.3502 48.6857C31.4571 48.7785 31.5271 48.9068 31.5471 49.047L32.5086 55.7924H37.4586C38.4406 55.7924 39.2445 56.4339 39.2445 57.218V59.4118H20.7515ZM25.9225 53.4326H18.4826C17.3302 53.4326 16.3878 52.5417 16.3878 51.4527V37.8146C16.3878 36.7257 17.3302 35.8307 18.4826 35.8307H41.5135C42.6659 35.8307 43.6084 36.7257 43.6084 37.8146V51.4527C43.6084 52.5417 42.6659 53.4326 41.5135 53.4326H34.0736L33.4106 48.7813C33.2371 47.5639 32.1946 46.6594 30.9648 46.6594H29.0313C27.8015 46.6594 26.7589 47.5639 26.5854 48.7813L25.9225 53.4326Z" fill="#F37329"/>
</svg>
