<svg width="60" height="60" viewBox="0 0 60 60" fill="none" xmlns="http://www.w3.org/2000/svg">
<path d="M33.7898 37.7343L34.2645 39.2296L33.7957 40.6816C33.668 41.0792 33.6285 41.4999 33.6797 41.9144C27.9691 42.3164 22.5187 41.7621 17.2559 40.4894C15.3223 40.0242 14.0039 38.3472 14.0039 36.3609V27.2578L28.4273 32.632C29.4402 33.007 30.5539 33.007 31.5668 32.632L45.9902 27.2578V29.6625L45.4523 29.2734C44.4422 28.5457 43.1004 28.5421 42.0902 29.2664L40.8141 30.1769L39.2895 30.1804C38.0437 30.1875 36.9574 30.9714 36.566 32.1503L36.068 33.6386L34.8352 34.5386C33.8402 35.2699 33.4184 36.5554 33.7898 37.7343ZM59.0027 18.0293L30.8941 7.55503C30.318 7.3394 29.6832 7.3394 29.107 7.55503L0.99375 18.0293C0.365625 18.2648 0 18.6902 0 19.1847C0 19.6828 0.365625 20.1082 0.99375 20.3402L2.42227 20.8722V26.782C2.13351 26.9509 1.89412 27.1926 1.72797 27.4829C1.56182 27.7733 1.47473 28.1021 1.47539 28.4367C1.47539 29.2535 1.9875 29.9519 2.7082 30.2238L0.980859 34.4554C0.86836 34.7335 0.86836 35.0445 0.980859 35.3226C1.09336 35.5945 1.28672 35.755 1.51289 35.755H5.26992C5.49258 35.755 5.68477 35.5957 5.79844 35.3226C5.91094 35.0472 5.91094 34.7308 5.79844 34.4554L4.07109 30.2238C4.7918 29.9519 5.30625 29.2535 5.30625 28.4367C5.30625 27.7324 4.92422 27.1148 4.35938 26.782V21.5929L29.107 30.8179C29.6813 31.03 30.3199 31.03 30.8941 30.8179L59.0039 20.3414C59.632 20.1093 60 19.6839 60 19.1859C60 18.6902 59.6309 18.2648 59.0027 18.0293ZM50.9145 46.4273C50.4797 47.5171 49.4367 48.2343 48.2473 48.2378L46.7227 48.2449L46.4332 48.4511L48.7125 52.398C48.7922 52.5304 48.9246 52.6078 49.0816 52.6078C49.234 52.6078 49.3676 52.5316 49.4473 52.3957L50.3613 50.7878C50.4375 50.6484 50.5734 50.5722 50.7305 50.5722L52.5809 50.5851C52.7367 50.5851 52.8703 50.5089 52.95 50.3753C53.0262 50.2394 53.0262 50.0859 52.95 49.9535L50.9145 46.4273ZM39.2812 48.2414C38.0953 48.232 37.0559 47.5136 36.627 46.4238L34.5902 49.9511C34.5105 50.0835 34.5105 50.2371 34.5902 50.373C34.6664 50.5054 34.8023 50.5828 34.9559 50.5828L36.8098 50.5699C36.9656 50.5699 37.1016 50.646 37.1789 50.7855L38.093 52.3933C38.1691 52.5293 38.3027 52.6054 38.4586 52.6054C38.6145 52.6054 38.748 52.5293 38.8277 52.3957L41.1094 48.4429L40.8504 48.2531L39.2812 48.2414ZM43.7695 35.7375C41.85 35.7375 40.2949 37.2925 40.2949 39.2085C40.2949 41.1281 41.85 42.6832 43.7695 42.6832C45.6867 42.6832 47.2441 41.1281 47.2441 39.2085C47.2441 38.2523 46.8551 37.3816 46.2246 36.7535C45.5965 36.1265 44.7293 35.7375 43.7695 35.7375ZM48.2402 46.3054L46.4004 46.3125C46.1977 46.3125 46.0219 46.3687 45.8555 46.4882L44.3203 47.5816C43.9852 47.8207 43.5527 47.8207 43.2176 47.5781L41.7258 46.5023C41.5594 46.3828 41.3836 46.3265 41.1773 46.323L39.2977 46.3101C38.8828 46.3066 38.5336 46.0511 38.4035 45.6585L37.8293 43.9113C37.766 43.7156 37.657 43.5656 37.4941 43.4425L35.9789 42.3234C35.6473 42.0773 35.5137 41.666 35.6402 41.2734L36.2016 39.5226C36.2648 39.3269 36.2648 39.1406 36.2051 38.9484L35.6367 37.1507C35.5137 36.7558 35.6461 36.3468 35.9824 36.1007L37.4637 35.0144C37.6301 34.8949 37.7391 34.7449 37.8023 34.5492L38.4 32.7656C38.5324 32.3742 38.8816 32.1175 39.2965 32.1175L41.134 32.1105C41.3402 32.1105 41.516 32.0543 41.6824 31.9347L43.2141 30.8414C43.5527 30.5988 43.9852 30.6023 44.3203 30.8449L45.8121 31.9183C45.9785 32.0378 46.1543 32.0976 46.3605 32.0976L48.2402 32.114C48.6551 32.1175 49.0043 32.373 49.1344 32.7656L49.7086 34.5128C49.7719 34.7085 49.8809 34.8586 50.0438 34.9781L51.559 36.0972C51.8906 36.3433 52.0242 36.7546 51.8977 37.1507L51.3363 38.9015C51.273 39.0972 51.273 39.28 51.3328 39.4757L51.9012 41.2734C52.0242 41.6648 51.8918 42.0773 51.5555 42.3234L50.0707 43.4097C49.9078 43.5293 49.7988 43.6793 49.732 43.8714L49.1379 45.6585C49.0043 46.0488 48.6551 46.3019 48.2402 46.3054ZM49.1766 39.2097C49.1766 37.7179 48.5719 36.3668 47.5922 35.3859C46.616 34.4062 45.2637 33.8015 43.7684 33.8015C40.7824 33.8015 38.3566 36.2226 38.3566 39.2097C38.3566 42.1992 40.7812 44.6214 43.7684 44.6214C46.7555 44.6214 49.1766 42.1992 49.1766 39.2097Z" fill="#F37329"/>
</svg>
