<svg width="60" height="60" viewBox="0 0 60 60" fill="none" xmlns="http://www.w3.org/2000/svg">
<g clip-path="url(#clip0_509_7481)">
<path d="M24.6609 59.4811L25.9053 58.2366L25.9054 58.2365C26.0707 58.0721 26.2017 57.8766 26.2909 57.6613C26.38 57.446 26.4256 57.2151 26.425 56.9821C26.425 56.5081 26.2403 56.0626 25.9054 55.7276C25.741 55.5623 25.5455 55.4312 25.3302 55.342C25.1148 55.2528 24.8839 55.2071 24.6508 55.2078C24.4177 55.2071 24.1869 55.2528 23.9716 55.3419C23.7563 55.4311 23.5608 55.5621 23.3964 55.7274L22.1501 56.9737C21.4601 57.6654 21.4605 58.7899 22.1516 59.4812C22.8433 60.1728 23.9691 60.1729 24.6609 59.4811ZM18.6766 56.7647C19.1505 56.7647 19.596 56.58 19.9311 56.2449L22.6693 53.5067C23.361 52.815 23.3609 51.6896 22.6693 50.9977C22.3236 50.6519 21.8691 50.479 21.4148 50.479C20.9604 50.479 20.5062 50.6519 20.1604 50.9978L17.4222 53.736C17.2569 53.9003 17.1258 54.0958 17.0366 54.3111C16.9474 54.5264 16.9017 54.7573 16.9023 54.9904C16.9023 55.4644 17.087 55.9098 17.422 56.2449C17.5863 56.4102 17.7818 56.5412 17.9972 56.6304C18.2126 56.7197 18.4435 56.7653 18.6766 56.7647Z" fill="#F37329"/>
<path d="M38.4469 42.9955L43.8111 48.327C43.9373 48.4532 44.0497 48.5877 44.1557 48.7256C44.237 48.7716 44.3119 48.8282 44.3782 48.894C45.1322 49.6478 46.3588 49.648 47.1125 48.894C47.4778 48.529 47.679 48.0434 47.679 47.5269C47.679 47.0105 47.4778 46.525 47.1127 46.1599L33.5848 32.6321L31.393 34.3767L31.3977 34.3889C31.8836 35.6434 31.8874 37.0334 31.4084 38.2905C30.9294 39.5476 30.0015 40.5826 28.804 41.1956L28.5688 41.3167C28.2749 41.4686 27.949 41.548 27.6182 41.5484C27.4018 41.5484 27.1846 41.5141 26.9729 41.4456C26.7113 41.3616 26.469 41.2264 26.2602 41.0478C26.0513 40.8692 25.8802 40.6508 25.7566 40.4053L22.8662 34.7031C22.5174 34.0175 22.3947 33.2389 22.5158 32.4792C22.6369 31.7195 22.9956 31.0178 23.5404 30.4746L26.502 27.5129C25.8688 27.446 25.2291 27.4763 24.6052 27.6028L22.8543 27.956C22.1804 28.0928 21.4831 28.0603 20.8248 27.8616C20.1666 27.6629 19.5678 27.3042 19.0821 26.8174L17.917 25.6523L9.3457 34.2238L11.3021 36.1802C12.2268 37.105 12.6673 38.4296 12.4804 39.7237C12.4546 39.897 12.4335 40.0709 12.4173 40.2452C12.9004 40.0368 13.4211 39.9296 13.9472 39.9302C14.9777 39.9302 15.9466 40.3315 16.6755 41.0603C17.2818 41.6665 17.6606 42.4395 17.771 43.2754C19.0339 42.9725 20.4212 43.3126 21.4051 44.2963C22.536 45.4273 22.8165 47.0912 22.2473 48.4869C22.9657 48.6436 23.6239 49.0036 24.1434 49.5239C25.1272 50.5078 25.4674 51.8951 25.1645 53.1581C26.0005 53.2686 26.7734 53.6474 27.3797 54.2538C28.1084 54.9824 28.5098 55.9514 28.5098 56.9822C28.5098 57.3695 28.4531 57.748 28.3437 58.1085L28.7456 58.5104C29.1107 58.8757 29.5963 59.0769 30.1127 59.0769C30.6292 59.0769 31.1147 58.8757 31.4797 58.5105C31.6598 58.3314 31.8027 58.1184 31.8999 57.8837C31.9971 57.6491 32.0469 57.3974 32.0462 57.1434C32.0462 56.6277 31.8455 56.1428 31.4814 55.7778L27.9218 52.2183C27.7312 52.0218 27.6255 51.7583 27.6275 51.4845C27.6296 51.2108 27.7393 50.9489 27.9328 50.7553C28.1264 50.5618 28.3883 50.4521 28.662 50.45C28.9358 50.448 29.1993 50.5537 29.3958 50.7443L34.5718 55.9203C35.3255 56.6741 36.5523 56.6743 37.3062 55.9203C38.0599 55.1666 38.0599 53.9398 37.3061 53.1859C37.2839 53.1635 37.2628 53.1401 37.2428 53.1158L32.2828 48.1166C32.0881 47.9204 31.9793 47.6549 31.9804 47.3785C31.9814 47.1021 32.0922 46.8374 32.2884 46.6427C32.4846 46.448 32.7501 46.3392 33.0265 46.3403C33.3029 46.3414 33.5676 46.4522 33.7623 46.6484L39.6082 52.5404C40.2786 53.2109 41.3512 53.3414 42.1023 52.9039C42.1546 52.7664 42.2354 52.6416 42.3396 52.5377C43.0935 51.7837 43.0935 50.5571 42.3396 49.8034L36.9777 44.4741C36.8806 44.3776 36.8035 44.2629 36.7507 44.1366C36.6979 44.0104 36.6706 43.8749 36.6702 43.738C36.6697 43.6012 36.6963 43.4656 36.7483 43.339C36.8003 43.2124 36.8767 43.0973 36.9732 43.0002C37.3789 42.5919 38.0389 42.5899 38.4469 42.9955Z" fill="#F37329"/>
<path d="M15.2011 45.0431C15.3664 44.8788 15.4974 44.6833 15.5866 44.4679C15.6758 44.2526 15.7214 44.0217 15.7207 43.7886C15.7207 43.3147 15.5362 42.8693 15.2011 42.5343C15.0364 42.3694 14.8409 42.2387 14.6256 42.1496C14.4102 42.0606 14.1795 42.0149 13.9465 42.0154C13.7135 42.015 13.4828 42.0606 13.2675 42.1496C13.0522 42.2387 12.8567 42.3694 12.6921 42.5343L12.4147 42.8116L12.4101 42.8162L9.90925 45.3171C9.21749 46.0088 9.21749 47.1345 9.90925 47.8261C10.6009 48.5181 11.7267 48.5177 12.4181 47.8261L15.201 45.0432C15.2008 45.0431 15.2011 45.0431 15.2011 45.0431ZM15.1117 53.0985L17.0484 51.1617L18.6861 49.524L18.6869 49.5233L19.9308 48.2795C20.6224 47.5878 20.6224 46.4622 19.9308 45.7704C19.5851 45.4246 19.1306 45.2517 18.6763 45.2517C18.2219 45.2517 17.7677 45.4246 17.4219 45.7705L14.4924 48.6998L13.8922 49.3002L13.8908 49.3015L12.6026 50.5897C11.911 51.2814 11.911 52.4071 12.6027 53.0988C13.294 53.7901 14.4198 53.7902 15.1117 53.0985ZM50.6537 34.2238L42.0823 25.6523L40.9493 26.7853C39.9328 27.802 38.4878 28.2203 37.086 27.9046L33.8931 27.1856C32.3729 26.8433 30.8204 27.0791 29.5 27.8105C29.3893 27.9157 29.2568 27.9953 29.1119 28.0436C28.7464 28.2814 28.4065 28.5565 28.0977 28.8645L25.0139 31.9485C24.7804 32.1812 24.6266 32.482 24.5747 32.8076C24.5228 33.1331 24.5753 33.4668 24.7248 33.7607L27.6152 39.4629L27.8504 39.342C28.5899 38.9635 29.163 38.3243 29.4588 37.548C29.7547 36.7717 29.7523 35.9133 29.4523 35.1387L29.1724 34.4126C29.0926 34.2056 29.0809 33.9786 29.139 33.7645C29.1972 33.5505 29.3222 33.3605 29.4957 33.2224L33.0051 30.4291L33.0057 30.4287L33.0142 30.422C33.0231 30.415 33.0325 30.4092 33.0415 30.4024C33.0598 30.3887 33.078 30.375 33.097 30.3627C33.1076 30.3559 33.1186 30.35 33.1292 30.3437C33.1481 30.3325 33.167 30.321 33.1864 30.3109C33.1996 30.3042 33.2129 30.2986 33.2263 30.2924C33.2437 30.2843 33.2612 30.276 33.2789 30.2688C33.2945 30.2626 33.3104 30.2577 33.3262 30.2522C33.3422 30.2468 33.358 30.2409 33.3742 30.2362C33.3914 30.2312 33.409 30.2276 33.4263 30.2235C33.4416 30.22 33.4566 30.216 33.4719 30.2132C33.4897 30.2099 33.5076 30.2078 33.5256 30.2054C33.5409 30.2034 33.5562 30.201 33.5715 30.1996C33.5889 30.198 33.6062 30.1977 33.6235 30.1971C33.6397 30.1965 33.6559 30.1955 33.6721 30.1957C33.6883 30.1958 33.7045 30.1971 33.7207 30.198C33.738 30.199 33.7554 30.1997 33.7726 30.2014C33.7875 30.2031 33.8023 30.2057 33.8171 30.2079C33.8355 30.2106 33.8538 30.213 33.8721 30.2168C33.886 30.2197 33.8999 30.2236 33.9137 30.227C33.9324 30.2316 33.9511 30.236 33.9695 30.2416C33.9833 30.2459 33.9969 30.2512 34.0106 30.2561C34.0284 30.2624 34.0462 30.2684 34.0638 30.2756C34.0786 30.2817 34.093 30.289 34.1075 30.2959C34.1233 30.3034 34.1392 30.3103 34.1548 30.3186C34.1712 30.3274 34.1869 30.3374 34.2027 30.347C34.2158 30.355 34.229 30.3623 34.2418 30.3709C34.2593 30.3826 34.276 30.3956 34.2928 30.4084C34.3035 30.4165 34.3144 30.424 34.3248 30.4325C34.3413 30.4461 34.357 30.4611 34.3728 30.476C34.3819 30.4843 34.3912 30.4918 34.4 30.5006L46.7787 42.8793C47.4054 41.9659 47.6791 40.8347 47.5188 39.724C47.3318 38.4298 47.7723 37.1053 48.6968 36.1806L50.6537 34.2238ZM42.8194 23.4415C42.8196 23.4417 42.8197 23.4418 42.8198 23.4421L54.4742 35.0963C54.572 35.194 54.7045 35.2488 54.8427 35.2488C54.9809 35.2488 55.1135 35.194 55.2112 35.0963L59.7876 30.5198C59.836 30.4715 59.8745 30.414 59.9006 30.3508C59.9268 30.2876 59.9403 30.2198 59.9403 30.1513C59.9403 30.0829 59.9268 30.0151 59.9006 29.9519C59.8745 29.8887 59.836 29.8312 59.7876 29.7829L46.1548 16.1498L40.8412 21.4634L42.8188 23.4409L42.8194 23.4415ZM4.7878 35.0963C4.88553 35.1939 5.01805 35.2488 5.15624 35.2488C5.29442 35.2488 5.42695 35.1939 5.52468 35.0963L19.1576 21.4635L19.1577 21.4634L19.1586 21.4624L13.8442 16.15L9.00807 20.9861L9.00538 20.9888L0.211278 29.7829C0.162873 29.8312 0.124474 29.8887 0.098276 29.9519C0.0720779 30.0151 0.0585937 30.0829 0.0585938 30.1513C0.0585938 30.2198 0.0720779 30.2876 0.098276 30.3508C0.124474 30.414 0.162873 30.4715 0.211278 30.5198L4.7878 35.0963ZM26.7457 0.605391C24.2835 1.51148 22.2794 3.37055 21.1785 5.73199H25.245C25.5364 3.77262 26.0391 1.97906 26.7457 0.605391ZM39.1331 5.73211C38.032 3.37055 36.0281 1.5116 33.5659 0.605508C34.2726 1.97918 34.7751 3.77273 35.0667 5.73211H39.1331ZM25.0601 12.5064C24.9831 11.64 24.9446 10.7707 24.9448 9.90094C24.9448 9.20379 24.9696 8.50582 25.0183 7.81652H20.4774C20.3296 8.50148 20.255 9.20021 20.2548 9.90094C20.2549 10.7811 20.3728 11.6574 20.6052 12.5064H25.0601ZM38.873 14.5908H34.9834C34.6836 16.3464 34.2094 17.9454 33.5658 19.1964C35.8442 18.3578 37.7314 16.704 38.873 14.5908ZM26.7457 19.1962C26.1021 17.9453 25.6278 16.3463 25.3281 14.5907H21.4385C22.5801 16.704 24.4673 18.3578 26.7457 19.1962ZM32.1296 2.53395C31.417 0.663633 30.6211 0 30.1557 0C29.6905 0 28.8944 0.663633 28.1819 2.53395C27.827 3.46559 27.5492 4.5498 27.3548 5.73211H32.9566C32.7622 4.5498 32.4845 3.46559 32.1296 2.53395ZM30.1557 19.8018C30.621 19.8018 31.417 19.1381 32.1296 17.2678C32.4316 16.4749 32.6775 15.5709 32.8642 14.5908H27.4473C27.634 15.5709 27.8798 16.4749 28.1819 17.2678C28.8944 19.138 29.6905 19.8018 30.1557 19.8018ZM35.3667 9.90082C35.3667 10.7742 35.3279 11.649 35.2514 12.5063H39.7062C39.9386 11.6573 40.0565 10.781 40.0566 9.90082C40.0566 9.18574 39.9785 8.48883 39.8339 7.81641H35.293C35.3419 8.50582 35.3667 9.20379 35.3667 9.90082ZM33.1596 12.5064C33.242 11.6403 33.283 10.7709 33.2824 9.90094C33.2824 9.19172 33.2559 8.49445 33.2046 7.81652H27.1071C27.055 8.5101 27.029 9.2054 27.0293 9.90094C27.0293 10.7933 27.0714 11.6668 27.1521 12.5064H33.1596Z" fill="#F37329"/>
</g>
<defs>
<clipPath id="clip0_509_7481">
<rect width="60" height="60" fill="white"/>
</clipPath>
</defs>
</svg>
