<svg width="60" height="60" viewBox="0 0 60 60" fill="none" xmlns="http://www.w3.org/2000/svg">
<g clip-path="url(#clip0_509_7476)">
<path d="M16.2559 16.0547H15.5036L14.0977 23.0859H17.6618L16.2559 16.0547ZM44.6931 30.1172C45.4521 32.1561 46.4617 33.8066 47.5789 35.211C48.6962 33.8066 49.823 32.156 50.582 30.1172H44.6931Z" fill="#F37329"/>
<path d="M54.727 10.6641H32.897L37.4487 47.1889C37.5293 48.6828 37.1209 50.0893 36.1459 51.1904L28.4375 60H54.727C57.6349 60 60.0004 57.6345 60.0004 54.7266V16.0547C60.0004 13.1468 57.6349 10.6641 54.727 10.6641ZM54.727 30.1172H54.2575C53.2573 33.3261 51.6712 35.8371 50.0229 37.8166C51.3141 38.9972 52.695 39.9656 54.0678 41.0503C54.8248 41.6563 54.9485 42.7617 54.3407 43.5205C53.7358 44.2781 52.6261 44.4009 51.8705 43.7934C50.3789 42.6161 48.9787 41.6305 47.5786 40.3457C46.1784 41.6305 44.8954 42.6161 43.4038 43.7934C42.6482 44.4009 41.5385 44.2781 40.9336 43.5205C40.3258 42.7617 40.4495 41.6563 41.2065 41.0503C42.5793 39.9656 43.843 38.9972 45.1343 37.8166C43.4859 35.8372 42.0168 33.3263 41.0168 30.1172H40.5473C39.5757 30.1172 38.7895 29.331 38.7895 28.3594C38.7895 27.3878 39.5757 26.6016 40.5473 26.6016H45.8207V24.8438C45.8207 23.8721 46.607 23.0859 47.5786 23.0859C48.5502 23.0859 49.3364 23.8721 49.3364 24.8438V26.6016H54.727C55.6986 26.6016 56.4848 27.3878 56.4848 28.3594C56.4848 29.331 55.6986 30.1172 54.727 30.1172Z" fill="#F37329"/>
<path d="M28.613 4.61941C28.2851 1.98609 26.0346 0 23.3808 0H5.27344C2.36555 0 0 2.36555 0 5.27344V44.1797C0 47.0876 2.36555 49.4531 5.27344 49.4531H32.9943C33.5071 48.867 33.9369 48.4999 33.9551 47.7348C33.9595 47.543 28.6368 4.80973 28.613 4.61941ZM21.5559 33.5985C20.6238 33.7903 19.6796 33.1852 19.4875 32.22L18.364 26.6016H13.3939L12.2705 32.22C12.0817 33.171 11.1649 33.7958 10.202 33.5985C9.25102 33.4079 8.63297 32.4827 8.82352 31.53L12.339 13.9519C12.5038 13.1313 13.2248 12.5391 14.0625 12.5391H17.6953C18.533 12.5391 19.254 13.1313 19.4188 13.9519L22.9344 31.53C23.125 32.4827 22.507 33.4079 21.5559 33.5985ZM20.5384 52.9688L20.84 55.3806C21.0411 56.9958 22.1143 58.6429 23.8796 59.4653L29.7811 52.9688H20.5384Z" fill="#F37329"/>
</g>
<defs>
<clipPath id="clip0_509_7476">
<rect width="60" height="60" fill="white"/>
</clipPath>
</defs>
</svg>
