<svg width="60" height="60" viewBox="0 0 60 60" fill="none" xmlns="http://www.w3.org/2000/svg">
<path fill-rule="evenodd" clip-rule="evenodd" d="M46.3314 51.0946V48.2257C46.3314 47.9237 46.0833 47.6755 45.7812 47.6755H30.9584C30.9285 47.6756 30.8998 47.6874 30.8786 47.7086C30.8575 47.7297 30.8456 47.7584 30.8456 47.7883V51.0946C30.8456 51.1446 30.8768 51.1871 30.9246 51.2021C33.0923 51.8839 33.8081 54.6571 32.1683 56.2968C30.2403 58.2248 26.9315 56.8513 26.9315 54.1277C26.9315 52.7707 27.8183 51.5986 29.074 51.2021C29.097 51.1951 29.1171 51.1808 29.1313 51.1614C29.1455 51.142 29.1531 51.1186 29.1528 51.0946V47.7883C29.1528 47.7584 29.1409 47.7297 29.1198 47.7086C29.0986 47.6874 29.0699 47.6756 29.04 47.6755H14.217C13.915 47.6755 13.6668 47.9238 13.6668 48.2257V51.0946C13.6668 51.1446 13.698 51.1871 13.7459 51.2021C15.9136 51.8839 16.6293 54.6571 14.9896 56.2968C13.0614 58.2251 9.75268 56.8512 9.75268 54.1277C9.75268 52.7707 10.6395 51.5987 11.8952 51.2021C11.9181 51.1951 11.9382 51.1808 11.9524 51.1614C11.9667 51.142 11.9742 51.1186 11.974 51.0946V48.2257C11.974 46.9892 12.9806 45.9827 14.2169 45.9827H29.0398C29.102 45.9827 29.1526 45.932 29.1526 45.8699V43.1218C29.1525 43.0919 29.1406 43.0632 29.1195 43.0421C29.0984 43.021 29.0698 43.0091 29.0399 43.009L28.4654 43.0086L28.4652 43.0091H21.9017C21.3162 43.0091 20.8368 42.5296 20.8368 41.9442V33.0202C20.836 31.99 21.0675 30.9729 21.5141 30.0445C21.5246 30.0222 21.5422 30.004 21.5642 29.9927C21.5861 29.9814 21.6112 29.9778 21.6354 29.9822C22.4145 30.1194 23.0862 30.3715 23.5737 30.7705C24.0473 31.1582 24.3528 31.7122 24.4113 32.4724C24.4115 32.4752 24.4116 32.4781 24.4116 32.481V38.2721C24.4116 38.7582 24.7994 39.137 25.3299 39.1152L25.3346 39.1151H29.8233C31.3599 39.1151 32.5414 39.5806 32.4158 41.2523C32.4144 41.2678 32.4163 41.2834 32.4214 41.2981C32.4266 41.3128 32.4348 41.3262 32.4455 41.3375C32.4559 41.349 32.4687 41.3583 32.483 41.3645C32.4972 41.3707 32.5126 41.3738 32.5282 41.3736H37.4592C37.4828 41.3738 37.5059 41.3666 37.5251 41.3529C37.5443 41.3391 37.5586 41.3197 37.566 41.2973L41.0013 31.2611C41.0074 31.2441 41.0092 31.226 41.0066 31.2081C41.0039 31.1903 40.997 31.1734 40.9863 31.159C40.976 31.1442 40.9623 31.1321 40.9463 31.1239C40.9303 31.1157 40.9125 31.1115 40.8945 31.1118H33.2558C33.2321 31.1116 33.209 31.1189 33.1897 31.1327C33.1705 31.1465 33.1562 31.1661 33.1488 31.1886L31.0738 37.3522C31.0665 37.3747 31.0522 37.3943 31.0329 37.4081C31.0137 37.4219 30.9906 37.4292 30.9669 37.429H26.2172C26.1873 37.4289 26.1586 37.417 26.1374 37.3959C26.1163 37.3747 26.1044 37.3461 26.1044 37.3162V32.4744H26.1024C26.1024 32.458 26.1021 32.4414 26.101 32.4248C25.9716 30.2876 24.6155 29.0464 22.7403 28.507C22.7015 28.4958 22.6736 28.4676 22.6628 28.4287C22.652 28.3898 22.6613 28.3513 22.6887 28.3218C23.9609 26.9509 25.7697 26.1004 27.7563 26.1004H32.416C34.8641 26.1004 37.0762 27.3886 38.3214 29.4224C38.3313 29.4391 38.3454 29.4529 38.3623 29.4623C38.3792 29.4718 38.3983 29.4766 38.4177 29.4763C39.813 29.4763 41.1549 29.4764 42.223 29.4768C42.7917 29.4769 43.2086 30.0161 43.0264 30.5496L38.966 42.4123L38.9645 42.4168C38.8632 42.7586 38.5372 43.009 38.1508 43.009H30.9584C30.9285 43.009 30.8998 43.0209 30.8786 43.042C30.8575 43.0632 30.8456 43.0919 30.8456 43.1218V45.8698C30.8456 45.9319 30.8962 45.9826 30.9584 45.9826H45.7812C47.0177 45.9826 48.0242 46.9891 48.0242 48.2256V51.0944C48.0242 51.1445 48.0554 51.187 48.1032 51.202C50.271 51.8839 50.9867 54.657 49.3469 56.2967C47.4188 58.2248 44.11 56.8512 44.11 54.1276C44.11 52.7706 44.9967 51.5986 46.2525 51.202C46.2755 51.195 46.2956 51.1808 46.3099 51.1614C46.3241 51.1421 46.3317 51.1186 46.3314 51.0946ZM27.3069 17.6972C25.7718 19.2323 25.7718 21.7213 27.3069 23.2564C28.8419 24.7914 31.331 24.7913 32.866 23.2564C34.401 21.7213 34.401 19.2324 32.866 17.6974C31.331 16.1623 28.8418 16.1623 27.3069 17.6972ZM12.3836 11.5432L14.358 15.4186C14.4049 15.5106 14.4281 15.6129 14.4254 15.7162C14.4226 15.8195 14.3941 15.9205 14.3424 16.0099C14.3408 16.0129 14.3392 16.0159 14.3378 16.0189L13.5675 17.6864L13.5657 17.6905C13.3176 18.2888 13.1241 18.8609 12.9131 19.4636C12.8818 19.5538 12.83 19.6354 12.7618 19.7022C12.6936 19.769 12.6109 19.8191 12.5201 19.8485L12.5204 19.8492L8.3866 21.1924C8.36381 21.1995 8.34393 21.2138 8.32988 21.2331C8.31584 21.2524 8.30838 21.2758 8.3086 21.2996V27.6857C8.3086 27.7354 8.33932 27.7776 8.3866 27.793L12.5207 29.1362C12.6159 29.1671 12.7022 29.2206 12.7721 29.2922C12.8421 29.3637 12.8937 29.4512 12.9225 29.547L12.9232 29.5493C13.3668 30.9137 13.7532 31.7472 14.3628 33.0188C14.4038 33.1044 14.4246 33.1982 14.4234 33.2931C14.4222 33.388 14.3992 33.4813 14.3561 33.5658L14.358 33.5668L12.3836 37.442C12.3725 37.4632 12.3686 37.4874 12.3723 37.511C12.376 37.5346 12.3873 37.5564 12.4043 37.5731L16.9187 42.0875C16.9354 42.1045 16.9572 42.1158 16.9808 42.1195C17.0044 42.1232 17.0286 42.1193 17.0498 42.1082L19.09 41.0687C19.11 41.0588 19.1265 41.0432 19.1374 41.0238C19.1484 41.0044 19.1532 40.9821 19.1513 40.96C19.1465 40.8937 19.1441 40.8268 19.1441 40.7593V33.1951C19.1445 33.1696 19.1358 33.1447 19.1196 33.1249C18.217 31.9881 17.4983 30.7167 16.9896 29.357C15.066 24.2158 16.3629 18.4883 20.1789 14.6723C25.6025 9.24864 34.3958 9.24864 39.8194 14.6723C43.1614 18.0143 44.6322 22.8865 43.526 27.6461C43.4951 27.7789 43.4622 27.9492 43.4277 28.1408C43.4192 28.188 43.4397 28.2331 43.4807 28.2577C44.4414 28.8325 44.912 30.0157 44.5457 31.123L41.2042 41.2276C41.1923 41.2634 41.1981 41.2997 41.2206 41.3302C41.2432 41.3606 41.2761 41.3767 41.3139 41.3758L41.4738 41.372C41.4926 41.3714 41.5111 41.3756 41.5277 41.3843L42.9482 42.108C42.9693 42.1191 42.9935 42.123 43.0171 42.1193C43.0407 42.1155 43.0625 42.1043 43.0792 42.0872L47.5937 37.5727C47.6108 37.556 47.622 37.5342 47.6257 37.5106C47.6295 37.487 47.6255 37.4629 47.6145 37.4417L45.6401 33.5666C45.5932 33.4746 45.5701 33.3723 45.5728 33.269C45.5755 33.1657 45.604 33.0647 45.6557 32.9753C45.6575 32.9722 45.6588 32.9695 45.6604 32.9663L46.4309 31.2988L46.4327 31.2947C46.6808 30.6965 46.8743 30.124 47.0853 29.5212C47.1166 29.4311 47.1684 29.3494 47.2366 29.2826C47.3048 29.2159 47.3875 29.1658 47.4783 29.1364L47.478 29.1356L51.6116 27.7926C51.6343 27.7854 51.6542 27.7712 51.6683 27.7518C51.6823 27.7325 51.6898 27.7092 51.6896 27.6853V21.2993C51.6898 21.2754 51.6823 21.2521 51.6683 21.2328C51.6542 21.2134 51.6343 21.1992 51.6116 21.192L47.4776 19.8488C47.3824 19.818 47.2961 19.7645 47.2261 19.693C47.1562 19.6215 47.1046 19.534 47.0758 19.4382L47.0751 19.4359C46.6318 18.073 46.2441 17.2367 45.6351 15.9662C45.5941 15.8807 45.5733 15.7868 45.5745 15.692C45.5757 15.5971 45.5987 15.5038 45.6418 15.4193L45.6399 15.4183L47.6144 11.543C47.6254 11.5219 47.6294 11.4977 47.6256 11.4741C47.6219 11.4505 47.6107 11.4287 47.5936 11.412L43.0792 6.89772C43.0625 6.88066 43.0407 6.86944 43.0171 6.8657C42.9935 6.86196 42.9693 6.86591 42.9482 6.87696L39.0731 8.85132C38.9811 8.89823 38.8787 8.92137 38.7755 8.91864C38.6722 8.91592 38.5712 8.88742 38.4818 8.83572C38.4788 8.83404 38.4758 8.83248 38.4728 8.83104L36.8046 8.06028L36.8006 8.05848C36.2025 7.81056 35.6303 7.617 35.0278 7.40616C34.9377 7.37483 34.856 7.32304 34.7892 7.25486C34.7225 7.18667 34.6724 7.10394 34.643 7.01316L34.6422 7.0134L33.2991 2.87976C33.2919 2.85698 33.2776 2.83709 33.2583 2.82305C33.239 2.809 33.2157 2.80154 33.1918 2.80176H26.8058C26.7819 2.80154 26.7586 2.809 26.7392 2.82305C26.7199 2.83709 26.7056 2.85698 26.6985 2.87976L25.3554 7.01316C25.3246 7.10834 25.2711 7.19462 25.1996 7.26459C25.1281 7.33457 25.0406 7.38615 24.9448 7.41492L24.9425 7.41564C23.5757 7.86036 22.7462 8.24532 21.4725 8.85612C21.3869 8.89713 21.2931 8.91786 21.1982 8.9167C21.1033 8.91553 21.01 8.8925 20.9255 8.8494L20.9246 8.85132L17.0496 6.87696C17.0285 6.86591 17.0043 6.86196 16.9807 6.8657C16.9571 6.86944 16.9353 6.88066 16.9186 6.89772L12.4041 11.412C12.3871 11.4288 12.3759 11.4506 12.3723 11.4742C12.3686 11.4978 12.3725 11.522 12.3836 11.5432Z" fill="black"/>
</svg>
