<svg width="60" height="60" viewBox="0 0 60 60" fill="none" xmlns="http://www.w3.org/2000/svg">
<path d="M43.75 6.25V8.75H16.25V6.25C16.252 5.58757 16.516 4.95283 16.9844 4.48442C17.4528 4.01601 18.0876 3.75198 18.75 3.75H41.25C41.9124 3.75198 42.5472 4.01601 43.0156 4.48442C43.484 4.95283 43.748 5.58757 43.75 6.25ZM10.225 56.25H6.25C5.58757 56.248 4.95283 55.984 4.48442 55.5156C4.01601 55.0472 3.75198 54.4124 3.75 53.75V28.1375C3.74957 27.7405 3.84476 27.3492 4.02753 26.9967C4.21029 26.6442 4.47525 26.3409 4.8 26.1125L10 22.4V55C9.99734 55.427 10.0736 55.8508 10.225 56.25ZM56.25 28.1375V53.75C56.248 54.4124 55.984 55.0472 55.5156 55.5156C55.0472 55.984 54.4124 56.248 53.75 56.25H49.775C49.9264 55.8508 50.0027 55.427 50 55V22.4L55.2 26.1125C55.5248 26.3409 55.7897 26.6442 55.9725 26.9967C56.1552 27.3492 56.2504 27.7405 56.25 28.1375ZM22.5 28.75H25V31.25H22.5V28.75ZM22.5 42.5H28.75V56.25H22.5V42.5ZM31.25 42.5H37.5V56.25H31.25V42.5ZM35 28.75H37.5V31.25H35V28.75ZM22.5 17.5H25V20H22.5V17.5ZM35 17.5H37.5V20H35V17.5Z" fill="black"/>
<path d="M16.25 6.25V8.75H43.75V6.25H16.25ZM45 8.75H15C14.337 8.75 13.7011 9.01339 13.2322 9.48223C12.7634 9.95107 12.5 10.587 12.5 11.25V55C12.5 55.3315 12.6317 55.6495 12.8661 55.8839C13.1005 56.1183 13.4185 56.25 13.75 56.25H20V42.5C20 41.837 20.2634 41.2011 20.7322 40.7322C21.2011 40.2634 21.837 40 22.5 40H37.5C38.163 40 38.7989 40.2634 39.2678 40.7322C39.7366 41.2011 40 41.837 40 42.5V56.25H46.25C46.5815 56.25 46.8995 56.1183 47.1339 55.8839C47.3683 55.6495 47.5 55.3315 47.5 55V11.25C47.5 10.587 47.2366 9.95107 46.7678 9.48223C46.2989 9.01339 45.663 8.75 45 8.75ZM27.5 32.5C27.5 32.8315 27.3683 33.1495 27.1339 33.3839C26.8995 33.6183 26.5815 33.75 26.25 33.75H21.25C20.9185 33.75 20.6005 33.6183 20.3661 33.3839C20.1317 33.1495 20 32.8315 20 32.5V27.5C20 27.1685 20.1317 26.8505 20.3661 26.6161C20.6005 26.3817 20.9185 26.25 21.25 26.25H26.25C26.5815 26.25 26.8995 26.3817 27.1339 26.6161C27.3683 26.8505 27.5 27.1685 27.5 27.5V32.5ZM27.5 21.25C27.5 21.5815 27.3683 21.8995 27.1339 22.1339C26.8995 22.3683 26.5815 22.5 26.25 22.5H21.25C20.9185 22.5 20.6005 22.3683 20.3661 22.1339C20.1317 21.8995 20 21.5815 20 21.25V16.25C20 15.9185 20.1317 15.6005 20.3661 15.3661C20.6005 15.1317 20.9185 15 21.25 15H26.25C26.5815 15 26.8995 15.1317 27.1339 15.3661C27.3683 15.6005 27.5 15.9185 27.5 16.25V21.25ZM40 32.5C40 32.8315 39.8683 33.1495 39.6339 33.3839C39.3995 33.6183 39.0815 33.75 38.75 33.75H33.75C33.4185 33.75 33.1005 33.6183 32.8661 33.3839C32.6317 33.1495 32.5 32.8315 32.5 32.5V27.5C32.5 27.1685 32.6317 26.8505 32.8661 26.6161C33.1005 26.3817 33.4185 26.25 33.75 26.25H38.75C39.0815 26.25 39.3995 26.3817 39.6339 26.6161C39.8683 26.8505 40 27.1685 40 27.5V32.5ZM40 21.25C40 21.5815 39.8683 21.8995 39.6339 22.1339C39.3995 22.3683 39.0815 22.5 38.75 22.5H33.75C33.4185 22.5 33.1005 22.3683 32.8661 22.1339C32.6317 21.8995 32.5 21.5815 32.5 21.25V16.25C32.5 15.9185 32.6317 15.6005 32.8661 15.3661C33.1005 15.1317 33.4185 15 33.75 15H38.75C39.0815 15 39.3995 15.1317 39.6339 15.3661C39.8683 15.6005 40 15.9185 40 16.25V21.25Z" fill="black"/>
</svg>
