<svg width="60" height="60" viewBox="0 0 60 60" fill="none" xmlns="http://www.w3.org/2000/svg">
<g clip-path="url(#clip0_1993_15114)">
<path d="M59.1649 32.4C58.71 31.6954 58.0852 31.1166 57.348 30.7169C56.6107 30.3171 55.7848 30.1093 54.9461 30.1125C53.9805 30.1125 53.0336 30.3937 52.218 30.9187C51.2067 31.5782 50.4665 32.5794 50.1326 33.7396C49.7986 34.8998 49.8933 36.1414 50.3993 37.2375L44.6149 41.1656C43.4006 39.4448 41.7549 38.0739 39.843 37.1906L44.6711 23.4656C45.6836 23.7563 46.7524 23.9062 47.8493 23.9062C50.5118 23.9062 52.9868 23.0344 54.9743 21.5437C55.0211 21.5062 55.0586 21.4781 55.0961 21.4406C57.9461 19.2563 59.793 15.825 59.793 11.9437C59.793 5.3625 54.4305 0 47.8493 0C42.8899 0 38.6243 3.02813 36.8149 7.34062L33.5805 5.99062C33.7774 4.92187 33.618 3.825 33.1024 2.84062C32.8065 2.2558 32.3972 1.73574 31.8982 1.3108C31.3992 0.885867 30.8206 0.564558 30.1961 0.365625C29.6993 0.196875 29.1743 0.121875 28.6586 0.121875C27.8805 0.121875 27.093 0.309375 26.3805 0.665625C25.1899 1.275 24.318 2.30625 23.9055 3.58125C23.493 4.85625 23.6055 6.19688 24.2149 7.3875C24.8243 8.57813 25.8555 9.45937 27.1305 9.87187C27.6274 10.0312 28.143 10.1156 28.6586 10.1156C29.4461 10.1156 30.2243 9.91875 30.9368 9.5625C31.8713 9.08267 32.6319 8.32203 33.1118 7.3875L36.3368 8.72813C36.0368 9.75 35.8868 10.8281 35.8868 11.9437C35.8868 13.35 36.1305 14.6906 36.5711 15.9375L25.4524 20.7844C23.4836 16.8937 19.443 14.2219 14.793 14.2219C13.2649 14.2219 11.7836 14.5125 10.4336 15.0469L7.69614 9.43125C8.60552 8.8875 9.30864 8.05313 9.72114 7.04063C9.97494 6.42814 10.1048 5.77142 10.1032 5.10844C10.1016 4.44545 9.96853 3.78937 9.71177 3.17813C9.33332 2.25699 8.6887 1.46968 7.86036 0.916892C7.03202 0.364108 6.05761 0.0709798 5.06177 0.075C4.39614 0.075 3.73989 0.20625 3.12114 0.46875C0.543019 1.52812 -0.675731 4.5 0.402394 7.06875C0.653785 7.68301 1.02547 8.2408 1.49559 8.70931C1.96571 9.17782 2.52477 9.54759 3.13989 9.79687C4.15549 10.2209 5.28292 10.2968 6.34614 10.0125L9.10239 15.6563C5.38052 17.6906 2.83989 21.6375 2.83989 26.1562C2.83989 30.0187 4.68677 33.4687 7.54614 35.6531C7.58364 35.6906 7.63052 35.7281 7.67739 35.7562C9.66489 37.2375 12.1305 38.1094 14.793 38.1094C17.4461 38.1094 19.9118 37.2375 21.8993 35.7562C21.9551 35.7273 22.0058 35.6892 22.0493 35.6438C22.2086 35.5219 22.3586 35.4 22.4993 35.2687L26.2024 39.8156C24.0895 42.0352 22.9113 44.9824 22.9118 48.0469C22.9118 48.8063 22.9868 49.5469 23.1274 50.2781L18.5993 51.2719C18.1885 50.1418 17.3874 49.1958 16.3405 48.6045C15.2936 48.0131 14.0698 47.8153 12.8899 48.0469C11.5774 48.3094 10.443 49.0688 9.69302 50.1938C9.32646 50.7401 9.0715 51.3534 8.94279 51.9986C8.81408 52.6437 8.81416 53.308 8.94302 53.9531C9.42114 56.3062 11.4836 58.0031 13.8743 58.0031C14.2118 58.0031 14.5305 57.9656 14.8586 57.9C16.1711 57.6375 17.3149 56.8781 18.0555 55.7625C18.6649 54.8531 18.9555 53.7844 18.8899 52.7063L23.493 51.7031C24.243 54.0469 25.7055 56.0719 27.6086 57.525L27.618 57.5344C27.6743 57.5719 27.7305 57.6188 27.7868 57.6562C29.7743 59.1281 32.2211 59.9906 34.8649 59.9906C37.518 59.9906 39.9836 59.1187 41.9711 57.6375C42.027 57.6085 42.0777 57.5705 42.1211 57.525C44.9711 55.3406 46.8086 51.9094 46.8086 48.0375C46.8086 46.0031 46.3024 44.0812 45.393 42.4031L51.2055 38.4563C51.676 38.9888 52.2547 39.4148 52.903 39.7058C53.5513 39.9968 54.2543 40.1461 54.9649 40.1437C55.9305 40.1437 56.8774 39.8531 57.693 39.3281C58.818 38.6063 59.5868 37.4719 59.868 36.1594C60.1586 34.8562 59.9055 33.5156 59.1649 32.4ZM38.1555 50.7469C39.0836 49.875 39.6555 48.6375 39.6555 47.2687C39.6555 44.6344 37.4993 42.4781 34.8649 42.4781C33.5951 42.4806 32.378 42.9861 31.4801 43.884C30.5823 44.7819 30.0767 45.999 30.0743 47.2687C30.0743 48.6375 30.6461 49.8656 31.5743 50.7469C29.2586 51.525 27.9086 53.1281 27.5243 55.5C26.1923 54.1986 25.234 52.5636 24.7493 50.7656C24.7493 50.7375 24.7399 50.7094 24.7399 50.6906C24.7331 50.6485 24.7204 50.6075 24.7024 50.5687C24.693 50.5594 24.693 50.55 24.693 50.5406C24.4961 49.7437 24.393 48.9094 24.393 48.0469C24.393 42.2719 29.0899 37.5656 34.8743 37.5656C36.2149 37.5656 37.4993 37.8188 38.6805 38.2781L38.6899 38.2875H38.6993C40.8368 39.1313 42.6274 40.6594 43.818 42.5906C44.8204 44.2338 45.3493 46.1221 45.3461 48.0469C45.3461 50.9625 44.1461 53.5969 42.2149 55.5094C41.8399 53.1281 40.4711 51.525 38.1555 50.7469ZM10.4055 16.65C11.7461 16.0313 13.2274 15.6844 14.8024 15.6844C19.1149 15.6844 22.818 18.3 24.4305 22.0219V22.0406C24.4305 22.05 24.4399 22.05 24.4399 22.0594C24.9836 23.325 25.2836 24.7125 25.2836 26.1656C25.2836 29.0812 24.0836 31.7156 22.1524 33.6281C21.7774 31.2469 20.418 29.6531 18.093 28.8656C19.0211 28.0031 19.593 26.7656 19.593 25.3969C19.593 22.7531 17.4368 20.6062 14.8024 20.6062C12.1586 20.6062 10.0118 22.7531 10.0118 25.3969C10.0118 26.7656 10.5836 27.9937 11.5118 28.875C9.19614 29.6531 7.84614 31.2469 7.46177 33.6188C6.4687 32.6484 5.68001 31.489 5.14223 30.2089C4.60444 28.9289 4.32844 27.5541 4.33052 26.1656C4.32114 21.9563 6.82427 18.3188 10.4055 16.65ZM47.8493 1.47188C53.6149 1.47188 58.3211 6.16875 58.3211 11.9531C58.3211 14.8594 57.1211 17.5031 55.1993 19.4063C54.8149 17.025 53.4555 15.4406 51.1399 14.6625C52.068 13.7906 52.6399 12.5531 52.6399 11.1844C52.6399 8.54063 50.4836 6.39375 47.8493 6.39375C45.2055 6.39375 43.0586 8.54063 43.0586 11.1844C43.0586 12.5531 43.6305 13.7813 44.5586 14.6625C42.243 15.4406 40.893 17.0344 40.5086 19.4063C39.5243 18.4484 38.7403 17.3044 38.2024 16.0406V16.0313C37.209 13.6728 37.109 11.0331 37.9211 8.60625C37.9399 8.55938 37.9493 8.5125 37.968 8.46562C39.4024 4.39687 43.293 1.47188 47.8493 1.47188ZM23.5774 34.2563C25.5461 32.1281 26.7461 29.2875 26.7461 26.1656C26.7461 24.75 26.5024 23.4 26.0524 22.1438V22.1344L37.1618 17.2875C37.9774 18.9188 39.168 20.3438 40.6118 21.4313C40.6399 21.4688 40.6868 21.4969 40.7243 21.5344C41.5118 22.1156 42.3649 22.6125 43.2836 22.9875L38.4649 36.6562C36.5697 36.0591 34.5556 35.9435 32.6045 36.32C30.6534 36.6965 28.8269 37.5531 27.2899 38.8125L23.5774 34.2563Z" fill="black"/>
</g>
<defs>
<clipPath id="clip0_1993_15114">
<rect width="60" height="60" fill="white"/>
</clipPath>
</defs>
</svg>
