<svg width="60" height="60" viewBox="0 0 60 60" fill="none" xmlns="http://www.w3.org/2000/svg">
<path fill-rule="evenodd" clip-rule="evenodd" d="M11.6003 13.8075C18.2804 7.12689 29.15 7.12689 35.8302 13.8075C36.1198 14.0978 36.3988 14.3985 36.6666 14.709C36.6656 14.7081 35.906 15.4686 35.8359 15.5386C35.5696 15.227 35.2913 14.9259 35.0016 14.636C28.7784 8.41302 18.652 8.41302 12.4289 14.636C9.41427 17.6513 7.75372 21.659 7.75372 25.9225C7.75372 30.1854 9.41427 34.1949 12.4289 37.2089C12.7189 37.4984 13.02 37.7766 13.3315 38.0429L12.5011 38.8737C12.1909 38.6055 11.8904 38.3264 11.6 38.0368C8.36415 34.8019 6.58196 30.4989 6.58196 25.9226C6.58196 21.3463 8.36415 17.0433 11.6003 13.8075ZM26.4832 39.4424V37.8967C26.4834 37.7358 26.5473 37.5816 26.661 37.4678C26.7747 37.3541 26.9289 37.29 27.0898 37.2898H31.131C31.2918 37.29 31.446 37.3541 31.5597 37.4678C31.6733 37.5816 31.7372 37.7359 31.7373 37.8967V39.4424H32.9093V37.8967C32.9093 36.9161 32.1115 36.1178 31.131 36.1178H27.0898C26.1092 36.1178 25.3113 36.9162 25.3113 37.8967V39.4424H26.4832ZM38.1278 13.2469C37.8577 12.9389 37.5777 12.6396 37.2884 12.3496C29.8041 4.86517 17.6262 4.86517 10.142 12.3496C2.65794 19.8335 2.65794 32.0117 10.142 39.4949C10.4322 39.7845 10.7314 40.0648 11.0394 40.3354L10.2096 41.1652L4.10134 47.2742C4.04692 47.3285 4.00375 47.3931 3.9743 47.4642C3.94485 47.5353 3.92969 47.6115 3.92969 47.6884C3.92969 47.7654 3.94485 47.8415 3.9743 47.9126C4.00375 47.9837 4.04692 48.0483 4.10134 48.1027C4.21167 48.2117 4.36054 48.2728 4.51566 48.2728C4.67077 48.2728 4.81964 48.2117 4.92997 48.1027L45.8951 7.13744C45.9495 7.08305 45.9927 7.01847 46.0221 6.94739C46.0516 6.87631 46.0667 6.80012 46.0667 6.72318C46.0667 6.64624 46.0516 6.57005 46.0221 6.49897C45.9927 6.42789 45.9495 6.36331 45.8951 6.30892C45.7851 6.19927 45.6361 6.1377 45.4808 6.1377C45.3254 6.1377 45.1765 6.19927 45.0665 6.30892C42.7535 8.62152 40.4406 10.9342 38.1278 13.2469ZM37.5544 31.1244C37.5544 27.7657 40.2868 25.0343 43.6453 25.0343C47.0038 25.0343 49.736 27.7658 49.736 31.1244C49.736 34.4831 47.0038 37.2157 43.6453 37.2157C40.2868 37.2156 37.5544 34.483 37.5544 31.1244ZM39.8841 42.7709C39.8841 41.4408 39.0989 40.2895 37.9678 39.7579C39.7156 38.859 41.6518 38.3877 43.6453 38.3877C50.3068 38.3877 55.762 43.6515 56.069 50.2388H39.8841V42.7709ZM36.5554 47.6665C37.3462 47.6674 38.1113 47.3851 38.7122 46.8709V51.705C38.7122 52.8946 37.7446 53.8615 36.5554 53.8615H21.6655C20.4762 53.8615 19.5087 52.8947 19.5087 51.705V46.8709C20.1096 47.3851 20.8746 47.6673 21.6655 47.6665H36.5554ZM36.5554 40.6144C37.7447 40.6144 38.7122 41.5812 38.7122 42.7709V44.3385C38.7122 45.527 37.7446 46.495 36.5554 46.495H21.6655C20.4762 46.495 19.5087 45.527 19.5087 44.3385V42.7709C19.5087 41.5813 20.4762 40.6144 21.6655 40.6144H36.5554ZM12.9948 19.7304C13.0725 19.5958 13.0935 19.4358 13.0533 19.2857C13.013 19.1356 12.9148 19.0076 12.7802 18.9299L11.5217 18.2035C11.455 18.165 11.3814 18.14 11.3052 18.1299C11.2289 18.1199 11.1513 18.1249 11.077 18.1449C11.0027 18.1648 10.933 18.1992 10.8719 18.246C10.8109 18.2929 10.7597 18.3514 10.7213 18.418C10.6828 18.4846 10.6578 18.5582 10.6478 18.6344C10.6377 18.7107 10.6428 18.7882 10.6628 18.8625C10.6827 18.9368 10.7171 19.0064 10.7639 19.0675C10.8108 19.1285 10.8692 19.1796 10.9358 19.2181L12.1942 19.9451C12.283 19.9968 12.384 20.0238 12.4868 20.0235C12.5898 20.0237 12.691 19.9967 12.7802 19.9453C12.8694 19.8938 12.9435 19.8197 12.9948 19.7304ZM23.1235 25.3306H15.1159C14.9605 25.3306 14.8114 25.3923 14.7015 25.5022C14.5916 25.6121 14.5299 25.7612 14.5299 25.9166C14.5299 26.072 14.5916 26.2211 14.7015 26.331C14.8114 26.4409 14.9605 26.5027 15.1159 26.5027H23.7095C23.7864 26.5027 23.8626 26.4875 23.9337 26.458C24.0048 26.4286 24.0694 26.3854 24.1238 26.331C24.1782 26.2766 24.2213 26.2119 24.2508 26.1409C24.2802 26.0698 24.2953 25.9936 24.2953 25.9166V15.8752C24.2964 15.7975 24.2821 15.7205 24.2531 15.6484C24.2242 15.5764 24.1812 15.5108 24.1267 15.4555C24.0722 15.4002 24.0072 15.3563 23.9356 15.3263C23.864 15.2964 23.7871 15.2809 23.7094 15.2809C23.6318 15.2809 23.5549 15.2964 23.4833 15.3263C23.4117 15.3563 23.3467 15.4002 23.2922 15.4555C23.2377 15.5108 23.1947 15.5764 23.1658 15.6484C23.1368 15.7205 23.1225 15.7975 23.1236 15.8752L23.1235 25.3306ZM30.6959 14.9878L31.4225 13.7291C31.5002 13.5945 31.5213 13.4345 31.4811 13.2844C31.4408 13.1343 31.3427 13.0063 31.2081 12.9285C31.0735 12.8509 30.9136 12.8299 30.7635 12.8701C30.6135 12.9103 30.4855 13.0085 30.4078 13.1431L29.681 14.4018C29.6297 14.4908 29.6028 14.5918 29.6028 14.6946C29.6029 14.7974 29.6299 14.8983 29.6812 14.9874C29.7326 15.0764 29.8064 15.1504 29.8954 15.2019C29.9843 15.2534 30.0852 15.2807 30.188 15.2809C30.2909 15.281 30.3921 15.2539 30.4812 15.2025C30.5704 15.151 30.6444 15.077 30.6959 14.9878ZM17.5232 15.2024C17.6578 15.1246 17.756 14.9966 17.7962 14.8465C17.8364 14.6964 17.8154 14.5364 17.7377 14.4018L17.0112 13.1431C16.9335 13.0085 16.8055 12.9103 16.6554 12.8701C16.5053 12.8299 16.3454 12.8509 16.2108 12.9285C16.0762 13.0063 15.978 13.1343 15.9378 13.2844C15.8976 13.4345 15.9186 13.5945 15.9962 13.7291L16.7228 14.9878C16.7743 15.077 16.8484 15.151 16.9375 15.2024C17.0267 15.2539 17.1278 15.2809 17.2308 15.2809C17.3302 15.2809 17.4309 15.255 17.5232 15.2024ZM12.9946 32.1033C12.9169 31.9687 12.789 31.8704 12.6389 31.8301C12.4888 31.7898 12.3289 31.8107 12.1942 31.8883L10.9358 32.6153C10.8692 32.6537 10.8108 32.7049 10.7639 32.7659C10.7171 32.8269 10.6827 32.8965 10.6628 32.9708C10.6428 33.0451 10.6377 33.1226 10.6478 33.1989C10.6578 33.2752 10.6828 33.3487 10.7213 33.4153C10.7726 33.5046 10.8466 33.5787 10.9358 33.6302C11.0251 33.6816 11.1263 33.7086 11.2293 33.7083C11.3286 33.7083 11.4294 33.6825 11.5217 33.6299L12.7802 32.9035C12.9147 32.8257 13.0129 32.6978 13.0531 32.5477C13.0932 32.3977 13.0722 32.2378 12.9946 32.1033ZM23.7094 13.5452C23.8648 13.5451 24.0137 13.4833 24.1236 13.3734C24.2334 13.2636 24.2951 13.1146 24.2952 12.9592V11.5047C24.2951 11.3493 24.2334 11.2003 24.1236 11.0904C24.0137 10.9805 23.8648 10.9187 23.7094 10.9186C23.3857 10.9186 23.1235 11.1815 23.1235 11.5047V12.9593C23.1235 13.2824 23.3858 13.5452 23.7094 13.5452ZM10.751 25.3306H9.29802C9.14259 25.3306 8.99352 25.3923 8.88362 25.5022C8.77371 25.6121 8.71196 25.7612 8.71196 25.9166C8.71196 26.072 8.77371 26.2211 8.88362 26.331C8.99352 26.4409 9.14259 26.5027 9.29802 26.5027H10.751C10.9065 26.5027 11.0555 26.4409 11.1654 26.331C11.2753 26.2211 11.3371 26.072 11.3371 25.9166C11.3371 25.7612 11.2753 25.6121 11.1654 25.5022C11.0555 25.3923 10.9065 25.3306 10.751 25.3306Z" fill="black"/>
</svg>
