<svg width="40" height="40" viewBox="0 0 40 40" fill="none" xmlns="http://www.w3.org/2000/svg">
<path fill-rule="evenodd" clip-rule="evenodd" d="M20.5255 18.0119H22.9347V13.8912H20.5255V18.0119ZM17.2577 18.0119H19.6668V13.8912H17.2577V18.0119ZM15.5416 18.8706C15.4838 18.8728 15.4262 18.8633 15.3722 18.8427C15.3181 18.8222 15.2688 18.7909 15.2272 18.7508C15.1855 18.7107 15.1524 18.6626 15.1298 18.6094C15.1072 18.5562 15.0955 18.499 15.0955 18.4412C15.0955 18.3834 15.1072 18.3262 15.1298 18.273C15.1524 18.2198 15.1855 18.1717 15.2272 18.1317C15.2688 18.0916 15.3181 18.0603 15.3722 18.0397C15.4262 18.0191 15.4838 18.0096 15.5416 18.0119H16.399V13.4619C16.399 13.3479 16.4443 13.2386 16.5248 13.158C16.6054 13.0774 16.7147 13.0322 16.8287 13.0322H23.3645C23.4784 13.0322 23.5877 13.0774 23.6683 13.158C23.7489 13.2386 23.7941 13.3479 23.7941 13.4619V18.0119H24.4602C24.518 18.0096 24.5756 18.0191 24.6296 18.0397C24.6836 18.0603 24.733 18.0916 24.7746 18.1317C24.8163 18.1717 24.8494 18.2198 24.872 18.273C24.8946 18.3262 24.9063 18.3834 24.9063 18.4412C24.9063 18.499 24.8946 18.5562 24.872 18.6094C24.8494 18.6626 24.8163 18.7107 24.7746 18.7508C24.733 18.7909 24.6836 18.8222 24.6296 18.8427C24.5756 18.8633 24.518 18.8728 24.4602 18.8706H15.5416ZM12.8403 13.8912H3.64555V15.1394H12.8403V13.8912ZM27.1606 15.1394H36.3555V13.8912H27.1608V15.1394H27.1606ZM27.4719 6.60732H20.4302V2.56131C20.4324 2.50354 20.423 2.44593 20.4024 2.39191C20.3818 2.33789 20.3505 2.28858 20.3104 2.24694C20.2703 2.20529 20.2223 2.17216 20.1691 2.14953C20.1159 2.1269 20.0587 2.11523 20.0009 2.11523C19.9431 2.11523 19.8858 2.1269 19.8326 2.14953C19.7795 2.17216 19.7314 2.20529 19.6913 2.24694C19.6512 2.28858 19.6199 2.33789 19.5993 2.39191C19.5788 2.44593 19.5693 2.50354 19.5715 2.56131V6.60732H12.5291V7.85553H27.472V6.60732H27.4719ZM27.1608 33.1325H34.9498V15.9983H27.1608V33.1325ZM5.05141 33.1325H12.8405V15.9983H5.05141V33.1325ZM37.892 36.0983H2.10938V37.8678H37.8917V36.0983H37.892ZM3.64555 35.2391H36.3555V33.9908H3.64555V35.2391ZM15.9867 33.1325H13.6991V8.71435H26.302V33.1325H24.0143V24.5651C24.0143 24.4512 23.969 24.3419 23.8884 24.2613C23.8079 24.1807 23.6986 24.1354 23.5846 24.1354H16.4162C16.3022 24.1354 16.1929 24.1807 16.1123 24.2613C16.0318 24.3419 15.9865 24.4512 15.9865 24.5651V33.1325H15.9867ZM19.5712 33.1325V24.9945H16.8455V33.1325H19.5712ZM20.4302 24.9945V33.1325H23.1559V24.9945H20.4302ZM9.53836 18.3829V19.6312H8.16461V18.3829H9.53836ZM7.73531 17.5242H9.96773C10.0817 17.5242 10.191 17.5695 10.2716 17.6501C10.3522 17.7306 10.3974 17.8399 10.3974 17.9539V20.0609C10.3974 20.1749 10.3522 20.2842 10.2716 20.3648C10.191 20.4453 10.0817 20.4906 9.96773 20.4906H7.73531C7.62135 20.4906 7.51206 20.4453 7.43148 20.3648C7.3509 20.2842 7.30562 20.1749 7.30562 20.0609V17.9536C7.30562 17.8396 7.3509 17.7303 7.43148 17.6497C7.51206 17.5692 7.62135 17.5239 7.73531 17.5239V17.5242ZM9.53836 22.8747V24.1229H8.16461V22.8747H9.53836ZM7.73531 22.0159H9.96773C10.0817 22.0159 10.191 22.0612 10.2716 22.1418C10.3522 22.2224 10.3974 22.3316 10.3974 22.4456V24.5526C10.3974 24.6666 10.3522 24.7759 10.2716 24.8565C10.191 24.9371 10.0817 24.9823 9.96773 24.9823H7.73531C7.62135 24.9823 7.51206 24.9371 7.43148 24.8565C7.3509 24.7759 7.30562 24.6666 7.30562 24.5526V22.445C7.30562 22.331 7.3509 22.2217 7.43148 22.1411C7.51206 22.0606 7.62135 22.0153 7.73531 22.0153V22.0159ZM9.53836 27.3664V28.6147H8.16461V27.3664H9.53836ZM7.73531 26.5075H9.96773C10.0817 26.5075 10.191 26.5527 10.2716 26.6333C10.3522 26.7139 10.3974 26.8232 10.3974 26.9372V29.0442C10.3974 29.1582 10.3522 29.2674 10.2716 29.348C10.191 29.4286 10.0817 29.4739 9.96773 29.4739H7.73531C7.62135 29.4739 7.51206 29.4286 7.43148 29.348C7.3509 29.2674 7.30562 29.1582 7.30562 29.0442V26.9372C7.30562 26.8232 7.3509 26.7139 7.43148 26.6333C7.51206 26.5527 7.62135 26.5075 7.73531 26.5075ZM31.8364 18.3825V19.6307H30.4627V18.3829L31.8364 18.3825ZM30.0334 17.5242H32.2662C32.3801 17.5242 32.4894 17.5695 32.57 17.6501C32.6506 17.7306 32.6959 17.8399 32.6959 17.9539V20.0609C32.6959 20.1749 32.6506 20.2842 32.57 20.3648C32.4894 20.4453 32.3801 20.4906 32.2662 20.4906H30.0334C29.9194 20.4906 29.8101 20.4453 29.7295 20.3648C29.6489 20.2842 29.6037 20.1749 29.6037 20.0609V17.9536C29.6037 17.8396 29.6489 17.7303 29.7295 17.6497C29.8101 17.5692 29.9194 17.5239 30.0334 17.5239V17.5242ZM31.8365 22.8747V24.1229H30.4627V22.8747H31.8365ZM30.0334 22.0159H32.2662C32.3801 22.0159 32.4894 22.0612 32.57 22.1418C32.6506 22.2224 32.6959 22.3316 32.6959 22.4456V24.5526C32.6959 24.6666 32.6506 24.7759 32.57 24.8565C32.4894 24.9371 32.3801 24.9823 32.2662 24.9823H30.0334C29.9194 24.9823 29.8101 24.9371 29.7295 24.8565C29.6489 24.7759 29.6037 24.6666 29.6037 24.5526V22.445C29.6037 22.331 29.6489 22.2217 29.7295 22.1411C29.8101 22.0606 29.9194 22.0153 30.0334 22.0153V22.0159ZM31.8365 27.3664V28.6147H30.4627V27.3664H31.8365ZM30.0334 26.5075H32.2662C32.3801 26.5075 32.4894 26.5527 32.57 26.6333C32.6506 26.7139 32.6959 26.8232 32.6959 26.9372V29.0442C32.6959 29.1582 32.6506 29.2674 32.57 29.348C32.4894 29.4286 32.3801 29.4739 32.2662 29.4739H30.0334C29.9194 29.4739 29.8101 29.4286 29.7295 29.348C29.6489 29.2674 29.6037 29.1582 29.6037 29.0442V26.9372C29.6037 26.8232 29.6489 26.7139 29.7295 26.6333C29.8101 26.5527 29.9194 26.5075 30.0334 26.5075Z" fill="black"/>
</svg>
