<svg width="40" height="41" viewBox="0 0 40 41" fill="none" xmlns="http://www.w3.org/2000/svg">
<g clip-path="url(#clip0_2002_14203)">
<path d="M16.2629 9.44161L7.58199 15.5319C5.61034 16.9151 4.24714 18.9728 3.71689 21.2731C3.59654 21.7951 3.99496 22.2931 4.53052 22.2931H8.19943C8.6005 20.3795 10.3138 16.5826 16.2629 9.44161ZM18.7457 10.1331C15.4598 14.0059 13.0902 17.2803 11.6865 19.8898C11.1032 20.9744 10.7927 21.757 10.6274 22.2931H18.6374L18.7457 10.1331ZM32.3964 15.5373L23.6269 9.43652C29.5794 16.5808 31.2935 20.379 31.6947 22.2932H35.4731C36.0097 22.2932 36.4082 21.7935 36.2862 21.271C35.7487 18.9696 34.3773 16.9154 32.3964 15.5373ZM20.0048 29.2573C17.7741 29.2573 15.9594 31.072 15.9594 33.3026V40.3237H24.0502V33.3026C24.0501 31.072 22.2354 29.2573 20.0048 29.2573Z" fill="#FDFDFD"/>
<path d="M30.6045 24.6389C28.8539 24.638 7.29876 24.6389 6.35352 24.6386V32.5858H13.655C14.6743 25.0677 25.3388 25.0732 26.3554 32.5858H34.0727V24.6386C34.065 24.6389 30.6114 24.638 30.6045 24.6389ZM13.6139 34.9317H6.35352V38.922C6.35352 39.6959 6.98089 40.3232 7.7548 40.3232H13.6138V34.9317H13.6139ZM26.3965 40.3233H32.6713C33.4452 40.3233 34.0726 39.6959 34.0726 38.922V34.9318H26.3965V40.3233ZM17.8585 6.06178C19.2272 5.69355 20.7388 5.69895 22.1037 6.07914L24.189 3.36259C25.0898 2.09486 23.3198 0.736433 22.3281 1.93417L21.1205 3.50749V1.49619C21.1205 0.848411 20.5953 0.323242 19.9475 0.323242C19.2997 0.323242 18.7746 0.848411 18.7746 1.49619V3.31841L17.7958 1.95818C16.8413 0.730177 15.0306 2.03364 15.8916 3.32834L17.8585 6.06178ZM20.9838 22.2927H29.2672C29.1018 21.7565 28.7914 20.9739 28.2081 19.8894C26.7965 17.2652 24.4076 13.9685 21.0929 10.0669L20.9838 22.2927Z" fill="#FDFDFD"/>
</g>
<defs>
<clipPath id="clip0_2002_14203">
<rect width="40.0001" height="40.0001" fill="white" transform="translate(0 0.323242)"/>
</clipPath>
</defs>
</svg>
