<svg width="40" height="40" viewBox="0 0 40 40" fill="none" xmlns="http://www.w3.org/2000/svg">
<g clip-path="url(#clip0_1990_15067)">
<path d="M6.25 1.25C5.75272 1.25 5.27581 1.44754 4.92417 1.79917C4.57254 2.15081 4.375 2.62772 4.375 3.125V16.875C4.375 17.0408 4.44085 17.1997 4.55806 17.3169C4.67527 17.4342 4.83424 17.5 5 17.5H8.125V3.125C8.125 2.62772 7.92746 2.15081 7.57583 1.79917C7.22419 1.44754 6.74728 1.25 6.25 1.25Z" fill="black"/>
<path d="M21.875 10.625C22.9105 10.625 23.75 9.78553 23.75 8.75C23.75 7.71447 22.9105 6.875 21.875 6.875C20.8395 6.875 20 7.71447 20 8.75C20 9.78553 20.8395 10.625 21.875 10.625Z" fill="black"/>
<path d="M32.5 0H6.25C7.0788 0 7.87366 0.32924 8.45971 0.915291C9.04576 1.50134 9.375 2.2962 9.375 3.125V39.375C9.375 39.5408 9.44085 39.6997 9.55806 39.8169C9.67527 39.9342 9.83424 40 10 40H28.125V33.125C28.125 32.9592 28.1908 32.8003 28.3081 32.6831C28.4253 32.5658 28.5842 32.5 28.75 32.5H35.625V3.125C35.625 2.2962 35.2958 1.50134 34.7097 0.915291C34.1237 0.32924 33.3288 0 32.5 0ZM16.0675 7.26062C16.1686 7.17814 16.2441 7.06851 16.285 6.94463C16.326 6.82075 16.3307 6.68775 16.2987 6.56125C16.2296 6.28526 16.2219 5.99744 16.2762 5.71813C16.3304 5.43883 16.4454 5.17485 16.6129 4.94486C16.7804 4.71487 16.9964 4.52447 17.2456 4.38712C17.4948 4.24978 17.7711 4.16883 18.055 4.15C18.186 4.14125 18.312 4.09606 18.4186 4.01952C18.5253 3.94299 18.6085 3.83816 18.6588 3.71688C18.766 3.45321 18.9296 3.21617 19.1381 3.02239C19.3466 2.8286 19.5949 2.68275 19.8657 2.59504C20.1365 2.50733 20.4232 2.4799 20.7058 2.51466C20.9883 2.54941 21.2598 2.64552 21.5013 2.79625C21.6135 2.86564 21.7428 2.90239 21.8747 2.90239C22.0066 2.90239 22.1359 2.86564 22.2481 2.79625C22.4896 2.6455 22.7611 2.54936 23.0436 2.51456C23.3262 2.47975 23.6129 2.50713 23.8837 2.59477C24.1546 2.68241 24.403 2.8282 24.6116 3.02192C24.8201 3.21564 24.9839 3.45262 25.0912 3.71625C25.141 3.83733 25.2236 3.9421 25.3297 4.01874C25.4359 4.09538 25.5613 4.14084 25.6919 4.15C25.9759 4.16847 26.2523 4.24907 26.5017 4.38611C26.7512 4.52316 26.9674 4.7133 27.1353 4.9431C27.3032 5.17291 27.4185 5.43677 27.4732 5.71605C27.5279 5.99534 27.5206 6.28322 27.4519 6.55937C27.4195 6.68543 27.4237 6.81809 27.464 6.94184C27.5043 7.06559 27.579 7.1753 27.6794 7.25812C27.8985 7.43971 28.075 7.66735 28.1962 7.92485C28.3174 8.18236 28.3804 8.46341 28.3807 8.74802C28.381 9.03263 28.3186 9.31381 28.1979 9.57156C28.0773 9.82932 27.9013 10.0573 27.6825 10.2394C27.5814 10.3217 27.5059 10.4312 27.4649 10.555C27.424 10.6788 27.4192 10.8117 27.4513 10.9381C27.5204 11.2142 27.5281 11.502 27.4738 11.7813C27.4196 12.0607 27.3046 12.3247 27.1371 12.5547C26.9696 12.7848 26.7536 12.9752 26.5044 13.1126C26.2552 13.2501 25.9789 13.3311 25.695 13.35C25.6714 13.3538 25.6481 13.3588 25.625 13.365V20C25.625 20.1106 25.5956 20.2193 25.5399 20.3148C25.4841 20.4104 25.404 20.4894 25.3077 20.5439C25.2114 20.5983 25.1024 20.6263 24.9918 20.6248C24.8812 20.6234 24.773 20.5926 24.6781 20.5356L21.875 18.8538L19.0719 20.5356C18.977 20.5926 18.8688 20.6234 18.7582 20.6248C18.6476 20.6263 18.5386 20.5983 18.4423 20.5439C18.346 20.4894 18.2659 20.4104 18.2101 20.3148C18.1544 20.2193 18.125 20.1106 18.125 20V13.3644C18.103 13.3585 18.0806 13.3537 18.0581 13.35C17.7741 13.3315 17.4977 13.2509 17.2483 13.1139C16.9988 12.9768 16.7826 12.7867 16.6147 12.5569C16.4468 12.3271 16.3315 12.0632 16.2768 11.7839C16.2221 11.5047 16.2294 11.2168 16.2981 10.9406C16.3305 10.8146 16.3263 10.6819 16.286 10.5582C16.2457 10.4344 16.171 10.3247 16.0706 10.2419C15.8515 10.0603 15.675 9.83265 15.5538 9.57515C15.4326 9.31764 15.3696 9.03659 15.3693 8.75198C15.369 8.46737 15.4314 8.18619 15.5521 7.92844C15.6727 7.67068 15.8487 7.44267 16.0675 7.26062ZM25.625 36.875H12.5C12.3342 36.875 12.1753 36.8092 12.0581 36.6919C11.9408 36.5747 11.875 36.4158 11.875 36.25C11.875 36.0842 11.9408 35.9253 12.0581 35.8081C12.1753 35.6908 12.3342 35.625 12.5 35.625H25.625C25.7908 35.625 25.9497 35.6908 26.0669 35.8081C26.1842 35.9253 26.25 36.0842 26.25 36.25C26.25 36.4158 26.1842 36.5747 26.0669 36.6919C25.9497 36.8092 25.7908 36.875 25.625 36.875ZM25.625 33.75H12.5C12.3342 33.75 12.1753 33.6842 12.0581 33.5669C11.9408 33.4497 11.875 33.2908 11.875 33.125C11.875 32.9592 11.9408 32.8003 12.0581 32.6831C12.1753 32.5658 12.3342 32.5 12.5 32.5H25.625C25.7908 32.5 25.9497 32.5658 26.0669 32.6831C26.1842 32.8003 26.25 32.9592 26.25 33.125C26.25 33.2908 26.1842 33.4497 26.0669 33.5669C25.9497 33.6842 25.7908 33.75 25.625 33.75ZM31.25 30.625H12.5C12.3342 30.625 12.1753 30.5592 12.0581 30.4419C11.9408 30.3247 11.875 30.1658 11.875 30C11.875 29.8342 11.9408 29.6753 12.0581 29.5581C12.1753 29.4408 12.3342 29.375 12.5 29.375H31.25C31.4158 29.375 31.5747 29.4408 31.6919 29.5581C31.8092 29.6753 31.875 29.8342 31.875 30C31.875 30.1658 31.8092 30.3247 31.6919 30.4419C31.5747 30.5592 31.4158 30.625 31.25 30.625ZM31.25 27.5H12.5C12.3342 27.5 12.1753 27.4342 12.0581 27.3169C11.9408 27.1997 11.875 27.0408 11.875 26.875C11.875 26.7092 11.9408 26.5503 12.0581 26.4331C12.1753 26.3158 12.3342 26.25 12.5 26.25H31.25C31.4158 26.25 31.5747 26.3158 31.6919 26.4331C31.8092 26.5503 31.875 26.7092 31.875 26.875C31.875 27.0408 31.8092 27.1997 31.6919 27.3169C31.5747 27.4342 31.4158 27.5 31.25 27.5ZM31.25 24.375H12.5C12.3342 24.375 12.1753 24.3092 12.0581 24.1919C11.9408 24.0747 11.875 23.9158 11.875 23.75C11.875 23.5842 11.9408 23.4253 12.0581 23.3081C12.1753 23.1908 12.3342 23.125 12.5 23.125H31.25C31.4158 23.125 31.5747 23.1908 31.6919 23.3081C31.8092 23.4253 31.875 23.5842 31.875 23.75C31.875 23.9158 31.8092 24.0747 31.6919 24.1919C31.5747 24.3092 31.4158 24.375 31.25 24.375Z" fill="black"/>
<path d="M17.512 11.2425C17.4864 11.3403 17.483 11.4425 17.502 11.5418C17.5211 11.6411 17.5621 11.7348 17.622 11.8162C17.6824 11.8992 17.7602 11.9679 17.8501 12.0175C17.94 12.0671 18.0396 12.0963 18.142 12.1031C18.5066 12.1286 18.8569 12.2556 19.1532 12.4696C19.4495 12.6836 19.6801 12.9762 19.8189 13.3144C19.8612 13.4061 19.922 13.4881 19.9977 13.5551C20.0733 13.6221 20.162 13.6727 20.2582 13.7036C20.3544 13.7345 20.456 13.7451 20.5564 13.7347C20.6569 13.7242 20.7542 13.6931 20.842 13.6431C21.1526 13.4511 21.5106 13.3493 21.8758 13.3493C22.2409 13.3493 22.5989 13.4511 22.9095 13.6431C22.9966 13.6963 23.0941 13.7301 23.1954 13.7422C23.2968 13.7543 23.3995 13.7444 23.4967 13.7132C23.5938 13.682 23.6831 13.6302 23.7585 13.5614C23.8338 13.4926 23.8934 13.4083 23.9333 13.3144C24.0841 12.9395 24.3508 12.6226 24.6945 12.41C24.9682 12.2331 25.282 12.1278 25.607 12.1037C25.7099 12.0972 25.81 12.068 25.9003 12.0183C25.9906 11.9686 26.0689 11.8996 26.1295 11.8162C26.1892 11.7355 26.2302 11.6424 26.2493 11.5438C26.2684 11.4451 26.2653 11.3435 26.2401 11.2462C26.1523 10.8918 26.1656 10.5198 26.2786 10.1725C26.3917 9.82528 26.5998 9.5167 26.8795 9.28186C26.958 9.21759 27.0213 9.13675 27.0648 9.04514C27.1084 8.95353 27.1311 8.85341 27.1314 8.75197C27.1317 8.65053 27.1096 8.55029 27.0666 8.45842C27.0235 8.36655 26.9607 8.28534 26.8826 8.22061C26.6025 7.9865 26.3936 7.67844 26.2799 7.33149C26.1662 6.98454 26.1522 6.61263 26.2395 6.25811C26.2651 6.16023 26.2686 6.05785 26.2495 5.95847C26.2305 5.85909 26.1895 5.76522 26.1295 5.68374C26.0692 5.60092 25.9914 5.53235 25.9016 5.48289C25.8119 5.43343 25.7124 5.40428 25.6101 5.39749C25.2453 5.37193 24.895 5.24484 24.5986 5.03057C24.3023 4.8163 24.0718 4.5234 23.9333 4.18499C23.8955 4.09054 23.8372 4.00566 23.7626 3.93649C23.688 3.86731 23.599 3.81557 23.502 3.78499C23.404 3.7529 23.3001 3.74271 23.1978 3.75513C23.0954 3.76755 22.997 3.80228 22.9095 3.85686C22.5987 4.04903 22.2405 4.15081 21.8751 4.15081C21.5097 4.15081 21.1515 4.04903 20.8408 3.85686C20.7534 3.80233 20.6551 3.76763 20.5528 3.75521C20.4505 3.74279 20.3468 3.75296 20.2489 3.78499C20.1519 3.81557 20.063 3.86732 19.9885 3.9365C19.9141 4.00568 19.8559 4.09056 19.8183 4.18499C19.6795 4.52281 19.4492 4.81519 19.1533 5.02919C18.8573 5.24319 18.5075 5.37031 18.1433 5.39624C18.0405 5.40281 17.9404 5.43199 17.8502 5.48169C17.76 5.53138 17.6819 5.60037 17.6214 5.68374C17.5616 5.76463 17.5207 5.85781 17.5014 5.95651C17.4822 6.05521 17.4852 6.15695 17.5101 6.25436C17.5982 6.60872 17.5849 6.98067 17.4719 7.32786C17.3588 7.67505 17.1505 7.98351 16.8708 8.21811C16.7923 8.28243 16.7291 8.3633 16.6856 8.45494C16.6421 8.54658 16.6194 8.64671 16.6191 8.74815C16.6189 8.84958 16.6411 8.94982 16.6842 9.04166C16.7273 9.1335 16.7901 9.21468 16.8683 9.27936C17.1485 9.5134 17.3575 9.82143 17.4713 10.1684C17.5851 10.5153 17.5992 10.8873 17.512 11.2419V11.2425ZM21.8758 5.62499C22.4938 5.62499 23.098 5.80826 23.6119 6.15164C24.1258 6.49502 24.5263 6.98308 24.7629 7.5541C24.9994 8.12512 25.0613 8.75345 24.9407 9.35964C24.8201 9.96583 24.5225 10.5227 24.0855 10.9597C23.6484 11.3967 23.0916 11.6944 22.4854 11.8149C21.8792 11.9355 21.2509 11.8736 20.6799 11.6371C20.1088 11.4006 19.6208 11 19.2774 10.4861C18.934 9.97224 18.7508 9.36805 18.7508 8.74999C18.7517 7.92149 19.0813 7.12721 19.6671 6.54137C20.253 5.95554 21.0473 5.62598 21.8758 5.62499ZM22.252 14.7062C22.1393 14.6372 22.0097 14.6006 21.8776 14.6002C21.7454 14.5999 21.6157 14.6359 21.5026 14.7044C21.1819 14.9027 20.811 15.0048 20.434 14.9985C20.0569 14.9922 19.6896 14.8777 19.3758 14.6687V18.8962L21.5539 17.5887C21.6511 17.5303 21.7623 17.4995 21.8758 17.4995C21.9892 17.4995 22.1004 17.5303 22.1976 17.5887L24.3758 18.8962V14.6675C24.0623 14.8759 23.6958 14.9903 23.3195 14.9971C22.9432 15.004 22.5728 14.9031 22.252 14.7062ZM29.3758 40L35.6258 33.75H29.3758V40Z" fill="black"/>
</g>
<defs>
<clipPath id="clip0_1990_15067">
<rect width="40" height="40" fill="white"/>
</clipPath>
</defs>
</svg>
