<svg width="30" height="30" viewBox="0 0 30 30" fill="none" xmlns="http://www.w3.org/2000/svg">
<path fill-rule="evenodd" clip-rule="evenodd" d="M22.4547 17.2935C21.7301 16.5689 20.7289 16.1207 19.6231 16.1207C19.3979 16.1207 19.1771 16.1393 18.962 16.175C18.6567 16.2256 18.3582 16.3118 18.0728 16.4317C17.5939 16.6332 17.1587 16.9259 16.7914 17.2935C16.0667 18.0181 15.6185 19.0193 15.6185 20.1251C15.6185 21.0263 15.9161 21.8579 16.4185 22.527C16.6784 22.8733 16.9925 23.1753 17.3486 23.4215L17.3525 23.4243C17.9978 23.8691 18.7799 24.1296 19.6229 24.1296C20.4677 24.1296 21.2513 23.8681 21.8974 23.4215C22.2385 23.1857 22.5412 22.8986 22.7945 22.5702C23.3167 21.8939 23.6274 21.0458 23.6274 20.1251C23.6276 19.0194 23.1793 18.0182 22.4547 17.2935ZM22.6317 19.5918L21.2748 20.5777C21.2659 20.584 21.2593 20.5931 21.2559 20.6035C21.2525 20.6139 21.2526 20.6251 21.2561 20.6354L21.6088 21.7212L21.7546 22.1698L21.7744 22.2308C21.8076 22.3324 21.8077 22.442 21.7745 22.5437C21.7415 22.6456 21.6769 22.7343 21.5902 22.7971C21.5039 22.8602 21.3999 22.8943 21.293 22.8943C21.1862 22.8942 21.0821 22.8602 20.9959 22.7971L20.7499 22.6184L20.1325 22.1698L19.8827 21.9884L19.6382 21.8107C19.6295 21.8042 19.6188 21.8007 19.6079 21.8007C19.5969 21.8007 19.5863 21.8042 19.5775 21.8107L19.4341 21.9149L19.0833 22.1698L18.9855 22.2408L18.5915 22.5271L18.4658 22.6184L18.2198 22.7971C18.1336 22.8602 18.0296 22.8943 17.9227 22.8943C17.8159 22.8943 17.7118 22.8602 17.6256 22.7971C17.5341 22.7307 17.4675 22.6357 17.4362 22.5271C17.4082 22.43 17.41 22.3268 17.4415 22.2308L17.4613 22.1698L17.607 21.7212L17.9598 20.6354C17.9633 20.6251 17.9633 20.6139 17.9599 20.6035C17.9566 20.5931 17.9499 20.584 17.941 20.5777L16.5841 19.5918C16.4974 19.5291 16.4328 19.4405 16.3997 19.3387C16.3666 19.2369 16.3667 19.1272 16.3999 19.0255C16.4066 19.0049 16.4147 18.9852 16.4239 18.9663L16.4243 18.9656C16.4603 18.8886 16.5152 18.8219 16.584 18.7719C16.6086 18.754 16.635 18.7387 16.6627 18.7262C16.7307 18.6926 16.8054 18.6752 16.8812 18.675H18.5593C18.5702 18.6752 18.5809 18.6717 18.5897 18.6653C18.5985 18.6589 18.6051 18.6498 18.6083 18.6393L18.7823 18.1039L19.0211 17.3689L19.1266 17.0445C19.1595 16.9426 19.2239 16.8537 19.3106 16.7909C19.3969 16.7279 19.501 16.694 19.6078 16.694C19.7147 16.694 19.8187 16.7279 19.9051 16.7909C19.9917 16.8538 20.0562 16.9426 20.0891 17.0445L20.6074 18.6393C20.6106 18.6498 20.6171 18.6589 20.626 18.6653C20.6348 18.6717 20.6455 18.6752 20.6564 18.675H22.3345C22.4419 18.675 22.5445 18.7104 22.6309 18.773L22.6316 18.7719C22.7184 18.8347 22.7828 18.9236 22.8157 19.0255C22.8214 19.0431 22.8261 19.061 22.8296 19.0791C22.8478 19.1652 22.8431 19.2547 22.8159 19.3384C22.783 19.4403 22.7185 19.5291 22.6317 19.5918ZM21.0246 19.6079C21.0281 19.6183 21.0281 19.6295 21.0247 19.6399C21.0213 19.6503 21.0147 19.6593 21.0058 19.6656L20.4894 20.0409C20.4027 20.1037 20.3382 20.1923 20.3051 20.2941C20.272 20.3958 20.2721 20.5055 20.3053 20.6072L20.5031 21.2161C20.5101 21.2378 20.5027 21.2604 20.4843 21.2738C20.4659 21.2872 20.442 21.2872 20.4236 21.2738L19.9051 20.8971C19.8189 20.8339 19.7149 20.7998 19.608 20.7998C19.5011 20.7998 19.397 20.8339 19.3109 20.8971L18.9856 21.1334L18.7924 21.2738C18.7836 21.2803 18.7729 21.2838 18.762 21.2838C18.7511 21.2838 18.7404 21.2803 18.7316 21.2738C18.7227 21.2675 18.7161 21.2584 18.7128 21.248C18.7094 21.2377 18.7094 21.2265 18.7129 21.2161L18.9107 20.6072C18.944 20.5056 18.9441 20.396 18.9109 20.2943C18.8779 20.1924 18.8133 20.1037 18.7266 20.0409L18.2102 19.6656C18.2013 19.6593 18.1946 19.6503 18.1912 19.6399C18.1879 19.6295 18.1879 19.6183 18.1914 19.6079C18.1947 19.5975 18.2012 19.5884 18.2101 19.582C18.2189 19.5756 18.2296 19.5722 18.2405 19.5723H18.8796C18.9152 19.5723 18.9502 19.5684 18.9843 19.5609C19.0535 19.5456 19.1188 19.5161 19.176 19.4742L19.1768 19.4754C19.2633 19.4123 19.3276 19.3235 19.3604 19.2216L19.3609 19.2218L19.4068 19.0803L19.5589 18.6124C19.5659 18.5907 19.5852 18.5767 19.6079 18.5767C19.6307 18.5767 19.65 18.5907 19.657 18.6124L19.855 19.2218C19.8879 19.3237 19.9524 19.4125 20.039 19.4754C20.1253 19.5384 20.2294 19.5723 20.3363 19.5722H20.9754C20.9863 19.5721 20.997 19.5755 21.0059 19.582C21.0147 19.5884 21.0213 19.5975 21.0246 19.6079ZM15.3072 22.451C15.3116 22.4588 15.3138 22.4677 15.3136 22.4767C15.3134 22.4856 15.3108 22.4944 15.3061 22.502C15.3016 22.5098 15.2951 22.5162 15.2874 22.5206C15.2796 22.525 15.2707 22.5273 15.2618 22.5272H6.42269C6.40901 22.5271 6.3959 22.5217 6.38622 22.512C6.37655 22.5024 6.37111 22.4892 6.37109 22.4756V19.6892C6.37109 17.9552 7.08077 16.3784 8.22419 15.235C9.36761 14.0916 10.9443 13.3819 12.6784 13.3819C14.4124 13.3819 15.9891 14.0916 17.1325 15.235C17.2605 15.363 17.3829 15.4963 17.4996 15.6346C17.5047 15.6406 17.5084 15.6476 17.5103 15.6553C17.5123 15.6629 17.5124 15.6709 17.5106 15.6786C17.5091 15.6863 17.5058 15.6936 17.5009 15.6998C17.4961 15.706 17.4898 15.7109 17.4827 15.7143C16.9913 15.9534 16.5433 16.2727 16.157 16.6592C15.27 17.5463 14.7213 18.7717 14.7213 20.1252C14.7213 20.9669 14.9335 21.759 15.3072 22.451ZM15.5575 8.54068C15.5743 8.55004 15.584 8.56654 15.584 8.5858V10.6416C15.584 11.1062 15.3936 11.5288 15.0869 11.8355C14.7802 12.1422 14.3575 12.3326 13.893 12.3326H11.7191C11.2546 12.3326 10.832 12.1422 10.5253 11.8355C10.2186 11.5288 10.0282 11.1062 10.0282 10.6416V8.52064C10.0282 8.50114 10.0381 8.48446 10.0552 8.47522C10.0723 8.46598 10.0918 8.46676 10.1081 8.47744L12.0793 9.7681L12.0803 9.76876C12.307 9.90958 12.5561 9.97996 12.8061 9.97996C13.0562 9.97996 13.3055 9.90946 13.5324 9.76846L15.5052 8.54194C15.513 8.53697 15.5219 8.53423 15.5311 8.534C15.5404 8.53378 15.5495 8.53609 15.5575 8.54068ZM6.89507 5.66062C6.86273 5.60242 6.84557 5.53132 6.84557 5.4508C6.84557 5.37028 6.86267 5.29912 6.89501 5.24092C6.92795 5.18164 6.97925 5.12926 7.04687 5.0872L12.5802 1.6471C12.652 1.6024 12.7295 1.58008 12.8061 1.58008C12.8826 1.58008 12.9601 1.6024 13.0319 1.6471L18.5653 5.0872C18.6329 5.12926 18.6842 5.1817 18.7171 5.24092C18.7495 5.29912 18.7666 5.37022 18.7666 5.4508C18.7666 5.45878 18.7656 5.46622 18.7653 5.47402C18.7656 5.47636 18.7667 5.47846 18.7667 5.48086V8.81356C18.7667 8.83498 18.779 8.85328 18.7988 8.86138C18.9653 8.9292 19.1164 9.02963 19.2434 9.15676C19.4869 9.40018 19.6375 9.73654 19.6375 10.108C19.6375 10.4795 19.4869 10.8158 19.2434 11.0592C19 11.3027 18.6637 11.4533 18.2922 11.4533C17.9207 11.4533 17.5844 11.3027 17.341 11.0592C17.0975 10.8158 16.9469 10.4795 16.9469 10.108C16.9469 9.73654 17.0975 9.40018 17.341 9.15676C17.467 9.03076 17.6179 8.92966 17.7856 8.86138C17.7951 8.85761 17.8033 8.85102 17.8091 8.84248C17.8148 8.83394 17.8178 8.82385 17.8177 8.81356V6.2791L16.5329 7.07788L16.0585 7.37284L15.584 7.6678L13.0319 9.25444C12.9601 9.29908 12.8825 9.3214 12.806 9.3214C12.7295 9.3214 12.652 9.29908 12.5801 9.25444L10.028 7.6678L9.55355 7.37278L9.07907 7.07782L7.04693 5.81434C6.97925 5.77228 6.92795 5.71984 6.89507 5.66062ZM22.7947 23.9727V27.8515C22.7945 27.9641 22.7607 28.0742 22.6976 28.1675C22.635 28.2611 22.5459 28.3338 22.4417 28.3764C22.3348 28.4207 22.2225 28.4311 22.1161 28.41C22.0051 28.3882 21.9032 28.3339 21.8232 28.2539L19.6596 26.0903C19.6499 26.0807 19.6368 26.0752 19.6231 26.0752C19.6094 26.0752 19.5963 26.0807 19.5866 26.0903L17.423 28.2539C17.343 28.3339 17.241 28.3882 17.13 28.41C17.0237 28.4312 16.9114 28.4207 16.8044 28.3764C16.7002 28.3337 16.6111 28.261 16.5484 28.1675C16.4854 28.0742 16.4516 27.9641 16.4513 27.8515V23.9727C16.4513 23.9523 16.4624 23.9349 16.4807 23.9261C16.4895 23.9218 16.4994 23.9201 16.5091 23.9213C16.5188 23.9225 16.5279 23.9264 16.5355 23.9327C16.6335 24.0122 16.7345 24.0879 16.8383 24.1597L16.8433 24.1631C17.6627 24.728 18.6278 25.027 19.623 25.027C20.6202 25.027 21.5872 24.7268 22.4076 24.1597C22.5115 24.088 22.6125 24.0122 22.7105 23.9326C22.718 23.9263 22.7272 23.9224 22.7369 23.9212C22.7466 23.9201 22.7564 23.9217 22.7652 23.9261C22.7741 23.9301 22.7816 23.9367 22.7869 23.945C22.7921 23.9533 22.7948 23.9629 22.7947 23.9727Z" fill="#F37329"/>
</svg>
