<svg width="40" height="40" viewBox="0 0 40 40" fill="none" xmlns="http://www.w3.org/2000/svg">
<g clip-path="url(#clip0_1990_15034)">
<path d="M21.7305 23.5578L21.7109 23.5508V25.9602C22.1868 25.7495 22.4685 25.3013 22.5398 24.8773C22.5783 24.6485 22.6337 23.877 21.7305 23.5578Z" fill="black"/>
<path d="M21.1719 16.4062C17.5102 16.4062 14.5312 19.3852 14.5312 23.0469C14.5312 26.7085 17.5102 29.6875 21.1719 29.6875C24.8335 29.6875 27.8125 26.7085 27.8125 23.0469C27.8125 19.3852 24.8335 16.4062 21.1719 16.4062ZM23.6962 25.0712C23.5405 25.9966 22.8255 26.9348 21.7116 27.188V27.7344C21.7116 28.058 21.4494 28.3203 21.1257 28.3203C20.802 28.3203 20.5398 28.058 20.5398 27.7344V27.2409C19.9772 27.2019 19.5268 27.0652 18.8777 26.6406C18.6069 26.4634 18.531 26.1004 18.7081 25.8295C18.8852 25.5587 19.2484 25.4827 19.5192 25.6599C19.9283 25.9274 20.1763 26.0295 20.5398 26.0655V23.0895C20.0939 22.8884 19.7649 22.6966 19.498 22.4873C18.967 22.0709 18.7249 21.3458 18.8664 20.5951C19.021 19.7742 19.5916 19.1215 20.3553 18.8913C20.4178 18.8725 20.4791 18.8563 20.5398 18.8414V18.3594C20.5398 18.0357 20.802 17.7734 21.1257 17.7734C21.4494 17.7734 21.7116 18.0357 21.7116 18.3594V18.7736C22.3759 18.8704 22.8428 19.1913 23.0645 19.4459C23.115 19.504 23.1536 19.5714 23.1781 19.6443C23.2026 19.7172 23.2125 19.7943 23.2072 19.8711C23.2019 19.9478 23.1816 20.0228 23.1473 20.0917C23.113 20.1606 23.0655 20.222 23.0075 20.2726C22.8908 20.3743 22.7385 20.4257 22.584 20.4154C22.4295 20.4052 22.2853 20.3343 22.183 20.218C22.1721 20.2069 22.0166 20.0532 21.7116 19.9699V22.3035C21.8492 22.3551 21.9869 22.4048 22.1217 22.4525C23.2769 22.8608 23.8948 23.8887 23.6962 25.0712Z" fill="black"/>
<path d="M20.0179 20.8122C19.9587 21.1264 20.0384 21.4221 20.2212 21.5654C20.3139 21.6381 20.4217 21.7085 20.5397 21.7769V20.0759C20.2305 20.2352 20.0677 20.5479 20.0179 20.8122ZM35.3125 36.875C35.3125 38.1695 36.3618 39.2188 37.6562 39.2188C38.9506 39.2188 40 38.1695 40 36.875V24.2188H35.3125V36.875ZM38.5767 0.811562C35.8107 1.4557 33.75 3.93656 33.75 6.89875V20.7031C33.75 21.3503 34.2747 21.875 34.9219 21.875H40V1.95625C40 1.20781 39.3058 0.641797 38.5767 0.811562ZM11.7188 1.95312C11.7188 1.30594 11.1941 0.78125 10.5469 0.78125C9.89969 0.78125 9.375 1.30594 9.375 1.95312V8.59375H7.03125V1.95312C7.03125 1.30594 6.50656 0.78125 5.85938 0.78125C5.21219 0.78125 4.6875 1.30594 4.6875 1.95312V8.59375H2.34375V1.95312C2.34375 1.30594 1.81906 0.78125 1.17188 0.78125C0.524687 0.78125 0 1.30594 0 1.95312V10.0738C1.1125e-05 10.9403 0.21394 11.7934 0.622799 12.5573C1.03166 13.3213 1.6228 13.9725 2.34375 14.4531L3.51562 15.2344V36.875C3.51562 38.1695 4.56492 39.2188 5.85938 39.2188C7.15383 39.2188 8.20312 38.1695 8.20312 36.875V15.2344L9.375 14.4531C10.096 13.9725 10.6871 13.3213 11.096 12.5573C11.5048 11.7934 11.7187 10.9403 11.7188 10.0738V1.95312Z" fill="black"/>
<path d="M31.4062 20.7031V10.7281C28.631 8.41992 25.0638 7.03125 21.1719 7.03125C18.6182 7.03125 16.2048 7.62992 14.0625 8.69305V10.0738C14.0625 12.623 12.7962 14.9892 10.6752 16.4033L10.5469 16.4887V35.0293C13.3741 37.5381 17.0947 39.0625 21.1719 39.0625C25.8402 39.0625 30.0414 37.0646 32.9688 33.8779V23.6247C32.0273 22.9932 31.4062 21.9195 31.4062 20.7031ZM21.1719 32.0312C16.2179 32.0312 12.1875 28.0009 12.1875 23.0469C12.1875 18.0929 16.2179 14.0625 21.1719 14.0625C26.1259 14.0625 30.1562 18.0929 30.1562 23.0469C30.1562 28.0009 26.1259 32.0312 21.1719 32.0312Z" fill="black"/>
</g>
<defs>
<clipPath id="clip0_1990_15034">
<rect width="40" height="40" fill="white"/>
</clipPath>
</defs>
</svg>
