<svg width="40" height="41" viewBox="0 0 40 41" fill="none" xmlns="http://www.w3.org/2000/svg">
<path d="M20.6654 10.9902H1.9987C1.63051 10.9902 1.33203 11.2887 1.33203 11.6569V12.3236C1.33203 12.6918 1.63051 12.9902 1.9987 12.9902H20.6654C21.0336 12.9902 21.332 12.6918 21.332 12.3236V11.6569C21.332 11.2887 21.0336 10.9902 20.6654 10.9902Z" fill="#FDFDFD"/>
<path d="M19.1041 8.69191C19.0491 8.5809 18.9642 8.48751 18.8588 8.42235C18.7535 8.35718 18.632 8.32285 18.5081 8.32325H4.15608C4.03221 8.32285 3.91071 8.35718 3.80536 8.42235C3.70001 8.48751 3.61504 8.5809 3.56008 8.69191L3.07742 9.65658H19.5868L19.1041 8.69191ZM5.85208 38.9899H15.1494C14.579 38.4912 14.1217 37.8762 13.8083 37.1864C13.4949 36.4965 13.3325 35.7476 13.3321 34.9899V34.3232C13.3331 34.032 13.3981 33.7445 13.5225 33.4811C13.6469 33.2178 13.8277 32.985 14.0521 32.7992C13.5882 32.3084 13.3305 31.6582 13.3321 30.9828C13.3337 30.3075 13.5945 29.6585 14.0608 29.1699C13.8571 29.0064 13.6883 28.8037 13.5644 28.5737C13.4405 28.3438 13.364 28.0913 13.3394 27.8312C13.3163 27.5584 13.3502 27.2838 13.439 27.0248C13.5277 26.7657 13.6693 26.528 13.8548 26.3266C13.5201 25.9617 13.3337 25.485 13.3321 24.9899C13.3354 23.0815 13.968 21.2275 15.132 19.7151C16.2959 18.2027 17.9261 17.1164 19.7701 16.6246L19.9461 14.3232H2.71875L4.52342 37.7586C4.55046 38.0929 4.70198 38.4049 4.948 38.6329C5.19403 38.8609 5.51666 38.9883 5.85208 38.9899Z" fill="#FDFDFD"/>
<path d="M38.6656 34.3237C38.6656 34.1469 38.5953 33.9773 38.4703 33.8523C38.3453 33.7273 38.1757 33.657 37.9989 33.657H15.3323C15.1554 33.657 14.9859 33.7273 14.8608 33.8523C14.7358 33.9773 14.6656 34.1469 14.6656 34.3237V34.9904C14.6666 36.0509 15.0884 37.0677 15.8383 37.8176C16.5882 38.5675 17.605 38.9893 18.6656 38.9904H34.6656C35.7261 38.9893 36.7429 38.5675 37.4928 37.8176C38.2428 37.0677 38.6645 36.0509 38.6656 34.9904V34.3237ZM11.9989 6.99035V3.39035C11.9989 3.24556 11.9517 3.10473 11.8645 2.98915C11.7773 2.87356 11.6548 2.7895 11.5156 2.74969L7.73225 1.66702C7.6688 1.6498 7.60113 1.658 7.54362 1.68986C7.48612 1.72173 7.44329 1.77476 7.42425 1.83769L7.19492 2.64102C7.17701 2.70458 7.18497 2.77264 7.21708 2.83035C7.24918 2.88805 7.3028 2.93072 7.36625 2.94902L10.1856 3.75435C10.3242 3.79477 10.4459 3.87909 10.5324 3.99462C10.619 4.11015 10.6657 4.25066 10.6656 4.39502V6.99035H11.9989ZM37.3323 29.657H35.2776C35.0325 29.6574 34.7948 29.7406 34.6029 29.893L32.8349 31.305C32.5508 31.5334 32.1971 31.6579 31.8326 31.6579C31.468 31.6579 31.1144 31.5334 30.8303 31.305L29.0616 29.8924C28.8696 29.7401 28.6319 29.6572 28.3869 29.657H15.9989C15.6453 29.657 15.3062 29.7975 15.0561 30.0475C14.8061 30.2976 14.6656 30.6367 14.6656 30.9904C14.6656 31.344 14.8061 31.6831 15.0561 31.9332C15.3062 32.1832 15.6453 32.3237 15.9989 32.3237H37.3323C37.6859 32.3237 38.025 32.1832 38.2751 31.9332C38.5251 31.6831 38.6656 31.344 38.6656 30.9904C38.6656 30.6367 38.5251 30.2976 38.2751 30.0475C38.025 29.7975 37.6859 29.657 37.3323 29.657ZM31.3323 17.657H21.9989C20.0547 17.6593 18.1908 18.4327 16.816 19.8074C15.4412 21.1822 14.6679 23.0461 14.6656 24.9904C14.6656 25.1672 14.7358 25.3367 14.8608 25.4618C14.9859 25.5868 15.1554 25.657 15.3323 25.657H37.9989C38.1757 25.657 38.3453 25.5868 38.4703 25.4618C38.5953 25.3367 38.6656 25.1672 38.6656 24.9904C38.6633 23.0461 37.8899 21.1822 36.5152 19.8074C35.1404 18.4327 33.2765 17.6593 31.3323 17.657ZM21.9989 22.9904H21.3323C21.1554 22.9904 20.9859 22.9201 20.8608 22.7951C20.7358 22.6701 20.6656 22.5005 20.6656 22.3237C20.6656 22.1469 20.7358 21.9773 20.8608 21.8523C20.9859 21.7273 21.1554 21.657 21.3323 21.657H21.9989C22.1757 21.657 22.3453 21.7273 22.4703 21.8523C22.5953 21.9773 22.6656 22.1469 22.6656 22.3237C22.6656 22.5005 22.5953 22.6701 22.4703 22.7951C22.3453 22.9201 22.1757 22.9904 21.9989 22.9904ZM23.9989 20.3237H23.3323C23.1554 20.3237 22.9859 20.2535 22.8608 20.1284C22.7358 20.0034 22.6656 19.8338 22.6656 19.657C22.6656 19.4802 22.7358 19.3106 22.8608 19.1856C22.9859 19.0606 23.1554 18.9904 23.3323 18.9904H23.9989C24.1757 18.9904 24.3453 19.0606 24.4703 19.1856C24.5953 19.3106 24.6656 19.4802 24.6656 19.657C24.6656 19.8338 24.5953 20.0034 24.4703 20.1284C24.3453 20.2535 24.1757 20.3237 23.9989 20.3237ZM27.9989 22.3237H27.3323C27.1554 22.3237 26.9859 22.2535 26.8608 22.1284C26.7358 22.0034 26.6656 21.8338 26.6656 21.657C26.6656 21.4802 26.7358 21.3106 26.8608 21.1856C26.9859 21.0606 27.1554 20.9904 27.3323 20.9904H27.9989C28.1757 20.9904 28.3453 21.0606 28.4703 21.1856C28.5953 21.3106 28.6656 21.4802 28.6656 21.657C28.6656 21.8338 28.5953 22.0034 28.4703 22.1284C28.3453 22.2535 28.1757 22.3237 27.9989 22.3237Z" fill="#FDFDFD"/>
<path d="M15.3318 26.9906C15.2458 26.99 15.1606 27.0066 15.0811 27.0394C15.0016 27.0723 14.9296 27.1208 14.8691 27.182C14.7971 27.2504 14.7417 27.3344 14.7071 27.4275C14.6724 27.5206 14.6594 27.6204 14.6691 27.7193C14.6974 27.8925 14.7879 28.0495 14.9236 28.1608C15.0594 28.2721 15.231 28.3301 15.4065 28.324H28.3865C28.9339 28.3248 29.465 28.5109 29.8931 28.852L31.6611 30.2633C31.7097 30.3021 31.77 30.3232 31.8321 30.3232C31.8943 30.3232 31.9546 30.3021 32.0031 30.2633L33.7705 28.8526C34.1986 28.5113 34.7296 28.325 35.2771 28.324H37.9985C38.0844 28.3247 38.1696 28.3082 38.249 28.2753C38.3283 28.2425 38.4003 28.1939 38.4605 28.1326C38.532 28.0646 38.5871 27.9813 38.6217 27.8889C38.6564 27.7965 38.6696 27.6975 38.6605 27.5993C38.633 27.4255 38.5429 27.2677 38.4073 27.1556C38.2716 27.0436 38.0997 26.9849 37.9238 26.9906H15.3318Z" fill="#FDFDFD"/>
</svg>
