<svg width="40" height="41" viewBox="0 0 40 41" fill="none" xmlns="http://www.w3.org/2000/svg">
<path fill-rule="evenodd" clip-rule="evenodd" d="M19.9993 29.0132C15.2141 29.0132 11.3091 25.1083 11.3091 20.323C11.3091 15.5378 15.2141 11.6328 19.9993 11.6328C24.7846 11.6328 28.6895 15.5378 28.6895 20.323C28.6895 25.1083 24.7846 29.0132 19.9993 29.0132ZM19.3719 15.4822C19.1372 15.5233 18.9073 15.5878 18.6856 15.6747C17.6011 16.1017 16.8136 17.0347 16.8751 18.3084V18.3088C16.9574 19.9924 18.4895 20.6786 19.9057 20.9118L19.9063 20.9119C20.4286 20.9974 20.9966 21.1281 21.4501 21.4016C21.8108 21.6191 22.0894 21.9386 22.1499 22.4325C22.2097 22.9297 21.9806 23.2848 21.6381 23.5209C21.2071 23.8181 20.6232 23.9525 20.0977 23.965C19.0982 23.9885 18.0756 23.5319 17.8209 22.5089C17.7373 22.1728 17.3965 21.968 17.0605 22.0516C16.899 22.0919 16.7602 22.1946 16.6744 22.3372C16.5887 22.4798 16.5631 22.6506 16.6032 22.8121C16.9406 24.1674 18.0813 24.9692 19.3719 25.1704V25.823C19.3719 26.1694 19.653 26.4505 19.9993 26.4505C20.3456 26.4505 20.6268 26.1694 20.6268 25.823V25.1794C22.1121 24.9761 23.6059 24.0226 23.3957 22.2817L23.3956 22.2808C23.1843 20.5496 21.565 19.9117 20.1089 19.6735C19.7124 19.6082 19.2919 19.507 18.9279 19.3291C18.5027 19.1212 18.1555 18.7991 18.1285 18.2477C18.0952 17.5565 18.5566 17.0741 19.1453 16.8424C20.1187 16.4592 21.4704 16.7151 21.9791 17.9252C22.0436 18.0785 22.1664 18.2 22.3205 18.2629C22.4745 18.3257 22.6472 18.3249 22.8006 18.2605C22.954 18.1959 23.0755 18.0731 23.1384 17.9191C23.2012 17.765 23.2004 17.5923 23.1359 17.4389C22.6452 16.2715 21.6653 15.6461 20.6268 15.4745V14.823C20.6268 14.4767 20.3456 14.1956 19.9993 14.1956C19.653 14.1956 19.3719 14.4767 19.3719 14.823V15.4822ZM31.3822 20.323H38.8228V22.8721L35.7044 24.0724C35.3094 25.7342 34.6478 27.319 33.7554 28.7757L35.1094 31.8326L31.5089 35.4332L28.4519 34.0791C27.0004 34.9767 25.4104 35.6332 23.7486 36.0281L22.5484 39.1466H17.4553L16.2552 36.0281C14.5882 35.6332 13.0033 34.9715 11.5467 34.0791L8.48974 35.4332L4.88919 31.8326L6.24841 28.7757C5.35084 27.3241 4.69429 25.7342 4.29421 24.0724L1.17578 22.8721V17.779L4.29421 16.5789C4.69429 14.9119 5.35084 13.327 6.24841 11.8704L4.88919 8.81347L8.48974 5.21292L11.5467 6.57214C13.0005 5.67584 14.5883 5.01786 16.25 4.62312L17.4553 1.49951H19.9999V8.94014H19.9993C13.731 8.94014 8.61641 14.0547 8.61641 20.323C8.61641 26.5914 13.731 31.7059 19.9993 31.7059C26.2676 31.7059 31.3822 26.5914 31.3822 20.323ZM23.2129 9.40343L25.0439 4.98296C25.7132 5.20417 26.3671 5.46924 27.0014 5.77645L25.1737 10.1889C24.546 9.86647 23.8896 9.6035 23.2129 9.40343ZM35.1661 14.7814L30.7577 16.6074C30.526 15.9405 30.2326 15.2967 29.8812 14.6843L34.3086 12.8504C34.6364 13.4746 34.9229 14.1196 35.1661 14.7814ZM27.0381 11.3885L30.4221 8.00453C30.9597 8.46037 31.4673 8.95055 31.9416 9.47198L28.5687 12.8448C28.1043 12.3135 27.5919 11.826 27.0381 11.3885Z" fill="#FDFDFD"/>
</svg>
