<svg width="40" height="41" viewBox="0 0 40 41" fill="none" xmlns="http://www.w3.org/2000/svg">
<path fill-rule="evenodd" clip-rule="evenodd" d="M17.1093 7.22847C16.7733 7.22847 16.4538 7.51292 16.3613 7.83469L15.7529 9.56892C15.66 9.89069 15.8756 10.1751 16.2111 10.1751H23.8271C24.1622 10.1751 24.3778 9.89069 24.2849 9.56892L23.6765 7.83425C23.5836 7.51247 23.264 7.22803 22.9285 7.22803L17.1093 7.22847ZM25.2222 23.2396H14.8147C14.3725 23.2396 14.2729 23.7507 14.4769 24.244C14.9049 25.2885 16.0418 26.2743 17.1249 25.9898H22.9125C24.0329 25.9898 25.1325 25.288 25.56 24.244C25.764 23.7507 25.6596 23.304 25.2222 23.2396ZM8.16001 23.1983C7.9729 23.7765 7.75468 24.9205 8.78268 25.2956C9.62535 25.6027 11.4009 25.8249 12.3453 25.9694C13.2551 26.1058 13.4813 25.5689 13.1671 24.7676C12.5769 23.2836 11.2458 22.9689 9.99602 22.7538C8.74801 22.5383 8.3009 22.7649 8.16001 23.1983ZM30.0418 22.7538C28.7938 22.9689 27.4605 23.2831 26.8729 24.7676C26.5556 25.5689 26.7827 26.1054 27.6925 25.9694C28.6396 25.8254 30.4125 25.6031 31.2551 25.2956C32.2827 24.9205 32.0676 23.7765 31.8773 23.1983C31.736 22.7649 31.2916 22.5383 30.0418 22.7538ZM20.0191 12.7511C18.0676 12.7538 15.9587 12.8205 14.1738 12.9436C13.4982 12.9898 12.8778 13.3551 12.4609 14.0289C11.5676 15.4778 10.7707 16.8414 10.2689 18.3578C10.2689 18.3578 15.8658 18.9151 20.0191 18.9151C24.1738 18.9151 29.7711 18.3578 29.7711 18.3578C29.2667 16.8414 28.4725 15.4778 27.5791 14.0289C27.1622 13.3551 26.54 12.9898 25.8636 12.9436C24.0813 12.8205 21.9702 12.7538 20.0191 12.7511ZM20.0191 11.3898C22.2849 11.3898 24.6 11.3782 26.8133 11.6862C27.8409 11.8298 28.5005 12.432 28.9751 13.1307C30.056 14.7209 30.7529 16.4009 31.3613 18.1005H34.0742C34.8316 18.1005 35.2831 18.688 35.0862 19.4174C34.8707 20.2254 34.6253 20.6209 33.44 20.8965L32.9885 21.0009C33.3405 21.6743 33.6 22.3876 33.6 23.024V28.2458C33.6 29.1187 32.9956 29.8574 32.2925 30.1329V32.5774C32.2927 32.6905 32.2706 32.8026 32.2274 32.9073C32.1842 33.0119 32.1207 33.1069 32.0407 33.1869C31.9607 33.267 31.8656 33.3304 31.761 33.3736C31.6564 33.4168 31.5443 33.4389 31.4311 33.4387H28.9885C28.8753 33.4389 28.7632 33.4167 28.6586 33.3735C28.5541 33.3303 28.459 33.2668 28.379 33.1868C28.299 33.1068 28.2356 33.0118 28.1923 32.9072C28.1491 32.8026 28.127 32.6905 28.1271 32.5774V30.2534H11.912V32.5774C11.9123 32.6906 11.8902 32.8027 11.847 32.9073C11.8039 33.012 11.7404 33.107 11.6604 33.1871C11.5803 33.2671 11.4853 33.3305 11.3806 33.3737C11.276 33.4169 11.1639 33.439 11.0507 33.4387H8.60846C8.4953 33.4389 8.38321 33.4168 8.27863 33.3736C8.17405 33.3304 8.07903 33.2669 7.99904 33.1869C7.91904 33.1069 7.85565 33.0118 7.8125 32.9072C7.76934 32.8026 7.74728 32.6905 7.74757 32.5774V30.1329C7.04357 29.8574 6.43735 29.1214 6.43735 28.2458V23.0245C6.43735 22.388 6.69601 21.6743 7.05024 21.0014L6.59646 20.8969C5.41379 20.6214 5.16846 20.2258 4.95113 19.4178C4.75735 18.6885 5.2089 18.1009 5.96312 18.1009H8.67824C9.28668 16.4018 9.98135 14.7214 11.0622 13.1311C11.5369 12.432 12.1991 11.8298 13.2245 11.6867C15.44 11.3782 17.7525 11.3898 20.0191 11.3898Z" fill="#FDFDFD"/>
</svg>
