<svg width="40" height="41" viewBox="0 0 40 41" fill="none" xmlns="http://www.w3.org/2000/svg">
<path d="M20.6654 10.9895H1.9987C1.63051 10.9895 1.33203 11.288 1.33203 11.6562V12.3228C1.33203 12.691 1.63051 12.9895 1.9987 12.9895H20.6654C21.0336 12.9895 21.332 12.691 21.332 12.3228V11.6562C21.332 11.288 21.0336 10.9895 20.6654 10.9895Z" fill="#FDFDFD"/>
<path d="M19.1041 8.69167C19.0491 8.58065 18.9642 8.48727 18.8588 8.4221C18.7535 8.35694 18.632 8.32261 18.5081 8.323H4.15608C4.03221 8.32261 3.91071 8.35694 3.80536 8.4221C3.70001 8.48727 3.61504 8.58065 3.56008 8.69167L3.07742 9.65633H19.5868L19.1041 8.69167ZM5.85208 38.9897H15.1494C14.579 38.4909 14.1217 37.876 13.8083 37.1861C13.4949 36.4963 13.3325 35.7474 13.3321 34.9897V34.323C13.3331 34.0317 13.3981 33.7442 13.5225 33.4809C13.6469 33.2175 13.8277 32.9847 14.0521 32.799C13.5882 32.3082 13.3305 31.658 13.3321 30.9826C13.3337 30.3073 13.5945 29.6583 14.0608 29.1697C13.8571 29.0061 13.6883 28.8034 13.5644 28.5735C13.4405 28.3435 13.364 28.091 13.3394 27.831C13.3163 27.5582 13.3502 27.2835 13.439 27.0245C13.5277 26.7655 13.6693 26.5277 13.8548 26.3263C13.5201 25.9615 13.3337 25.4848 13.3321 24.9897C13.3354 23.0813 13.968 21.2272 15.132 19.7148C16.2959 18.2025 17.9261 17.1162 19.7701 16.6243L19.9461 14.323H2.71875L4.52342 37.7583C4.55046 38.0927 4.70198 38.4047 4.948 38.6327C5.19403 38.8607 5.51665 38.9881 5.85208 38.9897Z" fill="#FDFDFD"/>
<path d="M38.6656 34.323C38.6656 34.1461 38.5954 33.9766 38.4703 33.8516C38.3453 33.7265 38.1757 33.6563 37.9989 33.6563H15.3323C15.1554 33.6563 14.9859 33.7265 14.8608 33.8516C14.7358 33.9766 14.6656 34.1461 14.6656 34.323V34.9896C14.6666 36.0502 15.0884 37.067 15.8383 37.8169C16.5882 38.5668 17.605 38.9886 18.6656 38.9896H34.6656C35.7261 38.9886 36.7429 38.5668 37.4928 37.8169C38.2428 37.067 38.6645 36.0502 38.6656 34.9896V34.323ZM11.9989 6.98962V3.38962C11.9989 3.24483 11.9517 3.104 11.8645 2.98841C11.7773 2.87283 11.6548 2.78877 11.5156 2.74895L7.73225 1.66629C7.6688 1.64907 7.60113 1.65727 7.54362 1.68913C7.48612 1.721 7.44329 1.77403 7.42425 1.83695L7.19492 2.64029C7.17701 2.70385 7.18497 2.77191 7.21708 2.82962C7.24918 2.88732 7.3028 2.92998 7.36625 2.94829L10.1856 3.75362C10.3242 3.79404 10.4459 3.87836 10.5324 3.99389C10.619 4.10942 10.6657 4.24993 10.6656 4.39429V6.98962H11.9989ZM37.3323 29.6563H35.2776C35.0325 29.6567 34.7948 29.7398 34.6029 29.8923L32.8349 31.3043C32.5508 31.5327 32.1971 31.6572 31.8326 31.6572C31.468 31.6572 31.1144 31.5327 30.8303 31.3043L29.0616 29.8916C28.8696 29.7394 28.6319 29.6565 28.3869 29.6563H15.9989C15.6453 29.6563 15.3062 29.7968 15.0561 30.0468C14.8061 30.2969 14.6656 30.636 14.6656 30.9896C14.6656 31.3432 14.8061 31.6824 15.0561 31.9324C15.3062 32.1825 15.6453 32.323 15.9989 32.323H37.3323C37.6859 32.323 38.025 32.1825 38.2751 31.9324C38.5251 31.6824 38.6656 31.3432 38.6656 30.9896C38.6656 30.636 38.5251 30.2969 38.2751 30.0468C38.025 29.7968 37.6859 29.6563 37.3323 29.6563ZM31.3323 17.6563H21.9989C20.0547 17.6586 18.1908 18.4319 16.816 19.8067C15.4412 21.1815 14.6679 23.0454 14.6656 24.9896C14.6656 25.1664 14.7358 25.336 14.8608 25.461C14.9859 25.5861 15.1554 25.6563 15.3323 25.6563H37.9989C38.1757 25.6563 38.3453 25.5861 38.4703 25.461C38.5954 25.336 38.6656 25.1664 38.6656 24.9896C38.6633 23.0454 37.8899 21.1815 36.5152 19.8067C35.1404 18.4319 33.2765 17.6586 31.3323 17.6563ZM21.9989 22.9896H21.3323C21.1554 22.9896 20.9859 22.9194 20.8608 22.7944C20.7358 22.6693 20.6656 22.4998 20.6656 22.323C20.6656 22.1461 20.7358 21.9766 20.8608 21.8516C20.9859 21.7265 21.1554 21.6563 21.3323 21.6563H21.9989C22.1757 21.6563 22.3453 21.7265 22.4703 21.8516C22.5953 21.9766 22.6656 22.1461 22.6656 22.323C22.6656 22.4998 22.5953 22.6693 22.4703 22.7944C22.3453 22.9194 22.1757 22.9896 21.9989 22.9896ZM23.9989 20.323H23.3323C23.1554 20.323 22.9859 20.2527 22.8608 20.1277C22.7358 20.0027 22.6656 19.8331 22.6656 19.6563C22.6656 19.4795 22.7358 19.3099 22.8608 19.1849C22.9859 19.0599 23.1554 18.9896 23.3323 18.9896H23.9989C24.1757 18.9896 24.3453 19.0599 24.4703 19.1849C24.5953 19.3099 24.6656 19.4795 24.6656 19.6563C24.6656 19.8331 24.5953 20.0027 24.4703 20.1277C24.3453 20.2527 24.1757 20.323 23.9989 20.323ZM27.9989 22.323H27.3323C27.1554 22.323 26.9859 22.2527 26.8608 22.1277C26.7358 22.0027 26.6656 21.8331 26.6656 21.6563C26.6656 21.4795 26.7358 21.3099 26.8608 21.1849C26.9859 21.0599 27.1554 20.9896 27.3323 20.9896H27.9989C28.1757 20.9896 28.3453 21.0599 28.4703 21.1849C28.5953 21.3099 28.6656 21.4795 28.6656 21.6563C28.6656 21.8331 28.5953 22.0027 28.4703 22.1277C28.3453 22.2527 28.1757 22.323 27.9989 22.323Z" fill="#FDFDFD"/>
<path d="M15.3318 26.9896C15.2458 26.989 15.1606 27.0056 15.0811 27.0385C15.0016 27.0713 14.9296 27.1198 14.8691 27.181C14.7971 27.2494 14.7417 27.3334 14.7071 27.4265C14.6724 27.5196 14.6594 27.6194 14.6691 27.7183C14.6974 27.8916 14.7879 28.0485 14.9236 28.1599C15.0594 28.2712 15.231 28.3292 15.4065 28.323H28.3865C28.9339 28.3238 29.465 28.5099 29.8931 28.851L31.6611 30.2623C31.7097 30.3011 31.77 30.3222 31.8321 30.3222C31.8943 30.3222 31.9546 30.3011 32.0031 30.2623L33.7705 28.8516C34.1986 28.5103 34.7296 28.324 35.2771 28.323H37.9985C38.0844 28.3238 38.1696 28.3072 38.249 28.2744C38.3283 28.2415 38.4003 28.1929 38.4605 28.1316C38.532 28.0636 38.5871 27.9803 38.6217 27.8879C38.6564 27.7956 38.6696 27.6965 38.6605 27.5983C38.633 27.4245 38.5429 27.2667 38.4073 27.1547C38.2716 27.0426 38.0997 26.9839 37.9238 26.9896H15.3318Z" fill="#FDFDFD"/>
</svg>
