<svg width="40" height="41" viewBox="0 0 40 41" fill="none" xmlns="http://www.w3.org/2000/svg">
<g clip-path="url(#clip0_496_7121)">
<path d="M2.42015 12.8699H1.16468C-0.388812 12.9276 -0.38764 15.157 1.16468 15.2141H2.42015C3.97364 15.1565 3.97247 12.9271 2.42015 12.8699ZM32.5507 15.2141H33.8061C35.3596 15.1565 35.3584 12.9271 33.8061 12.8699H32.5507C30.9972 12.9276 30.9984 15.1571 32.5507 15.2141ZM17.4854 3.91524C18.1327 3.91524 18.6575 3.39045 18.6575 2.74314V1.48768C18.5999 -0.0658143 16.3705 -0.0646421 16.3133 1.48768V2.74314C16.3133 3.39045 16.8381 3.91524 17.4854 3.91524ZM7.01522 4.42525L5.75983 3.16979C5.30209 2.71212 4.56 2.71204 4.10226 3.16979C3.64451 3.62753 3.64451 4.36962 4.10226 4.82736L5.35764 6.08283C5.81546 6.54065 6.55755 6.54041 7.01522 6.08283C7.47296 5.62508 7.47296 4.88299 7.01522 4.42525ZM29.6132 6.08283L30.8685 4.82736C31.3263 4.36962 31.3263 3.62753 30.8685 3.16979C30.4109 2.71212 29.6687 2.71204 29.211 3.16979L27.9556 4.42525C27.4978 4.88299 27.4978 5.62508 27.9556 6.08283C28.4134 6.54065 29.1556 6.54049 29.6132 6.08283ZM17.5687 30.99V28.5931C17.5687 27.4292 18.1621 26.3863 19.0764 25.7728C18.8638 24.6926 19.1818 23.5355 20.0047 22.7126L22.3897 20.3277C23.1807 19.5276 24.3482 19.1756 25.45 19.3991C26.0636 18.485 27.1064 17.8917 28.2701 17.8917H28.6998C28.7516 11.6791 23.6975 6.58995 17.4854 6.59276C6.53036 6.95705 2.75083 19.5027 10.0986 26.3764C11.467 27.9178 12.5479 29.1354 12.5469 30.9899H17.5687V30.99ZM29.9564 28.313C28.8721 28.313 27.9899 29.1952 27.9899 30.2795C28.0887 32.8848 31.8245 32.884 31.923 30.2795C31.923 29.1952 31.0408 28.313 29.9564 28.313Z" fill="#FDFDFD"/>
<path d="M39.0805 27.5516L37.8002 27.3917C37.7233 27.183 37.6381 26.9775 37.5446 26.7757L38.337 25.7568C38.4941 25.5548 38.5719 25.3025 38.556 25.0472C38.5401 24.7918 38.4316 24.5511 38.2507 24.3702L35.8656 21.9851C35.6847 21.8043 35.4439 21.6957 35.1886 21.6798C34.9333 21.6639 34.6809 21.7418 34.479 21.8988L33.4601 22.6912C33.2583 22.5978 33.0528 22.5126 32.8442 22.4357L32.6843 21.1554C32.6526 20.9015 32.5292 20.668 32.3374 20.4986C32.1456 20.3293 31.8986 20.2358 31.6428 20.2358H28.27C28.0142 20.2358 27.7671 20.3293 27.5753 20.4986C27.3835 20.6679 27.2602 20.9015 27.2285 21.1554L27.0686 22.4356C26.8599 22.5125 26.6544 22.5978 26.4526 22.6911L25.4336 21.8987C25.2317 21.7417 24.9794 21.6638 24.7241 21.6797C24.4687 21.6956 24.228 21.8042 24.0471 21.9851L21.6621 24.3701C21.4812 24.551 21.3726 24.7917 21.3567 25.047C21.3408 25.3024 21.4187 25.5547 21.5757 25.7566L22.3682 26.7756C22.2748 26.9774 22.1896 27.1829 22.1126 27.3915L20.8323 27.5514C20.5784 27.5831 20.3449 27.7065 20.1756 27.8983C20.0062 28.0901 19.9128 28.3371 19.9128 28.5929V31.9657C19.9128 32.2215 20.0062 32.4686 20.1756 32.6603C20.3449 32.8521 20.5784 32.9755 20.8323 33.0072L22.1126 33.1671C22.1894 33.3758 22.2747 33.5813 22.3682 33.7831L21.5757 34.802C21.4187 35.0039 21.3408 35.2562 21.3567 35.5116C21.3726 35.7669 21.4812 36.0076 21.6621 36.1885L24.0471 38.5735C24.228 38.7545 24.4687 38.8631 24.7241 38.879C24.9794 38.8949 25.2317 38.817 25.4336 38.6599L26.4527 37.8675C26.6545 37.9608 26.86 38.0461 27.0686 38.123L27.2285 39.4032C27.2602 39.6571 27.3835 39.8907 27.5753 40.06C27.7671 40.2293 28.0142 40.3228 28.27 40.3228H31.6428C31.8986 40.3228 32.1456 40.2293 32.3374 40.06C32.5292 39.8906 32.6526 39.6571 32.6843 39.4032L32.8442 38.123C33.0528 38.0461 33.2583 37.9609 33.4601 37.8675L34.479 38.6598C34.6809 38.8169 34.9333 38.8948 35.1886 38.8789C35.4439 38.863 35.6847 38.7544 35.8656 38.5735L38.2507 36.1883C38.4316 36.0075 38.5402 35.7667 38.5561 35.5114C38.572 35.2561 38.4941 35.0037 38.337 34.8018L37.5446 33.7829C37.6379 33.5811 37.7232 33.3756 37.8002 33.167L39.0804 33.0071C39.3343 32.9754 39.5678 32.8521 39.7372 32.6603C39.9065 32.4685 39.9999 32.2214 39.9999 31.9656V28.5931C39.9999 28.3373 39.9065 28.0902 39.7372 27.8984C39.5679 27.7067 39.3343 27.5833 39.0805 27.5516ZM29.9564 34.5901C27.5794 34.5901 25.6456 32.6563 25.6456 30.2794C25.8623 24.5685 34.0513 24.5701 34.2671 30.2795C34.2671 32.6564 32.3333 34.5901 29.9564 34.5901ZM19.0764 34.7862C18.5417 34.4267 18.1197 33.9233 17.859 33.3342H12.5469V34.7569C12.5469 36.9493 14.1925 38.7633 16.3132 39.032V39.1509C16.3709 40.7044 18.6003 40.7032 18.6574 39.1509V39.032C19.317 38.9482 19.948 38.7121 20.5006 38.3424L20.0045 37.8463C19.1817 37.0233 18.8637 35.8663 19.0764 34.7862Z" fill="#FDFDFD"/>
</g>
<defs>
<clipPath id="clip0_496_7121">
<rect width="40" height="40" fill="white" transform="translate(0 0.322998)"/>
</clipPath>
</defs>
</svg>
