<svg width="40" height="41" viewBox="0 0 40 41" fill="none" xmlns="http://www.w3.org/2000/svg">
<path fill-rule="evenodd" clip-rule="evenodd" d="M3.99024 5.64237C8.36875 5.13542 12.1862 3.18878 15.1069 1.10425H24.8921C27.8129 3.18878 31.6302 5.13542 36.0088 5.64237C36.1994 5.66378 36.3754 5.75482 36.503 5.89803C36.6306 6.04123 36.7009 6.22651 36.7002 6.41831V20.3014C36.7002 29.7165 27.142 37.6279 19.9995 39.5417C12.8571 37.6279 3.29883 29.7165 3.29883 20.3015V6.41831C3.29819 6.2265 3.36842 6.04121 3.49602 5.89801C3.62363 5.7548 3.79963 5.66377 3.99024 5.64237ZM5.6425 7.76565V20.3015C5.6425 21.3657 5.7904 22.4204 6.06461 23.448C7.67852 29.496 14.0509 35.2472 19.9987 37.1017C23.7224 35.935 27.4881 33.2296 30.018 30.3774C32.4838 27.5973 34.3565 24.0967 34.3565 20.3015V7.76565C30.691 7.10433 27.2411 5.54222 24.1569 3.448H15.8422C12.758 5.54222 9.30805 7.10433 5.6425 7.76565ZM7.205 9.03542V20.3015C7.205 21.2287 7.33539 22.1499 7.5743 23.0452C9.01516 28.445 14.7314 33.623 19.9973 35.4561C23.2733 34.3085 26.5882 31.8894 28.849 29.3406C31.0527 26.856 32.794 23.6998 32.794 20.3015V9.03542C29.5427 8.26628 26.473 6.84667 23.6827 5.0105H16.3163C13.5261 6.84667 10.4563 8.26628 7.205 9.03542ZM22.5023 11.4428H17.4969C17.3933 11.443 17.2941 11.4842 17.2209 11.5574C17.1477 11.6306 17.1065 11.7299 17.1063 11.8334V15.7942H13.1454C13.0419 15.7945 12.9426 15.8357 12.8694 15.9089C12.7962 15.9821 12.755 16.0813 12.7548 16.1849V21.1902C12.7548 21.4053 12.9302 21.5808 13.1454 21.5808H17.1063V25.5417C17.1063 25.7568 17.2817 25.9323 17.4969 25.9323H22.5023C22.7174 25.9323 22.8929 25.7568 22.8929 25.5417V21.5808H26.8537C27.0688 21.5808 27.2443 21.4053 27.2443 21.1902V16.1849C27.2443 15.9697 27.0688 15.7942 26.8537 15.7942H22.8929V11.8334C22.8927 11.7299 22.8515 11.6306 22.7783 11.5574C22.705 11.4842 22.6058 11.443 22.5023 11.4428Z" fill="#FDFDFD"/>
</svg>
