<svg width="60" height="60" viewBox="0 0 60 60" fill="none" xmlns="http://www.w3.org/2000/svg">
<circle cx="29.9994" cy="29.9999" r="23.5714" stroke="#F37329" stroke-width="4.28571"/>
<circle cx="30" cy="30" r="29.5714" stroke="#F37329" stroke-width="0.857143" stroke-dasharray="1.71 1.71"/>
<path d="M43.6319 33.0249C43.5739 32.6996 43.3895 32.4105 43.119 32.2207C42.8484 32.031 42.5137 31.9561 42.1881 32.0124L43.0569 36.9374C43.2186 36.9088 43.3731 36.8485 43.5115 36.7601C43.6499 36.6717 43.7696 36.5569 43.8636 36.4223C43.9576 36.2876 44.0242 36.1357 44.0595 35.9753C44.0948 35.8149 44.0982 35.6491 44.0694 35.4874L43.6319 33.0249ZM16.5506 37.7999L16.9881 40.2624C17.0518 40.5832 17.2386 40.8662 17.5085 41.0508C17.7784 41.2354 18.1099 41.3069 18.4319 41.2499L17.5631 36.3499C17.4014 36.3786 17.2469 36.4389 17.1085 36.5273C16.9701 36.6157 16.8504 36.7305 16.7564 36.8651C16.6624 36.9998 16.5958 37.1517 16.5605 37.3121C16.5252 37.4725 16.5218 37.6382 16.5506 37.7999ZM26.2506 39.6312C26.0319 38.3812 26.2506 38.8124 25.4131 37.8187C25.1194 37.4749 25.3006 37.1937 25.6569 36.2374C25.3944 34.7624 25.3319 34.9374 26.0381 34.3624L19.2444 34.8687C19.1579 34.8761 19.0739 34.9013 18.9977 34.943C18.9216 34.9846 18.8549 35.0416 18.802 35.1104C18.7491 35.1792 18.7111 35.2582 18.6904 35.3425C18.6697 35.4268 18.6668 35.5145 18.6819 35.5999C19.3069 39.2374 19.0756 37.8374 19.7444 41.6312C19.7588 41.7174 19.7911 41.7997 19.8392 41.8726C19.8874 41.9456 19.9503 42.0076 20.0239 42.0547C20.0976 42.1018 20.1802 42.133 20.2667 42.1462C20.3531 42.1593 20.4413 42.1542 20.5256 42.1312L27.0819 40.2562L26.6506 40.0999C26.5491 40.063 26.4589 40.0004 26.3888 39.9183C26.3187 39.8361 26.2711 39.7372 26.2506 39.6312ZM40.8569 31.6749C40.8425 31.5887 40.8102 31.5065 40.762 31.4335C40.7139 31.3606 40.6509 31.2985 40.5773 31.2514C40.5037 31.2043 40.421 31.1731 40.3346 31.16C40.2482 31.1468 40.1599 31.1519 40.0756 31.1749L33.5194 33.0499L33.9506 33.2062C34.0529 33.2436 34.1436 33.3072 34.2138 33.3905C34.2839 33.4738 34.3311 33.574 34.3506 33.6812C34.5694 34.9312 34.3506 34.4999 35.1881 35.4937C35.4819 35.8374 35.3006 36.1187 34.9444 37.0749C35.2069 38.5499 35.2694 38.3749 34.5569 38.9499L41.3569 38.4374C41.4433 38.4301 41.5273 38.4048 41.6035 38.3632C41.6797 38.3216 41.7463 38.2646 41.7992 38.1958C41.8522 38.127 41.8902 38.0479 41.9109 37.9636C41.9315 37.8793 41.9344 37.7917 41.9194 37.7062C41.2506 33.9187 41.4944 35.3062 40.8569 31.6749ZM30.3131 36.0187C30.2058 36.0182 30.1002 36.0453 30.0064 36.0975C29.9126 36.1497 29.8339 36.2251 29.7777 36.3166C29.7215 36.408 29.6898 36.5124 29.6857 36.6196C29.6816 36.7268 29.7051 36.8333 29.7541 36.9288C29.803 37.0243 29.8757 37.1056 29.9652 37.1648C30.0547 37.2241 30.1579 37.2593 30.265 37.267C30.372 37.2748 30.4792 37.2549 30.5763 37.2092C30.6734 37.1635 30.7571 37.0936 30.8194 37.0062C30.8858 36.9129 30.9253 36.8032 30.9336 36.689C30.9419 36.5748 30.9186 36.4605 30.8664 36.3586C30.8142 36.2567 30.7349 36.1711 30.6374 36.1111C30.5398 36.0512 30.4276 36.0192 30.3131 36.0187Z" fill="#F37329"/>
<path d="M33.1816 34.2313C32.0504 33.8188 32.4066 34.0875 31.5941 33.1187C30.4004 33.3313 30.8441 33.3812 29.6566 32.95C28.7504 33.75 29.1441 33.5562 27.9004 33.75C27.4879 34.8875 27.7566 34.5312 26.7879 35.3438C27.0004 36.5312 27.0504 36.0875 26.6191 37.275C27.4316 38.2437 27.2441 37.8438 27.4379 39.0375C28.5691 39.45 28.2129 39.1813 29.0254 40.15C30.2191 39.9375 29.7754 39.8875 30.9629 40.3187C31.8879 39.5437 31.4754 39.6938 32.7191 39.5C33.1316 38.3687 32.8629 38.725 33.8316 37.9062C33.6191 36.7188 33.5691 37.1625 34.0004 35.975C33.1879 35 33.3941 35.425 33.1816 34.2313ZM31.8754 37.7188C31.699 37.971 31.4631 38.176 31.1888 38.3155C30.9144 38.4551 30.6098 38.5249 30.302 38.5188C29.9943 38.5128 29.6927 38.4311 29.424 38.2809C29.1553 38.1307 28.9277 37.9166 28.7613 37.6576C28.5949 37.3986 28.4949 37.1026 28.47 36.7958C28.4451 36.489 28.4961 36.1807 28.6186 35.8983C28.7411 35.6159 28.9312 35.3679 29.1722 35.1764C29.4132 34.9848 29.6976 34.8556 30.0004 34.8C30.3661 34.7329 30.7436 34.776 31.0848 34.924C31.4259 35.0719 31.7154 35.3179 31.9164 35.6308C32.1174 35.9437 32.2208 36.3092 32.2135 36.681C32.2062 37.0528 32.0885 37.414 31.8754 37.7188ZM32.2754 40.8687C31.4691 41.5437 31.2879 41.7875 30.8754 41.6375C29.6691 41.1937 30.0879 41.25 29.2441 41.4L29.5504 43.125L31.2879 42.1813L33.2441 42.475L32.9379 40.75L32.2754 40.8687ZM30.6254 21.875C30.6254 21.7092 30.5595 21.5503 30.4423 21.4331C30.3251 21.3158 30.1662 21.25 30.0004 21.25C29.8346 21.25 29.6757 21.3158 29.5584 21.4331C29.4412 21.5503 29.3754 21.7092 29.3754 21.875C29.3754 22.0408 29.4412 22.1997 29.5584 22.3169C29.6757 22.4342 29.8346 22.5 30.0004 22.5C30.1662 22.5 30.3251 22.4342 30.4423 22.3169C30.5595 22.1997 30.6254 22.0408 30.6254 21.875Z" fill="#F37329"/>
<path d="M28.1875 21.4188C28.2955 20.9901 28.5514 20.6134 28.9101 20.3551C29.2689 20.0968 29.7073 19.9735 30.1481 20.0071C30.5889 20.0406 31.0036 20.2288 31.3191 20.5385C31.6346 20.8481 31.8305 21.2593 31.8723 21.6993C31.9141 22.1394 31.7991 22.5801 31.5476 22.9436C31.296 23.3071 30.9242 23.57 30.4976 23.686C30.071 23.802 29.6172 23.7635 29.2162 23.5773C28.8153 23.3912 28.493 23.0694 28.3063 22.6688L20.1813 23.4625L30 26.875L44.375 21.875L30 16.875L15.625 21.875L18.1625 22.7562C18.3375 22.225 18.0375 22.4063 28.1875 21.4188ZM19.375 26.3312V24.5062L18.125 24.0688V26.3312C18.5349 26.2254 18.9651 26.2254 19.375 26.3312Z" fill="#F37329"/>
<path d="M22.8062 25.6938L21.875 33.1251L22.6312 33.3438C27.1625 33.0063 26.825 33.0626 26.85 33.0001C26.9937 32.5876 27.2688 32.6126 28.3375 32.4251C29.175 31.7251 29.325 31.5001 29.7437 31.6501C30.9062 32.0751 30.45 32.0563 31.7313 31.8251C31.8472 31.8014 31.9675 31.8112 32.0782 31.8532C32.1888 31.8953 32.2853 31.9679 32.3563 32.0626L37.8187 30.5188L37.1937 25.6938L30 28.2001L22.8062 25.6938ZM17.5 28.7501V31.2501H20V28.7501C20 28.4186 19.8683 28.1006 19.6339 27.8662C19.3995 27.6318 19.0815 27.5001 18.75 27.5001C18.4185 27.5001 18.1005 27.6318 17.8661 27.8662C17.6317 28.1006 17.5 28.4186 17.5 28.7501Z" fill="#F37329"/>
</svg>
