<svg width="60" height="60" viewBox="0 0 60 60" fill="none" xmlns="http://www.w3.org/2000/svg">
<circle cx="29.9994" cy="29.9999" r="23.5714" stroke="#F37329" stroke-width="4.28571"/>
<circle cx="30" cy="30" r="29.5714" stroke="#F37329" stroke-width="0.857143" stroke-dasharray="1.71 1.71"/>
<path fill-rule="evenodd" clip-rule="evenodd" d="M43.519 27.3659C43.3879 27.0911 42.467 27.275 42.4029 27.7127C42.0203 30.3169 40.5329 34.505 36.2488 36.0444C36.1329 36.0847 36.0058 36.0779 35.8948 36.0254C35.7839 35.9729 35.698 35.8789 35.6557 35.7637C35.6133 35.6485 35.6179 35.5213 35.6684 35.4094C35.7189 35.2976 35.8114 35.2101 35.9258 35.1657C36.6584 34.8904 38.336 33.4057 38.9986 32.2759C39.0903 32.119 39.1615 31.9711 39.2008 31.8353C39.2251 31.7511 39.2626 31.6794 39.2219 31.627C39.2143 31.6176 39.2051 31.6097 39.1948 31.6035C39.1737 31.597 39.153 31.589 39.133 31.5797C39.1151 31.5748 39.0971 31.5705 39.079 31.5666C38.9826 31.5436 38.8665 31.5338 38.7288 31.5348C38.4344 31.537 38.051 31.7454 37.4849 32.0385C36.7053 32.4421 35.6462 33.0231 34.168 33.6449C33.2363 34.0376 32.4595 34.7257 31.9573 35.6033L31.9544 35.602C31.3598 36.6414 31.2442 37.1461 31.0448 37.9669C30.857 38.7404 30.8195 40.195 30.821 41.2223H30.5662C30.4421 41.2224 30.323 41.2717 30.2352 41.3595C30.1474 41.4473 30.0981 41.5663 30.098 41.6905V43.0951C30.098 43.3535 30.3078 43.5633 30.5662 43.5633H35.2483C35.5067 43.5633 35.7165 43.3535 35.7165 43.0951V41.6905C35.7165 41.4321 35.5067 41.2223 35.2483 41.2223H35.1897C35.2085 40.9704 35.2446 40.7059 35.3105 40.4643C35.3766 40.2232 35.4594 40.0007 35.6242 39.8884C35.7456 39.8056 36.1069 39.5634 36.3026 39.4497C38.2466 38.318 40.5923 36.919 41.6219 34.5097C42.5896 32.2435 43.2915 29.3085 43.3393 29.1052V29.1061L43.3402 29.1029L43.3393 29.1052C43.4648 28.6707 43.6632 27.6673 43.519 27.3659ZM16.4644 27.3659C16.5956 27.0911 17.5165 27.275 17.5806 27.7127C17.9632 30.3169 19.4506 34.505 23.7347 36.0444C23.8506 36.0847 23.9777 36.0779 24.0887 36.0254C24.1996 35.9729 24.2855 35.8789 24.3278 35.7637C24.3702 35.6485 24.3656 35.5213 24.3151 35.4094C24.2646 35.2976 24.1721 35.2101 24.0577 35.1657C23.3251 34.8904 21.6475 33.4057 20.9849 32.2759C20.8932 32.119 20.822 31.9711 20.7826 31.8353C20.7584 31.7511 20.7208 31.6794 20.7616 31.627C20.7692 31.6176 20.7784 31.6097 20.7887 31.6035C20.8098 31.597 20.8304 31.589 20.8505 31.5797C20.8674 31.575 20.8852 31.5707 20.9044 31.5666C21.0008 31.5436 21.117 31.5338 21.2547 31.5348C21.549 31.537 21.9325 31.7454 22.4986 32.0385C23.2782 32.4421 24.3373 33.0231 25.8155 33.6449C26.7472 34.0376 27.524 34.7257 28.0262 35.6033L28.029 35.602C28.6237 36.6414 28.7393 37.1461 28.9387 37.9669C29.1265 38.7404 29.164 40.195 29.1625 41.2223H29.4173C29.6757 41.2223 29.8855 41.4321 29.8855 41.6905V43.0951C29.8855 43.3535 29.6757 43.5633 29.4173 43.5633H24.7352C24.6111 43.5632 24.492 43.5139 24.4042 43.4261C24.3164 43.3383 24.2671 43.2193 24.267 43.0951V41.6905C24.267 41.4321 24.4768 41.2223 24.7352 41.2223H24.7938C24.775 40.9704 24.7389 40.7059 24.673 40.4643C24.6069 40.2232 24.5241 40.0007 24.3593 39.8884C24.2379 39.8056 23.8766 39.5634 23.6808 39.4497C21.7369 38.318 19.3912 36.919 18.3616 34.5097C17.3939 32.2435 16.692 29.3085 16.6442 29.1052V29.1061L16.6433 29.1029L16.6442 29.1052C16.5187 28.6707 16.3203 27.6673 16.4644 27.3659ZM34.7801 42.6269H31.0344V42.1587H34.7801V42.6269ZM25.2034 42.6269H28.949V42.1587H25.2034V42.6269ZM29.7135 32.4988C29.7941 32.5581 29.8916 32.5901 29.9917 32.5901C30.0918 32.5901 30.1892 32.5581 30.2698 32.4988C33.0847 30.4227 35.8013 28.4156 37.4769 26.1424C39.6901 23.1394 39.5792 19.5768 37.4067 17.6899C35.3382 15.8935 32.0022 15.9571 29.9917 18.0739C27.9813 15.9572 24.6453 15.8935 22.5768 17.6899C20.4043 19.5768 20.2934 23.1394 22.5066 26.1424C24.1823 28.4156 26.8987 30.4227 29.7137 32.4987L29.7135 32.4988ZM35.6349 31.9402C36.1257 31.6958 36.5457 31.473 36.9079 31.2838C37.1843 30.6671 37.4437 29.9081 37.6468 29.2532C37.6131 29.2527 37.5776 29.2532 37.5415 29.2554C37.2961 29.2705 37.0953 29.3075 36.8982 29.4367C36.6608 29.5931 36.4004 29.9236 36.1079 30.7524C35.9585 31.1751 35.788 31.5899 35.6349 31.9402ZM24.3485 31.9402C23.8578 31.6958 23.4378 31.473 23.0755 31.2838C22.7993 30.6671 22.5398 29.9081 22.3367 29.2532C22.3704 29.2527 22.4059 29.2532 22.442 29.2554C22.6874 29.2705 22.8882 29.3075 23.0853 29.4367C23.3226 29.5931 23.5831 29.9236 23.8756 30.7524C24.025 31.1751 24.1953 31.5899 24.3485 31.9402ZM41.4501 27.7493C41.3217 27.6669 40.6831 27.9502 40.6325 28.2002C40.4341 29.1839 40.1452 29.8997 39.6961 30.86C39.8961 30.9827 40.1293 31.3259 40.155 31.5221C40.8905 30.2247 41.2726 28.8477 41.4501 27.7493ZM18.5334 27.7493C18.6617 27.6669 19.3004 27.9502 19.351 28.2002C19.5494 29.1839 19.8383 29.8997 20.2874 30.86C20.0874 30.9827 19.8542 31.3259 19.8285 31.5221C19.093 30.2247 18.7108 28.8477 18.5334 27.7493ZM38.9948 28.5921C38.9311 28.6197 38.8744 28.6611 38.8288 28.7134C38.7831 28.7656 38.7496 28.8273 38.7307 28.8941C38.5851 29.3907 38.4053 29.993 38.1441 30.7112C38.3646 30.6377 38.5551 30.5997 38.7214 30.5984C38.8511 30.5974 38.9152 30.6012 38.9939 30.6133C39.2813 30.0018 39.4653 29.1947 39.6068 28.5527C39.6194 28.4951 39.4944 28.4577 39.2982 28.4961C39.2083 28.5134 39.1132 28.5354 38.9948 28.5921ZM20.9887 28.5921C21.0524 28.6197 21.1091 28.6611 21.1547 28.7134C21.2004 28.7656 21.2339 28.8273 21.2528 28.8941C21.3984 29.3907 21.5782 29.993 21.8394 30.7112C21.6189 30.6377 21.4284 30.5997 21.2621 30.5984C21.1324 30.5974 21.0683 30.6012 20.9896 30.6133C20.7022 30.0018 20.5181 29.1947 20.3767 28.5527C20.3641 28.4951 20.489 28.4577 20.6853 28.4961C20.7752 28.5134 20.8703 28.5354 20.9887 28.5921ZM31.8646 22.026V20.1532C31.8646 19.8948 31.6548 19.685 31.3964 19.685H28.5871C28.463 19.6851 28.3439 19.7344 28.2561 19.8222C28.1683 19.91 28.119 20.029 28.1189 20.1532V22.026H26.2461C26.122 22.0261 26.0029 22.0754 25.9151 22.1632C25.8273 22.251 25.778 22.37 25.7779 22.4942V25.3034C25.7779 25.5618 25.9877 25.7716 26.2461 25.7716H28.1189V27.6444C28.1189 27.9029 28.3287 28.1126 28.5871 28.1126H31.3964C31.6548 28.1126 31.8646 27.9029 31.8646 27.6444V25.7716H33.7374C33.9958 25.7716 34.2056 25.5618 34.2056 25.3034V22.4942C34.2056 22.2358 33.9958 22.026 33.7374 22.026H31.8646ZM30.9282 22.4942C30.9282 22.7526 31.1379 22.9624 31.3964 22.9624H33.2692V24.8352H31.3964C31.2722 24.8353 31.1531 24.8846 31.0653 24.9724C30.9776 25.0602 30.9282 25.1793 30.9282 25.3034V27.1762H29.0553V25.3034C29.0553 25.045 28.8456 24.8352 28.5871 24.8352H26.7143V22.9624H28.5871C28.8456 22.9624 29.0553 22.7526 29.0553 22.4942V20.6214H30.9282V22.4942Z" fill="#F37329"/>
</svg>
