<svg width="60" height="60" viewBox="0 0 60 60" fill="none" xmlns="http://www.w3.org/2000/svg">
<circle cx="29.7143" cy="29.7143" r="23.5714" stroke="#F37329" stroke-width="4.28571"/>
<circle cx="30" cy="30" r="29.5714" stroke="#F37329" stroke-width="0.857143" stroke-dasharray="1.71 1.71"/>
<g clip-path="url(#clip0_491_7119)">
<path fill-rule="evenodd" clip-rule="evenodd" d="M33.2578 28.3504L35.5441 30.7134L34.3657 31.8789L32.3728 28.6564C32.6629 28.5407 32.9582 28.4386 33.2578 28.3504ZM40.6199 28.9933L38.3178 32.7159C38.1938 32.9625 37.8623 33.0204 37.6629 32.8232L36.1201 31.2973L34.5772 32.8232C34.3779 33.0204 34.0464 32.9625 33.9224 32.7159L31.6203 28.9933C30.1286 29.7353 28.8461 30.8347 27.8847 32.1795V32.2317C28.0132 32.2741 28.1369 32.3298 28.2539 32.3979C28.8222 32.726 29.1204 33.2447 29.1812 33.89C29.1901 33.9837 29.2355 34.0431 29.3238 34.0758C29.9103 34.2937 30.3257 34.6949 30.5066 35.2927L34.7778 37.1384H44.3555V32.1794C43.3941 30.8347 42.1115 29.7354 40.6199 28.9933ZM36.6961 30.7134L37.8745 31.8789L39.8674 28.6564C39.5773 28.5407 39.282 28.4386 38.9824 28.3504L36.6961 30.7134ZM40.4332 22.8552C39.1226 23.4726 37.6739 23.777 36.2233 23.777C34.7021 23.777 33.183 23.4422 31.8231 22.7628C31.7736 23.0284 31.7487 23.298 31.7488 23.5682C31.7488 25.9823 33.7057 27.9394 36.1197 27.9395C35.4683 27.9393 34.8184 28.0017 34.1789 28.1259L36.1201 30.1323L38.0614 28.1259C37.4219 28.0017 36.772 27.9393 36.1205 27.9395C38.5346 27.9393 40.4915 25.9823 40.4915 23.5682C40.4915 23.3254 40.4714 23.0873 40.4333 22.8552H40.4332ZM40.8133 19.6993L36.8176 20.7699C36.4175 20.8772 36.0291 20.8772 35.629 20.7699L31.6333 19.6993V21.7239C32.9257 22.4997 34.5106 22.9568 36.2233 22.9568C37.9361 22.9568 39.5209 22.4998 40.8134 21.7239V19.6993H40.8133ZM28.974 18.1376L35.8412 19.9777C36.103 20.0478 36.3435 20.0478 36.6052 19.9777L42.6912 18.347V20.6652C42.5766 20.7353 42.482 20.8337 42.4163 20.9509C42.3507 21.0682 42.3162 21.2003 42.3163 21.3346C42.3163 21.6306 42.4801 21.8882 42.722 22.022L42.5238 22.4479C42.4187 22.6738 42.3715 22.8871 42.3715 23.1361V24.3677C42.3715 24.6026 42.5637 24.7949 42.7987 24.7949H43.4591C43.6941 24.7949 43.8863 24.6027 43.8863 24.3677V23.1361C43.8863 22.887 43.8392 22.6738 43.734 22.4479L43.5239 21.9964C43.6351 21.9254 43.7266 21.8276 43.7899 21.712C43.8532 21.5963 43.8864 21.4665 43.8863 21.3347C43.8863 21.0514 43.7363 20.8033 43.5114 20.6652V18.237C43.5115 18.2008 43.5067 18.1648 43.4971 18.1299C43.6211 18.0859 43.7028 17.9714 43.7028 17.8374C43.7028 17.6948 43.6102 17.5741 43.4725 17.5372L36.6052 15.6971C36.3434 15.627 36.1029 15.627 35.8412 15.6971L28.9739 17.5372C28.8362 17.5741 28.7437 17.6948 28.7437 17.8374C28.7437 17.98 28.8362 18.1006 28.9739 18.1375L28.974 18.1376ZM21.5072 36.1703C21.5672 36.0978 21.577 36.0236 21.5378 35.9381C21.2678 35.3487 21.2667 34.7505 21.5949 34.1821C21.923 33.6138 22.4417 33.3156 23.087 33.2548C23.1806 33.2459 23.2401 33.2004 23.2728 33.1123C23.393 32.7888 23.5689 32.5174 23.8028 32.3086L20.8435 30.1084C20.8538 30.2855 20.8499 30.4634 20.8351 30.6367C20.7564 31.5545 20.3865 32.503 19.9289 33.2956C19.4713 34.0882 18.8349 34.8828 18.0794 35.4098C17.9346 35.5111 17.7828 35.602 17.625 35.6815L21.0546 37.1638C21.1003 36.8068 21.2565 36.4732 21.5072 36.1703ZM35.4332 38.3151L30.5561 36.2077C30.4921 36.515 30.3452 36.8035 30.1258 37.0686C30.0658 37.1411 30.056 37.2153 30.0952 37.3009C30.3652 37.8902 30.3663 38.4885 30.0381 39.0568C29.71 39.6252 29.1913 39.9234 28.546 39.9842C28.4523 39.993 28.3929 40.0385 28.3602 40.1267C28.2228 40.4963 28.0127 40.7979 27.7265 41.0158L32.0278 44.2134C32.9123 44.7234 34.3914 43.817 35.3316 42.1884C36.2719 40.5598 36.3174 38.8256 35.4331 38.3151H35.4332ZM25.1351 40.8981C24.8278 41.0389 24.518 41.1066 24.2113 41.0925L23.8398 43.1431L25.0662 42.366L26.0512 43.4328L26.2203 41.3573C25.916 41.2925 25.6302 41.1463 25.3674 40.9288C25.2948 40.8688 25.2207 40.8589 25.1351 40.8981ZM22.3092 39.1631C21.9924 39.0454 21.7255 38.8742 21.5186 38.6474L19.8059 39.8347L21.2226 40.1524L21.1648 41.6032L22.7514 40.2556C22.5822 39.995 22.484 39.6896 22.4519 39.349C22.443 39.2553 22.3975 39.1959 22.3092 39.1631ZM27.5912 39.8411C27.4588 40.1976 27.2427 40.4348 26.8658 40.5358C26.4888 40.6368 26.1833 40.5394 25.8903 40.2969C25.5752 40.0361 25.1652 39.9821 24.7934 40.1525C24.4476 40.3109 24.1272 40.3259 23.7893 40.1308C23.4513 39.9357 23.304 39.6507 23.2684 39.272C23.23 38.8648 22.9783 38.5367 22.5948 38.3943C22.2384 38.2619 22.0012 38.0458 21.9001 37.669C21.7991 37.292 21.8966 36.9864 22.139 36.6934C22.3998 36.3783 22.4538 35.9683 22.2835 35.5965C22.1251 35.2507 22.11 34.9303 22.3051 34.5923C22.5003 34.2544 22.7853 34.1071 23.1639 34.0715C23.5711 34.0331 23.8992 33.7814 24.0416 33.398C24.174 33.0415 24.3901 32.8042 24.767 32.7033C25.1439 32.6023 25.4495 32.6997 25.7425 32.9422C26.0575 33.203 26.4675 33.2569 26.8394 33.0866C27.1851 32.9282 27.5056 32.9132 27.8435 33.1083C28.1815 33.3034 28.3287 33.5884 28.3644 33.967C28.4028 34.3742 28.6545 34.7023 29.0379 34.8448C29.3943 34.9771 29.6316 35.1933 29.7326 35.5701C29.8336 35.9471 29.7362 36.2526 29.4937 36.5457C29.2329 36.8607 29.1789 37.2707 29.3493 37.6425C29.5077 37.9883 29.5227 38.3088 29.3275 38.6467C29.1324 38.9847 28.8474 39.1319 28.4688 39.1676C28.0616 39.2059 27.7335 39.4577 27.5911 39.8411H27.5912ZM26.7925 34.9289C25.8588 34.3898 24.6649 34.7098 24.1259 35.6434C23.5869 36.5771 23.9068 37.771 24.8404 38.31C25.7741 38.8491 26.968 38.5292 27.5071 37.5955C28.0462 36.6618 27.7262 35.468 26.7925 34.9289ZM16.1346 35.0368C15.3716 34.5963 15.5154 32.9189 16.4556 31.2903C17.3959 29.6617 18.7767 28.6985 19.5396 29.139C20.3026 29.5795 20.1588 31.2569 19.2186 32.8855C18.2783 34.5141 16.8975 35.4773 16.1346 35.0368ZM18.7544 32.6175C19.4652 31.3863 19.6308 30.1511 19.1242 29.8586C18.6176 29.5661 17.6306 30.3271 16.9198 31.5582C16.209 32.7894 16.0435 34.0246 16.5501 34.3171C17.0568 34.6096 18.0436 33.8487 18.7544 32.6175Z" fill="#F37329"/>
</g>
<defs>
<clipPath id="clip0_491_7119">
<rect width="30" height="30" fill="white" transform="translate(15 15)"/>
</clipPath>
</defs>
</svg>
