<svg width="40" height="40" viewBox="0 0 40 40" fill="none" xmlns="http://www.w3.org/2000/svg">
<path fill-rule="evenodd" clip-rule="evenodd" d="M38.0248 16.4882C37.8499 16.1217 36.6221 16.367 36.5365 16.9506C36.0264 20.4229 34.0432 26.007 28.3311 28.0596C28.1765 28.1133 28.007 28.1042 27.8591 28.0342C27.7112 27.9642 27.5967 27.8389 27.5402 27.6853C27.4838 27.5317 27.4899 27.3621 27.5572 27.2129C27.6246 27.0638 27.7478 26.9471 27.9004 26.8879C28.8772 26.5208 31.114 24.5412 31.9975 23.0348C32.1197 22.8257 32.2147 22.6284 32.2671 22.4474C32.2995 22.3351 32.3495 22.2395 32.2952 22.1697C32.2851 22.1572 32.2729 22.1466 32.2591 22.1384C32.2309 22.1296 32.2034 22.119 32.1767 22.1066C32.1529 22.1001 32.1289 22.0943 32.1048 22.0891C31.9762 22.0585 31.8213 22.0453 31.6378 22.0467C31.2453 22.0497 30.734 22.3276 29.9792 22.7183C28.9398 23.2564 27.5277 24.0311 25.5567 24.8602C24.3144 25.3838 23.2787 26.3013 22.609 27.4714L22.6053 27.4696C21.8125 28.8555 21.6583 29.5285 21.3924 30.6229C21.1421 31.6542 21.092 33.5936 21.094 34.9634H20.7543C20.5888 34.9635 20.4301 35.0293 20.313 35.1463C20.1959 35.2634 20.1301 35.4221 20.1301 35.5877V37.4605C20.1301 37.805 20.4098 38.0847 20.7543 38.0847H26.997C27.3416 38.0847 27.6213 37.805 27.6213 37.4605V35.5877C27.6213 35.2431 27.3416 34.9634 26.997 34.9634H26.919C26.944 34.6275 26.9921 34.2748 27.08 33.9527C27.1681 33.6312 27.2785 33.3346 27.4983 33.1848C27.6601 33.0744 28.1419 32.7515 28.4029 32.5999C30.9948 31.091 34.1224 29.2257 35.4952 26.0133C36.7855 22.9917 37.7214 19.0783 37.7851 18.8073V18.8085L37.7863 18.8041L37.7851 18.8073C37.9524 18.228 38.217 16.8901 38.0248 16.4882ZM1.95194 16.4882C2.12677 16.1217 3.35464 16.367 3.44018 16.9506C3.95029 20.4229 5.93351 26.007 11.6456 28.0596C11.8001 28.1133 11.9696 28.1042 12.1176 28.0342C12.2655 27.9642 12.38 27.8389 12.4365 27.6853C12.4929 27.5317 12.4868 27.3621 12.4195 27.2129C12.3521 27.0638 12.2289 26.9471 12.0763 26.8879C11.0995 26.5208 8.86265 24.5412 7.97921 23.0348C7.85696 22.8257 7.76198 22.6284 7.70954 22.4474C7.67718 22.3351 7.62715 22.2395 7.68153 22.1697C7.6916 22.1572 7.70383 22.1466 7.71763 22.1384C7.7458 22.1297 7.77321 22.119 7.80003 22.1066C7.8225 22.1003 7.84632 22.0946 7.87194 22.0891C8.00048 22.0585 8.15539 22.0453 8.33891 22.0467C8.73142 22.0497 9.24273 22.3276 9.99748 22.7183C11.0369 23.2564 12.449 24.0311 14.42 24.8602C15.6623 25.3838 16.698 26.3013 17.3677 27.4714L17.3714 27.4696C18.1642 28.8555 18.3184 29.5285 18.5843 30.6229C18.8346 31.6542 18.8847 33.5936 18.8827 34.9634H19.2224C19.5669 34.9634 19.8466 35.2431 19.8466 35.5877V37.4605C19.8466 37.805 19.5669 38.0847 19.2224 38.0847H12.9797C12.8141 38.0847 12.6554 38.0189 12.5383 37.9018C12.4213 37.7847 12.3555 37.626 12.3554 37.4605V35.5877C12.3554 35.2431 12.6351 34.9634 12.9797 34.9634H13.0577C13.0327 34.6275 12.9846 34.2748 12.8967 33.9527C12.8086 33.6312 12.6982 33.3346 12.4784 33.1848C12.3166 33.0744 11.8348 32.7515 11.5738 32.5999C8.9819 31.091 5.85426 29.2257 4.48153 26.0133C3.19119 22.9917 2.25531 19.0783 2.19164 18.8073V18.8085L2.19044 18.8041L2.19164 18.8073C2.0243 18.228 1.75973 16.8901 1.95194 16.4882ZM26.3728 36.8362H21.3786V36.2119H26.3728V36.8362ZM13.6039 36.8362H18.5981V36.2119H13.6039V36.8362ZM19.6174 23.3321C19.7249 23.4112 19.8548 23.4538 19.9883 23.4538C20.1217 23.4538 20.2517 23.4112 20.3591 23.3321C24.1122 20.564 27.7344 17.8877 29.9686 14.8569C32.9194 10.8528 32.7716 6.10271 29.8749 3.5869C27.1169 1.1917 22.6689 1.27649 19.9883 4.09881C17.3077 1.27664 12.8598 1.1917 10.1018 3.5869C7.20512 6.10271 7.05726 10.8528 10.0081 14.8569C12.2424 17.8877 15.8643 20.564 19.6176 23.3319L19.6174 23.3321ZM27.5125 22.5872C28.1669 22.2614 28.7269 21.9643 29.2099 21.712C29.5785 20.8898 29.9242 19.8778 30.1951 19.0046C30.1501 19.004 30.1028 19.0046 30.0547 19.0076C29.7275 19.0277 29.4598 19.0769 29.1969 19.2492C28.8805 19.4578 28.5332 19.8985 28.1433 21.0035C27.944 21.5671 27.7167 22.1202 27.5125 22.5872ZM12.464 22.5872C11.8098 22.2614 11.2498 21.9643 10.7666 21.712C10.3984 20.8898 10.0525 19.8778 9.7816 19.0046C9.82655 19.004 9.87389 19.0046 9.92198 19.0076C10.2492 19.0277 10.5169 19.0769 10.7798 19.2492C11.0962 19.4578 11.4435 19.8985 11.8334 21.0035C12.0327 21.5671 12.2598 22.1202 12.464 22.5872ZM35.2661 16.9993C35.095 16.8895 34.2435 17.2672 34.1761 17.6005C33.9115 18.9121 33.5263 19.8666 32.9275 21.1471C33.1942 21.3106 33.5051 21.7682 33.5394 22.0297C34.52 20.2999 35.0295 18.4639 35.2661 16.9993ZM4.71059 16.9993C4.88168 16.8895 5.73321 17.2672 5.80063 17.6005C6.0652 18.9121 6.45037 19.8666 7.04917 21.1471C6.7825 21.3106 6.47164 21.7682 6.43733 22.0297C5.45666 20.2999 4.94714 18.4639 4.71059 16.9993ZM31.9924 18.1231C31.9075 18.1599 31.8319 18.2152 31.771 18.2848C31.7101 18.3544 31.6655 18.4368 31.6403 18.5258C31.4462 19.188 31.2065 19.9909 30.8582 20.9486C31.1521 20.8506 31.4062 20.7999 31.6279 20.7981C31.8008 20.7968 31.8863 20.8019 31.9912 20.8181C32.3744 20.0028 32.6198 18.9265 32.8084 18.0706C32.8252 17.9938 32.6586 17.9439 32.3969 17.9951C32.277 18.0182 32.1503 18.0476 31.9924 18.1231ZM7.9843 18.1231C8.06916 18.1599 8.14477 18.2152 8.20566 18.2848C8.26654 18.3544 8.31119 18.4368 8.33636 18.5258C8.53052 19.188 8.77022 19.9909 9.11853 20.9486C8.8246 20.8506 8.57052 20.7999 8.34879 20.7981C8.17591 20.7968 8.09037 20.8019 7.9855 20.8181C7.60228 20.0028 7.35688 18.9265 7.16827 18.0706C7.15149 17.9938 7.31808 17.9439 7.5798 17.9951C7.69965 18.0182 7.8264 18.0476 7.9843 18.1231ZM22.4854 9.36833V6.87125C22.4854 6.52668 22.2057 6.24698 21.8612 6.24698H18.1155C17.95 6.24706 17.7913 6.31286 17.6742 6.42991C17.5571 6.54697 17.4913 6.70571 17.4913 6.87125V9.36833H14.9942C14.8286 9.36841 14.6699 9.4342 14.5528 9.55126C14.4358 9.66832 14.37 9.82705 14.3699 9.9926V13.7382C14.3699 14.0828 14.6496 14.3625 14.9942 14.3625H17.4913V16.8596C17.4913 17.2041 17.771 17.4838 18.1155 17.4838H21.8612C22.2057 17.4838 22.4854 17.2041 22.4854 16.8596V14.3625H24.9825C25.3271 14.3625 25.6068 14.0828 25.6068 13.7382V9.9926C25.6068 9.64803 25.3271 9.36833 24.9825 9.36833H22.4854ZM21.2369 9.9926C21.2369 10.3372 21.5166 10.6169 21.8612 10.6169H24.3582V13.1139H21.8612C21.6956 13.114 21.5369 13.1798 21.4198 13.2969C21.3028 13.4139 21.237 13.5727 21.2369 13.7382V16.2353H18.7398V13.7382C18.7398 13.3936 18.4601 13.1139 18.1155 13.1139H15.6185V10.6169H18.1155C18.4601 10.6169 18.7398 10.3372 18.7398 9.9926V7.49552H21.2369V9.9926Z" fill="black"/>
</svg>
