<svg width="40" height="41" viewBox="0 0 40 41" fill="none" xmlns="http://www.w3.org/2000/svg">
<path fill-rule="evenodd" clip-rule="evenodd" d="M3.99024 5.64262C8.36875 5.13566 12.1862 3.18902 15.1069 1.10449H24.8921C27.8129 3.18902 31.6302 5.13566 36.0088 5.64262C36.1994 5.66403 36.3754 5.75507 36.503 5.89827C36.6306 6.04147 36.7009 6.22675 36.7002 6.41855V20.3017C36.7002 29.7168 27.142 37.6282 19.9995 39.542C12.8571 37.6282 3.29883 29.7168 3.29883 20.3018V6.41855C3.29819 6.22675 3.36842 6.04146 3.49602 5.89825C3.62363 5.75504 3.79963 5.66401 3.99024 5.64262ZM5.6425 7.7659V20.3018C5.6425 21.3659 5.7904 22.4207 6.06461 23.4482C7.67852 29.4962 14.0509 35.2475 19.9987 37.102C23.7224 35.9353 27.488 33.2299 30.018 30.3776C32.4838 27.5975 34.3565 24.0969 34.3565 20.3018V7.7659C30.691 7.10457 27.2411 5.54246 24.1569 3.44824H15.8422C12.758 5.54246 9.30805 7.10457 5.6425 7.7659ZM7.205 9.03566V20.3018C7.205 21.2289 7.33539 22.1501 7.5743 23.0454C9.01516 28.4452 14.7314 33.6232 19.9973 35.4564C23.2733 34.3087 26.5882 31.8896 28.849 29.3408C31.0527 26.8562 32.794 23.7 32.794 20.3018V9.03566C29.5427 8.26652 26.473 6.84691 23.6827 5.01074H16.3163C13.5261 6.84691 10.4563 8.26652 7.205 9.03566ZM22.5023 11.443H17.4969C17.3933 11.4432 17.2941 11.4844 17.2209 11.5576C17.1477 11.6309 17.1065 11.7301 17.1063 11.8336V15.7945H13.1454C13.0419 15.7947 12.9426 15.8359 12.8694 15.9091C12.7962 15.9823 12.755 16.0816 12.7548 16.1851V21.1904C12.7548 21.4056 12.9302 21.5811 13.1454 21.5811H17.1063V25.5419C17.1063 25.7571 17.2817 25.9325 17.4969 25.9325H22.5023C22.7174 25.9325 22.8929 25.7571 22.8929 25.5419V21.5811H26.8537C27.0688 21.5811 27.2443 21.4056 27.2443 21.1904V16.1851C27.2443 15.97 27.0688 15.7945 26.8537 15.7945H22.8929V11.8336C22.8927 11.7301 22.8515 11.6309 22.7783 11.5576C22.705 11.4844 22.6058 11.4432 22.5023 11.443Z" fill="#FDFDFD"/>
</svg>
