<svg width="40" height="40" viewBox="0 0 40 40" fill="none" xmlns="http://www.w3.org/2000/svg">
<path d="M26.3832 35.0508H6.73219C6.10234 35.0508 5.5918 35.5614 5.5918 36.1912C5.5918 37.5019 6.65984 38.5699 7.97047 38.5699H28.5662C27.9237 37.9784 27.5237 37.1316 27.5237 36.1912C27.5237 35.5614 27.013 35.0508 26.3832 35.0508Z" fill="black"/>
<path d="M31.6628 31.093C31.3479 31.0934 31.0449 30.9731 30.816 30.7568C30.565 30.5271 30.4288 30.2037 30.4288 29.859V26.0547H30.3692C29.1395 26.0547 28.1437 25.0547 28.1437 23.8292V22.8887L27.4798 22.2249C27.0585 21.8036 26.8288 21.2461 26.8288 20.6504C26.8288 20.0589 27.0585 19.4972 27.4798 19.0802L28.1437 18.4164V17.4802C28.1437 16.2504 29.1394 15.2546 30.3692 15.2546H31.3097L31.9735 14.5908C32.2841 14.276 32.6835 14.0637 33.1182 13.9823V11.0887C33.1182 10.1712 33.491 9.38176 34.1607 8.70996H21.9564V12.8206C21.9564 13.7355 21.3691 14.544 20.5011 14.8418C18.0415 15.6844 15.5437 16.11 13.0798 16.11C11.982 16.11 10.8798 16.0249 9.77344 15.8589V34.1993H26.382C27.4798 34.1993 28.3734 35.0929 28.3734 36.1908C28.3734 37.5015 29.4458 38.5696 30.7522 38.5696C32.0585 38.5653 33.1181 37.5014 33.1181 36.1908V30.1227L32.5394 30.7185C32.3054 30.9568 31.9948 31.093 31.6628 31.093ZM12.7138 20.2656H23.0327C23.1899 20.2656 23.3406 20.328 23.4517 20.4391C23.5628 20.5502 23.6252 20.7009 23.6252 20.8581C23.6252 21.0152 23.5628 21.1659 23.4517 21.277C23.3406 21.3882 23.1899 21.4506 23.0327 21.4506H12.7138C12.5567 21.4506 12.406 21.3882 12.2949 21.277C12.1838 21.1659 12.1213 21.0152 12.1213 20.8581C12.1213 20.7009 12.1838 20.5502 12.2949 20.4391C12.406 20.328 12.5567 20.2656 12.7138 20.2656ZM12.1213 24.3418C12.1213 24.1847 12.1838 24.034 12.2949 23.9229C12.406 23.8118 12.5567 23.7493 12.7138 23.7493H23.0327C23.1882 23.7519 23.3365 23.8154 23.4455 23.9262C23.5546 24.0371 23.6157 24.1863 23.6157 24.3418C23.6157 24.4973 23.5546 24.6466 23.4455 24.7574C23.3365 24.8683 23.1882 24.9318 23.0327 24.9343H12.7138C12.5567 24.9343 12.406 24.8719 12.2949 24.7608C12.1838 24.6497 12.1213 24.499 12.1213 24.3418ZM28.3873 31.3093C28.3873 31.4665 28.3249 31.6172 28.2138 31.7283C28.1027 31.8394 27.952 31.9018 27.7948 31.9018H12.7138C12.5584 31.8993 12.4101 31.8358 12.301 31.7249C12.192 31.6141 12.1309 31.4648 12.1309 31.3093C12.1309 31.1538 12.192 31.0046 12.301 30.8937C12.4101 30.7829 12.5584 30.7194 12.7138 30.7168H27.7948C27.952 30.7169 28.1027 30.7793 28.2138 30.8904C28.3249 31.0015 28.3873 31.1522 28.3873 31.3093ZM27.7948 28.4181H12.7138C12.5567 28.4181 12.406 28.3557 12.2949 28.2445C12.1838 28.1334 12.1213 27.9827 12.1213 27.8256C12.1213 27.6684 12.1838 27.5177 12.2949 27.4066C12.406 27.2955 12.5567 27.2331 12.7138 27.2331H27.7948C27.952 27.2331 28.1027 27.2955 28.2138 27.4066C28.3249 27.5177 28.3873 27.6684 28.3873 27.8256C28.3873 27.9827 28.3249 28.1334 28.2138 28.2445C28.1027 28.3557 27.952 28.4181 27.7948 28.4181Z" fill="black"/>
<path d="M33.9706 11.0883V12.5096H38.0684C38.4259 12.5096 38.7195 12.216 38.7195 11.8586V11.199C38.7195 9.86279 37.6855 8.74365 36.4131 8.70959C35.1901 8.64842 33.9706 9.69232 33.9706 11.0883ZM35.1195 26.7182C34.6983 27.1394 34.1408 27.3692 33.5451 27.3692C32.9536 27.3692 32.3919 27.1394 31.9748 26.7182L31.311 26.0544H31.2812V29.8587C31.2812 30.199 31.694 30.3693 31.9323 30.1224L33.277 28.7394C33.3119 28.7022 33.354 28.6725 33.4009 28.6521C33.4477 28.6318 33.4982 28.6214 33.5493 28.6214C33.6004 28.6214 33.6509 28.6318 33.6977 28.6521C33.7446 28.6725 33.7867 28.7022 33.8216 28.7394L35.1621 30.1224C35.4004 30.365 35.8131 30.199 35.8131 29.8587V26.0544H35.7834L35.1195 26.7182Z" fill="black"/>
<path d="M39.0096 19.6802L38.0928 18.7634V17.4799C38.0928 16.719 37.4786 16.1048 36.7177 16.1048H35.4295L34.5173 15.1926C33.981 14.6562 33.1101 14.6562 32.5738 15.1926L31.6616 16.1048H30.3689C29.6126 16.1048 28.9938 16.719 28.9938 17.4799V18.768L28.0816 19.6802C27.5452 20.2165 27.5452 21.0874 28.0816 21.6237L28.9938 22.5359V23.8287C28.9938 24.5896 29.6126 25.2038 30.3689 25.2038H31.6616L32.5738 26.116C33.1101 26.6523 33.981 26.6523 34.5173 26.116L35.4295 25.2038H36.7177C37.4786 25.2038 38.0928 24.5896 38.0928 23.8287V22.5405L39.0096 21.6237C39.5459 21.0875 39.5459 20.2166 39.0096 19.6802ZM33.548 23.7958C31.8123 23.7958 30.4051 22.3887 30.4051 20.6528C30.4051 18.917 31.8122 17.5098 33.548 17.5098C35.2839 17.5098 36.691 18.917 36.691 20.6528C36.691 22.3886 35.2838 23.7958 33.548 23.7958ZM20.2249 14.0377C20.7484 13.859 21.1058 13.3739 21.1058 12.8207V7.33984L14.2037 9.13133C13.8377 9.22492 13.459 9.27602 13.0802 9.27602C12.7015 9.27602 12.3228 9.22492 11.9568 9.13133L5.05469 7.33984V12.8207C5.05469 13.3739 5.41211 13.859 5.93555 14.0377C10.6973 15.6633 15.4632 15.6633 20.2249 14.0377Z" fill="black"/>
<path d="M3.40795 8.18666C3.40795 7.84502 3.19975 7.55549 2.90451 7.4301V6.11236L3.51475 6.06041L12.1716 8.30682C12.7676 8.46143 13.3931 8.46143 13.989 8.30682L25.2101 5.39502C25.6937 5.26955 25.6937 4.58299 25.2101 4.45752L13.989 1.54564C13.3931 1.39104 12.7675 1.39104 12.1715 1.54564L0.950527 4.45752C0.467012 4.58299 0.467012 5.26955 0.950527 5.39502L2.28123 5.74033C2.27451 5.76611 2.26623 5.79143 2.26623 5.81916V7.43111C2.04006 7.52705 1.85693 7.71932 1.79201 7.95822C1.71967 8.22447 1.77912 8.48603 1.92287 8.67174L1.4849 11.0438C1.436 11.3085 1.6392 11.5526 1.90834 11.5526H3.26506C3.5342 11.5526 3.7374 11.3085 3.6885 11.0438L3.25053 8.67174C3.34842 8.53986 3.40795 8.36963 3.40795 8.18666Z" fill="black"/>
</svg>
