<svg width="30" height="30" viewBox="0 0 30 30" fill="none" xmlns="http://www.w3.org/2000/svg">
<g clip-path="url(#clip0_2001_14186)">
<path fill-rule="evenodd" clip-rule="evenodd" d="M18.2578 13.3504L20.5441 15.7134L19.3657 16.8789L17.3728 13.6564C17.6629 13.5407 17.9582 13.4386 18.2578 13.3504ZM25.6199 13.9933L23.3178 17.7159C23.1938 17.9625 22.8623 18.0204 22.6629 17.8232L21.1201 16.2973L19.5772 17.8232C19.3779 18.0204 19.0464 17.9625 18.9224 17.7159L16.6203 13.9933C15.1286 14.7353 13.8461 15.8347 12.8847 17.1795V17.2317C13.0132 17.2741 13.1369 17.3298 13.2539 17.3979C13.8222 17.726 14.1204 18.2447 14.1812 18.89C14.1901 18.9837 14.2355 19.0431 14.3238 19.0758C14.9103 19.2937 15.3257 19.6949 15.5066 20.2927L19.7778 22.1384H29.3555V17.1794C28.3941 15.8347 27.1115 14.7354 25.6199 13.9933ZM21.6961 15.7134L22.8746 16.8789L24.8674 13.6564C24.5773 13.5407 24.282 13.4386 23.9824 13.3504L21.6961 15.7134ZM25.4332 7.85524C24.1226 8.47258 22.6739 8.77704 21.2233 8.77704C19.7021 8.77704 18.183 8.44217 16.8231 7.76284C16.7736 8.02844 16.7487 8.29804 16.7488 8.56821C16.7488 10.9823 18.7057 12.9394 21.1197 12.9395C20.4683 12.9393 19.8184 13.0017 19.1789 13.1259L21.1201 15.1323L23.0614 13.1259C22.4219 13.0017 21.772 12.9393 21.1205 12.9395C23.5346 12.9393 25.4915 10.9823 25.4915 8.56821C25.4915 8.3254 25.4714 8.08727 25.4333 7.85524H25.4332ZM25.8133 4.69932L21.8176 5.76995C21.4175 5.87717 21.0291 5.87717 20.629 5.76995L16.6333 4.69932V6.72391C17.9257 7.49969 19.5106 7.95678 21.2233 7.95678C22.9361 7.95678 24.5209 7.49975 25.8134 6.72391V4.69932H25.8133ZM13.974 3.13762L20.8412 4.9777C21.103 5.04784 21.3435 5.04784 21.6052 4.9777L27.6912 3.34698V5.66518C27.5766 5.73532 27.482 5.83371 27.4163 5.95093C27.3507 6.06815 27.3162 6.20027 27.3163 6.33461C27.3163 6.63057 27.4801 6.88821 27.722 7.02204L27.5238 7.4479C27.4187 7.67377 27.3715 7.88706 27.3715 8.13614V9.36766C27.3715 9.60262 27.5638 9.79493 27.7987 9.79493H28.4591C28.6941 9.79493 28.8863 9.60268 28.8863 9.36766V8.13614C28.8863 7.887 28.8392 7.67377 28.734 7.4479L28.5239 6.99637C28.6351 6.92543 28.7266 6.82761 28.7899 6.71195C28.8532 6.5963 28.8864 6.46654 28.8863 6.33467C28.8863 6.05143 28.7363 5.80329 28.5114 5.66524V3.237C28.5115 3.20081 28.5067 3.16478 28.4971 3.12989C28.6211 3.08588 28.7028 2.97139 28.7028 2.83739C28.7028 2.69477 28.6102 2.57413 28.4725 2.53721L21.6052 0.697134C21.3434 0.626997 21.1029 0.626997 20.8412 0.697134L13.9739 2.53721C13.8362 2.57413 13.7437 2.69477 13.7437 2.83739C13.7437 2.98001 13.8362 3.10059 13.9739 3.13751L13.974 3.13762ZM6.50721 21.1703C6.56721 21.0978 6.57699 21.0236 6.53779 20.9381C6.26779 20.3487 6.26674 19.7505 6.59486 19.1821C6.92299 18.6138 7.44166 18.3156 8.08701 18.2548C8.18064 18.2459 8.24006 18.2004 8.27281 18.1123C8.39299 17.7888 8.56889 17.5174 8.80279 17.3086L5.84346 15.1084C5.85377 15.2855 5.8499 15.4634 5.83508 15.6367C5.75644 16.5545 5.38654 17.503 4.92893 18.2956C4.47131 19.0882 3.83486 19.8828 3.07935 20.4098C2.93462 20.5111 2.78279 20.602 2.62502 20.6815L6.05463 22.1638C6.10033 21.8068 6.25648 21.4732 6.50721 21.1703ZM20.4332 23.3151L15.5561 21.2077C15.4921 21.515 15.3452 21.8035 15.1258 22.0686C15.0658 22.1411 15.056 22.2153 15.0952 22.3009C15.3652 22.8902 15.3663 23.4885 15.0381 24.0568C14.71 24.6252 14.1913 24.9234 13.546 24.9842C13.4523 24.993 13.3929 25.0385 13.3602 25.1267C13.2228 25.4963 13.0127 25.7979 12.7265 26.0158L17.0278 29.2134C17.9123 29.7234 19.3914 28.817 20.3316 27.1884C21.2719 25.5598 21.3174 23.8256 20.4331 23.3151H20.4332ZM10.1351 25.8981C9.82777 26.0389 9.51799 26.1066 9.21131 26.0925L8.83982 28.1431L10.0662 27.366L11.0512 28.4328L11.2203 26.3573C10.916 26.2925 10.6302 26.1463 10.3674 25.9288C10.2948 25.8688 10.2207 25.8589 10.1351 25.8981ZM7.30924 24.1631C6.99236 24.0454 6.72553 23.8742 6.51857 23.6474L4.80588 24.8347L6.22262 25.1524L6.16478 26.6032L7.75139 25.2556C7.58223 24.995 7.48396 24.6896 7.45186 24.349C7.44301 24.2553 7.39748 24.1959 7.30924 24.1631ZM12.5912 24.8411C12.4588 25.1976 12.2427 25.4348 11.8658 25.5358C11.4888 25.6368 11.1833 25.5394 10.8903 25.2969C10.5752 25.0361 10.1652 24.9821 9.79338 25.1525C9.44762 25.3109 9.12717 25.3259 8.78926 25.1308C8.45129 24.9357 8.30404 24.6507 8.26836 24.272C8.22998 23.8648 7.97826 23.5367 7.59482 23.3943C7.2384 23.2619 7.00115 23.0458 6.90014 22.669C6.79912 22.292 6.89656 21.9864 7.13902 21.6934C7.39982 21.3783 7.45379 20.9683 7.28346 20.5965C7.12508 20.2507 7.11002 19.9303 7.30514 19.5923C7.50025 19.2544 7.78531 19.1071 8.16389 19.0715C8.57111 19.0331 8.89918 18.7814 9.04162 18.398C9.17404 18.0415 9.39014 17.8042 9.76695 17.7033C10.1439 17.6023 10.4495 17.6997 10.7425 17.9422C11.0575 18.203 11.4675 18.2569 11.8394 18.0866C12.1851 17.9282 12.5056 17.9132 12.8435 18.1083C13.1815 18.3034 13.3287 18.5884 13.3644 18.967C13.4028 19.3742 13.6545 19.7023 14.0379 19.8448C14.3943 19.9771 14.6316 20.1933 14.7326 20.5701C14.8336 20.9471 14.7362 21.2526 14.4937 21.5457C14.2329 21.8607 14.1789 22.2707 14.3493 22.6425C14.5077 22.9883 14.5227 23.3088 14.3275 23.6467C14.1324 23.9847 13.8474 24.1319 13.4688 24.1676C13.0616 24.2059 12.7335 24.4577 12.5911 24.8411H12.5912ZM11.7925 19.9289C10.8588 19.3898 9.66494 19.7098 9.12594 20.6434C8.58687 21.5771 8.9068 22.771 9.84043 23.31C10.7741 23.8491 11.968 23.5292 12.5071 22.5955C13.0462 21.6618 12.7262 20.468 11.7925 19.9289ZM1.13457 20.0368C0.371621 19.5963 0.515351 17.9189 1.4556 16.2903C2.39592 14.6617 3.77668 13.6985 4.53963 14.139C5.30258 14.5795 5.15885 16.2569 4.21859 17.8855C3.27828 19.5141 1.89752 20.4773 1.13457 20.0368ZM3.75441 17.6175C4.46521 16.3863 4.6308 15.1511 4.1242 14.8586C3.6176 14.5661 2.63064 15.3271 1.91984 16.5582C1.20904 17.7894 1.04346 19.0246 1.55012 19.3171C2.05678 19.6096 3.04361 18.8487 3.75441 17.6175Z" fill="#F37329"/>
</g>
<defs>
<clipPath id="clip0_2001_14186">
<rect width="30" height="30" fill="white"/>
</clipPath>
</defs>
</svg>
