<svg width="40" height="40" viewBox="0 0 40 40" fill="none" xmlns="http://www.w3.org/2000/svg">
<path fill-rule="evenodd" clip-rule="evenodd" d="M18.4126 36.6361C14.1131 34.0046 10.7701 30.7622 8.4764 26.9996C6.61633 23.9486 5.45185 20.5728 5.01529 16.9659C4.70638 14.4139 4.76473 11.8163 5.1889 9.24535C5.50752 7.31351 5.92663 6.09594 5.97331 5.96364L7.19563 2.49913L10.3946 4.30518C11.7708 5.08215 13.1946 5.47606 14.6262 5.47606C16.6111 5.47606 18.0943 4.72274 18.5014 4.49191L20.0212 3.63025L21.541 4.49191C21.9484 4.72274 23.4315 5.47627 25.4165 5.47627C26.8481 5.47627 28.2718 5.08236 29.6478 4.30538L32.8472 2.49902L34.0694 5.96364C34.1162 6.09615 34.5352 7.31351 34.8538 9.24535C35.278 11.8163 35.3363 14.4139 35.0274 16.9659C34.5908 20.5725 33.4265 23.9483 31.5663 26.9994C29.2727 30.7621 25.9296 34.0043 21.6301 36.6361L20.0211 37.6209L18.4126 36.6361ZM8.80772 6.19241C8.77147 6.16713 8.73183 6.1471 8.68998 6.13292C8.4451 6.04967 8.17916 6.18074 8.09592 6.42561L8.09664 6.42634C8.07949 6.47674 1.94303 23.8731 19.7428 34.7968C19.8916 34.9069 20.0984 34.9224 20.266 34.8198L20.2654 34.8187C37.7441 24.1192 32.2054 7.18854 31.9556 6.4535C31.9456 6.41673 31.9309 6.38069 31.9114 6.34598C31.7842 6.12073 31.4986 6.04131 31.2733 6.16845L31.2744 6.17041C29.28 7.29636 27.3974 7.69822 25.7611 7.72518C23.0707 7.76959 21.0445 6.80424 20.2823 6.37676C20.1398 6.28123 19.9497 6.2679 19.7904 6.35838L19.7909 6.35962C19.0536 6.77769 17.009 7.77021 14.282 7.72528C12.6563 7.69843 10.7877 7.30153 8.80772 6.19241Z" fill="black"/>
<path d="M14.2667 8.65798C12.6348 8.63103 10.7799 8.26149 8.81826 7.25586C7.99368 10.1621 4.8862 24.4302 20.0208 33.8679C35.1553 24.4301 32.0478 10.1621 31.2233 7.25586C29.2618 8.2616 27.4069 8.63113 25.7751 8.65798C23.0641 8.7027 20.9696 7.79921 20.0208 7.29769C19.0723 7.79911 16.9778 8.7027 14.2667 8.65798ZM23.1421 15.4562H26.3994C26.6581 15.4562 26.8677 15.6658 26.8677 15.9244V21.2305C26.8677 21.4891 26.6581 21.6988 26.3994 21.6988H23.1421V24.9561C23.1421 25.2147 22.9325 25.4244 22.6738 25.4244H17.3677C17.1091 25.4244 16.8995 25.2147 16.8995 24.9561V21.6988H13.6421C13.3835 21.6988 13.1739 21.4891 13.1739 21.2305V15.9244C13.1739 15.6658 13.3835 15.4562 13.6421 15.4562H16.8995V12.1988C16.8995 11.9402 17.1091 11.7306 17.3677 11.7306H22.6738C22.9325 11.7306 23.1421 11.9402 23.1421 12.1988V15.4562Z" fill="black"/>
<path d="M25.9321 16.3926H22.6748C22.4161 16.3926 22.2065 16.1829 22.2065 15.9243V12.667H17.8369V15.9243C17.8369 16.1829 17.6273 16.3926 17.3687 16.3926H14.1113V20.7622H17.3687C17.6273 20.7622 17.8369 20.9718 17.8369 21.2304V24.4878H22.2065V21.2304C22.2065 20.9718 22.4161 20.7622 22.6748 20.7622H25.9321V16.3926Z" fill="black"/>
</svg>
