<svg width="30" height="30" viewBox="0 0 30 30" fill="none" xmlns="http://www.w3.org/2000/svg">
<path fill-rule="evenodd" clip-rule="evenodd" d="M28.519 12.3664C28.3879 12.0915 27.467 12.2755 27.4029 12.7132C27.0203 15.3174 25.5329 19.5055 21.2488 21.0449C21.1329 21.0852 21.0058 21.0784 20.8948 21.0259C20.7839 20.9734 20.698 20.8794 20.6557 20.7642C20.6133 20.649 20.6179 20.5218 20.6684 20.4099C20.7189 20.2981 20.8114 20.2105 20.9258 20.1662C21.6584 19.8909 23.336 18.4062 23.9986 17.2764C24.0903 17.1195 24.1615 16.9715 24.2008 16.8358C24.2251 16.7515 24.2626 16.6799 24.2219 16.6275C24.2143 16.6181 24.2051 16.6102 24.1948 16.604C24.1737 16.5975 24.153 16.5895 24.133 16.5802C24.1151 16.5753 24.0971 16.5709 24.079 16.5671C23.9826 16.5441 23.8665 16.5342 23.7288 16.5353C23.4344 16.5375 23.051 16.7459 22.4849 17.039C21.7053 17.4426 20.6462 18.0236 19.168 18.6454C18.2363 19.0381 17.4595 19.7262 16.9573 20.6038L16.9544 20.6024C16.3598 21.6419 16.2442 22.1466 16.0448 22.9674C15.857 23.7409 15.8195 25.1955 15.821 26.2228H15.5662C15.4421 26.2228 15.323 26.2722 15.2352 26.36C15.1474 26.4478 15.0981 26.5668 15.098 26.691V28.0956C15.098 28.354 15.3078 28.5638 15.5662 28.5638H20.2483C20.5067 28.5638 20.7165 28.354 20.7165 28.0956V26.691C20.7165 26.4326 20.5067 26.2228 20.2483 26.2228H20.1897C20.2085 25.9709 20.2446 25.7064 20.3105 25.4648C20.3766 25.2237 20.4594 25.0012 20.6242 24.8889C20.7456 24.806 21.1069 24.5639 21.3026 24.4502C23.2466 23.3185 25.5923 21.9195 26.6219 19.5102C27.5896 17.244 28.2915 14.309 28.3393 14.1057V14.1066L28.3402 14.1033L28.3393 14.1057C28.4648 13.6712 28.6632 12.6678 28.519 12.3664ZM1.46444 12.3664C1.59557 12.0915 2.51646 12.2755 2.58062 12.7132C2.96321 15.3174 4.45062 19.5055 8.73467 21.0449C8.8506 21.0852 8.97772 21.0784 9.08866 21.0259C9.1996 20.9734 9.28549 20.8794 9.32783 20.7642C9.37018 20.649 9.3656 20.5218 9.31508 20.4099C9.26455 20.2981 9.17213 20.2105 9.0577 20.1662C8.32512 19.8909 6.64748 18.4062 5.98489 17.2764C5.89321 17.1195 5.82197 16.9715 5.78264 16.8358C5.75837 16.7515 5.72085 16.6799 5.76163 16.6275C5.76919 16.6181 5.77836 16.6102 5.78871 16.604C5.80984 16.5975 5.8304 16.5895 5.85051 16.5802C5.86736 16.5755 5.88523 16.5712 5.90444 16.5671C6.00085 16.5441 6.11703 16.5342 6.25467 16.5353C6.54905 16.5375 6.93253 16.7459 7.4986 17.039C8.27815 17.4426 9.33725 18.0236 10.8155 18.6454C11.7472 19.0381 12.524 19.7262 13.0262 20.6038L13.029 20.6024C13.6237 21.6419 13.7393 22.1466 13.9387 22.9674C14.1265 23.7409 14.164 25.1955 14.1625 26.2228H14.4173C14.6757 26.2228 14.8855 26.4326 14.8855 26.691V28.0956C14.8855 28.354 14.6757 28.5638 14.4173 28.5638H9.73523C9.61107 28.5637 9.49202 28.5144 9.40423 28.4266C9.31643 28.3388 9.26709 28.2197 9.26703 28.0956V26.691C9.26703 26.4326 9.4768 26.2228 9.73523 26.2228H9.79377C9.775 25.9709 9.73894 25.7064 9.67298 25.4648C9.60691 25.2237 9.5241 25.0012 9.35927 24.8889C9.23793 24.806 8.87658 24.5639 8.68085 24.4502C6.73691 23.3185 4.39118 21.9195 3.36163 19.5102C2.39388 17.244 1.69197 14.309 1.64422 14.1057V14.1066L1.64332 14.1033L1.64422 14.1057C1.51871 13.6712 1.32029 12.6678 1.46444 12.3664ZM19.7801 27.6274H16.0344V27.1592H19.7801V27.6274ZM10.2034 27.6274H13.949V27.1592H10.2034V27.6274ZM14.7135 17.4993C14.7941 17.5586 14.8916 17.5906 14.9917 17.5906C15.0918 17.5906 15.1892 17.5586 15.2698 17.4993C18.0847 15.4232 20.8013 13.416 22.4769 11.1429C24.6901 8.13986 24.5792 4.57728 22.4067 2.69042C20.3382 0.894018 17.0022 0.957613 14.9917 3.07436C12.9813 0.957726 9.64534 0.894018 7.5768 2.69042C5.40433 4.57728 5.29343 8.13986 7.50658 11.1429C9.18231 13.416 11.8987 15.4232 14.7137 17.4992L14.7135 17.4993ZM20.6349 16.9406C21.1257 16.6963 21.5457 16.4735 21.9079 16.2842C22.1843 15.6676 22.4437 14.9086 22.6468 14.2537C22.6131 14.2532 22.5776 14.2537 22.5415 14.2559C22.2961 14.271 22.0953 14.308 21.8982 14.4372C21.6608 14.5936 21.4004 14.9241 21.1079 15.7529C20.9585 16.1756 20.788 16.5904 20.6349 16.9406ZM9.34849 16.9406C8.85781 16.6963 8.43781 16.4735 8.07545 16.2842C7.79927 15.6676 7.53984 14.9086 7.33669 14.2537C7.3704 14.2532 7.4059 14.2537 7.44197 14.2559C7.68736 14.271 7.88815 14.308 8.08534 14.4372C8.32264 14.5936 8.58309 14.9241 8.87557 15.7529C9.025 16.1756 9.19534 16.5904 9.34849 16.9406ZM26.4501 12.7497C26.3217 12.6674 25.6831 12.9506 25.6325 13.2006C25.4341 14.1844 25.1452 14.9002 24.6961 15.8605C24.8961 15.9832 25.1293 16.3264 25.155 16.5226C25.8905 15.2251 26.2726 13.8482 26.4501 12.7497ZM3.53343 12.7497C3.66175 12.6674 4.3004 12.9506 4.35096 13.2006C4.54939 14.1844 4.83826 14.9002 5.28736 15.8605C5.08736 15.9832 4.85422 16.3264 4.82849 16.5226C4.09298 15.2251 3.71085 13.8482 3.53343 12.7497ZM23.9948 13.5926C23.9311 13.6202 23.8744 13.6616 23.8288 13.7138C23.7831 13.7661 23.7496 13.8278 23.7307 13.8946C23.5851 14.3912 23.4053 14.9935 23.1441 15.7117C23.3646 15.6382 23.5551 15.6002 23.7214 15.5989C23.8511 15.5978 23.9152 15.6017 23.9939 15.6138C24.2813 15.0023 24.4653 14.1951 24.6068 13.5532C24.6194 13.4956 24.4944 13.4582 24.2982 13.4966C24.2083 13.5139 24.1132 13.5359 23.9948 13.5926ZM5.98871 13.5926C6.05236 13.6202 6.10906 13.6616 6.15473 13.7138C6.2004 13.7661 6.23388 13.8278 6.25276 13.8946C6.39837 14.3912 6.57815 14.9935 6.83939 15.7117C6.61894 15.6382 6.42837 15.6002 6.26208 15.5989C6.13242 15.5978 6.06826 15.6017 5.98961 15.6138C5.7022 15.0023 5.51815 14.1951 5.37669 13.5532C5.36411 13.4956 5.48905 13.4582 5.68534 13.4966C5.77523 13.5139 5.87029 13.5359 5.98871 13.5926ZM16.8646 7.02649V5.15368C16.8646 4.89525 16.6548 4.68548 16.3964 4.68548H13.5871C13.463 4.68554 13.3439 4.73489 13.2561 4.82268C13.1683 4.91047 13.119 5.02952 13.1189 5.15368V7.02649H11.2461C11.122 7.02655 11.0029 7.0759 10.9151 7.16369C10.8273 7.25148 10.778 7.37054 10.7779 7.49469V10.3039C10.7779 10.5623 10.9877 10.7721 11.2461 10.7721H13.1189V12.6449C13.1189 12.9033 13.3287 13.1131 13.5871 13.1131H16.3964C16.6548 13.1131 16.8646 12.9033 16.8646 12.6449V10.7721H18.7374C18.9958 10.7721 19.2056 10.5623 19.2056 10.3039V7.49469C19.2056 7.23627 18.9958 7.02649 18.7374 7.02649H16.8646ZM15.9282 7.49469C15.9282 7.75312 16.1379 7.96289 16.3964 7.96289H18.2692V9.8357H16.3964C16.2722 9.83576 16.1531 9.88511 16.0653 9.9729C15.9776 10.0607 15.9282 10.1797 15.9282 10.3039V12.1767H14.0553V10.3039C14.0553 10.0455 13.8456 9.8357 13.5871 9.8357H11.7143V7.96289H13.5871C13.8456 7.96289 14.0553 7.75312 14.0553 7.49469V5.62188H15.9282V7.49469Z" fill="#F37329"/>
</svg>
