<svg width="40" height="40" viewBox="0 0 40 40" fill="none" xmlns="http://www.w3.org/2000/svg">
<path d="M10.9481 32.9382C11.5947 32.9382 12.1189 32.4141 12.1189 31.7675C12.1189 31.1209 11.5947 30.5967 10.9481 30.5967C10.3015 30.5967 9.77734 31.1209 9.77734 31.7675C9.77734 32.4141 10.3015 32.9382 10.9481 32.9382Z" fill="black"/>
<path d="M10.9481 27.0847C11.5947 27.0847 12.1189 26.5605 12.1189 25.9139C12.1189 25.2673 11.5947 24.7432 10.9481 24.7432C10.3015 24.7432 9.77734 25.2673 9.77734 25.9139C9.77734 26.5605 10.3015 27.0847 10.9481 27.0847Z" fill="black"/>
<path d="M10.9481 21.2312C11.5947 21.2312 12.1189 20.707 12.1189 20.0604C12.1189 19.4138 11.5947 18.8896 10.9481 18.8896C10.3015 18.8896 9.77734 19.4138 9.77734 20.0604C9.77734 20.707 10.3015 21.2312 10.9481 21.2312Z" fill="black"/>
<path fill-rule="evenodd" clip-rule="evenodd" d="M31.0476 33.7213H32.606V35.2798H31.0476V33.7213ZM28.311 33.7213H29.8694V35.2798H28.311V33.7213ZM25.5817 33.7213H27.1402V35.2798H25.5817V33.7213ZM31.0476 30.9921H32.606V32.5506H31.0476V30.9921ZM28.311 30.9921H29.8694V32.5506H28.311V30.9921ZM25.5817 30.9921H27.1402V32.5506H25.5817V30.9921ZM31.0476 28.2555H32.606V29.814H31.0476V28.2555ZM28.311 28.2555H29.8694V29.814H28.311V28.2555ZM25.5817 28.2555H27.1402V29.814H25.5817V28.2555ZM34.9475 24.7432V21.8164H23.2402V24.7432H34.9475Z" fill="black"/>
<path fill-rule="evenodd" clip-rule="evenodd" d="M23.241 37.6205H34.9483V25.9131H23.241V35.8643V37.6205ZM24.4117 30.4021V27.6693C24.4117 27.3473 24.6752 27.0839 24.9971 27.0839H33.1923C33.5142 27.0839 33.7776 27.3473 33.7776 27.6693V35.8644C33.7776 36.1864 33.5142 36.4498 33.1923 36.4498H24.997C24.6751 36.4498 24.4116 36.1863 24.4116 35.8644V30.4059L24.4117 30.4021ZM21.09 6.16396C20.2225 5.45339 19.1482 4.98647 17.9727 4.86914V9.28145L21.09 6.16396ZM23.2117 10.1082C23.0944 8.93268 22.6276 7.85826 21.9169 6.99081L18.7995 10.1082H23.2117Z" fill="black"/>
<path fill-rule="evenodd" clip-rule="evenodd" d="M16.8015 4.87C13.8483 5.16486 11.5332 7.66516 11.5332 10.6945C11.5332 13.9213 14.16 16.5481 17.3869 16.5481C20.4162 16.5481 22.9165 14.233 23.2113 11.2798H17.3869L17.3732 11.2796H17.3718L17.3662 11.2794L17.364 11.2793C17.2948 11.2766 17.2287 11.2618 17.1675 11.2369C17.0943 11.2079 17.0273 11.1653 16.9698 11.1115C16.8448 10.9864 16.7887 10.8167 16.8016 10.6518V4.87H16.8015ZM27.682 6.01155L24.9966 3.32617V6.01155H27.682Z" fill="black"/>
<path fill-rule="evenodd" clip-rule="evenodd" d="M28.5087 20.6454V7.18193H24.4112C24.0893 7.18193 23.8258 6.91846 23.8258 6.59654V2.49902H7.43555V35.2796H22.0698V34.1089H15.0454C14.7235 34.1089 14.46 33.8455 14.46 33.5235C14.46 33.2015 14.7235 32.9381 15.0454 32.9381H22.0698V30.5967H15.0454C14.7235 30.5967 14.46 30.3332 14.46 30.0113C14.46 29.6894 14.7235 29.4259 15.0454 29.4259H22.0698V28.2551H15.0454C14.7235 28.2551 14.46 27.9916 14.46 27.6697C14.46 27.3478 14.7235 27.0843 15.0454 27.0843H22.0698V24.7429H15.0454C14.7235 24.7429 14.46 24.4794 14.46 24.1575C14.46 23.8356 14.7235 23.5721 15.0454 23.5721H22.0698V21.816H15.0454C14.7235 21.816 14.46 21.5526 14.46 21.2306C14.46 20.9087 14.7235 20.6453 15.0454 20.6453H28.5087V20.6454ZM26.7526 19.6941H15.0453C14.7234 19.6941 14.4599 19.4306 14.4599 19.1087C14.4599 18.7867 14.7234 18.5233 15.0453 18.5233H26.7527C27.0746 18.5233 27.3381 18.7867 27.3381 19.1087C27.3379 19.4307 27.0746 19.6941 26.7526 19.6941ZM10.9477 22.4014C9.65988 22.4014 8.60622 21.3478 8.60622 20.06C8.60622 18.7722 9.65988 17.7185 10.9477 17.7185C12.2355 17.7185 13.2891 18.7722 13.2891 20.06C13.2891 21.3478 12.2355 22.4014 10.9477 22.4014ZM10.9477 28.2551C9.65988 28.2551 8.60622 27.2015 8.60622 25.9137C8.60622 24.6259 9.65988 23.5722 10.9477 23.5722C12.2355 23.5722 13.2891 24.6259 13.2891 25.9137C13.2891 27.2015 12.2355 28.2551 10.9477 28.2551ZM10.9477 34.1088C9.65988 34.1088 8.60622 33.0551 8.60622 31.7673C8.60622 30.4795 9.65988 29.4259 10.9477 29.4259C12.2355 29.4259 13.2891 30.4795 13.2891 31.7673C13.2891 33.0551 12.2355 34.1088 10.9477 34.1088ZM17.3867 17.7184C13.516 17.7184 10.3623 14.5648 10.3623 10.6941C10.3623 6.82334 13.5159 3.66959 17.3867 3.66959C21.2576 3.66959 24.4111 6.82324 24.4111 10.6941C24.4111 14.5649 21.2575 17.7184 17.3867 17.7184Z" fill="black"/>
<path fill-rule="evenodd" clip-rule="evenodd" d="M22.0694 36.4503H6.84992C6.52799 36.4503 6.26453 36.1868 6.26453 35.8649V5.42578H5.09375V37.6209H22.0694V36.4503Z" fill="black"/>
</svg>
