<svg width="40" height="40" viewBox="0 0 40 40" fill="none" xmlns="http://www.w3.org/2000/svg">
<g clip-path="url(#clip0_2002_14199)">
<path d="M2.42015 12.5469H1.16468C-0.388812 12.6046 -0.38764 14.834 1.16468 14.8911H2.42015C3.97364 14.8335 3.97247 12.6041 2.42015 12.5469ZM32.5507 14.8911H33.8061C35.3596 14.8335 35.3584 12.6041 33.8061 12.5469H32.5507C30.9972 12.6046 30.9984 14.8341 32.5507 14.8911ZM17.4854 3.59224C18.1327 3.59224 18.6575 3.06745 18.6575 2.42015V1.16468C18.5999 -0.388812 16.3705 -0.38764 16.3133 1.16468V2.42015C16.3133 3.06745 16.8381 3.59224 17.4854 3.59224ZM7.01522 4.10226L5.75983 2.84679C5.30209 2.38912 4.56 2.38905 4.10226 2.84679C3.64451 3.30453 3.64451 4.04662 4.10226 4.50436L5.35764 5.75983C5.81546 6.21765 6.55755 6.21741 7.01522 5.75983C7.47296 5.30209 7.47296 4.56 7.01522 4.10226ZM29.6132 5.75983L30.8686 4.50436C31.3263 4.04662 31.3263 3.30453 30.8686 2.84679C30.4109 2.38912 29.6687 2.38905 29.211 2.84679L27.9556 4.10226C27.4978 4.56 27.4978 5.30209 27.9556 5.75983C28.4134 6.21765 29.1556 6.21749 29.6132 5.75983ZM17.5687 30.667V28.2701C17.5687 27.1062 18.1621 26.0633 19.0764 25.4498C18.8638 24.3696 19.1818 23.2125 20.0047 22.3896L22.3897 20.0047C23.1807 19.2046 24.3482 18.8526 25.45 19.0761C26.0636 18.162 27.1064 17.5687 28.2701 17.5687H28.6998C28.7516 11.3561 23.6975 6.26695 17.4854 6.26977C6.53036 6.63405 2.75083 19.1797 10.0986 26.0534C11.467 27.5948 12.5479 28.8124 12.5469 30.6669H17.5687V30.667ZM29.9564 27.99C28.8721 27.99 27.9899 28.8722 27.9899 29.9565C28.0887 32.5618 31.8245 32.5611 31.923 29.9565C31.923 28.8722 31.0408 27.99 29.9564 27.99Z" fill="#FDFDFD"/>
<path d="M39.0805 27.2288L37.8002 27.0689C37.7233 26.8603 37.6381 26.6548 37.5446 26.453L38.337 25.434C38.4941 25.2321 38.5719 24.9797 38.556 24.7244C38.5401 24.4691 38.4316 24.2284 38.2507 24.0474L35.8656 21.6624C35.6847 21.4815 35.4439 21.3729 35.1886 21.357C34.9333 21.3411 34.6809 21.419 34.479 21.576L33.4601 22.3685C33.2583 22.2751 33.0528 22.1898 32.8442 22.1129L32.6843 20.8326C32.6526 20.5788 32.5292 20.3452 32.3374 20.1759C32.1456 20.0065 31.8986 19.9131 31.6428 19.9131H28.27C28.0142 19.9131 27.7671 20.0065 27.5753 20.1759C27.3835 20.3452 27.2602 20.5788 27.2285 20.8326L27.0686 22.1129C26.8599 22.1898 26.6544 22.275 26.4526 22.3684L25.4336 21.576C25.2317 21.4189 24.9794 21.3411 24.7241 21.357C24.4687 21.3729 24.228 21.4814 24.0471 21.6623L21.6621 24.0474C21.4812 24.2282 21.3726 24.469 21.3567 24.7243C21.3408 24.9796 21.4187 25.232 21.5757 25.4339L22.3682 26.4528C22.2748 26.6546 22.1896 26.8601 22.1126 27.0688L20.8323 27.2287C20.5784 27.2604 20.3449 27.3837 20.1756 27.5755C20.0062 27.7673 19.9128 28.0143 19.9128 28.2702V31.6429C19.9128 31.8988 20.0062 32.1458 20.1756 32.3376C20.3449 32.5294 20.5784 32.6527 20.8323 32.6844L22.1126 32.8443C22.1894 33.053 22.2747 33.2585 22.3682 33.4604L21.5757 34.4792C21.4187 34.6811 21.3408 34.9335 21.3567 35.1888C21.3726 35.4441 21.4812 35.6849 21.6621 35.8657L24.0471 38.2508C24.228 38.4317 24.4687 38.5403 24.7241 38.5562C24.9794 38.5721 25.2317 38.4942 25.4336 38.3371L26.4527 37.5447C26.6545 37.6381 26.86 37.7233 27.0686 37.8002L27.2285 39.0805C27.2602 39.3343 27.3835 39.5679 27.5753 39.7372C27.7671 39.9066 28.0142 40 28.27 40H31.6428C31.8986 40 32.1456 39.9066 32.3374 39.7372C32.5292 39.5679 32.6526 39.3343 32.6843 39.0805L32.8442 37.8002C33.0528 37.7234 33.2583 37.6381 33.4601 37.5447L34.479 38.337C34.6809 38.4941 34.9333 38.572 35.1886 38.5561C35.4439 38.5402 35.6847 38.4316 35.8656 38.2507L38.2507 35.8656C38.4316 35.6847 38.5402 35.444 38.5561 35.1887C38.572 34.9333 38.4941 34.681 38.337 34.4791L37.5446 33.4601C37.6379 33.2583 37.7232 33.0528 37.8002 32.8442L39.0804 32.6844C39.3343 32.6527 39.5678 32.5293 39.7372 32.3375C39.9065 32.1457 39.9999 31.8987 39.9999 31.6428V28.2703C39.9999 28.0145 39.9065 27.7675 39.7372 27.5757C39.5679 27.3839 39.3343 27.2605 39.0805 27.2288ZM29.9564 34.2674C27.5794 34.2674 25.6456 32.3336 25.6456 29.9567C25.8623 24.2458 34.0513 24.2473 34.2671 29.9567C34.2671 32.3337 32.3333 34.2674 29.9564 34.2674ZM19.0764 34.4634C18.5417 34.104 18.1197 33.6006 17.859 33.0115H12.5469V34.4341C12.5469 36.6266 14.1925 38.4406 16.3132 38.7092V38.8282C16.3709 40.3816 18.6003 40.3805 18.6574 38.8282V38.7092C19.317 38.6254 19.948 38.3893 20.5006 38.0196L20.0045 37.5235C19.1817 36.7005 18.8637 35.5436 19.0764 34.4634Z" fill="#FDFDFD"/>
</g>
<defs>
<clipPath id="clip0_2002_14199">
<rect width="40" height="40" fill="white"/>
</clipPath>
</defs>
</svg>
