<svg width="30" height="30" viewBox="0 0 30 30" fill="none" xmlns="http://www.w3.org/2000/svg">
<path d="M28.6319 18.0245C28.5739 17.6991 28.3895 17.41 28.119 17.2202C27.8484 17.0305 27.5137 16.9556 27.1881 17.012L28.0569 21.937C28.2186 21.9083 28.3731 21.848 28.5115 21.7596C28.6499 21.6712 28.7696 21.5564 28.8636 21.4218C28.9576 21.2871 29.0242 21.1352 29.0595 20.9748C29.0948 20.8144 29.0982 20.6487 29.0694 20.487L28.6319 18.0245ZM1.55062 22.7995L1.98812 25.262C2.05179 25.5827 2.2386 25.8657 2.50849 26.0503C2.77839 26.2349 3.10987 26.3064 3.43187 26.2495L2.56312 21.3495C2.40139 21.3781 2.24691 21.4384 2.10848 21.5268C1.97006 21.6152 1.85041 21.73 1.75638 21.8646C1.66235 21.9993 1.59578 22.1512 1.56047 22.3116C1.52517 22.472 1.52182 22.6378 1.55062 22.7995ZM11.2506 24.6307C11.0319 23.3807 11.2506 23.812 10.4131 22.8182C10.1194 22.4745 10.3006 22.1932 10.6569 21.237C10.3944 19.762 10.3319 19.937 11.0381 19.362L4.24437 19.8682C4.15789 19.8756 4.07389 19.9009 3.99773 19.9425C3.92157 19.9841 3.8549 20.0411 3.80199 20.1099C3.74907 20.1787 3.71106 20.2577 3.69038 20.342C3.6697 20.4263 3.6668 20.514 3.68187 20.5995C4.30687 24.237 4.07562 22.837 4.74437 26.6307C4.75876 26.7169 4.79107 26.7992 4.83923 26.8721C4.88738 26.9451 4.95031 27.0071 5.02393 27.0542C5.09756 27.1014 5.18025 27.1325 5.26666 27.1457C5.35308 27.1589 5.4413 27.1538 5.52562 27.1307L12.0819 25.2557L11.6506 25.0995C11.5491 25.0625 11.4589 25 11.3888 24.9178C11.3187 24.8357 11.2711 24.7367 11.2506 24.6307ZM25.8569 16.6745C25.8425 16.5882 25.8102 16.506 25.762 16.433C25.7139 16.3601 25.6509 16.298 25.5773 16.2509C25.5037 16.2038 25.421 16.1727 25.3346 16.1595C25.2482 16.1463 25.1599 16.1514 25.0756 16.1745L18.5194 18.0495L18.9506 18.2057C19.0529 18.2432 19.1436 18.3067 19.2138 18.39C19.2839 18.4733 19.3311 18.5735 19.3506 18.6807C19.5694 19.9307 19.3506 19.4995 20.1881 20.4932C20.4819 20.837 20.3006 21.1182 19.9444 22.0745C20.2069 23.5495 20.2694 23.3745 19.5569 23.9495L26.3569 23.437C26.4433 23.4296 26.5273 23.4043 26.6035 23.3627C26.6797 23.3211 26.7463 23.2641 26.7992 23.1953C26.8522 23.1265 26.8902 23.0474 26.9109 22.9631C26.9315 22.8789 26.9344 22.7912 26.9194 22.7057C26.2506 18.9182 26.4944 20.3057 25.8569 16.6745ZM15.3131 21.0182C15.2058 21.0177 15.1002 21.0449 15.0064 21.097C14.9126 21.1492 14.8339 21.2246 14.7777 21.3161C14.7215 21.4075 14.6898 21.5119 14.6857 21.6191C14.6816 21.7263 14.7051 21.8328 14.7541 21.9283C14.803 22.0238 14.8757 22.1051 14.9652 22.1643C15.0547 22.2236 15.1579 22.2588 15.265 22.2666C15.372 22.2743 15.4792 22.2544 15.5763 22.2087C15.6734 22.163 15.7571 22.0931 15.8194 22.0057C15.8858 21.9124 15.9253 21.8027 15.9336 21.6885C15.9419 21.5743 15.9186 21.46 15.8664 21.3581C15.8142 21.2562 15.7349 21.1706 15.6374 21.1106C15.5398 21.0507 15.4276 21.0187 15.3131 21.0182Z" fill="#F37329"/>
<path d="M18.1816 19.2313C17.0504 18.8188 17.4066 19.0875 16.5941 18.1187C15.4004 18.3312 15.8441 18.3812 14.6566 17.95C13.7504 18.75 14.1441 18.5562 12.9004 18.75C12.4879 19.8875 12.7566 19.5312 11.7879 20.3437C12.0004 21.5312 12.0504 21.0875 11.6191 22.275C12.4316 23.2437 12.2441 22.8437 12.4379 24.0375C13.5691 24.45 13.2129 24.1813 14.0254 25.15C15.2191 24.9375 14.7754 24.8875 15.9629 25.3187C16.8879 24.5437 16.4754 24.6938 17.7191 24.5C18.1316 23.3688 17.8629 23.725 18.8316 22.9063C18.6191 21.7188 18.5691 22.1625 19.0004 20.975C18.1879 20 18.3941 20.425 18.1816 19.2313ZM16.8754 22.7187C16.699 22.971 16.4631 23.176 16.1888 23.3155C15.9144 23.4551 15.6098 23.5249 15.302 23.5188C14.9943 23.5128 14.6927 23.4311 14.424 23.2809C14.1553 23.1307 13.9277 22.9166 13.7613 22.6576C13.5949 22.3986 13.4949 22.1026 13.47 21.7958C13.4451 21.489 13.4961 21.1807 13.6186 20.8983C13.7411 20.6159 13.9312 20.3679 14.1722 20.1764C14.4132 19.9848 14.6976 19.8556 15.0004 19.8C15.3661 19.7329 15.7436 19.776 16.0848 19.924C16.4259 20.0719 16.7154 20.3179 16.9164 20.6308C17.1174 20.9437 17.2208 21.3092 17.2135 21.681C17.2062 22.0528 17.0885 22.414 16.8754 22.7187ZM17.2754 25.8687C16.4691 26.5437 16.2879 26.7875 15.8754 26.6375C14.6691 26.1937 15.0879 26.25 14.2441 26.4L14.5504 28.125L16.2879 27.1813L18.2441 27.475L17.9379 25.75L17.2754 25.8687ZM15.6254 6.875C15.6254 6.70924 15.5595 6.55027 15.4423 6.43306C15.3251 6.31585 15.1662 6.25 15.0004 6.25C14.8346 6.25 14.6757 6.31585 14.5584 6.43306C14.4412 6.55027 14.3754 6.70924 14.3754 6.875C14.3754 7.04076 14.4412 7.19973 14.5584 7.31694C14.6757 7.43415 14.8346 7.5 15.0004 7.5C15.1662 7.5 15.3251 7.43415 15.4423 7.31694C15.5595 7.19973 15.6254 7.04076 15.6254 6.875Z" fill="#F37329"/>
<path d="M13.1875 6.41875C13.2955 5.99009 13.5514 5.61335 13.9101 5.35505C14.2689 5.09676 14.7073 4.97351 15.1481 5.00707C15.5889 5.04063 16.0036 5.22885 16.3191 5.53848C16.6346 5.84812 16.8305 6.25927 16.8723 6.69933C16.9141 7.1394 16.7991 7.58009 16.5476 7.94359C16.296 8.30709 15.9242 8.57004 15.4976 8.686C15.071 8.80196 14.6172 8.76348 14.2162 8.57735C13.8153 8.39122 13.493 8.06942 13.3063 7.66875L5.18125 8.4625L15 11.875L29.375 6.875L15 1.875L0.625 6.875L3.1625 7.75625C3.3375 7.225 3.0375 7.40625 13.1875 6.41875ZM4.375 11.3312V9.50625L3.125 9.06875V11.3312C3.53494 11.2254 3.96506 11.2254 4.375 11.3312Z" fill="#F37329"/>
<path d="M7.80625 10.6934L6.875 18.1246L7.63125 18.3434C12.1625 18.0059 11.825 18.0621 11.85 17.9996C11.9937 17.5871 12.2688 17.6121 13.3375 17.4246C14.175 16.7246 14.325 16.4996 14.7438 16.6496C15.9063 17.0746 15.45 17.0559 16.7313 16.8246C16.8472 16.801 16.9675 16.8107 17.0782 16.8528C17.1888 16.8948 17.2853 16.9674 17.3563 17.0621L22.8187 15.5184L22.1937 10.6934L15 13.1996L7.80625 10.6934ZM2.5 13.7496V16.2496H5V13.7496C5 13.4181 4.8683 13.1001 4.63388 12.8657C4.39946 12.6313 4.08152 12.4996 3.75 12.4996C3.41848 12.4996 3.10054 12.6313 2.86612 12.8657C2.6317 13.1001 2.5 13.4181 2.5 13.7496Z" fill="#F37329"/>
</svg>
