<svg width="40" height="40" viewBox="0 0 40 40" fill="none" xmlns="http://www.w3.org/2000/svg">
<g clip-path="url(#clip0_1990_15074)">
<path d="M29.2851 14.8571C26.5644 13.6186 20.8315 13.5714 19.9994 13.5714C19.1672 13.5714 13.4344 13.6186 10.7136 14.8571V8.63429C11.1422 8.08429 14.5108 7.14286 19.9994 7.14286C25.4879 7.14286 28.8565 8.08429 29.2851 8.63429V14.8571ZM19.9994 17.8571C14.7136 17.8571 11.3944 16.9843 10.7736 16.4286C11.3944 15.8729 14.7151 15 19.9994 15C25.2836 15 28.6044 15.8729 29.2251 16.4286C28.6044 16.9843 25.2851 17.8571 19.9994 17.8571ZM35.7136 12.8571H34.2851V10.7143C34.2851 10.5248 34.3603 10.3432 34.4943 10.2092C34.6282 10.0753 34.8099 10 34.9994 10C35.1888 10 35.3705 10.0753 35.5044 10.2092C35.6384 10.3432 35.7136 10.5248 35.7136 10.7143V12.8571ZM35.7136 8.67429V5.61214L39.9994 7.14286L35.7136 8.67429ZM20.0094 0L34.2851 5.10143V8.70286C33.8334 8.86336 33.4485 9.17037 33.1915 9.575L30.7136 10.4586V8.57143C30.7136 5.79429 21.0958 5.71429 19.9994 5.71429C18.9029 5.71429 9.28507 5.79429 9.28507 8.57143V10.4579L-0.000643726 7.14286L20.0094 0ZM22.2851 23.55C22.5817 24.6407 22.7545 25.7613 22.8001 26.8907C22.0046 26.5208 21.1251 26.3687 20.2515 26.4499C19.378 26.5311 18.5416 26.8427 17.8279 27.3529C17.7914 26.0702 17.627 24.7943 17.3372 23.5443C18.9863 23.5782 20.6359 23.5801 22.2851 23.55ZM20.7136 35C19.7664 35 18.858 34.6237 18.1883 33.954C17.5185 33.2842 17.1422 32.3758 17.1422 31.4286C17.1422 30.4814 17.5185 29.573 18.1883 28.9032C18.858 28.2334 19.7664 27.8571 20.7136 27.8571C21.6608 27.8571 22.5693 28.2334 23.239 28.9032C23.9088 29.573 24.2851 30.4814 24.2851 31.4286C24.2851 32.3758 23.9088 33.2842 23.239 33.954C22.5693 34.6237 21.6608 35 20.7136 35ZM-0.000643726 28.5714C-0.0745545 26.523 0.166345 24.4754 0.713642 22.5C1.26094 24.4754 1.50184 26.523 1.42793 28.5714C1.50184 30.6199 1.26094 32.6675 0.713642 34.6429C0.166345 32.6675 -0.0745545 30.6199 -0.000643726 28.5714ZM2.15864 34.765C2.66304 32.7402 2.89769 30.6577 2.8565 28.5714C2.89769 26.4849 2.66305 24.4022 2.15864 22.3771C6.6965 23.0036 11.2658 23.3814 15.8451 23.5079C16.2736 25.1607 16.4694 26.865 16.4279 28.5714C16.4279 28.675 16.4279 28.7736 16.4236 28.8729C16.0016 29.5732 15.7598 30.3672 15.7196 31.1839C15.6795 32.0006 15.8424 32.8145 16.1936 33.5529L16.1622 33.6286C11.4765 33.7429 6.8015 34.1229 2.15864 34.765ZM18.1472 40L17.6258 38.8C17.5505 38.6269 17.4097 38.4907 17.2342 38.4211C17.0587 38.3515 16.8628 38.3542 16.6894 38.4286L15.4872 38.96L17.1622 34.9443C17.8499 35.6411 18.7272 36.1205 19.6851 36.3229L18.1472 40ZM24.7379 38.4286C24.5644 38.3542 24.3686 38.3515 24.1931 38.4211C24.0176 38.4907 23.8768 38.6269 23.8015 38.8L23.2729 39.9879L21.7415 36.3214C22.7001 36.119 23.5781 35.6394 24.2665 34.9421L25.9379 38.9421L24.7379 38.4286ZM39.1422 34.9643C34.5532 34.258 29.9257 33.8287 25.2851 33.6786L25.2344 33.5557C25.6728 32.6318 25.8156 31.5951 25.6433 30.5871C25.471 29.579 24.9919 28.6487 24.2715 27.9229C24.266 26.4415 24.0949 24.9655 23.7615 23.5221C28.9115 23.4071 34.0501 22.9579 39.1422 22.1779C39.4736 22.7407 39.9994 24.9671 39.9994 28.5714C39.9994 32.1757 39.4701 34.4014 39.1422 34.9643Z" fill="black"/>
</g>
<defs>
<clipPath id="clip0_1990_15074">
<rect width="40" height="40" fill="white"/>
</clipPath>
</defs>
</svg>
