<svg width="40" height="40" viewBox="0 0 40 40" fill="none" xmlns="http://www.w3.org/2000/svg">
<path fill-rule="evenodd" clip-rule="evenodd" d="M17.1093 6.90572C16.7733 6.90572 16.4538 7.19016 16.3613 7.51194L15.7529 9.24616C15.66 9.56794 15.8756 9.85238 16.2111 9.85238H23.8271C24.1622 9.85238 24.3778 9.56794 24.2849 9.24616L23.6765 7.5115C23.5836 7.18972 23.264 6.90527 22.9285 6.90527L17.1093 6.90572ZM25.2222 22.9168H14.8147C14.3725 22.9168 14.2729 23.4279 14.4769 23.9213C14.9049 24.9657 16.0418 25.9515 17.1249 25.6671H22.9125C24.0329 25.6671 25.1325 24.9653 25.56 23.9213C25.764 23.4279 25.6596 22.9813 25.2222 22.9168ZM8.16001 22.8755C7.9729 23.4537 7.75468 24.5977 8.78268 24.9728C9.62535 25.2799 11.4009 25.5022 12.3453 25.6466C13.2551 25.7831 13.4813 25.2462 13.1671 24.4448C12.5769 22.9608 11.2458 22.6462 9.99601 22.4311C8.74801 22.2155 8.3009 22.4422 8.16001 22.8755ZM30.0418 22.4311C28.7938 22.6462 27.4605 22.9604 26.8729 24.4448C26.5556 25.2462 26.7827 25.7826 27.6925 25.6466C28.6396 25.5026 30.4125 25.2804 31.2551 24.9728C32.2827 24.5977 32.0676 23.4537 31.8774 22.8755C31.736 22.4422 31.2916 22.2155 30.0418 22.4311ZM20.0191 12.4284C18.0676 12.4311 15.9587 12.4977 14.1738 12.6208C13.4982 12.6671 12.8778 13.0324 12.4609 13.7062C11.5676 15.1551 10.7707 16.5186 10.2689 18.0351C10.2689 18.0351 15.8658 18.5924 20.0191 18.5924C24.1738 18.5924 29.7711 18.0351 29.7711 18.0351C29.2667 16.5186 28.4725 15.1551 27.5791 13.7062C27.1622 13.0324 26.54 12.6671 25.8636 12.6208C24.0813 12.4977 21.9702 12.4311 20.0191 12.4284ZM20.0191 11.0671C22.2849 11.0671 24.6 11.0555 26.8133 11.3635C27.8409 11.5071 28.5005 12.1093 28.9751 12.8079C30.056 14.3982 30.7529 16.0782 31.3613 17.7777H34.0742C34.8316 17.7777 35.2831 18.3653 35.0862 19.0946C34.8707 19.9026 34.6253 20.2982 33.44 20.5737L32.9885 20.6782C33.3405 21.3515 33.6 22.0648 33.6 22.7013V27.9231C33.6 28.7959 32.9956 29.5346 32.2925 29.8102V32.2546C32.2927 32.3678 32.2706 32.4799 32.2274 32.5845C32.1842 32.6891 32.1207 32.7842 32.0407 32.8642C31.9607 32.9442 31.8656 33.0077 31.761 33.0509C31.6564 33.0941 31.5443 33.1162 31.4311 33.1159H28.9885C28.8753 33.1161 28.7632 33.094 28.6586 33.0507C28.5541 33.0075 28.459 32.9441 28.379 32.8641C28.299 32.784 28.2356 32.689 28.1923 32.5844C28.1491 32.4799 28.127 32.3678 28.1271 32.2546V29.9306H11.912V32.2546C11.9123 32.3678 11.8902 32.4799 11.847 32.5846C11.8039 32.6892 11.7404 32.7843 11.6604 32.8643C11.5803 32.9444 11.4853 33.0078 11.3806 33.051C11.276 33.0942 11.1639 33.1162 11.0507 33.1159H8.60846C8.4953 33.1162 8.38321 33.0941 8.27863 33.0508C8.17405 33.0076 8.07903 32.9442 7.99904 32.8642C7.91904 32.7841 7.85565 32.6891 7.8125 32.5845C7.76934 32.4799 7.74728 32.3678 7.74757 32.2546V29.8102C7.04357 29.5346 6.43735 28.7986 6.43735 27.9231V22.7017C6.43735 22.0653 6.69601 21.3515 7.05024 20.6786L6.59646 20.5742C5.41379 20.2986 5.16846 19.9031 4.95113 19.0951C4.75735 18.3657 5.2089 17.7782 5.96312 17.7782H8.67824C9.28668 16.0791 9.98135 14.3986 11.0622 12.8084C11.5369 12.1093 12.1991 11.5071 13.2245 11.3639C15.44 11.0555 17.7525 11.0671 20.0191 11.0671Z" fill="#FDFDFD"/>
</svg>
