<svg width="40" height="40" viewBox="0 0 40 40" fill="none" xmlns="http://www.w3.org/2000/svg">
<path fill-rule="evenodd" clip-rule="evenodd" d="M29.8052 32.2093H29.3507V15.8272H33.0139C33.5876 15.8272 34.0817 16.0449 34.4688 16.4683L39.0929 21.526C39.4384 21.9038 39.6093 22.3443 39.6093 22.8562V27.8256H38.3834C38.2628 27.8258 38.1471 27.8739 38.0618 27.9592C37.9764 28.0446 37.9284 28.1602 37.9281 28.2809V29.3659C37.9284 29.4866 37.9764 29.6022 38.0618 29.6876C38.1471 29.7729 38.2628 29.821 38.3834 29.8212H39.6093V30.9214C39.6093 31.6307 39.0307 32.2093 38.3213 32.2093H37.562C37.562 30.0679 35.8251 28.3309 33.6835 28.3309C31.542 28.3309 29.8052 30.0678 29.8052 32.2093ZM17.4431 9.54113C17.4431 9.37537 17.509 9.2164 17.6262 9.09919C17.7434 8.98198 17.9024 8.91613 18.0681 8.91613C18.2339 8.91613 18.3929 8.98198 18.5101 9.09919C18.6273 9.2164 18.6931 9.37537 18.6931 9.54113V9.89496C19.0849 9.99246 19.4391 10.2293 19.6759 10.5568C19.7706 10.6909 19.8086 10.8569 19.7817 11.0189C19.7548 11.1809 19.6652 11.3257 19.5322 11.422C19.3993 11.5184 19.2338 11.5585 19.0715 11.5336C18.9092 11.5087 18.7632 11.4209 18.6652 11.2892C18.5739 11.1629 18.4451 11.0952 18.289 11.0952H17.9466C17.6936 11.0952 17.4842 11.3046 17.4842 11.5576C17.4842 11.8107 17.6936 12.0201 17.9466 12.0201H18.1898C19.1329 12.0201 19.9022 12.7894 19.9022 13.7325C19.9022 14.4841 19.408 15.1483 18.6932 15.3693V15.7491C18.6932 15.9149 18.6274 16.0738 18.5101 16.191C18.3929 16.3083 18.234 16.3741 18.0682 16.3741C17.9024 16.3741 17.7435 16.3083 17.6263 16.191C17.5091 16.0738 17.4432 15.9149 17.4432 15.7491V15.3954C17.0514 15.2978 16.6973 15.0611 16.4604 14.7335C16.3657 14.5993 16.3277 14.4333 16.3546 14.2713C16.3815 14.1094 16.4711 13.9645 16.6041 13.8682C16.737 13.7719 16.9026 13.7318 17.0649 13.7566C17.2271 13.7815 17.3731 13.8693 17.4711 14.0011C17.5624 14.1273 17.6912 14.195 17.8473 14.195H18.1897C18.4427 14.195 18.6521 13.9857 18.6521 13.7325C18.6521 13.4795 18.4427 13.2701 18.1897 13.2701H17.9466C17.0034 13.2701 16.2341 12.5007 16.2341 11.5576C16.2341 10.8061 16.7284 10.1418 17.4431 9.92098V9.54113ZM18.0681 5.16309C13.9359 5.16309 10.5862 8.51285 10.5862 12.645C10.5862 16.7772 13.9359 20.127 18.0681 20.127C22.2003 20.127 25.5501 16.7772 25.5501 12.645C25.5501 8.51293 22.2003 5.16309 18.0681 5.16309ZM18.0681 7.42285C15.1839 7.42285 12.8459 9.76098 12.8459 12.6451C12.8459 15.5293 15.184 17.8674 18.0681 17.8674C20.9523 17.8674 23.2904 15.5293 23.2904 12.6451C23.2904 9.7609 20.9523 7.42285 18.0681 7.42285ZM3.93086 16.9723H7.60578C8.1082 16.9723 8.51938 17.3834 8.51938 17.8859C8.51938 18.3884 8.1082 18.7995 7.60578 18.7995H1.01562C0.849865 18.7995 0.690894 18.8653 0.573683 18.9826C0.456473 19.0998 0.390625 19.2587 0.390625 19.4245C0.390625 19.5903 0.456473 19.7492 0.573683 19.8664C0.690894 19.9836 0.849865 20.0495 1.01562 20.0495H6.51602C7.01844 20.0495 7.42961 20.4606 7.42961 20.9631C7.42961 21.4656 7.01852 21.8767 6.51602 21.8767H3.33266C3.1669 21.8767 3.00792 21.9425 2.89071 22.0597C2.7735 22.1769 2.70766 22.3359 2.70766 22.5017C2.70766 22.6674 2.7735 22.8264 2.89071 22.9436C3.00792 23.0608 3.1669 23.1267 3.33266 23.1267H7.4107V27.2972H28.1007V13.9329C28.1007 13.2246 27.5212 12.6451 26.8129 12.6451H26.8002C26.8002 17.4676 22.8907 21.3771 18.0682 21.3771C13.2457 21.3771 9.33625 17.4676 9.33625 12.6451H2.01133C1.84557 12.6451 1.6866 12.711 1.56939 12.8282C1.45218 12.9454 1.38633 13.1044 1.38633 13.2701C1.38633 13.4359 1.45218 13.5948 1.56939 13.7121C1.6866 13.8293 1.84557 13.8951 2.01133 13.8951H6.96375C7.46625 13.8951 7.87734 14.3062 7.87734 14.8087C7.87734 15.3112 7.46633 15.7223 6.96383 15.7223H3.93086C3.7651 15.7223 3.60613 15.7882 3.48892 15.9054C3.37171 16.0226 3.30586 16.1815 3.30586 16.3473C3.30586 16.5131 3.37171 16.672 3.48892 16.7892C3.60613 16.9065 3.7651 16.9723 3.93086 16.9723ZM33.6835 29.5808C32.2319 29.5808 31.0551 30.7577 31.0551 32.2093C31.0551 33.661 32.2319 34.8378 33.6835 34.8378C35.1352 34.8378 36.312 33.661 36.312 32.2093C36.312 30.7577 35.1352 29.5808 33.6835 29.5808ZM12.6023 31.1907C12.0393 31.1907 11.5837 31.6462 11.5837 32.2093C11.5837 32.7723 12.0393 33.2279 12.6023 33.2279C13.1654 33.2279 13.6209 32.7723 13.6209 32.2093C13.6209 31.6462 13.1655 31.1907 12.6023 31.1907ZM19.3638 31.1907C18.8008 31.1907 18.3452 31.6462 18.3452 32.2093C18.3452 32.7723 18.8008 33.2279 19.3638 33.2279C19.9269 33.2279 20.3824 32.7723 20.3824 32.2093C20.3824 31.6462 19.927 31.1907 19.3638 31.1907ZM33.6835 31.1907C33.1205 31.1907 32.6649 31.6462 32.6649 32.2093C32.6649 32.7723 33.1205 33.2279 33.6835 33.2279C34.2466 33.2279 34.7021 32.7723 34.7021 32.2093C34.7021 31.6462 34.2466 31.1907 33.6835 31.1907ZM19.3638 29.5808C20.8155 29.5808 21.9923 30.7576 21.9923 32.2093C21.9923 33.661 20.8155 34.8378 19.3638 34.8378C17.9122 34.8378 16.7354 33.661 16.7354 32.2093C16.7354 30.7575 17.9122 29.5808 19.3638 29.5808ZM12.6023 29.5808C14.054 29.5808 15.2308 30.7576 15.2308 32.2093C15.2308 33.661 14.054 34.8378 12.6023 34.8378C11.1507 34.8378 9.97391 33.661 9.97391 32.2093C9.97391 30.7575 11.1507 29.5808 12.6023 29.5808ZM31.7991 25.0877H30.6756C30.5099 25.0877 30.3509 25.1535 30.2337 25.2708C30.1165 25.388 30.0506 25.5469 30.0506 25.7127C30.0506 25.8785 30.1165 26.0374 30.2337 26.1546C30.3509 26.2718 30.5099 26.3377 30.6756 26.3377H31.7991C31.9649 26.3377 32.1239 26.2718 32.2411 26.1546C32.3583 26.0374 32.4241 25.8785 32.4241 25.7127C32.4241 25.5469 32.3583 25.388 32.2411 25.2708C32.1239 25.1535 31.9649 25.0877 31.7991 25.0877ZM38.1283 23.6848V22.8562C38.1283 22.7146 38.0953 22.6298 37.9998 22.5254L33.3757 17.4676C33.2695 17.3514 33.1713 17.3082 33.0138 17.3082H30.4026L30.4027 23.6849L38.1283 23.6848ZM28.1007 32.2093V28.5471H20.643C22.1991 29.0908 23.2423 30.5607 23.2423 32.2093H28.1007ZM8.69852 32.2093L8.72391 32.2093C8.72391 30.516 9.80992 29.0759 11.3231 28.5471H7.41063V30.9215C7.4107 31.6299 7.99008 32.2093 8.69852 32.2093ZM13.8822 28.5471C14.7777 28.8602 15.5235 29.4925 15.9831 30.3075C16.4427 29.4925 17.1885 28.8602 18.0841 28.5471H13.8822Z" fill="black"/>
</svg>
