<svg width="40" height="40" viewBox="0 0 40 40" fill="none" xmlns="http://www.w3.org/2000/svg">
<g clip-path="url(#clip0_1990_15039)">
<path fill-rule="evenodd" clip-rule="evenodd" d="M37.7453 17.743C36.7203 17.743 35.8563 18.425 35.582 19.3594C35.5508 19.3547 35.5203 19.3531 35.4891 19.3531H29.5141C29.507 19.3531 29.5008 19.3531 29.4922 19.3555C29.3508 17.2117 28.4977 15.2648 27.1688 13.7437L27.1844 13.7281L31.4094 9.50234C31.4313 9.48047 31.4516 9.45781 31.4695 9.43359C32.3242 9.89844 33.418 9.77031 34.1422 9.04609C35.0234 8.16719 35.0234 6.73828 34.1422 5.85703C33.2609 4.97578 31.8328 4.97578 30.9531 5.85703C30.2289 6.58125 30.0984 7.675 30.5656 8.52969C30.5414 8.54766 30.5187 8.56719 30.4969 8.58984L26.2719 12.8156L26.2562 12.8313C24.7352 11.5023 22.7883 10.65 20.6445 10.5078C20.6445 10.4992 20.6469 10.4922 20.6469 10.4859V4.51094C20.6469 4.47969 20.6445 4.44922 20.6406 4.41797C21.575 4.14375 22.257 3.27969 22.257 2.25469C22.257 1.01016 21.2469 0 20 0C18.7555 0 17.7453 1.01016 17.7453 2.25469C17.7453 3.27969 18.4273 4.14375 19.3617 4.41797C19.357 4.44922 19.3555 4.47969 19.3555 4.51094V10.5078C17.2141 10.6492 15.2648 11.5023 13.7437 12.8313C13.7391 12.8266 13.7352 12.8203 13.7281 12.8156L9.50469 8.58984C9.48281 8.56797 9.45781 8.54766 9.43359 8.52969C9.90078 7.675 9.77266 6.58125 9.04844 5.85703C8.16719 4.97578 6.73828 4.97578 5.85703 5.85703C4.97578 6.73828 4.97578 8.16719 5.85703 9.04609C6.58125 9.77031 7.675 9.89844 8.53203 9.43359C8.55 9.45781 8.56953 9.48047 8.59219 9.50234L12.8156 13.7281C12.8219 13.7328 12.8266 13.7391 12.8336 13.7437C11.5047 15.2648 10.6523 17.2117 10.5086 19.3555C10.5023 19.3531 10.493 19.3531 10.4867 19.3531H4.51094C4.47969 19.3531 4.45078 19.3555 4.42031 19.3594C4.14531 18.425 3.27969 17.743 2.25703 17.743C1.01016 17.743 0 18.7531 0 20C0 21.2445 1.01016 22.2547 2.25703 22.2547C3.28047 22.2547 4.14609 21.5727 4.42031 20.6383C4.45156 20.643 4.48047 20.6445 4.51094 20.6445H10.5078C10.6516 22.7859 11.5047 24.7352 12.8328 26.2562C12.8266 26.2609 12.8219 26.2648 12.8148 26.2719L8.59141 30.4953C8.56953 30.5172 8.54922 30.5422 8.53125 30.5641C7.67422 30.0992 6.58047 30.2273 5.85625 30.9516C4.975 31.8328 4.975 33.2617 5.85625 34.143C6.7375 35.0219 8.16641 35.0219 9.04766 34.143C9.77187 33.4187 9.9 32.325 9.43281 31.468C9.45703 31.45 9.48125 31.4305 9.50391 31.4078L13.7273 27.1828C13.7335 27.1786 13.7388 27.1733 13.743 27.1672C15.2641 28.4961 17.2133 29.3484 19.3547 29.4922V35.4867C19.3547 35.5203 19.357 35.5484 19.3609 35.5797C18.4266 35.8547 17.7445 36.7203 17.7445 37.743C17.7445 38.9898 18.7547 40 19.9992 40C21.2461 40 22.2563 38.9898 22.2563 37.743C22.2563 36.7195 21.5742 35.8539 20.6398 35.5797C20.6445 35.5484 20.6461 35.5195 20.6461 35.4867V29.5141C20.6461 29.5055 20.6437 29.4984 20.6437 29.4922C22.7875 29.3484 24.7344 28.4953 26.2555 27.1672C26.2602 27.1734 26.2664 27.1781 26.2711 27.1828L30.4961 31.4078C30.518 31.4297 30.5406 31.45 30.5648 31.468C30.0977 32.325 30.2281 33.4187 30.9523 34.143C31.8313 35.0219 33.2602 35.0219 34.1414 34.143C35.0227 33.2617 35.0227 31.8328 34.1414 30.9516C33.4172 30.2273 32.3234 30.0992 31.4687 30.5641C31.4508 30.5422 31.4312 30.5172 31.4086 30.4953L27.1836 26.2719C27.1789 26.2656 27.1727 26.2609 27.168 26.2562C28.4969 24.7352 29.3492 22.7859 29.4914 20.6445H35.4883C35.5195 20.6445 35.55 20.6422 35.5813 20.6383C35.8563 21.5727 36.7195 22.2547 37.7445 22.2547C38.9891 22.2547 39.9992 21.2445 39.9992 20C40 18.7531 38.9898 17.743 37.7453 17.743ZM24.132 19.4328L19.4813 25.3766C19.4063 25.4719 19.2844 25.507 19.1688 25.4672C19.0539 25.4273 18.9805 25.3258 18.9805 25.2016V21.2992C18.9805 21.1445 18.8539 21.018 18.6992 21.018H16.0883C15.9773 21.018 15.8844 20.9602 15.8359 20.8609C15.7875 20.7609 15.7984 20.6508 15.8672 20.5641L20.518 14.6227C20.593 14.525 20.7148 14.4898 20.8305 14.5297C20.9461 14.5695 21.0211 14.6734 21.0211 14.7953V18.6977C21.0211 18.8523 21.1477 18.9789 21.3023 18.9789H23.9133C24.0219 18.9789 24.1172 19.0391 24.1656 19.1359C24.2117 19.2359 24.2008 19.3469 24.132 19.4328Z" fill="black"/>
</g>
<defs>
<clipPath id="clip0_1990_15039">
<rect width="40" height="40" fill="white"/>
</clipPath>
</defs>
</svg>
