<svg width="40" height="41" viewBox="0 0 40 41" fill="none" xmlns="http://www.w3.org/2000/svg">
<path fill-rule="evenodd" clip-rule="evenodd" d="M19.9993 29.0137C15.2141 29.0137 11.3091 25.1088 11.3091 20.3235C11.3091 15.5383 15.2141 11.6333 19.9993 11.6333C24.7846 11.6333 28.6895 15.5383 28.6895 20.3235C28.6895 25.1088 24.7846 29.0137 19.9993 29.0137ZM19.3719 15.4827C19.1372 15.5238 18.9073 15.5883 18.6856 15.6752C17.6011 16.1022 16.8136 17.0352 16.8751 18.3089V18.3093C16.9574 19.9929 18.4895 20.6791 19.9057 20.9123L19.9063 20.9124C20.4286 20.9979 20.9966 21.1286 21.4501 21.402C21.8108 21.6196 22.0894 21.9391 22.1499 22.433C22.2097 22.9302 21.9806 23.2853 21.6381 23.5214C21.2071 23.8186 20.6232 23.953 20.0977 23.9655C19.0982 23.989 18.0756 23.5324 17.8209 22.5094C17.7373 22.1733 17.3965 21.9685 17.0605 22.0521C16.899 22.0924 16.7602 22.1951 16.6744 22.3377C16.5887 22.4803 16.5631 22.6511 16.6032 22.8125C16.9406 24.1678 18.0813 24.9696 19.3719 25.1709V25.8235C19.3719 26.1699 19.653 26.451 19.9993 26.451C20.3456 26.451 20.6268 26.1699 20.6268 25.8235V25.1798C22.1121 24.9766 23.6059 24.0231 23.3957 22.2822L23.3956 22.2813C23.1843 20.55 21.565 19.9122 20.1089 19.674C19.7124 19.6087 19.2919 19.5075 18.9279 19.3296C18.5027 19.1216 18.1555 18.7996 18.1285 18.2482C18.0952 17.5569 18.5566 17.0746 19.1453 16.8429C20.1187 16.4597 21.4704 16.7156 21.9791 17.9256C22.0436 18.079 22.1664 18.2005 22.3205 18.2634C22.4745 18.3262 22.6472 18.3254 22.8006 18.2609C22.954 18.1964 23.0755 18.0736 23.1384 17.9196C23.2012 17.7655 23.2004 17.5928 23.1359 17.4394C22.6452 16.272 21.6653 15.6466 20.6268 15.475V14.8235C20.6268 14.4772 20.3456 14.1961 19.9993 14.1961C19.653 14.1961 19.3719 14.4772 19.3719 14.8235V15.4827ZM31.3822 20.3235H38.8228V22.8726L35.7044 24.0729C35.3094 25.7347 34.6478 27.3195 33.7554 28.7762L35.1094 31.8331L31.5089 35.4336L28.4519 34.0796C27.0004 34.9772 25.4104 35.6336 23.7486 36.0286L22.5484 39.1471H17.4553L16.2552 36.0286C14.5882 35.6336 13.0033 34.972 11.5467 34.0796L8.48974 35.4336L4.88919 31.8331L6.24841 28.7762C5.35084 27.3246 4.69429 25.7347 4.29421 24.0729L1.17578 22.8726V17.7795L4.29421 16.5794C4.69429 14.9124 5.35084 13.3275 6.24841 11.8709L4.88919 8.81396L8.48974 5.21341L11.5467 6.57263C13.0005 5.67633 14.5883 5.01835 16.25 4.62361L17.4553 1.5H19.9999V8.94063H19.9993C13.731 8.94063 8.61641 14.0552 8.61641 20.3235C8.61641 26.5918 13.731 31.7064 19.9993 31.7064C26.2676 31.7064 31.3822 26.5918 31.3822 20.3235ZM23.2129 9.40392L25.0439 4.98345C25.7132 5.20465 26.3671 5.46972 27.0014 5.77694L25.1737 10.1894C24.546 9.86696 23.8896 9.60398 23.2129 9.40392ZM35.1661 14.7819L30.7577 16.6079C30.526 15.941 30.2326 15.2971 29.8812 14.6848L34.3086 12.8509C34.6364 13.4751 34.9229 14.1201 35.1661 14.7819ZM27.0381 11.3889L30.4221 8.00502C30.9597 8.46086 31.4673 8.95104 31.9416 9.47247L28.5687 12.8453C28.1043 12.314 27.5919 11.8264 27.0381 11.3889Z" fill="#FDFDFD"/>
</svg>
