<svg width="54" height="54" viewBox="0 0 54 54" fill="none" xmlns="http://www.w3.org/2000/svg">
<g clip-path="url(#clip0_1998_14141)">
<path d="M47.9859 9.97102C47.9859 13.6063 45.0388 16.5533 41.4039 16.5533C37.7686 16.5533 34.8216 13.6063 34.8216 9.97102C34.8216 6.33593 37.7686 3.38903 41.4039 3.38903C45.0388 3.38903 47.9859 6.33604 47.9859 9.97102ZM30.0111 18.497L26.8871 13.8123V5.81871C26.8871 2.62934 24.3148 0 21.0695 0H5.81892C2.59021 0 0 2.61362 0 5.81892V15.1381C0 18.336 2.58072 20.9565 5.81892 20.9565H28.6949C29.9552 20.9565 30.7115 19.5475 30.0111 18.497ZM13.3995 15.026H8.40449C7.55251 15.026 6.81961 14.3705 6.78006 13.5194C6.7385 12.6105 7.46107 11.862 8.36051 11.862H13.4444C14.3421 11.862 15.0664 12.6105 15.0243 13.5189C14.9852 14.3705 14.2519 15.026 13.3995 15.026ZM18.5279 9.09457H8.40533C7.55378 9.09457 6.82119 8.44077 6.78048 7.59048C6.73682 6.68166 7.46023 5.93051 8.3604 5.93051H18.483C19.3354 5.93051 20.0687 6.586 20.1078 7.43766C20.1499 8.34606 19.4257 9.09457 18.5279 9.09457ZM12.2854 39.2504C5.47172 39.2739 0 44.8992 0 51.713V52.06C0 53.1315 0.86843 54 1.9401 54H22.7178C23.7893 54 24.6579 53.1316 24.6579 52.0599V51.5792C24.6579 44.7553 19.1145 39.2266 12.2854 39.2504Z" fill="black"/>
<path d="M20.0934 31.4873C20.0934 35.7749 16.6179 39.2509 12.3299 39.2509C8.04234 39.2509 4.56641 35.7749 4.56641 31.4873C4.56641 27.1998 8.04234 23.7238 12.33 23.7238C16.6179 23.7238 20.0934 27.1998 20.0934 31.4873ZM51.3883 25.4184H31.4197C32.0084 20.4267 36.2535 16.5537 41.4046 16.5537C46.5545 16.5537 50.7996 20.4267 51.3883 25.4184ZM52.4187 28.6879C53.2925 28.6879 54.0008 29.3961 54.0008 30.2699V49.0298C54.0008 49.9284 53.2509 50.6529 52.3417 50.6097C51.4917 50.5694 50.8367 49.8365 50.8367 48.9844V47.222H27.1981C26.1348 43.6023 23.784 40.5268 20.6759 38.5323C22.2852 36.6286 23.2578 34.169 23.2578 31.487C23.2578 30.52 23.131 29.5823 22.8937 28.6879H52.4187Z" fill="black"/>
</g>
<defs>
<clipPath id="clip0_1998_14141">
<rect width="54" height="54" fill="white"/>
</clipPath>
</defs>
</svg>
