<svg width="54" height="54" viewBox="0 0 54 54" fill="none" xmlns="http://www.w3.org/2000/svg">
<g clip-path="url(#clip0_1998_14110)">
<path d="M21.9885 11.9159V6.78461C10.8321 7.57162 1.70859 16.1309 0.214629 27.1924H5.39082C6.81634 19.0211 13.6092 12.6703 21.9885 11.9159ZM25.3455 48.8675V53.9988C37.5638 53.1385 47.2513 42.9621 47.3328 30.5488H42.216C42.1376 40.0637 34.8574 48.0056 25.3455 48.8675ZM39.1669 20.2117H52.0925C53.1629 20.2117 53.9683 19.2214 53.7325 18.1778C51.604 8.74148 43.8413 1.49303 34.256 0.0197382C33.2413 -0.136356 32.327 0.653395 32.327 1.68013V13.9894C35.0965 15.4574 37.4506 17.6068 39.1669 20.2117ZM5.11566 30.5488H0C0 42.3812 9.24908 53.0553 21.9742 53.9988C21.9787 53.9988 21.984 54 21.9885 54V48.8675C12.5034 48.0084 5.19434 40.0847 5.11566 30.5488Z" fill="#FDFDFD"/>
<path d="M8.47266 30.3909C8.47266 34.6797 10.3138 38.8066 13.5187 41.6938V41.1759C13.5187 37.3894 15.6034 34.0807 18.6858 32.3376C17.2036 30.8741 16.5105 28.8838 16.5712 27.1918C16.6226 23.3042 19.8044 20.1897 23.6671 20.1897H23.6684C27.5366 20.1897 30.7118 23.3109 30.7633 27.1918C30.8246 28.9086 30.1164 30.8914 28.6486 32.3376C31.7298 34.0807 33.8145 37.3894 33.8145 41.1759V41.697C37.0147 38.8135 38.8617 34.6883 38.8617 30.3909C38.8617 22.0301 32.0663 15.1973 23.6684 15.1973H23.6672C15.3051 15.1973 8.47266 21.9987 8.47266 30.3909Z" fill="#FDFDFD"/>
<path d="M23.6667 23.5469C21.6058 23.5469 19.9262 25.2245 19.9262 27.2873C19.9262 29.3497 21.6038 31.0289 23.6667 31.0289H23.6678C25.7385 31.0289 27.4071 29.3431 27.4071 27.2873C27.4071 25.222 25.7266 23.5469 23.6678 23.5469H23.6667ZM30.4574 41.1762C30.4574 37.4284 27.4062 34.3854 23.6678 34.3854H23.6667C19.9167 34.3854 16.875 37.4357 16.875 41.1762V43.9867C21.3706 46.1979 26.3181 46.0397 30.4574 43.988V41.1762Z" fill="#FDFDFD"/>
</g>
<defs>
<clipPath id="clip0_1998_14110">
<rect width="54" height="54" fill="white"/>
</clipPath>
</defs>
</svg>
