<svg width="54" height="54" viewBox="0 0 54 54" fill="none" xmlns="http://www.w3.org/2000/svg">
<path d="M21.012 27.2246C21.1624 27.3899 21.2409 27.608 21.2304 27.8311C21.2199 28.0543 21.1212 28.2641 20.956 28.4144L19.5486 29.6917C19.2221 30.0266 18.6806 30.0261 18.3509 29.6964L17.7574 29.1028C17.679 29.0245 17.6169 28.9315 17.5745 28.8292C17.532 28.7268 17.5102 28.6171 17.5102 28.5063C17.5102 28.3955 17.532 28.2858 17.5745 28.1835C17.6169 28.0811 17.679 27.9881 17.7574 27.9098C17.8357 27.8314 17.9287 27.7693 18.031 27.7269C18.1334 27.6845 18.2431 27.6626 18.3539 27.6626C18.4647 27.6626 18.5744 27.6845 18.6767 27.7269C18.7791 27.7693 18.8721 27.8314 18.9504 27.9098L18.9767 27.936L19.8222 27.1686C19.9874 27.0183 20.2056 26.9398 20.4287 26.9503C20.6518 26.9608 20.8616 27.0595 21.012 27.2246ZM36.0493 5.86438L39.831 5.86438C39.7969 5.7908 39.7499 5.72396 39.6921 5.66705L35.9098 1.88473C35.8529 1.82697 35.7861 1.77992 35.7126 1.74582V5.52762C35.7127 5.61688 35.7483 5.70244 35.8114 5.76556C35.8745 5.82868 35.9601 5.86421 36.0493 5.86438ZM14.1089 34.4278L14.1089 2.36113C14.1089 1.99009 14.4115 1.6875 14.7825 1.6875L34.0251 1.6875V5.52762C34.0251 6.64453 34.9324 7.55188 36.0493 7.55188L39.8894 7.55188L39.8894 34.4278C39.8894 34.7989 39.5869 35.1015 39.2158 35.1015L14.7825 35.1015C14.4115 35.1015 14.1089 34.7988 14.1089 34.4278ZM21.9347 26.1991C21.9347 26.0248 21.7925 25.8827 21.6182 25.8827H17.1248C16.9505 25.8827 16.8083 26.0248 16.8083 26.1991V30.6926C16.8083 30.8668 16.9505 31.009 17.1248 31.009H21.6182C21.7925 31.009 21.9347 30.8668 21.9347 30.6926V26.1991ZM21.9347 17.8452C21.9347 17.671 21.7925 17.5288 21.6182 17.5288H17.1248C16.9505 17.5288 16.8083 17.671 16.8083 17.8452V22.3387C16.8083 22.5129 16.9505 22.6551 17.1248 22.6551H21.6182C21.7925 22.6551 21.9347 22.5129 21.9347 22.3387V17.8452ZM36.4853 29.8381C36.4853 29.6143 36.3964 29.3997 36.2382 29.2414C36.08 29.0832 35.8654 28.9943 35.6416 28.9943H24.6755C24.4517 28.9943 24.2371 29.0832 24.0788 29.2414C23.9206 29.3997 23.8317 29.6143 23.8317 29.8381C23.8317 30.0618 23.9206 30.2764 24.0788 30.4347C24.2371 30.5929 24.4517 30.6818 24.6755 30.6818H35.6415C35.7523 30.6818 35.862 30.66 35.9644 30.6176C36.0668 30.5752 36.1598 30.5131 36.2382 30.4347C36.3165 30.3564 36.3787 30.2633 36.4211 30.161C36.4635 30.0586 36.4853 29.9489 36.4853 29.8381ZM36.4853 27.0535C36.4853 26.8297 36.3964 26.6151 36.2382 26.4569C36.08 26.2986 35.8654 26.2097 35.6416 26.2097H24.6755C24.4517 26.2097 24.2371 26.2986 24.0788 26.4569C23.9206 26.6151 23.8317 26.8297 23.8317 27.0535C23.8317 27.2772 23.9206 27.4919 24.0788 27.6501C24.2371 27.8083 24.4517 27.8972 24.6755 27.8972H35.6415C35.7523 27.8972 35.862 27.8754 35.9644 27.833C36.0668 27.7906 36.1598 27.7285 36.2382 27.6501C36.3165 27.5718 36.3787 27.4788 36.4211 27.3764C36.4635 27.274 36.4853 27.1643 36.4853 27.0535ZM36.4853 21.4843C36.4853 21.2605 36.3964 21.0459 36.2382 20.8877C36.08 20.7294 35.8654 20.6406 35.6416 20.6406H24.6755C24.4517 20.6406 24.2371 20.7294 24.0788 20.8877C23.9206 21.0459 23.8317 21.2605 23.8317 21.4843C23.8317 21.7081 23.9206 21.9227 24.0788 22.0809C24.2371 22.2392 24.4517 22.3281 24.6755 22.3281H35.6415C35.7523 22.3281 35.862 22.3063 35.9644 22.2639C36.0668 22.2215 36.1598 22.1593 36.2382 22.081C36.3165 22.0026 36.3787 21.9096 36.4211 21.8072C36.4635 21.7048 36.4853 21.5951 36.4853 21.4843ZM36.4853 18.6997C36.4853 18.4759 36.3964 18.2613 36.2382 18.1031C36.08 17.9449 35.8654 17.856 35.6416 17.856H24.6755C24.4517 17.856 24.2371 17.9449 24.0788 18.1031C23.9206 18.2613 23.8317 18.4759 23.8317 18.6997C23.8317 18.9235 23.9206 19.1381 24.0788 19.2963C24.2371 19.4546 24.4517 19.5435 24.6755 19.5435H35.6415C35.8653 19.5435 36.0799 19.4546 36.2381 19.2963C36.3964 19.1381 36.4853 18.9235 36.4853 18.6997ZM28.0802 7.21448C28.0802 7.43826 28.1691 7.65287 28.3273 7.81111C28.4856 7.96934 28.7002 8.05823 28.924 8.05823H32.8294C33.0531 8.05823 33.2678 7.96934 33.426 7.81111C33.5842 7.65287 33.6731 7.43826 33.6731 7.21448C33.6731 6.99071 33.5842 6.7761 33.426 6.61786C33.2678 6.45963 33.0531 6.37073 32.8294 6.37073L28.924 6.37073C28.7002 6.37073 28.4856 6.45963 28.3273 6.61786C28.1691 6.7761 28.0802 6.99071 28.0802 7.21448ZM28.0802 10.3787C28.0802 10.6024 28.1691 10.817 28.3273 10.9753C28.4856 11.1335 28.7002 11.2224 28.924 11.2224L37.4138 11.2224C37.6376 11.2224 37.8522 11.1335 38.0104 10.9753C38.1686 10.817 38.2575 10.6024 38.2575 10.3787C38.2575 10.1549 38.1686 9.94026 38.0104 9.78203C37.8522 9.6238 37.6376 9.5349 37.4138 9.5349H28.924C28.7002 9.5349 28.4856 9.6238 28.3273 9.78203C28.1691 9.94026 28.0802 10.1549 28.0802 10.3787ZM16.739 8.30482C16.739 10.9236 18.8621 13.0467 21.4809 13.0467C24.0997 13.0467 26.2228 10.9236 26.2228 8.30482C26.2228 5.68603 24.0997 3.56295 21.4809 3.56295C18.8621 3.56295 16.739 5.68603 16.739 8.30482ZM19.8222 18.8149L18.9767 19.5823L18.9504 19.556C18.8721 19.4777 18.7791 19.4155 18.6767 19.3731C18.5744 19.3307 18.4647 19.3089 18.3539 19.3089C18.2431 19.3089 18.1334 19.3307 18.031 19.3731C17.9287 19.4155 17.8357 19.4777 17.7574 19.556C17.679 19.6343 17.6169 19.7273 17.5745 19.8297C17.532 19.9321 17.5102 20.0418 17.5102 20.1525C17.5102 20.2633 17.532 20.373 17.5745 20.4754C17.6169 20.5777 17.679 20.6707 17.7574 20.7491L18.3509 21.3427C18.6806 21.6724 19.2222 21.6729 19.5486 21.3379L20.956 20.0607C21.119 19.9098 21.2158 19.7006 21.2253 19.4786C21.2347 19.2567 21.1562 19.04 21.0067 18.8758C20.8572 18.7115 20.6488 18.6129 20.427 18.6015C20.2051 18.5901 19.9878 18.6668 19.8222 18.8149ZM18.836 10.9602C18.1285 10.2598 17.733 9.29939 17.733 8.30482C17.733 6.23478 19.4109 4.55699 21.4808 4.55699C23.5509 4.55699 25.2287 6.23489 25.2287 8.30482C25.2287 9.29939 24.8331 10.2598 24.1257 10.9602C23.6365 9.99612 22.6358 9.33546 21.4807 9.33546C20.3258 9.33546 19.3251 9.99612 18.836 10.9602ZM19.9822 7.21543C19.9822 8.04315 20.6532 8.71414 21.4809 8.71414C22.3086 8.71414 22.9796 8.04315 22.9796 7.21543C22.9796 6.38772 22.3086 5.71672 21.4809 5.71672C20.6532 5.71672 19.9822 6.38772 19.9822 7.21543ZM43.778 16.2458L41.5769 16.2458V18.795H43.8544C43.9665 18.7953 44.0738 18.8399 44.153 18.9191C44.2322 18.9983 44.2769 19.1057 44.2773 19.2177L44.2773 38.1796L9.72116 38.1796L9.72116 19.2178C9.72149 19.1057 9.76615 18.9984 9.84538 18.9192C9.9246 18.84 10.032 18.7954 10.144 18.7951H12.4215V16.2459H10.2203C8.54371 16.2459 7.17187 17.6177 7.17187 19.2943L7.17187 40.2664C7.17187 41.943 8.54371 43.3149 10.2203 43.3149H20.7677V48.1582H16.1274C14.6976 48.1582 13.5277 49.0929 13.5277 50.2353V52.3125L40.4705 52.3125V50.2353C40.4705 49.0929 39.3006 48.1582 37.8708 48.1582L33.2306 48.1582L33.2306 43.3149L43.778 43.3149C45.4546 43.3149 46.8264 41.943 46.8264 40.2664L46.8264 19.2942C46.8264 17.6176 45.4546 16.2458 43.778 16.2458Z" fill="#FDFDFD"/>
</svg>
