<svg width="140" height="140" viewBox="0 0 140 140" fill="none" xmlns="http://www.w3.org/2000/svg">
<g filter="url(#filter0_d_629_8818)">
<circle cx="70" cy="70" r="65" fill="#FDFDFD"/>
</g>
<g filter="url(#filter1_d_629_8818)">
<circle cx="70" cy="70" r="54" fill="#F37329"/>
</g>
<path d="M60.2394 88.5271C60.2356 88.5272 60.2319 88.5272 60.2281 88.5272L60.2248 88.5269C60.1952 88.5279 60.1661 88.5288 60.1362 88.5288C58.0336 88.5288 55.7922 86.8963 55.034 84.8122L44.5423 55.9863L43 56.0259L55.4645 90.2717L79.5244 89.6532L78.9395 88.0464L60.2394 88.5271Z" fill="#FDFDFD"/>
<path d="M55.8565 84.5142C56.486 86.2451 58.4071 87.6548 60.137 87.6548C60.1636 87.6548 60.1891 87.6538 60.2204 87.6534C60.9672 87.6335 61.5695 87.3425 61.9162 86.8338C62.3055 86.2621 62.35 85.4805 62.0415 84.6326C62.0177 84.5675 62.0098 84.4976 62.0185 84.4288C62.0271 84.36 62.0519 84.2943 62.0909 84.2369C62.13 84.1796 62.1821 84.1325 62.243 84.0993C62.3039 84.0661 62.3718 84.0479 62.4411 84.0461L79.808 83.5996L76.8971 75.6021C76.6746 75.3492 76.461 75.0888 76.2564 74.8213L73.8908 74.6744L60.6835 75.0141C60.5676 75.017 60.4553 74.9738 60.3713 74.894C60.2872 74.8142 60.2383 74.7043 60.2352 74.5884C60.2323 74.4725 60.2755 74.3602 60.3553 74.2762C60.4351 74.1921 60.5451 74.1432 60.661 74.1402L73.1629 73.8186C72.9895 73.4976 72.8254 73.1716 72.6708 72.8411C72.4131 72.2885 72.1821 71.7237 71.9786 71.1489C71.9562 71.0858 71.9486 71.0183 71.9565 70.9518C71.9643 70.8853 71.9873 70.8215 72.0238 70.7653L73.4159 68.6177C73.2246 67.7078 73.1213 66.7929 73.1079 65.8931L71.155 63.7605C71.1127 63.7142 71.0808 63.6593 71.0615 63.5996C71.0422 63.5398 71.036 63.4767 71.0433 63.4143C71.1441 62.5553 71.3165 61.7227 71.5564 60.9295L68.6237 52.8711L66.6064 52.9224L67.2586 54.7157C67.5171 55.426 67.4485 56.3012 66.9033 56.8579C66.1989 57.5768 65.1014 57.3391 64.3344 56.8259C63.7368 56.426 63.2296 55.8117 62.9717 55.1036L62.7717 54.5539C62.7499 54.4936 62.7416 54.4293 62.7475 54.3654C62.7534 54.3016 62.7732 54.2398 62.8057 54.1845C62.8568 54.0963 62.9372 54.0286 63.0329 53.9933C63.0868 53.9737 63.1441 53.9648 63.2014 53.9673C63.2588 53.9697 63.3151 53.9835 63.3672 54.0077C63.4192 54.0319 63.466 54.0662 63.5048 54.1085C63.5436 54.1508 63.5737 54.2003 63.5933 54.2543C63.9456 55.2244 64.5959 56.465 65.8185 56.4346C66.0828 56.4281 66.2808 56.3308 66.4075 56.145C66.5877 55.8805 66.5987 55.4576 66.4369 55.015L65.6839 52.9463L62.3859 53.0316C62.1592 52.4062 61.798 51.6252 62.2253 50.9968C62.3946 50.7476 62.6701 50.6111 63.0185 50.6023H63.0557C63.8481 50.6023 64.7704 51.2372 65.2971 52.0819C65.4666 52.3543 65.5752 52.6467 65.6839 52.9463L66.1452 52.9343L66.6055 52.9223C66.5126 52.9175 66.3029 52.1129 66.2615 52.0228C66.0623 51.5876 65.762 51.1731 65.4235 50.8361C64.789 50.2045 63.914 49.7071 62.9967 49.7292C62.3628 49.7445 61.8329 50.0211 61.5028 50.5051C61.1936 50.9587 61.0919 51.5519 61.2023 52.1869C61.2544 52.4872 61.3598 52.7695 61.4635 53.0547L44.5645 53.4896L55.8565 84.5142ZM76.4847 80.9361L76.496 80.9359C76.6106 80.9364 76.7203 80.982 76.8017 81.0627C76.883 81.1434 76.9294 81.2528 76.9309 81.3674C76.9323 81.482 76.8888 81.5926 76.8095 81.6754C76.7303 81.7581 76.6217 81.8065 76.5071 81.81L63.2809 82.1501C63.1651 82.153 63.0528 82.1098 62.9687 82.03C62.8847 81.9502 62.8358 81.8403 62.8327 81.7244C62.8297 81.6085 62.8729 81.4962 62.9528 81.4121C63.0326 81.3281 63.1426 81.2792 63.2585 81.2762L76.4847 80.9361ZM62.3729 78.8434L68.9858 78.6732L68.9973 78.673C69.1119 78.6736 69.2217 78.7192 69.303 78.8C69.3843 78.8807 69.4306 78.9901 69.4321 79.1047C69.4335 79.2193 69.3899 79.3298 69.3107 79.4126C69.2314 79.4953 69.1228 79.5436 69.0083 79.5471L62.3953 79.7173C62.2794 79.7202 62.1672 79.677 62.0831 79.5972C61.9991 79.5174 61.9501 79.4075 61.9471 79.2916C61.9456 79.2342 61.9554 79.1771 61.976 79.1235C61.9966 79.0699 62.0276 79.0209 62.0671 78.9793C62.1066 78.9376 62.154 78.9042 62.2065 78.8809C62.2589 78.8576 62.3155 78.8448 62.3729 78.8434ZM51.6537 68.0434C51.564 68.0433 51.4765 68.0157 51.403 67.9642C51.3296 67.9128 51.2737 67.84 51.2429 67.7557L49.8999 64.066C49.8762 64.0009 49.8683 63.931 49.8769 63.8622C49.8855 63.7934 49.9103 63.7276 49.9494 63.6703C49.9884 63.613 50.0405 63.5658 50.1014 63.5327C50.1623 63.4995 50.2302 63.4813 50.2995 63.4795L52.6217 63.4199C52.6791 63.4184 52.7363 63.4282 52.7899 63.4487C52.8435 63.4693 52.8926 63.5003 52.9342 63.5398C52.9758 63.5794 53.0093 63.6267 53.0326 63.6792C53.0559 63.7317 53.0686 63.7883 53.07 63.8457C53.0715 63.9031 53.0616 63.9602 53.041 64.0138C53.0204 64.0673 52.9895 64.1163 52.9499 64.158C52.9104 64.1996 52.863 64.233 52.8106 64.2563C52.7581 64.2796 52.7016 64.2924 52.6442 64.2938L50.9293 64.3378L51.957 67.1611L54.7102 67.0903L54.3608 66.1307C54.322 66.0219 54.3278 65.9022 54.377 65.7978C54.4261 65.6933 54.5146 65.6125 54.6231 65.573C54.7316 65.5335 54.8513 65.5385 54.9561 65.587C55.0609 65.6355 55.1422 65.7234 55.1824 65.8317L55.7396 67.3622C55.7633 67.4274 55.7712 67.4972 55.7626 67.566C55.754 67.6348 55.7292 67.7006 55.6901 67.7579C55.6511 67.8152 55.599 67.8624 55.5381 67.8956C55.4772 67.9288 55.4093 67.947 55.34 67.9487L51.665 68.0432L51.6537 68.0434ZM57.3266 70.4448C57.3755 70.4749 57.4179 70.5143 57.4516 70.5609C57.4852 70.6074 57.5093 70.6601 57.5226 70.7159C57.5359 70.7718 57.538 70.8297 57.5289 70.8864C57.5197 70.9431 57.4995 70.9974 57.4694 71.0463L56.068 73.3204C56.0366 73.3714 55.9949 73.4154 55.9457 73.4496C55.8966 73.4838 55.8409 73.5076 55.7821 73.5194C55.7234 73.5313 55.6628 73.5309 55.6042 73.5183C55.5456 73.5058 55.4902 73.4814 55.4414 73.4465L54.128 72.5057C54.0338 72.4382 53.9702 72.336 53.9513 72.2216C53.9324 72.1072 53.9597 71.99 54.0273 71.8958C54.0948 71.8015 54.197 71.7379 54.3114 71.719C54.4258 71.7001 54.543 71.7275 54.6372 71.795L55.5696 72.4629L56.7252 70.5877C56.7553 70.5388 56.7947 70.4963 56.8412 70.4627C56.8878 70.429 56.9404 70.4049 56.9963 70.3916C57.0521 70.3783 57.1101 70.3762 57.1667 70.3853C57.2234 70.3945 57.2777 70.4146 57.3266 70.4448ZM56.7525 65.0197C56.7496 64.9038 56.7927 64.7914 56.8726 64.7074C56.9524 64.6233 57.0624 64.5744 57.1783 64.5714L63.7915 64.4014L63.803 64.4013C63.9176 64.4019 64.0273 64.4475 64.1086 64.5282C64.1899 64.609 64.2363 64.7184 64.2377 64.833C64.2392 64.9476 64.1956 65.0581 64.1163 65.1409C64.0371 65.2236 63.9285 65.2719 63.814 65.2754L57.2008 65.4454C57.0849 65.4484 56.9726 65.4052 56.8885 65.3254C56.8044 65.2455 56.7555 65.1356 56.7525 65.0197ZM54.2509 75.1793C54.1612 75.1792 54.0737 75.1516 54.0002 75.1002C53.9267 75.0487 53.8708 74.9759 53.8401 74.8916L52.4973 71.2019C52.4736 71.1368 52.4657 71.0669 52.4743 70.9982C52.4828 70.9294 52.5077 70.8636 52.5467 70.8063C52.5857 70.749 52.6378 70.7018 52.6987 70.6686C52.7595 70.6354 52.8274 70.6172 52.8967 70.6154L55.2191 70.5556C55.4581 70.5482 55.6609 70.74 55.6671 70.9813C55.6687 71.0387 55.6588 71.0958 55.6382 71.1494C55.6176 71.203 55.5867 71.252 55.5472 71.2936C55.5076 71.3353 55.4603 71.3687 55.4078 71.392C55.3553 71.4153 55.2988 71.4281 55.2414 71.4295L53.5267 71.4736L54.5541 74.297L57.3076 74.2262L56.9582 73.2664C56.9213 73.1581 56.9284 73.0397 56.9778 72.9365C57.0272 72.8334 57.1151 72.7537 57.2225 72.7146C57.33 72.6754 57.4486 72.68 57.5527 72.7272C57.6569 72.7744 57.7384 72.8606 57.7798 72.9673L58.337 74.498C58.3607 74.5632 58.3686 74.633 58.36 74.7019C58.3514 74.7707 58.3266 74.8364 58.2875 74.8937C58.2485 74.951 58.1964 74.9982 58.1355 75.0314C58.0746 75.0646 58.0067 75.0828 57.9374 75.0845L54.2622 75.179C54.2583 75.1793 54.2546 75.1793 54.2509 75.1793ZM59.3223 77.7236C59.384 77.6269 59.4813 77.5583 59.5931 77.5327C59.705 77.5071 59.8224 77.5265 59.9201 77.5867C60.0177 77.6468 60.0878 77.743 60.1152 77.8544C60.1427 77.9658 60.1252 78.0835 60.0666 78.1822L58.6652 80.4562C58.6338 80.5072 58.5921 80.5512 58.543 80.5855C58.4938 80.6198 58.4381 80.6436 58.3793 80.6554C58.3205 80.6672 58.26 80.6668 58.2014 80.6543C58.1428 80.6417 58.0874 80.6172 58.0386 80.5823L56.7256 79.6418C56.6776 79.6089 56.6366 79.5668 56.605 79.5179C56.5734 79.4689 56.5519 79.4142 56.5418 79.3569C56.5317 79.2996 56.5331 79.2408 56.546 79.184C56.5589 79.1272 56.583 79.0736 56.6169 79.0263C56.6508 78.9789 56.6938 78.9389 56.7434 78.9084C56.793 78.8779 56.8482 78.8576 56.9057 78.8488C56.9633 78.8399 57.022 78.8426 57.0785 78.8568C57.135 78.8709 57.1881 78.8962 57.2346 78.9311L58.1668 79.5988L59.3223 77.7236ZM60.377 80.1033L60.9342 81.6343C60.9578 81.6994 60.9657 81.7692 60.957 81.838C60.9484 81.9068 60.9235 81.9725 60.8845 82.0298C60.8455 82.0871 60.7934 82.1343 60.7325 82.1675C60.6717 82.2006 60.6038 82.2189 60.5345 82.2207L56.8596 82.3152C56.768 82.3175 56.678 82.291 56.6022 82.2394C56.5265 82.1878 56.4689 82.1138 56.4375 82.0277L55.0947 78.338C55.0709 78.2729 55.063 78.203 55.0716 78.1342C55.0802 78.0654 55.1051 77.9997 55.1441 77.9424C55.1832 77.8851 55.2353 77.8379 55.2962 77.8047C55.3571 77.7715 55.425 77.7533 55.4943 77.7515L57.8163 77.6918L57.8276 77.6916C57.9415 77.6917 58.051 77.7363 58.1326 77.8158C58.2142 77.8953 58.2615 78.0036 58.2645 78.1175C58.2674 78.2334 58.2242 78.3457 58.1444 78.4298C58.0646 78.5138 57.9546 78.5627 57.8388 78.5658L56.124 78.6098L57.1515 81.4331L59.9048 81.3624L59.5554 80.4022C59.5158 80.2932 59.5211 80.173 59.5701 80.0679C59.6191 79.9629 59.7079 79.8816 59.8168 79.8419C59.8708 79.8223 59.928 79.8135 59.9854 79.816C60.0427 79.8185 60.099 79.8322 60.1511 79.8565C60.2031 79.8808 60.2498 79.9151 60.2886 79.9574C60.3273 79.9998 60.3574 80.0493 60.377 80.1033ZM66.4111 72.4113L59.7982 72.5815L59.7869 72.5816C59.6723 72.5809 59.5625 72.5354 59.4812 72.4546C59.3999 72.3739 59.3536 72.2645 59.3521 72.1499C59.3507 72.0353 59.3943 71.9248 59.4735 71.842C59.5528 71.7593 59.6614 71.7109 59.7759 71.7074L66.3887 71.5373C66.6251 71.5316 66.8307 71.7217 66.8369 71.963C66.8384 72.0204 66.8286 72.0775 66.808 72.1311C66.7874 72.1847 66.7564 72.2337 66.7169 72.2754C66.6774 72.317 66.63 72.3504 66.5775 72.3738C66.5251 72.3971 66.4685 72.4099 66.4111 72.4113ZM71.2901 66.6641L71.3014 66.664C71.416 66.6646 71.5258 66.7102 71.6071 66.7909C71.6885 66.8716 71.7349 66.981 71.7363 67.0956C71.7378 67.2102 71.6942 67.3208 71.615 67.4035C71.5357 67.4863 71.4271 67.5346 71.3126 67.5382L58.0864 67.8783C57.9705 67.8812 57.8582 67.838 57.7742 67.7582C57.6901 67.6783 57.6412 67.5684 57.6381 67.4525C57.6352 67.3366 57.6784 67.2243 57.7582 67.1402C57.8381 67.0562 57.948 67.0073 58.0639 67.0043L71.2901 66.6641ZM68.693 59.5281L68.7045 59.528C68.8204 59.5266 68.9321 59.5712 69.0151 59.6521C69.0981 59.7331 69.1455 59.8437 69.147 59.9596C69.1485 60.0755 69.1038 60.1873 69.0229 60.2702C68.9419 60.3532 68.8313 60.4007 68.7154 60.4021L55.489 60.7423L55.4777 60.7424C55.3639 60.7406 55.2553 60.6945 55.175 60.6138C55.0946 60.5332 55.0489 60.4245 55.0474 60.3106C55.046 60.1968 55.089 60.087 55.1673 60.0043C55.2456 59.9217 55.353 59.8729 55.4668 59.8683L68.693 59.5281ZM54.5811 57.4355L61.1941 57.2654L61.2056 57.2652C61.3202 57.2658 61.43 57.3114 61.5113 57.3921C61.5926 57.4729 61.6389 57.5823 61.6404 57.6969C61.6418 57.8114 61.5982 57.922 61.5189 58.0047C61.4397 58.0875 61.3311 58.1358 61.2166 58.1393L54.6034 58.3095L54.5921 58.3096C54.4775 58.309 54.3678 58.2634 54.2865 58.1827C54.2052 58.102 54.1588 57.9925 54.1574 57.878C54.1559 57.7634 54.1995 57.6528 54.2788 57.5701C54.358 57.4873 54.4666 57.439 54.5811 57.4355ZM54.7292 63.3089C54.7781 63.339 54.8206 63.3784 54.8542 63.4249C54.8878 63.4715 54.912 63.5242 54.9252 63.58C54.9385 63.6359 54.9406 63.6938 54.9315 63.7505C54.9224 63.8072 54.9021 63.8615 54.872 63.9103L53.4707 66.1845C53.4392 66.2355 53.3976 66.2796 53.3484 66.3138C53.2992 66.3481 53.2434 66.3719 53.1847 66.3837C53.1259 66.3955 53.0653 66.3951 53.0066 66.3825C52.948 66.3699 52.8926 66.3454 52.8439 66.3105L51.5309 65.3697C51.4842 65.3363 51.4446 65.294 51.4143 65.2452C51.384 65.1965 51.3635 65.1423 51.3542 65.0856C51.3448 65.029 51.3467 64.9711 51.3598 64.9151C51.3728 64.8592 51.3967 64.8065 51.4302 64.7598C51.4636 64.7131 51.5059 64.6735 51.5546 64.6432C51.6034 64.6129 51.6576 64.5925 51.7143 64.5831C51.7709 64.5738 51.8288 64.5757 51.8847 64.5887C51.9406 64.6017 51.9934 64.6256 52.0401 64.6591L52.9722 65.3269L54.1278 63.4518C54.1579 63.4029 54.1974 63.3604 54.2439 63.3268C54.2904 63.2931 54.3431 63.269 54.3989 63.2557C54.4548 63.2424 54.5127 63.2403 54.5694 63.2494C54.626 63.2585 54.6803 63.2787 54.7292 63.3089ZM52.132 56.1729C52.1809 56.2031 52.2234 56.2425 52.257 56.289C52.2907 56.3356 52.3148 56.3883 52.3281 56.4441C52.3413 56.5 52.3434 56.5579 52.3343 56.6146C52.3252 56.6712 52.305 56.7256 52.2749 56.7744L50.8735 59.0487C50.8421 59.0997 50.8004 59.1438 50.7512 59.1781C50.702 59.2124 50.6463 59.2362 50.5875 59.248C50.5287 59.2599 50.4681 59.2595 50.4095 59.2469C50.3509 59.2343 50.2954 59.2097 50.2467 59.1748L48.9335 58.2338C48.8411 58.1656 48.7792 58.0637 48.7613 57.9503C48.7434 57.8368 48.7709 57.7208 48.8378 57.6275C48.9047 57.5341 49.0057 57.4708 49.1189 57.4513C49.2321 57.4318 49.3484 57.4576 49.4427 57.5232L50.375 58.1912L51.5307 56.3159C51.5607 56.267 51.6002 56.2245 51.6467 56.1908C51.6932 56.1572 51.7459 56.133 51.8017 56.1198C51.8576 56.1065 51.9155 56.1044 51.9722 56.1135C52.0289 56.1226 52.0832 56.1428 52.132 56.1729ZM47.7021 56.3434L50.0244 56.2838C50.1403 56.2808 50.2526 56.3241 50.3366 56.4039C50.4207 56.4838 50.4695 56.5938 50.4725 56.7097C50.4754 56.8256 50.4322 56.9379 50.3524 57.0219C50.2725 57.106 50.1625 57.1549 50.0466 57.1578L48.3321 57.2019L49.3596 60.0253L52.1131 59.9545L51.7636 58.9949C51.7268 58.8866 51.7338 58.7682 51.7832 58.665C51.8326 58.5619 51.9205 58.4822 52.028 58.443C52.1355 58.4039 52.254 58.4085 52.3582 58.4557C52.4624 58.5029 52.5439 58.5891 52.5852 58.6958L53.1424 60.2263C53.1662 60.2915 53.1741 60.3613 53.1655 60.4301C53.1569 60.4989 53.132 60.5647 53.093 60.622C53.0539 60.6793 53.0018 60.7265 52.9409 60.7597C52.88 60.7929 52.8121 60.8111 52.7428 60.8128L49.0677 60.9073C48.9761 60.9097 48.886 60.8831 48.8103 60.8316C48.7346 60.78 48.6769 60.7059 48.6456 60.6198L47.3027 56.93C47.279 56.8649 47.2711 56.795 47.2797 56.7262C47.2882 56.6574 47.3131 56.5916 47.3521 56.5343C47.3911 56.477 47.4432 56.4298 47.5041 56.3966C47.5649 56.3634 47.6328 56.3452 47.7021 56.3434Z" fill="#FDFDFD"/>
<path d="M63.0275 84.9052C63.2211 85.8062 63.0872 86.6656 62.6376 87.3256C62.573 87.4204 62.5023 87.5108 62.4258 87.5962L81.6946 87.101C82.4428 87.0817 83.0461 86.7906 83.3932 86.281C83.7368 85.7766 83.8118 85.1087 83.6126 84.376L63.0275 84.9052ZM92.9495 74.5523L92.9689 74.7277L94.5917 74.78L95.9326 72.7112L94.3957 72.6618C93.9876 73.3705 93.5026 74.0048 92.9495 74.5523ZM82.3041 58.1818C81.3942 58.6063 80.6529 59.3299 80.1424 60.27C80.8333 59.9653 81.5747 59.8091 82.3495 59.8091C85.1753 59.8091 88.0458 61.8937 89.4925 64.9965C90.2337 66.5855 90.5431 68.3151 90.3973 69.9256C91.7123 68.018 91.8377 65.1014 90.5967 62.44C88.8805 58.76 85.1604 56.8502 82.3041 58.1818Z" fill="#FDFDFD"/>
<path d="M95.0703 67.2117C94.9967 67.1312 94.9558 67.0262 94.9555 66.9172C94.9538 65.8934 94.8282 64.8515 94.5818 63.8203C94.5671 63.7584 94.5661 63.694 94.5788 63.6316C94.5915 63.5692 94.6176 63.5103 94.6554 63.4591L96.0555 61.5634C95.8808 61.0899 95.6868 60.6238 95.4737 60.1663C95.2603 59.7089 95.0279 59.2605 94.7772 58.8224L92.4251 58.6763C92.3616 58.6723 92.2997 58.6546 92.2438 58.6242C92.1878 58.5938 92.1392 58.5516 92.1013 58.5005C91.4681 57.6473 90.7506 56.8814 89.9691 56.2238C89.8855 56.1537 89.8313 56.0547 89.8171 55.9465L89.4432 53.1137C88.6939 52.6358 87.9167 52.2395 87.1266 51.9325L85.731 53.7095C85.6808 53.7735 85.6137 53.8222 85.5373 53.8501C85.4609 53.878 85.3782 53.8841 85.2986 53.8676C84.4235 53.6864 83.5473 53.6442 82.7142 53.7433C82.6469 53.7513 82.5786 53.7436 82.5148 53.7207C82.451 53.6978 82.3934 53.6604 82.3465 53.6114L80.4279 51.6045C80.0845 51.7155 79.7482 51.8475 79.421 51.9998C79.094 52.153 78.7767 52.3263 78.471 52.5186L78.7748 55.2769C78.7823 55.3443 78.7739 55.4125 78.7505 55.4761C78.727 55.5397 78.6891 55.597 78.6397 55.6434C78.0259 56.2199 77.4992 56.9128 77.0737 57.703C77.0363 57.7725 76.9808 57.8306 76.9131 57.871C76.8453 57.9115 76.7679 57.9329 76.689 57.9329C76.6842 57.9329 76.6795 57.9329 76.6747 57.9327L76.3456 57.9221L74.4171 57.8596C74.145 58.6612 73.9478 59.5114 73.832 60.3936L75.7618 62.5008C75.8354 62.5812 75.8763 62.6862 75.8765 62.7951C75.8788 63.8193 76.0045 64.8613 76.2504 65.8922C76.2652 65.9541 76.2663 66.0185 76.2537 66.0809C76.241 66.1433 76.2149 66.2021 76.1771 66.2534L74.7768 68.1493C74.9506 68.6209 75.146 69.0899 75.3588 69.5466C75.5722 70.0038 75.8044 70.452 76.0549 70.89L78.4074 71.0361C78.4709 71.04 78.5328 71.0578 78.5887 71.0882C78.6446 71.1185 78.6932 71.1608 78.7312 71.2119C79.3631 72.0637 80.0804 72.8299 80.8632 73.489C80.9466 73.5593 81.0007 73.6581 81.015 73.7661L81.3887 76.5989C82.1391 77.0773 82.9163 77.4735 83.7051 77.7798L85.1015 76.003C85.1518 75.9391 85.2189 75.8905 85.2952 75.8626C85.3716 75.8347 85.4543 75.8286 85.5339 75.845C86.4124 76.0272 87.2819 76.0687 88.1179 75.9688C88.1852 75.9607 88.2535 75.9684 88.3173 75.9913C88.3811 76.0142 88.4387 76.0517 88.4855 76.1008L90.4041 78.1078C90.7478 77.9969 91.0844 77.8649 91.4119 77.7125C91.7386 77.5591 92.0557 77.3858 92.3613 77.1936L92.1415 75.2009L92.0572 74.4352C92.0498 74.3678 92.0582 74.2996 92.0817 74.236C92.1052 74.1723 92.1431 74.115 92.1926 74.0686C92.8058 73.4932 93.3328 72.8005 93.7588 72.0097C93.7976 71.9384 93.8554 71.8792 93.9258 71.8387C93.9962 71.7981 94.0764 71.7778 94.1575 71.78L96.4146 71.8527C96.6877 71.05 96.8847 70.2003 97 69.3193L95.0703 67.2117ZM89.967 71.6609C89.957 71.6689 89.946 71.6748 89.9354 71.6817C89.615 71.9338 89.2669 72.1486 88.8978 72.3218C88.1777 72.6577 87.3998 72.828 86.5859 72.828C83.7601 72.828 80.8896 70.7437 79.4431 67.6415C78.4649 65.5442 78.2376 63.2016 78.8185 61.2116C78.8198 61.207 78.8198 61.2023 78.8211 61.1976C79.3388 59.4371 80.4446 58.0849 81.9347 57.3899C85.2279 55.8541 89.4692 57.954 91.3892 62.0709C93.0579 65.6489 92.4597 69.682 89.967 71.6609Z" fill="#FDFDFD"/>
<path d="M77.8826 55.1592L77.7069 53.5635L76.5621 55.3296L76.7037 56.6153C77.0512 56.0806 77.4451 55.5927 77.8826 55.1592ZM90.2748 79.0422C90.2157 79.0422 90.1573 79.0303 90.1029 79.0071C90.0486 78.9839 89.9996 78.9499 89.9588 78.9072L88.002 76.8602C87.2263 76.932 86.4284 76.8959 85.624 76.7527L84.195 78.5711C84.1383 78.6432 84.0603 78.6956 83.9722 78.721C83.884 78.7463 83.7901 78.7433 83.7037 78.7124C82.6903 78.3489 81.6936 77.8472 80.7416 77.2213C80.6891 77.1868 80.6447 77.1415 80.6113 77.0883C80.578 77.0352 80.5565 76.9754 80.5483 76.9132L80.1701 74.0468C79.436 73.4126 78.7584 72.6904 78.152 71.8959L75.7672 71.7479C75.6959 71.7435 75.6267 71.7216 75.5658 71.6842C75.5048 71.6469 75.454 71.5951 75.4177 71.5336C75.1083 71.0082 74.8242 70.4684 74.5664 69.916C74.4319 69.6267 74.3046 69.3342 74.1847 69.0387L72.8747 71.0592C73.0508 71.5381 73.2468 72.0095 73.4624 72.472C73.6758 72.9293 73.9081 73.3775 74.1587 73.8155L76.5112 73.9616C76.5747 73.9655 76.6366 73.9833 76.6925 74.0137C76.7485 74.044 76.7971 74.0863 76.835 74.1374C77.4667 74.9891 78.184 75.7553 78.9668 76.4147C79.0501 76.4849 79.1042 76.5837 79.1186 76.6917L79.4927 79.5244C80.2425 80.0027 81.0196 80.3988 81.8087 80.7054L83.2051 78.9286C83.2553 78.8647 83.3224 78.816 83.3988 78.7881C83.4752 78.7602 83.5579 78.7542 83.6375 78.7707C84.5115 78.9518 85.3879 78.9938 86.2215 78.8944C86.2888 78.8864 86.3571 78.8941 86.4209 78.9171C86.4847 78.94 86.5423 78.9774 86.5892 79.0265L88.5077 81.0337C88.8513 80.9226 89.1878 80.7906 89.5153 80.6384C89.8948 80.4607 90.2613 80.2564 90.612 80.027L91.5251 78.6183C91.1577 78.7766 90.781 78.9123 90.3971 79.0247C90.3574 79.0363 90.3162 79.0422 90.2748 79.0422ZM73.9801 65.7209C73.9823 66.3398 74.0283 66.9579 74.1175 67.5704L75.3543 65.896C75.1358 64.9214 75.0181 63.938 75.0039 62.9675L73.0511 60.8352C73.0087 60.7889 72.9768 60.7341 72.9576 60.6744C72.9383 60.6147 72.9321 60.5515 72.9394 60.4892C72.9627 60.2895 72.9913 60.0919 73.0224 59.8952L72.6079 60.5345C72.2896 61.4087 72.0639 62.3443 71.9355 63.3192L73.8653 65.4266C73.9389 65.507 73.9798 65.6119 73.9801 65.7209Z" fill="#FDFDFD"/>
<defs>
<filter id="filter0_d_629_8818" x="0" y="0" width="140" height="140" filterUnits="userSpaceOnUse" color-interpolation-filters="sRGB">
<feFlood flood-opacity="0" result="BackgroundImageFix"/>
<feColorMatrix in="SourceAlpha" type="matrix" values="0 0 0 0 0 0 0 0 0 0 0 0 0 0 0 0 0 0 127 0" result="hardAlpha"/>
<feOffset/>
<feGaussianBlur stdDeviation="2.5"/>
<feComposite in2="hardAlpha" operator="out"/>
<feColorMatrix type="matrix" values="0 0 0 0 0 0 0 0 0 0 0 0 0 0 0 0 0 0 0.2 0"/>
<feBlend mode="normal" in2="BackgroundImageFix" result="effect1_dropShadow_629_8818"/>
<feBlend mode="normal" in="SourceGraphic" in2="effect1_dropShadow_629_8818" result="shape"/>
</filter>
<filter id="filter1_d_629_8818" x="11" y="11" width="118" height="118" filterUnits="userSpaceOnUse" color-interpolation-filters="sRGB">
<feFlood flood-opacity="0" result="BackgroundImageFix"/>
<feColorMatrix in="SourceAlpha" type="matrix" values="0 0 0 0 0 0 0 0 0 0 0 0 0 0 0 0 0 0 127 0" result="hardAlpha"/>
<feOffset/>
<feGaussianBlur stdDeviation="2.5"/>
<feComposite in2="hardAlpha" operator="out"/>
<feColorMatrix type="matrix" values="0 0 0 0 0 0 0 0 0 0 0 0 0 0 0 0 0 0 0.2 0"/>
<feBlend mode="normal" in2="BackgroundImageFix" result="effect1_dropShadow_629_8818"/>
<feBlend mode="normal" in="SourceGraphic" in2="effect1_dropShadow_629_8818" result="shape"/>
</filter>
</defs>
</svg>
