<svg width="140" height="140" viewBox="0 0 140 140" fill="none" xmlns="http://www.w3.org/2000/svg">
<g filter="url(#filter0_d_629_8859)">
<circle cx="70" cy="70" r="65" fill="#FDFDFD"/>
</g>
<g filter="url(#filter1_d_629_8859)">
<circle cx="70" cy="70" r="54" fill="#F37329"/>
</g>
<path d="M69.157 77.4248V74.2861C68.3048 74.3198 67.4611 74.3958 66.6342 74.5223C67.2923 75.9905 68.1783 77.0452 69.157 77.4333V77.4248ZM65.4445 67.4686H69.157V64.0767C68.1023 64.043 67.0561 63.9333 66.0352 63.7561C65.7145 64.8783 65.5036 66.1355 65.4445 67.4686ZM66.0436 72.8939C67.0645 72.7252 68.1108 72.6323 69.157 72.5986V69.1561H65.4445C65.5036 70.4977 65.723 71.7633 66.0436 72.8939ZM66.6342 62.1108C67.4611 62.2373 68.3048 62.3133 69.157 62.347V59.2083C68.1698 59.5964 67.2923 60.6511 66.6342 62.1192V62.1108ZM64.3814 63.4017C63.7486 63.2414 63.1242 63.0558 62.5252 62.8364C61.5548 64.1611 60.922 65.7473 60.7617 67.4686H63.757C63.8161 66.0089 64.0355 64.6336 64.3814 63.4017ZM63.7655 75.172C64.3898 75.7458 65.0986 76.2267 65.8664 76.6148C65.5205 76.0917 65.2083 75.5011 64.9383 74.8514C64.5417 74.9442 64.1452 75.0539 63.7655 75.172ZM76.2361 61.4527C75.6117 60.8789 74.903 60.398 74.1352 60.0098C74.4811 60.533 74.7933 61.1236 75.0633 61.7733C75.4598 61.6805 75.8564 61.5708 76.2361 61.4527ZM65.8664 60.0098C65.0986 60.3895 64.3983 60.8789 63.7655 61.4527C64.1536 61.5708 64.5417 61.6805 64.9383 61.7733C65.2083 61.1236 65.5205 60.533 65.8664 60.0098ZM63.757 69.1561H60.7617C60.922 70.8858 61.5548 72.4805 62.5336 73.8052C63.1327 73.5942 63.7486 73.4002 64.3814 73.2483C64.0355 72.008 63.8077 70.6242 63.7486 69.1561H63.757ZM70.8445 59.1998V62.3386C71.6967 62.3048 72.5405 62.2289 73.3673 62.1023C72.7092 60.6342 71.8233 59.5795 70.8445 59.1914V59.1998ZM75.6117 73.2483C76.2445 73.4086 76.8605 73.5942 77.4595 73.8052C78.4383 72.4805 79.0795 70.8858 79.2314 69.1561H76.2361C76.177 70.6242 75.9577 72.008 75.6033 73.2483H75.6117ZM75.6202 63.4017C75.9661 64.6336 76.1855 66.0089 76.2445 67.4686H79.2398C79.0795 65.7473 78.4467 64.1611 77.4764 62.8364C76.8773 63.0558 76.253 63.2414 75.6202 63.4017Z" fill="#FDFDFD"/>
<path d="M84.3438 53.125H53.9688V91.9375C53.9688 92.8656 54.7281 93.625 55.6562 93.625H84.3438C85.2719 93.625 86.0312 92.8656 86.0312 91.9375V54.8125C86.0312 53.8844 85.2719 53.125 84.3438 53.125ZM79.7031 89.4062H60.2969C59.8328 89.4062 59.4531 89.0266 59.4531 88.5625C59.4531 88.0984 59.8328 87.7188 60.2969 87.7188H79.7031C80.1672 87.7188 80.5469 88.0984 80.5469 88.5625C80.5469 89.0266 80.1672 89.4062 79.7031 89.4062ZM62.4062 84.3438C62.4062 83.8797 62.7859 83.5 63.25 83.5H76.75C77.2141 83.5 77.5938 83.8797 77.5938 84.3438C77.5938 84.8078 77.2141 85.1875 76.75 85.1875H63.25C62.7859 85.1875 62.4062 84.8078 62.4062 84.3438ZM70 79.2812C63.9503 79.2812 59.0312 74.3622 59.0312 68.3125C59.0312 62.2628 63.9503 57.3438 70 57.3438C76.0497 57.3438 80.9688 62.2628 80.9688 68.3125C80.9688 74.3622 76.0497 79.2812 70 79.2812Z" fill="#FDFDFD"/>
<path d="M70.8438 69.1566V72.5991C71.89 72.6328 72.9362 72.7256 73.9572 72.8944C74.2862 71.7637 74.4972 70.4981 74.5563 69.1566H70.8438ZM70.8438 77.4253C71.8309 77.0372 72.7084 75.9825 73.3666 74.5144C72.5397 74.3878 71.6959 74.3119 70.8438 74.2781V77.4169V77.4253ZM73.9656 63.7566C72.9447 63.9337 71.8984 64.0434 70.8438 64.0772V67.4691H74.5563C74.4972 66.1359 74.2863 64.8787 73.9656 63.7566ZM74.1344 76.6069C74.9022 76.2272 75.6025 75.7378 76.2353 75.1641C75.8472 75.0459 75.4591 74.9362 75.0625 74.8434C74.7925 75.4931 74.4803 76.0837 74.1344 76.6069ZM82.6562 51.4378V47.4384C82.6562 46.8984 82.15 46.4934 81.6184 46.62L61.1406 51.4378H82.6562Z" fill="#FDFDFD"/>
<defs>
<filter id="filter0_d_629_8859" x="0" y="0" width="140" height="140" filterUnits="userSpaceOnUse" color-interpolation-filters="sRGB">
<feFlood flood-opacity="0" result="BackgroundImageFix"/>
<feColorMatrix in="SourceAlpha" type="matrix" values="0 0 0 0 0 0 0 0 0 0 0 0 0 0 0 0 0 0 127 0" result="hardAlpha"/>
<feOffset/>
<feGaussianBlur stdDeviation="2.5"/>
<feComposite in2="hardAlpha" operator="out"/>
<feColorMatrix type="matrix" values="0 0 0 0 0 0 0 0 0 0 0 0 0 0 0 0 0 0 0.2 0"/>
<feBlend mode="normal" in2="BackgroundImageFix" result="effect1_dropShadow_629_8859"/>
<feBlend mode="normal" in="SourceGraphic" in2="effect1_dropShadow_629_8859" result="shape"/>
</filter>
<filter id="filter1_d_629_8859" x="11" y="11" width="118" height="118" filterUnits="userSpaceOnUse" color-interpolation-filters="sRGB">
<feFlood flood-opacity="0" result="BackgroundImageFix"/>
<feColorMatrix in="SourceAlpha" type="matrix" values="0 0 0 0 0 0 0 0 0 0 0 0 0 0 0 0 0 0 127 0" result="hardAlpha"/>
<feOffset/>
<feGaussianBlur stdDeviation="2.5"/>
<feComposite in2="hardAlpha" operator="out"/>
<feColorMatrix type="matrix" values="0 0 0 0 0 0 0 0 0 0 0 0 0 0 0 0 0 0 0.2 0"/>
<feBlend mode="normal" in2="BackgroundImageFix" result="effect1_dropShadow_629_8859"/>
<feBlend mode="normal" in="SourceGraphic" in2="effect1_dropShadow_629_8859" result="shape"/>
</filter>
</defs>
</svg>
