<svg width="140" height="140" viewBox="0 0 140 140" fill="none" xmlns="http://www.w3.org/2000/svg">
<g filter="url(#filter0_d_629_8919)">
<circle cx="70" cy="70" r="65" fill="#FDFDFD"/>
</g>
<g filter="url(#filter1_d_629_8919)">
<circle cx="70" cy="70" r="54" fill="#F37329"/>
</g>
<g clip-path="url(#clip0_629_8919)">
<path d="M78.3541 47.2188L79.6727 45.5703C79.8589 45.3376 79.9756 45.0571 80.0093 44.761C80.0431 44.4649 79.9925 44.1653 79.8634 43.8967C79.7343 43.6281 79.532 43.4014 79.2797 43.2428C79.0274 43.0841 78.7355 43 78.4375 43H70C69.1263 43 68.418 43.7083 68.418 44.582V56.7388L61.0388 63.2981C60.8719 63.4465 60.7382 63.6286 60.6467 63.8324C60.5552 64.0362 60.5078 64.2571 60.5078 64.4805V97H65.2539V89.0898C65.2539 88.2161 65.9622 87.5078 66.8359 87.5078H73.1641C74.0378 87.5078 74.7461 88.2161 74.7461 89.0898V97H79.4922V64.4805C79.4922 64.0286 79.299 63.5983 78.9613 63.2981L71.582 56.7388V51.4375H78.4375C78.7355 51.4375 79.0275 51.3533 79.2797 51.1947C79.532 51.036 79.7343 50.8094 79.8634 50.5408C79.9925 50.2722 80.0431 49.9726 80.0094 49.6765C79.9757 49.3804 79.859 49.0998 79.6729 48.8671L78.3541 47.2188ZM68.418 82.7617C68.418 83.6354 67.7096 84.3438 66.8359 84.3438C65.9622 84.3438 65.2539 83.6354 65.2539 82.7617V79.5977C65.2539 78.724 65.9622 78.0156 66.8359 78.0156C67.7096 78.0156 68.418 78.724 68.418 79.5977V82.7617ZM74.7461 82.7617C74.7461 83.6354 74.0378 84.3438 73.1641 84.3438C72.2904 84.3438 71.582 83.6354 71.582 82.7617V79.5977C71.582 78.724 72.2904 78.0156 73.1641 78.0156C74.0378 78.0156 74.7461 78.724 74.7461 79.5977V82.7617ZM74.7461 70.1055C74.7461 72.7225 72.617 74.8516 70 74.8516C67.383 74.8516 65.2539 72.7225 65.2539 70.1055C65.2539 67.4885 67.383 65.3594 70 65.3594C72.617 65.3594 74.7461 67.4885 74.7461 70.1055Z" fill="#FDFDFD"/>
<path d="M68.418 90.6719H71.582V97H68.418V90.6719Z" fill="#FDFDFD"/>
<path d="M70 71.6875C70.8737 71.6875 71.582 70.9792 71.582 70.1055C71.582 69.2317 70.8737 68.5234 70 68.5234C69.1263 68.5234 68.418 69.2317 68.418 70.1055C68.418 70.9792 69.1263 71.6875 70 71.6875Z" fill="#FDFDFD"/>
<path d="M95.418 93.8359H93.7305V71.6875H95.418C96.2917 71.6875 97 70.9792 97 70.1055C97 69.2318 96.2917 68.5234 95.418 68.5234H82.6562V97H95.418C96.2917 97 97 96.2917 97 95.418C97 94.5443 96.2917 93.8359 95.418 93.8359ZM89.7754 89.0898C89.7754 89.9635 89.0671 90.6719 88.1934 90.6719C87.3197 90.6719 86.6113 89.9635 86.6113 89.0898V85.9258C86.6113 85.0521 87.3197 84.3438 88.1934 84.3438C89.0671 84.3438 89.7754 85.0521 89.7754 85.9258V89.0898ZM89.7754 79.5977C89.7754 80.4714 89.0671 81.1797 88.1934 81.1797C87.3197 81.1797 86.6113 80.4714 86.6113 79.5977V76.4336C86.6113 75.5599 87.3197 74.8516 88.1934 74.8516C89.0671 74.8516 89.7754 75.5599 89.7754 76.4336V79.5977ZM43 70.1055C43 70.9792 43.7083 71.6875 44.582 71.6875H46.2695V93.8359H44.582C43.7083 93.8359 43 94.5443 43 95.418C43 96.2917 43.7083 97 44.582 97H57.3438V68.5234H44.582C43.7083 68.5234 43 69.2318 43 70.1055ZM50.2246 76.4336C50.2246 75.5599 50.9329 74.8516 51.8066 74.8516C52.6803 74.8516 53.3887 75.5599 53.3887 76.4336V79.5977C53.3887 80.4714 52.6803 81.1797 51.8066 81.1797C50.9329 81.1797 50.2246 80.4714 50.2246 79.5977V76.4336ZM50.2246 85.9258C50.2246 85.0521 50.9329 84.3438 51.8066 84.3438C52.6803 84.3438 53.3887 85.0521 53.3887 85.9258V89.0898C53.3887 89.9635 52.6803 90.6719 51.8066 90.6719C50.9329 90.6719 50.2246 89.9635 50.2246 89.0898V85.9258Z" fill="#FDFDFD"/>
</g>
<defs>
<filter id="filter0_d_629_8919" x="0" y="0" width="140" height="140" filterUnits="userSpaceOnUse" color-interpolation-filters="sRGB">
<feFlood flood-opacity="0" result="BackgroundImageFix"/>
<feColorMatrix in="SourceAlpha" type="matrix" values="0 0 0 0 0 0 0 0 0 0 0 0 0 0 0 0 0 0 127 0" result="hardAlpha"/>
<feOffset/>
<feGaussianBlur stdDeviation="2.5"/>
<feComposite in2="hardAlpha" operator="out"/>
<feColorMatrix type="matrix" values="0 0 0 0 0 0 0 0 0 0 0 0 0 0 0 0 0 0 0.2 0"/>
<feBlend mode="normal" in2="BackgroundImageFix" result="effect1_dropShadow_629_8919"/>
<feBlend mode="normal" in="SourceGraphic" in2="effect1_dropShadow_629_8919" result="shape"/>
</filter>
<filter id="filter1_d_629_8919" x="11" y="11" width="118" height="118" filterUnits="userSpaceOnUse" color-interpolation-filters="sRGB">
<feFlood flood-opacity="0" result="BackgroundImageFix"/>
<feColorMatrix in="SourceAlpha" type="matrix" values="0 0 0 0 0 0 0 0 0 0 0 0 0 0 0 0 0 0 127 0" result="hardAlpha"/>
<feOffset/>
<feGaussianBlur stdDeviation="2.5"/>
<feComposite in2="hardAlpha" operator="out"/>
<feColorMatrix type="matrix" values="0 0 0 0 0 0 0 0 0 0 0 0 0 0 0 0 0 0 0.2 0"/>
<feBlend mode="normal" in2="BackgroundImageFix" result="effect1_dropShadow_629_8919"/>
<feBlend mode="normal" in="SourceGraphic" in2="effect1_dropShadow_629_8919" result="shape"/>
</filter>
<clipPath id="clip0_629_8919">
<rect width="54" height="54" fill="white" transform="translate(43 43)"/>
</clipPath>
</defs>
</svg>
