<svg width="140" height="140" viewBox="0 0 140 140" fill="none" xmlns="http://www.w3.org/2000/svg">
<g filter="url(#filter0_d_629_8841)">
<circle cx="70" cy="70" r="65" fill="#FDFDFD"/>
</g>
<g filter="url(#filter1_d_629_8841)">
<circle cx="70" cy="70" r="54" fill="#F37329"/>
</g>
<path d="M64.012 70.2246C64.1624 70.3899 64.2409 70.608 64.2304 70.8311C64.2199 71.0543 64.1212 71.2641 63.956 71.4144L62.5486 72.6917C62.2221 73.0266 61.6806 73.0261 61.3509 72.6964L60.7574 72.1028C60.679 72.0245 60.6169 71.9315 60.5745 71.8292C60.5321 71.7268 60.5102 71.6171 60.5102 71.5063C60.5102 71.3955 60.5321 71.2858 60.5745 71.1835C60.6169 71.0811 60.679 70.9881 60.7574 70.9098C60.8357 70.8314 60.9287 70.7693 61.031 70.7269C61.1334 70.6845 61.2431 70.6626 61.3539 70.6626C61.4647 70.6626 61.5744 70.6845 61.6767 70.7269C61.7791 70.7693 61.8721 70.8314 61.9504 70.9098L61.9767 70.936L62.8222 70.1686C62.9874 70.0183 63.2056 69.9398 63.4287 69.9503C63.6518 69.9608 63.8616 70.0595 64.012 70.2246ZM79.0493 48.8644L82.831 48.8644C82.7969 48.7908 82.7499 48.724 82.6921 48.667L78.9098 44.8847C78.8529 44.827 78.7861 44.7799 78.7126 44.7458V48.5276C78.7127 48.6169 78.7483 48.7024 78.8114 48.7656C78.8745 48.8287 78.9601 48.8642 79.0493 48.8644ZM57.1089 77.4278L57.1089 45.3611C57.1089 44.9901 57.4115 44.6875 57.7825 44.6875H77.0251V48.5276C77.0251 49.6445 77.9324 50.5519 79.0493 50.5519L82.8894 50.5519V77.4278C82.8894 77.7989 82.5869 78.1015 82.2158 78.1015H57.7825C57.4115 78.1015 57.1089 77.7988 57.1089 77.4278ZM64.9347 69.1991C64.9347 69.0248 64.7925 68.8827 64.6182 68.8827H60.1248C59.9505 68.8827 59.8083 69.0248 59.8083 69.1991V73.6926C59.8083 73.8668 59.9505 74.009 60.1248 74.009H64.6182C64.7925 74.009 64.9347 73.8668 64.9347 73.6926V69.1991ZM64.9347 60.8452C64.9347 60.671 64.7925 60.5288 64.6182 60.5288H60.1248C59.9505 60.5288 59.8083 60.671 59.8083 60.8452V65.3387C59.8083 65.5129 59.9505 65.6551 60.1248 65.6551H64.6182C64.7925 65.6551 64.9347 65.5129 64.9347 65.3387V60.8452ZM79.4853 72.8381C79.4853 72.6143 79.3964 72.3997 79.2382 72.2414C79.08 72.0832 78.8654 71.9943 78.6416 71.9943H67.6755C67.4517 71.9943 67.2371 72.0832 67.0788 72.2414C66.9206 72.3997 66.8317 72.6143 66.8317 72.8381C66.8317 73.0618 66.9206 73.2764 67.0788 73.4347C67.2371 73.5929 67.4517 73.6818 67.6755 73.6818H78.6415C78.7523 73.6818 78.862 73.66 78.9644 73.6176C79.0668 73.5752 79.1598 73.5131 79.2382 73.4347C79.3165 73.3564 79.3787 73.2633 79.4211 73.161C79.4635 73.0586 79.4853 72.9489 79.4853 72.8381ZM79.4853 70.0535C79.4853 69.8297 79.3964 69.6151 79.2382 69.4569C79.08 69.2986 78.8654 69.2097 78.6416 69.2097H67.6755C67.4517 69.2097 67.2371 69.2986 67.0788 69.4569C66.9206 69.6151 66.8317 69.8297 66.8317 70.0535C66.8317 70.2772 66.9206 70.4919 67.0788 70.6501C67.2371 70.8083 67.4517 70.8972 67.6755 70.8972H78.6415C78.7523 70.8972 78.862 70.8754 78.9644 70.833C79.0668 70.7906 79.1598 70.7285 79.2382 70.6501C79.3165 70.5718 79.3787 70.4788 79.4211 70.3764C79.4635 70.274 79.4853 70.1643 79.4853 70.0535ZM79.4853 64.4843C79.4853 64.2605 79.3964 64.0459 79.2382 63.8877C79.08 63.7294 78.8654 63.6406 78.6416 63.6406H67.6755C67.4517 63.6406 67.2371 63.7294 67.0788 63.8877C66.9206 64.0459 66.8317 64.2605 66.8317 64.4843C66.8317 64.7081 66.9206 64.9227 67.0788 65.0809C67.2371 65.2392 67.4517 65.3281 67.6755 65.3281H78.6415C78.7523 65.3281 78.862 65.3063 78.9644 65.2639C79.0668 65.2215 79.1598 65.1593 79.2382 65.081C79.3165 65.0026 79.3787 64.9096 79.4211 64.8072C79.4635 64.7048 79.4853 64.5951 79.4853 64.4843ZM79.4853 61.6997C79.4853 61.4759 79.3964 61.2613 79.2382 61.1031C79.08 60.9449 78.8654 60.856 78.6416 60.856H67.6755C67.4517 60.856 67.2371 60.9449 67.0788 61.1031C66.9206 61.2613 66.8317 61.4759 66.8317 61.6997C66.8317 61.9235 66.9206 62.1381 67.0788 62.2963C67.2371 62.4546 67.4517 62.5435 67.6755 62.5435H78.6415C78.8653 62.5435 79.0799 62.4546 79.2381 62.2963C79.3964 62.1381 79.4853 61.9235 79.4853 61.6997ZM71.0802 50.2145C71.0802 50.4383 71.1691 50.6529 71.3273 50.8111C71.4856 50.9693 71.7002 51.0582 71.924 51.0582H75.8294C76.0531 51.0582 76.2678 50.9693 76.426 50.8111C76.5842 50.6529 76.6731 50.4383 76.6731 50.2145C76.6731 49.9907 76.5842 49.7761 76.426 49.6179C76.2678 49.4596 76.0531 49.3707 75.8294 49.3707H71.924C71.7002 49.3707 71.4856 49.4596 71.3273 49.6179C71.1691 49.7761 71.0802 49.9907 71.0802 50.2145ZM71.0802 53.3787C71.0802 53.6024 71.1691 53.817 71.3273 53.9753C71.4856 54.1335 71.7002 54.2224 71.924 54.2224H80.4138C80.6376 54.2224 80.8522 54.1335 81.0104 53.9753C81.1686 53.817 81.2575 53.6024 81.2575 53.3787C81.2575 53.1549 81.1686 52.9403 81.0104 52.782C80.8522 52.6238 80.6376 52.5349 80.4138 52.5349H71.924C71.7002 52.5349 71.4856 52.6238 71.3273 52.782C71.1691 52.9403 71.0802 53.1549 71.0802 53.3787ZM59.739 51.3048C59.739 53.9236 61.8621 56.0467 64.4809 56.0467C67.0997 56.0467 69.2228 53.9236 69.2228 51.3048C69.2228 48.686 67.0997 46.5629 64.4809 46.5629C61.8621 46.5629 59.739 48.686 59.739 51.3048ZM62.8222 61.8149L61.9767 62.5823L61.9504 62.556C61.8721 62.4777 61.7791 62.4155 61.6767 62.3731C61.5744 62.3307 61.4647 62.3089 61.3539 62.3089C61.2431 62.3089 61.1334 62.3307 61.031 62.3731C60.9287 62.4155 60.8357 62.4777 60.7574 62.556C60.679 62.6343 60.6169 62.7273 60.5745 62.8297C60.5321 62.9321 60.5102 63.0418 60.5102 63.1525C60.5102 63.2633 60.5321 63.373 60.5745 63.4754C60.6169 63.5777 60.679 63.6707 60.7574 63.7491L61.3509 64.3427C61.6806 64.6724 62.2222 64.6729 62.5486 64.3379L63.956 63.0607C64.119 62.9098 64.2158 62.7006 64.2253 62.4786C64.2347 62.2567 64.1562 62.04 64.0067 61.8758C63.8572 61.7115 63.6488 61.6129 63.427 61.6015C63.2051 61.5901 62.9878 61.6668 62.8222 61.8149ZM61.836 53.9602C61.1285 53.2598 60.733 52.2994 60.733 51.3048C60.733 49.2348 62.4109 47.557 64.4808 47.557C66.5509 47.557 68.2287 49.2349 68.2287 51.3048C68.2287 52.2994 67.8331 53.2598 67.1257 53.9602C66.6365 52.9961 65.6358 52.3355 64.4807 52.3355C63.3258 52.3355 62.3251 52.9961 61.836 53.9602ZM62.9822 50.2154C62.9822 51.0432 63.6532 51.7141 64.4809 51.7141C65.3086 51.7141 65.9796 51.0432 65.9796 50.2154C65.9796 49.3877 65.3086 48.7167 64.4809 48.7167C63.6532 48.7167 62.9822 49.3877 62.9822 50.2154ZM86.778 59.2458L84.5769 59.2458V61.795H86.8544C86.9665 61.7953 87.0738 61.8399 87.153 61.9191C87.2322 61.9983 87.2769 62.1057 87.2773 62.2177V81.1796H52.7212L52.7212 62.2178C52.7215 62.1057 52.7662 61.9984 52.8454 61.9192C52.9246 61.84 53.032 61.7954 53.144 61.7951H55.4215V59.2459H53.2203C51.5437 59.2459 50.1719 60.6177 50.1719 62.2943L50.1719 83.2664C50.1719 84.943 51.5437 86.3149 53.2203 86.3149H63.7677V91.1582H59.1274C57.6976 91.1582 56.5277 92.0929 56.5277 93.2353V95.3125H83.4705V93.2353C83.4705 92.0929 82.3006 91.1582 80.8708 91.1582H76.2306V86.3149H86.778C88.4546 86.3149 89.8264 84.943 89.8264 83.2664V62.2942C89.8264 60.6176 88.4546 59.2458 86.778 59.2458Z" fill="#FDFDFD"/>
<defs>
<filter id="filter0_d_629_8841" x="0" y="0" width="140" height="140" filterUnits="userSpaceOnUse" color-interpolation-filters="sRGB">
<feFlood flood-opacity="0" result="BackgroundImageFix"/>
<feColorMatrix in="SourceAlpha" type="matrix" values="0 0 0 0 0 0 0 0 0 0 0 0 0 0 0 0 0 0 127 0" result="hardAlpha"/>
<feOffset/>
<feGaussianBlur stdDeviation="2.5"/>
<feComposite in2="hardAlpha" operator="out"/>
<feColorMatrix type="matrix" values="0 0 0 0 0 0 0 0 0 0 0 0 0 0 0 0 0 0 0.2 0"/>
<feBlend mode="normal" in2="BackgroundImageFix" result="effect1_dropShadow_629_8841"/>
<feBlend mode="normal" in="SourceGraphic" in2="effect1_dropShadow_629_8841" result="shape"/>
</filter>
<filter id="filter1_d_629_8841" x="11" y="11" width="118" height="118" filterUnits="userSpaceOnUse" color-interpolation-filters="sRGB">
<feFlood flood-opacity="0" result="BackgroundImageFix"/>
<feColorMatrix in="SourceAlpha" type="matrix" values="0 0 0 0 0 0 0 0 0 0 0 0 0 0 0 0 0 0 127 0" result="hardAlpha"/>
<feOffset/>
<feGaussianBlur stdDeviation="2.5"/>
<feComposite in2="hardAlpha" operator="out"/>
<feColorMatrix type="matrix" values="0 0 0 0 0 0 0 0 0 0 0 0 0 0 0 0 0 0 0.2 0"/>
<feBlend mode="normal" in2="BackgroundImageFix" result="effect1_dropShadow_629_8841"/>
<feBlend mode="normal" in="SourceGraphic" in2="effect1_dropShadow_629_8841" result="shape"/>
</filter>
</defs>
</svg>
