<svg width="140" height="140" viewBox="0 0 140 140" fill="none" xmlns="http://www.w3.org/2000/svg">
<g filter="url(#filter0_d_629_8769)">
<circle cx="70" cy="70" r="65" fill="#FDFDFD"/>
</g>
<g filter="url(#filter1_d_629_8769)">
<circle cx="70" cy="70" r="54" fill="#F37329"/>
</g>
<path d="M83.6777 71.6859C84.8005 71.684 85.9176 71.8461 86.9936 72.1669V66.1729L71.9732 74.0484C71.4961 74.2961 70.967 74.4268 70.4295 74.4298C69.8919 74.4327 69.3614 74.3078 68.8817 74.0653L53.8359 66.1729V78.3169C53.8356 78.4796 53.8847 78.6385 53.9768 78.7726C54.1675 79.0637 58.7685 85.7774 70.4148 85.7774C73.2042 85.8812 72.0685 85.6086 72.0728 83.3567C72.0676 81.8281 72.3639 80.3135 72.9445 78.8994C73.5252 77.4854 74.3788 76.1997 75.4567 75.1158C76.5345 74.0319 77.8155 73.1711 79.2262 72.5826C80.637 71.994 82.1491 71.6893 83.6777 71.6859Z" fill="#FDFDFD"/>
<path d="M70.4808 60.9099C69.4152 60.9892 51.65 62.3721 51.3488 62.3932V62.999C54.1821 64.4806 66.5743 70.9817 69.6269 72.5815C69.8707 72.7062 70.1407 72.7713 70.4146 72.7713C70.6885 72.7713 70.9584 72.7062 71.2022 72.5815C76.1567 69.9464 87.8612 63.874 92.7128 61.2997C92.9839 61.1533 93.2105 60.9364 93.3687 60.672C93.5269 60.4077 93.6109 60.1055 93.6118 59.7974C93.6126 59.4892 93.5304 59.1866 93.3736 58.9213C93.2169 58.656 92.9915 58.4379 92.7212 58.29L71.2022 47.0082C70.959 46.8816 70.6888 46.8154 70.4146 46.8154C70.1404 46.8154 69.8702 46.8816 69.6269 47.0082L48.1071 58.29C47.8403 58.4359 47.6172 58.6503 47.4607 58.9111C47.3042 59.1718 47.22 59.4696 47.2167 59.7736C47.2134 60.0777 47.2912 60.3772 47.4421 60.6413C47.5929 60.9053 47.8114 61.1244 48.075 61.276C47.9527 61.1166 48.075 70.9817 48.0328 70.9606C47.5872 71.1173 47.1955 71.398 46.9039 71.7697C46.6123 72.1414 46.4329 72.5886 46.3868 73.0588C46.3407 73.529 46.4299 74.0025 46.6437 74.4238C46.8576 74.845 47.1873 75.1965 47.5941 75.4367L46.59 80.4359C46.5411 80.676 46.5462 80.924 46.6051 81.1619C46.6639 81.3998 46.7749 81.6216 46.9301 81.8112C47.4616 82.5925 48.7062 82.3976 49.5086 82.417C49.7532 82.4159 49.9946 82.3607 50.2155 82.2555C50.4364 82.1503 50.6314 81.9976 50.7865 81.8084C50.9417 81.6192 51.0531 81.3981 51.113 81.1608C51.1728 80.9236 51.1796 80.6761 51.1328 80.4359L50.1304 75.4367C50.5312 75.1921 50.855 74.8394 51.0645 74.4191C51.274 73.9989 51.3608 73.5281 51.3149 73.0607C51.269 72.5934 51.0923 72.1485 50.805 71.777C50.5178 71.4055 50.1316 71.1226 49.6908 70.9606V61.6228C49.696 61.4973 49.7276 61.3744 49.7836 61.2619C49.8395 61.1495 49.9186 61.0501 50.0156 60.9703C50.1126 60.8905 50.2253 60.8321 50.3465 60.7988C50.4676 60.7656 50.5944 60.7583 50.7185 60.7774L70.3483 59.2519C70.5648 59.2405 70.777 59.3141 70.9401 59.4569C71.1031 59.5997 71.2039 59.8004 71.2212 60.0164C71.2385 60.2324 71.1707 60.4467 71.0325 60.6135C70.8942 60.7804 70.6963 60.8867 70.4808 60.9099ZM83.6771 73.3417C81.0396 73.3441 78.5108 74.393 76.6459 76.2581C74.781 78.1232 73.7323 80.652 73.7301 83.2895C74.2743 96.4857 93.0823 96.4824 93.6257 83.2895C93.6235 80.6518 92.5747 78.1229 90.7096 76.2578C88.8445 74.3927 86.3147 73.3439 83.6771 73.3417ZM80.043 85.1331C80.1861 85.2762 80.2665 85.4703 80.2665 85.6727C80.2665 85.875 80.1861 86.0691 80.043 86.2122C79.8999 86.3553 79.7058 86.4357 79.5035 86.4357C79.3011 86.4357 79.107 86.3553 78.9639 86.2122L76.5761 83.8329C76.4326 83.6884 76.3521 83.4931 76.3521 83.2895C76.3521 83.0859 76.4326 82.8906 76.5761 82.7461L78.9639 80.3667C79.1069 80.2236 79.3009 80.1432 79.5032 80.1431C79.7055 80.143 79.8995 80.2233 80.0426 80.3663C80.1857 80.5093 80.2662 80.7033 80.2662 80.9056C80.2663 81.1079 80.186 81.3019 80.043 81.445L78.1986 83.2895L80.043 85.1331ZM85.0169 81.0856L83.823 85.8604C83.7743 86.0573 83.6492 86.2268 83.4755 86.3315C83.3018 86.4363 83.0935 86.4677 82.8966 86.419C82.6997 86.3702 82.5302 86.2452 82.4254 86.0714C82.3207 85.8977 82.2893 85.6894 82.338 85.4925L83.5319 80.7186C83.556 80.6211 83.5991 80.5293 83.6587 80.4484C83.7183 80.3675 83.7932 80.2992 83.8792 80.2473C83.9652 80.1954 84.0605 80.1609 84.1598 80.1459C84.2591 80.1308 84.3605 80.1355 84.458 80.1596C84.5555 80.1837 84.6473 80.2268 84.7281 80.2863C84.809 80.3459 84.8773 80.4208 84.9292 80.5068C84.9811 80.5928 85.0156 80.6882 85.0306 80.7875C85.0457 80.8868 85.041 80.9881 85.0169 81.0856ZM90.7781 83.832L88.3903 86.2114C88.246 86.3482 88.0541 86.4233 87.8553 86.4206C87.6565 86.418 87.4666 86.3379 87.326 86.1973C87.1855 86.0567 87.1053 85.8668 87.1027 85.668C87.1001 85.4693 87.1751 85.2773 87.3119 85.1331L89.1564 83.2895L87.3119 81.445C87.2411 81.3742 87.1849 81.2901 87.1465 81.1975C87.1082 81.1049 87.0884 81.0057 87.0884 80.9055C87.0884 80.8053 87.1082 80.706 87.1465 80.6135C87.1849 80.5209 87.2411 80.4368 87.3119 80.3659C87.3828 80.295 87.4669 80.2388 87.5595 80.2005C87.6521 80.1621 87.7513 80.1424 87.8515 80.1424C87.9517 80.1424 88.051 80.1621 88.1435 80.2005C88.2361 80.2388 88.3202 80.295 88.3911 80.3659L90.7789 82.7453C90.9224 82.8897 91.0029 83.0851 91.0029 83.2886C91.0029 83.4922 90.9215 83.6876 90.7781 83.832Z" fill="#FDFDFD"/>
<defs>
<filter id="filter0_d_629_8769" x="0" y="0" width="140" height="140" filterUnits="userSpaceOnUse" color-interpolation-filters="sRGB">
<feFlood flood-opacity="0" result="BackgroundImageFix"/>
<feColorMatrix in="SourceAlpha" type="matrix" values="0 0 0 0 0 0 0 0 0 0 0 0 0 0 0 0 0 0 127 0" result="hardAlpha"/>
<feOffset/>
<feGaussianBlur stdDeviation="2.5"/>
<feComposite in2="hardAlpha" operator="out"/>
<feColorMatrix type="matrix" values="0 0 0 0 0 0 0 0 0 0 0 0 0 0 0 0 0 0 0.2 0"/>
<feBlend mode="normal" in2="BackgroundImageFix" result="effect1_dropShadow_629_8769"/>
<feBlend mode="normal" in="SourceGraphic" in2="effect1_dropShadow_629_8769" result="shape"/>
</filter>
<filter id="filter1_d_629_8769" x="11" y="11" width="118" height="118" filterUnits="userSpaceOnUse" color-interpolation-filters="sRGB">
<feFlood flood-opacity="0" result="BackgroundImageFix"/>
<feColorMatrix in="SourceAlpha" type="matrix" values="0 0 0 0 0 0 0 0 0 0 0 0 0 0 0 0 0 0 127 0" result="hardAlpha"/>
<feOffset/>
<feGaussianBlur stdDeviation="2.5"/>
<feComposite in2="hardAlpha" operator="out"/>
<feColorMatrix type="matrix" values="0 0 0 0 0 0 0 0 0 0 0 0 0 0 0 0 0 0 0.2 0"/>
<feBlend mode="normal" in2="BackgroundImageFix" result="effect1_dropShadow_629_8769"/>
<feBlend mode="normal" in="SourceGraphic" in2="effect1_dropShadow_629_8769" result="shape"/>
</filter>
</defs>
</svg>
