<svg width="54" height="54" viewBox="0 0 54 54" fill="none" xmlns="http://www.w3.org/2000/svg">
<path fill-rule="evenodd" clip-rule="evenodd" d="M35.2509 25.0443C39.5477 25.0443 43.0429 21.5491 43.0429 17.2523C43.0429 12.9555 39.5477 9.46023 35.2509 9.46023C30.9541 9.46023 27.4589 12.9555 27.4589 17.2523C27.4589 21.548 30.9541 25.0443 35.2509 25.0443ZM8.07687 51.5275V34.3498C8.07687 34.2802 8.01781 34.2211 7.94715 34.2211H2.94898C2.87937 34.2211 2.82031 34.2802 2.82031 34.3498V51.5275C2.82031 51.5982 2.87937 51.6572 2.94898 51.6572H7.94715C8.01781 51.6572 8.07687 51.5982 8.07687 51.5275ZM25.9939 34.7527C16.9848 31.4568 13.7163 33.3405 9.3425 36.784V47.4912C11.1766 45.9197 12.8673 44.9178 14.9851 44.6878C17.3117 44.4368 20.0623 45.0644 24.7905 46.927C28.6232 48.1841 31.396 48.1683 33.7786 46.8774C37.3982 44.9146 41.0738 42.9096 44.6271 40.969C46.4306 39.985 48.233 39.001 50.0376 38.018C50.5238 37.7522 50.8793 37.3114 51.0375 36.7745C51.1957 36.2377 51.1366 35.6745 50.8719 35.1872C50.2739 34.0893 48.9481 34.0028 47.9694 34.3867L38.8537 37.9632C38.6333 39.9597 36.9363 41.5175 34.8818 41.5175H24.0765C23.7274 41.5175 23.4437 41.2348 23.4437 40.8846C23.4437 40.5355 23.7274 40.2518 24.0765 40.2518H34.8828C36.3889 40.2518 37.6134 39.0273 37.6134 37.5213C37.6134 36.0152 36.3879 34.7896 34.8828 34.7896H26.2112C26.1373 34.7907 26.0635 34.778 25.9939 34.7527ZM35.2509 31.1499C42.9143 31.1499 49.1496 24.9156 49.1496 17.2512C49.1496 9.58785 42.9143 3.35254 35.2509 3.35254C29.6357 3.35254 24.6028 6.69801 22.4291 11.8755C22.3641 12.0301 22.2404 12.1525 22.0851 12.216C21.9299 12.2795 21.7558 12.2788 21.6011 12.214C21.5245 12.1819 21.455 12.135 21.3965 12.076C21.338 12.0171 21.2917 11.9471 21.2603 11.8702C21.2288 11.7933 21.2128 11.711 21.2132 11.6279C21.2136 11.5449 21.2304 11.4627 21.2626 11.3861C23.6346 5.73719 29.1253 2.08691 35.2509 2.08691C43.6125 2.08691 50.4152 8.88965 50.4152 17.2512C50.4152 25.6128 43.6125 32.4155 35.2509 32.4155C32.6121 32.4155 30.0144 31.7268 27.7362 30.4253C25.726 29.2768 23.9963 27.6705 22.697 25.7573L22.023 28.6956C21.9855 28.8592 21.8845 29.0012 21.7423 29.0904C21.6001 29.1796 21.4283 29.2087 21.2647 29.1713C21.1011 29.1338 20.9591 29.0328 20.8699 28.8906C20.7807 28.7484 20.7516 28.5766 20.789 28.413L21.811 23.9548C21.8485 23.7912 21.9495 23.6492 22.0917 23.56C22.2339 23.4708 22.4057 23.4417 22.5693 23.4791L27.0275 24.5011C27.1879 24.5417 27.3261 24.6434 27.4125 24.7845C27.4988 24.9257 27.5265 25.095 27.4896 25.2563C27.4526 25.4176 27.354 25.5581 27.2148 25.6475C27.0756 25.737 26.9069 25.7685 26.7448 25.7351L23.7432 25.0464C26.3388 28.8802 30.5934 31.1499 35.2509 31.1499ZM37.9593 19.3258C37.9593 20.602 37.0723 21.6746 35.8837 21.9604V22.5246C35.8837 22.8748 35.6 23.1575 35.2509 23.1575C34.9018 23.1575 34.6181 22.8748 34.6181 22.5246V21.9604C33.4284 21.6746 32.5425 20.603 32.5425 19.3268C32.5425 18.9777 32.8262 18.694 33.1753 18.694C33.5244 18.694 33.8081 18.9777 33.8081 19.3268C33.8081 20.1231 34.4557 20.7696 35.2509 20.7696C36.0472 20.7696 36.6937 20.121 36.6937 19.3247C36.6937 18.2901 36.2064 18.1298 35.1032 17.865C34.0834 17.6204 32.5414 17.2512 32.5414 15.1756C32.5414 13.8984 33.4284 12.8268 34.617 12.541V11.9767C34.617 11.6276 34.9007 11.3439 35.2498 11.3439C35.5989 11.3439 35.8827 11.6276 35.8827 11.9767V12.541C37.0723 12.8268 37.9583 13.8984 37.9583 15.1745C37.9583 15.5247 37.6746 15.8073 37.3255 15.8073C36.9764 15.8073 36.6927 15.5247 36.6927 15.1745C36.6927 14.3793 36.0451 13.7317 35.2498 13.7317C34.4536 13.7317 33.807 14.3793 33.807 15.1745C33.807 16.2113 34.2943 16.3716 35.3975 16.6353C36.4184 16.88 37.9593 17.2491 37.9593 19.3258Z" fill="black"/>
</svg>
