<svg width="54" height="54" viewBox="0 0 54 54" fill="none" xmlns="http://www.w3.org/2000/svg">
<path d="M17.2394 45.5271C17.2356 45.5272 17.2319 45.5272 17.2281 45.5272L17.2248 45.5269C17.1952 45.5279 17.1661 45.5288 17.1362 45.5288C15.0336 45.5288 12.7922 43.8963 12.034 41.8122L1.54227 12.9863L0 13.0259L12.4645 47.2717L36.5244 46.6532L35.9395 45.0464L17.2394 45.5271Z" fill="#FDFDFD"/>
<path d="M12.8565 41.5142C13.486 43.2451 15.4071 44.6548 17.137 44.6548C17.1636 44.6548 17.1891 44.6538 17.2204 44.6534C17.9672 44.6335 18.5695 44.3425 18.9162 43.8338C19.3055 43.2621 19.35 42.4805 19.0415 41.6326C19.0177 41.5675 19.0098 41.4976 19.0185 41.4288C19.0271 41.36 19.0519 41.2942 19.0909 41.2369C19.13 41.1796 19.1821 41.1325 19.243 41.0993C19.3039 41.0661 19.3718 41.0479 19.4411 41.0461L36.808 40.5996L33.8971 32.6021C33.6746 32.3492 33.461 32.0888 33.2564 31.8213L30.8908 31.6744L17.6835 32.0141C17.5676 32.017 17.4553 31.9738 17.3713 31.894C17.2872 31.8142 17.2383 31.7043 17.2352 31.5884C17.2323 31.4725 17.2755 31.3602 17.3553 31.2762C17.4351 31.1921 17.5451 31.1432 17.661 31.1402L30.1629 30.8186C29.9895 30.4976 29.8254 30.1716 29.6708 29.8411C29.4131 29.2885 29.1821 28.7237 28.9786 28.1489C28.9562 28.0858 28.9486 28.0183 28.9565 27.9518C28.9643 27.8853 28.9873 27.8215 29.0238 27.7653L30.4159 25.6177C30.2246 24.7077 30.1213 23.7929 30.1079 22.8931L28.155 20.7605C28.1127 20.7142 28.0808 20.6593 28.0615 20.5996C28.0422 20.5398 28.036 20.4767 28.0433 20.4143C28.1441 19.5553 28.3165 18.7227 28.5564 17.9295L25.6237 9.87114L23.6064 9.9224L24.2586 11.7157C24.5171 12.426 24.4485 13.3012 23.9033 13.8579C23.1989 14.5768 22.1014 14.3391 21.3344 13.8259C20.7368 13.426 20.2296 12.8117 19.9717 12.1036L19.7717 11.5539C19.7499 11.4936 19.7416 11.4293 19.7475 11.3654C19.7534 11.3016 19.7732 11.2398 19.8057 11.1845C19.8568 11.0963 19.9372 11.0286 20.0329 10.9933C20.0868 10.9737 20.1441 10.9648 20.2014 10.9673C20.2588 10.9697 20.3151 10.9835 20.3672 11.0077C20.4192 11.0319 20.466 11.0662 20.5048 11.1085C20.5436 11.1508 20.5737 11.2003 20.5933 11.2543C20.9456 12.2244 21.5959 13.465 22.8185 13.4346C23.0828 13.4281 23.2808 13.3308 23.4075 13.145C23.5877 12.8805 23.5987 12.4576 23.4369 12.015L22.6839 9.94634L19.3859 10.0316C19.1592 9.40624 18.798 8.62524 19.2253 7.99675C19.3946 7.74763 19.6701 7.61105 20.0185 7.6023H20.0557C20.8481 7.6023 21.7704 8.23722 22.2971 9.08192C22.4666 9.35435 22.5752 9.6467 22.6839 9.94634L23.1452 9.93432L23.6055 9.92229C23.5126 9.91755 23.3029 9.11293 23.2615 9.02275C23.0623 8.58759 22.762 8.17309 22.4235 7.83612C21.789 7.20447 20.914 6.70708 19.9967 6.72923C19.3628 6.74452 18.8329 7.02106 18.5028 7.50506C18.1936 7.95868 18.0919 8.55194 18.2023 9.18686C18.2544 9.48724 18.3598 9.76947 18.4635 10.0547L1.56445 10.4896L12.8565 41.5142ZM33.4847 37.9361L33.496 37.9359C33.6106 37.9364 33.7203 37.982 33.8017 38.0627C33.883 38.1434 33.9294 38.2528 33.9309 38.3674C33.9323 38.482 33.8888 38.5926 33.8095 38.6754C33.7303 38.7581 33.6217 38.8065 33.5071 38.81L20.2809 39.1501C20.1651 39.153 20.0528 39.1098 19.9687 39.03C19.8847 38.9502 19.8358 38.8403 19.8327 38.7244C19.8297 38.6085 19.8729 38.4962 19.9528 38.4121C20.0326 38.3281 20.1426 38.2792 20.2585 38.2762L33.4847 37.9361ZM19.3729 35.8434L25.9858 35.6732L25.9973 35.673C26.1119 35.6736 26.2217 35.7192 26.303 35.8C26.3843 35.8807 26.4306 35.9901 26.4321 36.1047C26.4335 36.2193 26.3899 36.3298 26.3107 36.4126C26.2314 36.4953 26.1228 36.5436 26.0083 36.5471L19.3953 36.7173C19.2795 36.7202 19.1672 36.677 19.0831 36.5972C18.9991 36.5174 18.9501 36.4075 18.9471 36.2916C18.9456 36.2342 18.9554 36.1771 18.976 36.1235C18.9966 36.0699 19.0276 36.0209 19.0671 35.9793C19.1066 35.9376 19.154 35.9042 19.2065 35.8809C19.2589 35.8576 19.3155 35.8448 19.3729 35.8434ZM8.65375 25.0434C8.56405 25.0433 8.47653 25.0157 8.40305 24.9642C8.32957 24.9128 8.27368 24.84 8.24295 24.7557L6.89991 21.066C6.87618 21.0009 6.86828 20.931 6.87689 20.8622C6.88549 20.7934 6.91034 20.7276 6.94938 20.6703C6.98842 20.613 7.04054 20.5658 7.10142 20.5327C7.16231 20.4995 7.23021 20.4813 7.29953 20.4795L9.62174 20.4199C9.67915 20.4184 9.73629 20.4282 9.78991 20.4487C9.84352 20.4693 9.89255 20.5003 9.93419 20.5398C9.97583 20.5794 10.0093 20.6267 10.0326 20.6792C10.0559 20.7317 10.0686 20.7883 10.07 20.8457C10.0715 20.9031 10.0616 20.9602 10.041 21.0138C10.0204 21.0673 9.98945 21.1163 9.94992 21.158C9.91038 21.1996 9.86303 21.233 9.81057 21.2563C9.75812 21.2796 9.70159 21.2924 9.6442 21.2938L7.92928 21.3378L8.95697 24.1611L11.7102 24.0903L11.3608 23.1307C11.322 23.0219 11.3278 22.9022 11.377 22.7978C11.4261 22.6933 11.5146 22.6125 11.6231 22.573C11.7316 22.5335 11.8513 22.5385 11.9561 22.587C12.0609 22.6355 12.1422 22.7234 12.1824 22.8317L12.7396 24.3622C12.7633 24.4274 12.7712 24.4972 12.7626 24.566C12.754 24.6349 12.7292 24.7006 12.6901 24.7579C12.6511 24.8152 12.599 24.8624 12.5381 24.8956C12.4772 24.9288 12.4093 24.947 12.34 24.9487L8.66503 25.0432L8.65375 25.0434ZM14.3266 27.4448C14.3755 27.4749 14.4179 27.5143 14.4516 27.5609C14.4852 27.6074 14.5093 27.6601 14.5226 27.7159C14.5359 27.7718 14.538 27.8297 14.5289 27.8864C14.5197 27.9431 14.4995 27.9974 14.4694 28.0463L13.068 30.3204C13.0366 30.3714 12.9949 30.4154 12.9457 30.4496C12.8966 30.4838 12.8409 30.5076 12.7821 30.5194C12.7234 30.5313 12.6628 30.5309 12.6042 30.5183C12.5456 30.5058 12.4902 30.4814 12.4414 30.4465L11.128 29.5057C11.0338 29.4382 10.9702 29.336 10.9513 29.2216C10.9324 29.1072 10.9597 28.99 11.0273 28.8958C11.0948 28.8015 11.197 28.7379 11.3114 28.719C11.4258 28.7001 11.543 28.7275 11.6372 28.795L12.5696 29.4629L13.7252 27.5877C13.7553 27.5388 13.7947 27.4963 13.8412 27.4627C13.8878 27.429 13.9404 27.4049 13.9963 27.3916C14.0521 27.3783 14.1101 27.3762 14.1667 27.3853C14.2234 27.3945 14.2777 27.4146 14.3266 27.4448ZM13.7525 22.0197C13.7496 21.9038 13.7927 21.7914 13.8726 21.7074C13.9524 21.6233 14.0624 21.5744 14.1783 21.5714L20.7915 21.4014L20.803 21.4013C20.9176 21.4019 21.0273 21.4475 21.1086 21.5282C21.1899 21.609 21.2363 21.7184 21.2377 21.833C21.2392 21.9476 21.1956 22.0581 21.1163 22.1409C21.0371 22.2236 20.9285 22.2719 20.814 22.2754L14.2008 22.4454C14.0849 22.4484 13.9726 22.4052 13.8885 22.3254C13.8044 22.2455 13.7555 22.1356 13.7525 22.0197ZM11.2509 32.1793C11.1612 32.1792 11.0737 32.1516 11.0002 32.1002C10.9267 32.0487 10.8708 31.9759 10.8401 31.8916L9.49729 28.2019C9.47356 28.1368 9.46567 28.0669 9.47426 27.9982C9.48285 27.9294 9.50768 27.8636 9.5467 27.8063C9.58572 27.749 9.63781 27.7018 9.69866 27.6686C9.75952 27.6354 9.8274 27.6172 9.8967 27.6154L12.2191 27.5556C12.4581 27.5482 12.6609 27.74 12.6671 27.9813C12.6687 28.0387 12.6588 28.0958 12.6382 28.1494C12.6176 28.203 12.5867 28.252 12.5472 28.2936C12.5076 28.3353 12.4603 28.3687 12.4078 28.392C12.3553 28.4153 12.2988 28.4281 12.2414 28.4295L10.5267 28.4736L11.5541 31.297L14.3076 31.2262L13.9582 30.2664C13.9213 30.1581 13.9284 30.0397 13.9778 29.9365C14.0272 29.8334 14.1151 29.7537 14.2225 29.7146C14.33 29.6754 14.4486 29.68 14.5527 29.7272C14.6569 29.7744 14.7384 29.8606 14.7798 29.9673L15.337 31.498C15.3607 31.5632 15.3686 31.633 15.36 31.7019C15.3514 31.7707 15.3266 31.8364 15.2875 31.8937C15.2485 31.951 15.1964 31.9982 15.1355 32.0314C15.0746 32.0646 15.0067 32.0828 14.9374 32.0845L11.2622 32.179C11.2583 32.1793 11.2546 32.1793 11.2509 32.1793ZM16.3223 34.7236C16.384 34.6269 16.4813 34.5583 16.5931 34.5327C16.705 34.5071 16.8224 34.5265 16.9201 34.5867C17.0177 34.6468 17.0878 34.743 17.1152 34.8544C17.1427 34.9658 17.1252 35.0835 17.0666 35.1822L15.6652 37.4562C15.6338 37.5072 15.5921 37.5512 15.543 37.5855C15.4938 37.6198 15.4381 37.6436 15.3793 37.6554C15.3205 37.6672 15.26 37.6668 15.2014 37.6543C15.1428 37.6417 15.0874 37.6172 15.0386 37.5823L13.7256 36.6418C13.6776 36.6089 13.6366 36.5668 13.605 36.5179C13.5734 36.4689 13.5519 36.4142 13.5418 36.3569C13.5317 36.2996 13.5331 36.2408 13.546 36.184C13.5589 36.1272 13.583 36.0736 13.6169 36.0263C13.6508 35.9789 13.6938 35.9389 13.7434 35.9084C13.793 35.8779 13.8482 35.8576 13.9057 35.8488C13.9633 35.8399 14.022 35.8426 14.0785 35.8568C14.135 35.8709 14.1881 35.8962 14.2346 35.9311L15.1668 36.5988L16.3223 34.7236ZM17.377 37.1033L17.9342 38.6343C17.9578 38.6994 17.9657 38.7692 17.957 38.838C17.9484 38.9068 17.9235 38.9725 17.8845 39.0298C17.8455 39.0871 17.7934 39.1343 17.7325 39.1675C17.6717 39.2006 17.6038 39.2189 17.5345 39.2207L13.8596 39.3152C13.768 39.3175 13.678 39.291 13.6022 39.2394C13.5265 39.1878 13.4689 39.1138 13.4375 39.0277L12.0947 35.338C12.0709 35.2729 12.063 35.203 12.0716 35.1342C12.0802 35.0654 12.1051 34.9997 12.1441 34.9424C12.1832 34.8851 12.2353 34.8379 12.2962 34.8047C12.3571 34.7715 12.425 34.7533 12.4943 34.7515L14.8163 34.6918L14.8276 34.6916C14.9415 34.6917 15.051 34.7363 15.1326 34.8158C15.2142 34.8953 15.2615 35.0036 15.2645 35.1175C15.2674 35.2334 15.2242 35.3457 15.1444 35.4298C15.0646 35.5138 14.9546 35.5627 14.8388 35.5658L13.124 35.6098L14.1515 38.4331L16.9048 38.3624L16.5554 37.4022C16.5158 37.2932 16.5211 37.173 16.5701 37.0679C16.6191 36.9629 16.7079 36.8816 16.8168 36.8419C16.8708 36.8223 16.928 36.8135 16.9854 36.816C17.0427 36.8185 17.099 36.8322 17.1511 36.8565C17.2031 36.8808 17.2498 36.9151 17.2886 36.9574C17.3273 36.9998 17.3574 37.0493 17.377 37.1033ZM23.4111 29.4113L16.7981 29.5815L16.7869 29.5816C16.6723 29.5809 16.5625 29.5354 16.4812 29.4546C16.3999 29.3739 16.3536 29.2645 16.3521 29.1499C16.3507 29.0353 16.3943 28.9248 16.4735 28.842C16.5528 28.7593 16.6614 28.7109 16.7759 28.7074L23.3887 28.5373C23.6251 28.5316 23.8307 28.7217 23.8369 28.963C23.8384 29.0204 23.8286 29.0775 23.808 29.1311C23.7874 29.1847 23.7564 29.2337 23.7169 29.2754C23.6774 29.317 23.63 29.3504 23.5775 29.3738C23.5251 29.3971 23.4685 29.4099 23.4111 29.4113ZM28.2901 23.6641L28.3014 23.664C28.416 23.6646 28.5258 23.7102 28.6071 23.7909C28.6885 23.8716 28.7349 23.981 28.7363 24.0956C28.7378 24.2102 28.6942 24.3208 28.615 24.4035C28.5357 24.4863 28.4271 24.5346 28.3126 24.5382L15.0864 24.8783C14.9705 24.8812 14.8582 24.838 14.7742 24.7582C14.6901 24.6783 14.6412 24.5684 14.6381 24.4525C14.6352 24.3366 14.6784 24.2243 14.7582 24.1402C14.8381 24.0562 14.948 24.0073 15.0639 24.0043L28.2901 23.6641ZM25.693 16.5281L25.7045 16.528C25.8204 16.5266 25.9321 16.5712 26.0151 16.6521C26.0981 16.7331 26.1456 16.8437 26.147 16.9596C26.1485 17.0755 26.1038 17.1873 26.0229 17.2702C25.9419 17.3532 25.8313 17.4007 25.7154 17.4021L12.489 17.7423L12.4777 17.7424C12.3639 17.7406 12.2553 17.6945 12.175 17.6138C12.0946 17.5332 12.0489 17.4245 12.0474 17.3106C12.046 17.1968 12.089 17.087 12.1673 17.0043C12.2456 16.9217 12.353 16.8729 12.4668 16.8683L25.693 16.5281ZM11.5811 14.4355L18.1941 14.2654L18.2056 14.2652C18.3202 14.2658 18.43 14.3114 18.5113 14.3921C18.5926 14.4729 18.6389 14.5823 18.6404 14.6969C18.6418 14.8114 18.5982 14.922 18.519 15.0047C18.4397 15.0875 18.3311 15.1358 18.2166 15.1393L11.6034 15.3095L11.5921 15.3096C11.4775 15.309 11.3678 15.2634 11.2865 15.1827C11.2052 15.102 11.1588 14.9925 11.1574 14.878C11.1559 14.7634 11.1995 14.6528 11.2788 14.5701C11.358 14.4873 11.4666 14.439 11.5811 14.4355ZM11.7292 20.3089C11.7781 20.339 11.8206 20.3784 11.8542 20.4249C11.8878 20.4715 11.912 20.5242 11.9252 20.58C11.9385 20.6359 11.9406 20.6938 11.9315 20.7505C11.9224 20.8072 11.9021 20.8615 11.872 20.9103L10.4707 23.1845C10.4392 23.2355 10.3976 23.2796 10.3484 23.3138C10.2992 23.3481 10.2434 23.3719 10.1847 23.3837C10.1259 23.3955 10.0653 23.3951 10.0066 23.3825C9.94801 23.3699 9.8926 23.3454 9.84386 23.3105L8.53088 22.3697C8.48421 22.3363 8.44459 22.294 8.41428 22.2452C8.38396 22.1965 8.36355 22.1423 8.35419 22.0856C8.34484 22.029 8.34674 21.9711 8.35977 21.9151C8.3728 21.8592 8.39672 21.8065 8.43015 21.7598C8.46359 21.7131 8.50589 21.6735 8.55463 21.6432C8.60338 21.6129 8.65762 21.5925 8.71426 21.5831C8.77089 21.5738 8.82882 21.5757 8.88472 21.5887C8.94063 21.6017 8.99342 21.6256 9.04008 21.6591L9.97221 22.3269L11.1278 20.4518C11.1579 20.4029 11.1974 20.3604 11.2439 20.3268C11.2904 20.2931 11.3431 20.269 11.3989 20.2557C11.4548 20.2424 11.5127 20.2403 11.5694 20.2494C11.626 20.2585 11.6803 20.2787 11.7292 20.3089ZM9.13205 13.1729C9.18093 13.2031 9.22339 13.2425 9.25702 13.289C9.29066 13.3356 9.31479 13.3883 9.32805 13.4441C9.34131 13.5 9.34344 13.5579 9.33431 13.6146C9.32519 13.6712 9.30498 13.7256 9.27485 13.7744L7.87349 16.0487C7.84205 16.0997 7.80044 16.1438 7.75124 16.1781C7.70204 16.2124 7.64631 16.2362 7.58752 16.248C7.52872 16.2599 7.46812 16.2595 7.40949 16.2469C7.35085 16.2343 7.29544 16.2097 7.24669 16.1748L5.9335 15.2338C5.84108 15.1656 5.77924 15.0637 5.76133 14.9503C5.74342 14.8368 5.77088 14.7208 5.83779 14.6275C5.90469 14.5341 6.00566 14.4708 6.11886 14.4513C6.23205 14.4318 6.34839 14.4576 6.4427 14.5232L7.37504 15.1912L8.53066 13.3159C8.56075 13.267 8.60017 13.2245 8.64668 13.1908C8.6932 13.1572 8.74588 13.133 8.80174 13.1198C8.85759 13.1065 8.91551 13.1044 8.97218 13.1135C9.02886 13.1226 9.08319 13.1428 9.13205 13.1729ZM4.70215 13.3434L7.02436 13.2838C7.14026 13.2808 7.25259 13.3241 7.33663 13.4039C7.42067 13.4838 7.46955 13.5938 7.4725 13.7097C7.47545 13.8256 7.43224 13.9379 7.35237 14.0219C7.2725 14.106 7.16252 14.1549 7.04661 14.1578L5.33211 14.2019L6.35959 17.0253L9.11306 16.9545L8.76365 15.9949C8.72678 15.8866 8.73381 15.7682 8.78323 15.665C8.83264 15.5619 8.92051 15.4822 9.028 15.443C9.13548 15.4039 9.25402 15.4085 9.35819 15.4557C9.46236 15.5029 9.54387 15.5891 9.58525 15.6958L10.1424 17.2263C10.1662 17.2915 10.1741 17.3613 10.1655 17.4301C10.1569 17.4989 10.132 17.5647 10.093 17.622C10.0539 17.6793 10.0018 17.7265 9.94092 17.7597C9.88004 17.7929 9.81213 17.8111 9.74282 17.8128L6.06765 17.9073C5.97605 17.9097 5.88603 17.8831 5.8103 17.8316C5.73457 17.78 5.67695 17.7059 5.64557 17.6198L4.30274 13.93C4.27899 13.8649 4.27108 13.795 4.27966 13.7262C4.28824 13.6574 4.31307 13.5916 4.35209 13.5343C4.39111 13.477 4.44321 13.4298 4.50408 13.3966C4.56494 13.3634 4.63284 13.3452 4.70215 13.3434Z" fill="#FDFDFD"/>
<path d="M20.0275 41.9052C20.2211 42.8062 20.0872 43.6656 19.6376 44.3256C19.573 44.4204 19.5023 44.5108 19.4258 44.5962L38.6946 44.101C39.4428 44.0817 40.0461 43.7906 40.3932 43.281C40.7368 42.7766 40.8118 42.1086 40.6126 41.376L20.0275 41.9052ZM49.9495 31.5523L49.9689 31.7277L51.5917 31.78L52.9326 29.7112L51.3957 29.6618C50.9876 30.3705 50.5026 31.0048 49.9495 31.5523ZM39.3041 15.1818C38.3942 15.6063 37.6529 16.3299 37.1424 17.27C37.8333 16.9653 38.5747 16.8091 39.3495 16.8091C42.1753 16.8091 45.0458 18.8937 46.4925 21.9965C47.2337 23.5855 47.5431 25.3151 47.3973 26.9256C48.7123 25.018 48.8377 22.1014 47.5967 19.44C45.8805 15.76 42.1604 13.8502 39.3041 15.1818Z" fill="#FDFDFD"/>
<path d="M52.0703 24.2117C51.9967 24.1312 51.9558 24.0262 51.9555 23.9172C51.9538 22.8934 51.8282 21.8515 51.5818 20.8203C51.5671 20.7584 51.5661 20.694 51.5788 20.6316C51.5915 20.5692 51.6176 20.5103 51.6554 20.4591L53.0555 18.5634C52.8808 18.0899 52.6868 17.6238 52.4737 17.1663C52.2603 16.7089 52.0279 16.2605 51.7772 15.8224L49.4251 15.6763C49.3616 15.6723 49.2997 15.6546 49.2438 15.6242C49.1878 15.5938 49.1392 15.5516 49.1013 15.5005C48.4681 14.6473 47.7506 13.8814 46.9691 13.2238C46.8855 13.1537 46.8313 13.0547 46.8171 12.9465L46.4432 10.1137C45.6939 9.63577 44.9168 9.23952 44.1266 8.9325L42.731 10.7095C42.6808 10.7735 42.6137 10.8222 42.5373 10.8501C42.4609 10.878 42.3782 10.8841 42.2986 10.8676C41.4235 10.6864 40.5473 10.6442 39.7142 10.7433C39.6469 10.7513 39.5786 10.7436 39.5148 10.7207C39.451 10.6978 39.3934 10.6604 39.3465 10.6114L37.4279 8.60449C37.0845 8.71546 36.7482 8.84747 36.421 8.99979C36.094 9.153 35.7767 9.32626 35.471 9.51859L35.7748 12.2769C35.7823 12.3443 35.7739 12.4125 35.7505 12.4761C35.727 12.5397 35.6891 12.597 35.6397 12.6434C35.0259 13.2199 34.4992 13.9128 34.0737 14.703C34.0363 14.7725 33.9808 14.8306 33.9131 14.871C33.8453 14.9115 33.7679 14.9329 33.689 14.9329C33.6842 14.9329 33.6795 14.9329 33.6747 14.9327L33.3456 14.9221L31.4171 14.8596C31.145 15.6612 30.9478 16.5114 30.832 17.3936L32.7618 19.5008C32.8354 19.5812 32.8763 19.6862 32.8765 19.7951C32.8788 20.8193 33.0045 21.8613 33.2504 22.8922C33.2652 22.9541 33.2663 23.0185 33.2537 23.0809C33.241 23.1433 33.2149 23.2021 33.1771 23.2534L31.7768 25.1493C31.9506 25.6209 32.146 26.0899 32.3588 26.5466C32.5722 27.0038 32.8044 27.452 33.0549 27.89L35.4074 28.0361C35.4709 28.04 35.5328 28.0578 35.5887 28.0882C35.6446 28.1185 35.6932 28.1608 35.7312 28.2119C36.3631 29.0637 37.0804 29.8299 37.8632 30.489C37.9466 30.5593 38.0007 30.6581 38.015 30.7661L38.3887 33.5989C39.1391 34.0773 39.9163 34.4735 40.7051 34.7798L42.1015 33.003C42.1518 32.9391 42.2189 32.8905 42.2952 32.8626C42.3716 32.8347 42.4543 32.8286 42.5339 32.845C43.4124 33.0272 44.2819 33.0687 45.1179 32.9688C45.1852 32.9607 45.2535 32.9684 45.3173 32.9913C45.3811 33.0142 45.4387 33.0517 45.4855 33.1008L47.4041 35.1078C47.7478 34.9969 48.0844 34.8649 48.4119 34.7125C48.7386 34.5591 49.0557 34.3858 49.3613 34.1936L49.1415 32.2009L49.0572 31.4352C49.0498 31.3678 49.0582 31.2996 49.0817 31.236C49.1052 31.1723 49.1431 31.115 49.1926 31.0686C49.8058 30.4932 50.3328 29.8005 50.7588 29.0097C50.7976 28.9384 50.8554 28.8792 50.9258 28.8387C50.9962 28.7981 51.0764 28.7778 51.1575 28.78L53.4146 28.8527C53.6877 28.05 53.8847 27.2003 54 26.3193L52.0703 24.2117ZM46.967 28.6609C46.957 28.6689 46.946 28.6748 46.9354 28.6817C46.615 28.9338 46.2669 29.1486 45.8978 29.3218C45.1777 29.6577 44.3998 29.828 43.5859 29.828C40.7601 29.828 37.8896 27.7437 36.4431 24.6415C35.4649 22.5442 35.2376 20.2016 35.8185 18.2116C35.8198 18.207 35.8198 18.2023 35.8211 18.1976C36.3388 16.4371 37.4446 15.0849 38.9347 14.3899C42.2279 12.8541 46.4692 14.954 48.3892 19.0709C50.0579 22.6489 49.4597 26.682 46.967 28.6609Z" fill="#FDFDFD"/>
<path d="M34.8826 12.1592L34.7069 10.5635L33.5621 12.3296L33.7037 13.6153C34.0512 13.0806 34.4451 12.5927 34.8826 12.1592ZM47.2748 36.0422C47.2157 36.0422 47.1573 36.0303 47.1029 36.0071C47.0486 35.9839 46.9996 35.9499 46.9588 35.9072L45.002 33.8602C44.2263 33.932 43.4284 33.8959 42.624 33.7527L41.195 35.5711C41.1383 35.6432 41.0603 35.6956 40.9722 35.721C40.884 35.7463 40.7901 35.7433 40.7037 35.7124C39.6903 35.3489 38.6936 34.8472 37.7416 34.2213C37.6891 34.1868 37.6447 34.1415 37.6113 34.0883C37.578 34.0352 37.5565 33.9754 37.5483 33.9132L37.1701 31.0468C36.436 30.4126 35.7584 29.6904 35.152 28.8959L32.7672 28.7479C32.6959 28.7435 32.6267 28.7216 32.5658 28.6842C32.5048 28.6469 32.454 28.5951 32.4177 28.5336C32.1083 28.0082 31.8242 27.4684 31.5664 26.916C31.4319 26.6267 31.3046 26.3342 31.1847 26.0387L29.8747 28.0592C30.0508 28.5381 30.2468 29.0095 30.4624 29.472C30.6758 29.9293 30.9081 30.3775 31.1587 30.8155L33.5112 30.9616C33.5747 30.9655 33.6366 30.9833 33.6925 31.0137C33.7485 31.044 33.7971 31.0863 33.835 31.1374C34.4667 31.9891 35.184 32.7553 35.9668 33.4147C36.0501 33.4849 36.1042 33.5837 36.1186 33.6917L36.4927 36.5244C37.2425 37.0027 38.0196 37.3988 38.8087 37.7054L40.2051 35.9286C40.2553 35.8647 40.3224 35.816 40.3988 35.7881C40.4752 35.7602 40.5579 35.7542 40.6375 35.7707C41.5115 35.9518 42.3879 35.9938 43.2215 35.8944C43.2888 35.8864 43.3571 35.8942 43.4209 35.9171C43.4847 35.94 43.5423 35.9774 43.5892 36.0265L45.5077 38.0337C45.8513 37.9226 46.1878 37.7906 46.5153 37.6384C46.8948 37.4607 47.2613 37.2564 47.612 37.027L48.5251 35.6183C48.1577 35.7766 47.781 35.9123 47.3971 36.0247C47.3574 36.0363 47.3162 36.0422 47.2748 36.0422ZM30.9801 22.7209C30.9823 23.3398 31.0283 23.9579 31.1175 24.5704L32.3543 22.896C32.1358 21.9214 32.0181 20.938 32.0039 19.9675L30.0511 17.8352C30.0087 17.7889 29.9768 17.7341 29.9576 17.6744C29.9383 17.6147 29.9321 17.5515 29.9394 17.4892C29.9627 17.2895 29.9913 17.0919 30.0224 16.8952L29.6079 17.5345C29.2896 18.4087 29.0639 19.3443 28.9355 20.3192L30.8653 22.4266C30.9389 22.507 30.9798 22.6119 30.9801 22.7209Z" fill="#FDFDFD"/>
</svg>
