<svg width="54" height="54" viewBox="0 0 54 54" fill="none" xmlns="http://www.w3.org/2000/svg">
<path d="M6.61133 27.3466V44.9557L19.5376 33.8772L6.61133 27.3466ZM7.9107 46.0694H41.5088L24.7098 31.6582L7.9107 46.0694ZM42.8082 44.9557V27.3466L29.8904 33.8772L42.8082 44.9557ZM24.7055 21.82C27.4477 21.82 29.6668 19.601 29.6668 16.8672C29.6668 14.1419 27.4477 11.9229 24.7055 11.9229C21.9802 11.9229 19.7612 14.1419 19.7612 16.8672C19.7612 19.601 21.9802 21.82 24.7055 21.82ZM21.6427 15.7872C21.726 15.715 21.8229 15.6601 21.9276 15.6256C22.0323 15.5912 22.1429 15.5779 22.2528 15.5865C22.3627 15.5952 22.4698 15.6256 22.5678 15.6759C22.6659 15.7263 22.753 15.7957 22.824 15.88L24.2921 17.6013L27.0765 14.2938C27.3802 13.9394 27.9118 13.8972 28.2746 14.1925C28.6205 14.4963 28.6627 15.0279 28.3674 15.3822L24.9334 19.4491C24.7899 19.6347 24.5284 19.7782 24.2921 19.7444C24.0559 19.7444 23.8112 19.6347 23.6509 19.4491L21.5415 16.9769C21.469 16.8926 21.414 16.7947 21.3798 16.6889C21.3456 16.5831 21.3329 16.4716 21.3423 16.3608C21.3517 16.25 21.3832 16.1422 21.4347 16.0438C21.4863 15.9453 21.557 15.8581 21.6427 15.7872Z" fill="black"/>
<path d="M24.7051 29.4304L28.502 32.6873L37.7916 27.9876V11.7791C37.7916 9.89758 39.1416 8.33664 40.922 7.99914V7.93164H15.9891C14.8322 7.93164 13.7227 8.39123 12.9046 9.2093C12.0865 10.0274 11.627 11.1369 11.627 12.2938V27.9876L20.9166 32.6873L24.7051 29.4304ZM24.7051 10.2351C28.367 10.2351 31.3538 13.2135 31.3538 16.867C31.3538 20.5288 28.367 23.5073 24.7051 23.5073C21.0516 23.5073 18.0732 20.5288 18.0732 16.867C18.0732 13.2135 21.0516 10.2351 24.7051 10.2351ZM17.9045 26.4013C17.9045 25.9288 18.2841 25.5576 18.7482 25.5576H30.662C31.1429 25.5576 31.5057 25.9288 31.5057 26.4013C31.5057 26.8654 31.1429 27.2451 30.662 27.2451H18.7482C18.2841 27.2451 17.9045 26.8654 17.9045 26.4013Z" fill="black"/>
<path d="M46.2597 10.2576C45.9046 9.89817 45.4815 9.61308 45.015 9.41896C44.5485 9.22484 44.0481 9.12558 43.5428 9.12697C41.4166 9.12697 39.6953 10.8482 39.6953 12.9745V18.0623H47.3903V12.9745C47.3903 11.9113 46.96 10.9495 46.2597 10.2576Z" fill="black"/>
</svg>
