<svg width="35" height="35" viewBox="0 0 35 35" fill="none" xmlns="http://www.w3.org/2000/svg">
<g clip-path="url(#clip0_1998_14109)">
<path fill-rule="evenodd" clip-rule="evenodd" d="M34.3843 5.58789V27.3125C34.3843 28.3714 33.5181 29.2375 32.4593 29.2375H16.1385C17.1092 28.8027 17.976 28.1772 18.691 27.4089H32.5563V7.4165H7.62703V16.2027C6.86279 16.8959 6.24158 17.7319 5.79841 18.6637V5.58789H34.3843ZM12.9215 15.2532C9.17263 15.2532 6.13337 18.2925 6.13337 22.0413C6.13337 25.7901 9.17263 28.8294 12.9215 28.8294C16.6703 28.8294 19.7095 25.7901 19.7095 22.0413C19.7089 18.2925 16.6703 15.2532 12.9215 15.2532ZM12.8832 24.2931L14.0145 20.0712C14.0331 20.0019 14.0377 19.9296 14.0283 19.8585C14.0189 19.7874 13.9956 19.7188 13.9596 19.6567C13.9237 19.5946 13.8759 19.5402 13.8189 19.4966C13.7619 19.453 13.6969 19.4211 13.6276 19.4026C13.5583 19.3841 13.486 19.3794 13.4149 19.3888C13.3438 19.3983 13.2752 19.4216 13.2131 19.4575C13.1511 19.4935 13.0967 19.5413 13.0531 19.5983C13.0095 19.6552 12.9775 19.7202 12.9591 19.7895L11.8277 24.0114C11.8092 24.0807 11.8045 24.153 11.8139 24.2241C11.8233 24.2952 11.8467 24.3638 11.8826 24.4259C11.9185 24.488 11.9664 24.5424 12.0233 24.586C12.0803 24.6296 12.1453 24.6615 12.2146 24.68C12.2839 24.6985 12.3562 24.7032 12.4273 24.6938C12.4984 24.6844 12.567 24.661 12.6291 24.6251C12.6912 24.5892 12.7456 24.5413 12.7892 24.4844C12.8328 24.4274 12.8647 24.3624 12.8832 24.2931ZM11.3068 23.2793L10.0688 22.0413L11.3068 20.8033C11.5201 20.59 11.5201 20.2435 11.3068 20.0302C11.0935 19.8169 10.7469 19.8169 10.5337 20.0302L8.90876 21.6551C8.69548 21.8684 8.69548 22.2149 8.90876 22.4282L10.5337 24.0531C10.7469 24.2664 11.0935 24.2664 11.3068 24.0531C11.5201 23.8392 11.5201 23.4926 11.3068 23.2793ZM15.3093 24.0524L16.9342 22.4275C17.1474 22.2143 17.1474 21.8677 16.9342 21.6544L15.3093 20.0295C15.096 19.8162 14.7494 19.8162 14.5361 20.0295C14.3228 20.2428 14.3228 20.5894 14.5361 20.8026L15.7741 22.0406L14.5361 23.2786C14.3228 23.4919 14.3228 23.8385 14.5361 24.0518C14.5867 24.1027 14.6469 24.1432 14.7132 24.1709C14.7796 24.1985 14.8507 24.2128 14.9225 24.2128C14.9944 24.2129 15.0655 24.1988 15.1319 24.1712C15.1983 24.1437 15.2585 24.1033 15.3093 24.0524ZM12.9215 17.0381C10.1584 17.0381 7.91824 19.2782 7.91824 22.0413C7.91824 24.8044 10.1584 27.0445 12.9215 27.0445C15.6845 27.0445 17.9247 24.8044 17.9247 22.0413C17.9247 19.2782 15.6845 17.0381 12.9215 17.0381ZM5.88523 27.2216C5.83806 27.1744 5.76082 27.1744 5.71296 27.2216L4.88103 28.0549L6.90789 30.0817L7.7405 29.2491C7.78767 29.202 7.78767 29.1247 7.7405 29.0769L7.38572 28.7221L7.95037 28.1574C7.52996 27.8156 7.14578 27.4314 6.80398 27.011L6.23933 27.5757L5.88523 27.2216ZM6.13474 30.8549L4.10789 28.828L1.03308 31.9028C0.475952 32.46 0.475952 33.3726 1.03308 33.9297C1.59089 34.4875 2.50281 34.4875 3.05994 33.9297L6.13474 30.8549ZM7.7241 0.652344H32.4593C33.5181 0.652344 34.3843 1.51846 34.3843 2.57734V4.49414H5.79841V2.57803C5.79841 1.51914 6.66521 0.652344 7.7241 0.652344ZM13.5743 1.87734C13.1901 1.87734 12.8784 2.18906 12.8784 2.57324C12.8784 2.95742 13.1901 3.26914 13.5743 3.26914C13.9585 3.26914 14.2702 2.95742 14.2702 2.57324C14.2702 2.18906 13.9585 1.87734 13.5743 1.87734ZM11.0245 1.87734C10.6403 1.87734 10.3286 2.18906 10.3286 2.57324C10.3286 2.95742 10.6403 3.26914 11.0245 3.26914C11.4087 3.26914 11.7204 2.95742 11.7204 2.57324C11.7204 2.18906 11.4087 1.87734 11.0245 1.87734ZM8.47468 1.87734C8.0905 1.87734 7.77878 2.18906 7.77878 2.57324C7.77878 2.95742 8.0905 3.26914 8.47468 3.26914C8.85886 3.26914 9.17058 2.95742 9.17058 2.57324C9.17058 2.18906 8.85955 1.87734 8.47468 1.87734ZM9.70378 29.2382C9.41257 29.1076 9.13025 28.96 8.85886 28.7966L8.824 28.8314C8.8616 28.9641 8.87595 29.1015 8.86775 29.2382H9.70378ZM5.79841 26.093C5.91052 26.093 6.02263 26.108 6.13064 26.1388L6.1655 26.1039C6.0322 25.8831 5.90984 25.6548 5.79841 25.4203V26.093ZM18.7935 9.6334V10.9363C17.9492 11.1047 17.1462 11.4375 16.4303 11.9159L15.5089 10.9944L13.6727 12.8306L14.5942 13.7521C14.4814 13.9216 14.3755 14.0966 14.2784 14.2771C15.2218 14.4411 16.1077 14.7727 16.9041 15.2396C17.5986 14.223 18.7676 13.5552 20.0917 13.5552C22.2224 13.5552 23.9499 15.2826 23.9499 17.4134C23.9499 19.3165 22.5724 20.897 20.7602 21.2135C20.9045 22.5943 20.6857 23.9608 20.147 25.1927H21.3898V23.8897C22.2342 23.7214 23.0372 23.3886 23.753 22.9102L24.6745 23.8316L26.5106 21.9955L25.5891 21.074C26.0588 20.3699 26.3971 19.5701 26.5687 18.7108H27.8717V16.1146H26.5687C26.4003 15.2702 26.0674 14.4673 25.5891 13.7514L26.5106 12.8299L24.6745 10.9938L23.753 11.9152C23.037 11.4371 22.2341 11.1043 21.3898 10.9356V9.63272H18.7935V9.6334Z" fill="black"/>
</g>
<defs>
<clipPath id="clip0_1998_14109">
<rect width="35" height="35" fill="white"/>
</clipPath>
</defs>
</svg>
