<svg width="54" height="54" viewBox="0 0 54 54" fill="none" xmlns="http://www.w3.org/2000/svg">
<path fill-rule="evenodd" clip-rule="evenodd" d="M37.4671 5.92917H44.5426C45.801 5.92917 46.8242 6.95242 46.8242 8.20649V50.1341C46.8242 51.3882 45.801 52.4114 44.5426 52.4114H9.45549C8.19707 52.4114 7.17383 51.3882 7.17383 50.1341V8.20649C7.17383 6.95242 8.19707 5.92917 9.45549 5.92917H16.531V9.09908H10.3437V49.2415H43.6543V9.09908H37.4671V5.92917ZM15.4775 37.4326H21.2121C21.3105 37.4326 21.4079 37.4519 21.4988 37.4896C21.5896 37.5272 21.6722 37.5824 21.7417 37.652C21.8113 37.7215 21.8664 37.8041 21.9041 37.8949C21.9417 37.9858 21.9611 38.0832 21.961 38.1816V43.9162C21.9611 44.0145 21.9417 44.1119 21.9041 44.2028C21.8664 44.2936 21.8113 44.3762 21.7417 44.4458C21.6722 44.5153 21.5896 44.5705 21.4987 44.6081C21.4079 44.6457 21.3105 44.6651 21.2121 44.6651H15.4775C15.3792 44.6651 15.2818 44.6457 15.1909 44.6081C15.1 44.5705 15.0175 44.5153 14.9479 44.4458C14.8784 44.3762 14.8232 44.2936 14.7856 44.2028C14.7479 44.1119 14.7285 44.0145 14.7285 43.9162V38.1816C14.7285 37.9829 14.8074 37.7924 14.9479 37.6519C15.0884 37.5115 15.2789 37.4326 15.4775 37.4326ZM15.4775 26.8829H21.2121C21.3105 26.8829 21.4079 26.9022 21.4987 26.9398C21.5896 26.9775 21.6722 27.0326 21.7417 27.1022C21.8113 27.1717 21.8664 27.2543 21.9041 27.3452C21.9417 27.436 21.9611 27.5334 21.961 27.6318V33.3664C21.9611 33.4647 21.9417 33.5621 21.9041 33.653C21.8664 33.7439 21.8113 33.8264 21.7417 33.896C21.6722 33.9655 21.5896 34.0207 21.4988 34.0584C21.4079 34.096 21.3105 34.1154 21.2121 34.1154H15.4775C15.2789 34.1154 15.0884 34.0365 14.9479 33.896C14.8074 33.7555 14.7285 33.565 14.7285 33.3664V27.6318C14.7285 27.5334 14.7479 27.436 14.7856 27.3452C14.8232 27.2543 14.8784 27.1717 14.9479 27.1022C15.0175 27.0326 15.1 26.9775 15.1909 26.9398C15.2818 26.9022 15.3792 26.8829 15.4775 26.8829ZM26.5331 39.8297C26.0656 39.8297 25.6861 39.4503 25.6861 38.9827C25.6861 38.5152 26.0656 38.1356 26.5331 38.1356H39.2695C39.737 38.1356 40.1166 38.5152 40.1166 38.9827C40.1166 39.4503 39.737 39.8297 39.2695 39.8297H26.5331ZM26.5331 29.2844C26.0656 29.2844 25.6861 28.9048 25.6861 28.4373C25.6861 27.9698 26.0656 27.5903 26.5331 27.5903H39.2695C39.737 27.5903 40.1166 27.9698 40.1166 28.4373C40.1166 28.9048 39.737 29.2844 39.2695 29.2844H26.5331ZM26.5331 33.4122C26.0656 33.4122 25.6861 33.0327 25.6861 32.5652C25.6861 32.0977 26.0656 31.7181 26.5331 31.7181H39.2695C39.737 31.7181 40.1166 32.0977 40.1166 32.5652C40.1166 33.0327 39.737 33.4122 39.2695 33.4122H26.5331ZM26.5331 43.9577C26.0656 43.9577 25.6861 43.5781 25.6861 43.1106C25.6861 42.6431 26.0656 42.2636 26.5331 42.2636H39.2695C39.737 42.2636 40.1166 42.6431 40.1166 43.1106C40.1166 43.5781 39.737 43.9577 39.2695 43.9577H26.5331ZM18.2251 5.08254C18.2251 4.94213 18.2809 4.80747 18.3801 4.70819C18.4794 4.6089 18.6141 4.55313 18.7545 4.55313H23.2326C23.6418 2.85064 25.1746 1.58789 26.999 1.58789C28.8235 1.58789 30.3562 2.85064 30.7655 4.55313H35.2436C35.384 4.55313 35.5186 4.6089 35.6179 4.70819C35.7172 4.80747 35.773 4.94213 35.773 5.08254V9.94561C35.773 10.086 35.7172 10.2207 35.6179 10.32C35.5186 10.4192 35.384 10.475 35.2436 10.475H18.7545C18.6141 10.475 18.4794 10.4192 18.3801 10.32C18.2809 10.2207 18.2251 10.086 18.2251 9.94561V5.08254ZM26.999 5.78983C27.5651 5.78983 28.0223 5.32829 28.0223 4.76658C28.0223 4.20043 27.5651 3.73889 26.999 3.73889C26.433 3.73889 25.9758 4.20043 25.9758 4.76658C25.9758 5.32829 26.433 5.78983 26.999 5.78983ZM26.999 11.646C30.9905 11.646 34.2255 14.881 34.2255 18.8724C34.2255 22.864 30.9905 26.0989 26.999 26.0989C23.0076 26.0989 19.7726 22.864 19.7726 18.8724C19.7726 14.881 23.0076 11.646 26.999 11.646ZM30.7078 22.7073C31.7104 21.7374 32.3337 20.3779 32.3337 18.8724C32.3337 15.926 29.9456 13.5378 26.999 13.5378C24.0524 13.5378 21.6644 15.926 21.6644 18.8724C21.6644 20.3779 22.2877 21.7374 23.2903 22.7073C24.0671 21.4778 25.438 20.6612 26.999 20.6612C28.5601 20.6612 29.9309 21.4778 30.7078 22.7073ZM26.999 19.4788C25.7787 19.4788 24.781 18.4811 24.781 17.2608C24.781 16.0405 25.7787 15.0428 26.999 15.0428C28.2193 15.0428 29.2171 16.0405 29.2171 17.2608C29.2171 18.4811 28.2193 19.4788 26.999 19.4788Z" fill="black"/>
</svg>
